<svg xmlns="http://www.w3.org/2000/svg" width="19.326" height="20.615" viewBox="0 0 19.326 20.615">
  <g id="download_1_" data-name="download (1)" transform="translate(-16)">
    <g id="Group_2958" data-name="Group 2958" transform="translate(20.509)">
      <g id="Group_2957" data-name="Group 2957">
        <path id="Path_3503" data-name="Path 3503" d="M138.247,9.4a.643.643,0,0,0-.586-.378h-2.577V.644A.644.644,0,0,0,134.44,0h-2.577a.644.644,0,0,0-.644.644V9.019h-2.577a.644.644,0,0,0-.484,1.068l4.509,5.154a.643.643,0,0,0,.969,0l4.509-5.154A.642.642,0,0,0,138.247,9.4Z" transform="translate(-127.998)" fill="#555"/>
      </g>
    </g>
    <g id="Group_2960" data-name="Group 2960" transform="translate(16 14.173)">
      <g id="Group_2959" data-name="Group 2959">
        <path id="Path_3504" data-name="Path 3504" d="M32.749,352v3.865H18.577V352H16v5.154a1.288,1.288,0,0,0,1.288,1.288H34.038a1.287,1.287,0,0,0,1.288-1.288V352Z" transform="translate(-16 -352)" fill="#555"/>
      </g>
    </g>
  </g>
</svg>
