<svg xmlns="http://www.w3.org/2000/svg" xmlns:xlink="http://www.w3.org/1999/xlink" width="25" height="36" viewBox="0 0 25 36">
  <defs>
    <clipPath id="clip-custom_1">
      <rect width="25" height="36"/>
    </clipPath>
  </defs>
  <g id="custom_1" data-name="custom – 1" clip-path="url(#clip-custom_1)">
    <rect width="25" height="36" fill="#fff"/>
    <g id="pdf">
      <path id="Path_3489" data-name="Path 3489" d="M24.827,34.138H0V0H19.241l5.586,5.586Zm0,0" fill="#e3e4d8"/>
      <path id="Path_3490" data-name="Path 3490" d="M273.656,0V5.586h5.586Zm0,0" transform="translate(-254.415)" fill="#d0cebd"/>
      <path id="Path_3491" data-name="Path 3491" d="M0,353.1H24.827v11.173H0Zm0,0" transform="translate(0 -328.275)" fill="#b53438"/>
      <g id="Group_2950" data-name="Group 2950" transform="translate(3.103 26.69)">
        <path id="Path_3492" data-name="Path 3492" d="M44.757,387.035a.621.621,0,0,1-.621-.62v-6.207a.621.621,0,0,1,1.241,0v6.207A.621.621,0,0,1,44.757,387.035Zm0,0" transform="translate(-44.137 -379.586)" fill="#fff"/>
        <path id="Path_3493" data-name="Path 3493" d="M242.689,380.827h-3.724a.621.621,0,0,1,0-1.241h3.724a.621.621,0,0,1,0,1.241Zm0,0" transform="translate(-224.689 -379.586)" fill="#fff"/>
        <path id="Path_3494" data-name="Path 3494" d="M242.689,424.964h-3.724a.621.621,0,1,1,0-1.241h3.724a.621.621,0,0,1,0,1.241Zm0,0" transform="translate(-224.689 -420.619)" fill="#fff"/>
        <path id="Path_3495" data-name="Path 3495" d="M238.965,387.035a.621.621,0,0,1-.621-.62v-6.207a.621.621,0,1,1,1.241,0v6.207A.621.621,0,0,1,238.965,387.035Zm0,0" transform="translate(-224.689 -379.586)" fill="#fff"/>
      </g>
      <path id="Path_3496" data-name="Path 3496" d="M85.823,80.552a1.452,1.452,0,0,0,.06,1.964c.587-1.292-.033-1.973-.06-1.964m.376,5.17a43.288,43.288,0,0,1-1.654,4.62,31.207,31.207,0,0,1,4.018-1.234A20.9,20.9,0,0,1,86.2,85.722m4.62,4.02c.5.383.627.577.957.577a.788.788,0,0,0,.89-.522c-.076-.04-.177-.12-.727-.12a9.07,9.07,0,0,0-1.12.066m-8.434,2.714c-1.322.733-1.861,1.336-1.9,1.676-.006.057-.023.2.266.423.093-.029.631-.271,1.633-2.1m-1.647,3.131a1,1,0,0,1-.6-.2,1.459,1.459,0,0,1-.69-1.371c.112-.994,1.357-2.035,3.7-3.1a40.679,40.679,0,0,0,2.343-6.567c-.617-1.327-1.217-3.048-.78-4.058a1.181,1.181,0,0,1,.7-.743,3.115,3.115,0,0,1,.629-.1c.325,0,.636.387.786.639a2.515,2.515,0,0,1,.236,1.537,13.628,13.628,0,0,1-.23,1.519c-.073.369-.156.736-.244,1.1a19.5,19.5,0,0,0,3.146,4.618,12.206,12.206,0,0,1,2.078-.218c.968,0,1.555.223,1.794.681a1.223,1.223,0,0,1-.241,1.32A1.647,1.647,0,0,1,92,91.374a4.128,4.128,0,0,1-2.605-1.4,29.936,29.936,0,0,0-5.46,1.724,17.283,17.283,0,0,1-1.474,2.6c-.633.879-1.179,1.288-1.721,1.288" transform="translate(-73.855 -73.863)" fill="#b53438"/>
      <path id="Path_3497" data-name="Path 3497" d="M46.62,384.551H44.757a.621.621,0,0,1-.621-.621v-3.724a.621.621,0,0,1,.621-.621H46.62a2.483,2.483,0,0,1,0,4.966Zm-1.241-1.241H46.62a1.241,1.241,0,0,0,0-2.483H45.378Zm0,0" transform="translate(-41.033 -352.896)" fill="#fff"/>
      <path id="Path_3498" data-name="Path 3498" d="M142.483,387.035h-.621a.621.621,0,0,1-.621-.62v-6.207a.621.621,0,0,1,.621-.621h.621a3.724,3.724,0,1,1,0,7.448Zm0-1.241h.006Zm0-4.966v4.966a2.483,2.483,0,0,0,0-4.966Zm0,0" transform="translate(-131.311 -352.897)" fill="#fff"/>
    </g>
  </g>
</svg>
