<svg xmlns="http://www.w3.org/2000/svg" width="115" height="83.5" viewBox="0 0 115 83.5">
  <g id="book_3_" data-name="book (3)" transform="translate(0 -67.93)">
    <g id="Group_1230" data-name="Group 1230" transform="translate(0 79.091)">
      <path id="Path_2849" data-name="Path 2849" d="M109.435,116.07H5.565A5.571,5.571,0,0,0,0,121.635v61.21a5.571,5.571,0,0,0,5.565,5.565H109.435A5.571,5.571,0,0,0,115,182.844v-61.21A5.571,5.571,0,0,0,109.435,116.07Z" transform="translate(0 -116.07)" fill="#ff4f19"/>
    </g>
    <g id="Group_1231" data-name="Group 1231" transform="translate(51.935 142.156)">
      <rect id="Rectangle_695" data-name="Rectangle 695" width="11.129" height="9.274" transform="translate(0 0)" fill="#e3001e"/>
    </g>
    <g id="Group_1232" data-name="Group 1232" transform="translate(7.47 131.027)">
      <path id="Path_2850" data-name="Path 2850" d="M132.38,345.635V351.2a1.855,1.855,0,0,1-1.855,1.855H34.074a1.855,1.855,0,0,1-1.855-1.855v-5.565L43.3,340.07l44.516,1.855,37.1-1.855Z" transform="translate(-32.219 -340.07)" fill="#e6be8a"/>
    </g>
    <g id="Group_1233" data-name="Group 1233" transform="translate(7.47 67.93)">
      <path id="Path_2851" data-name="Path 2851" d="M34.821,139.152A58.812,58.812,0,0,1,82.3,140.3V73.527a58.811,58.811,0,0,0-48.979-.5,1.879,1.879,0,0,0-1.1,1.714v62.72A1.862,1.862,0,0,0,34.821,139.152Z" transform="translate(-32.219 -67.93)" fill="#ffebb7"/>
    </g>
    <g id="Group_1234" data-name="Group 1234" transform="translate(57.551 67.93)">
      <path id="Path_2852" data-name="Path 2852" d="M248.219,140.3a58.811,58.811,0,0,1,47.478-1.149,1.862,1.862,0,0,0,2.6-1.7V74.736a1.879,1.879,0,0,0-1.1-1.714,58.811,58.811,0,0,0-48.979.5Z" transform="translate(-248.219 -67.93)" fill="#ffd788"/>
    </g>
    <g id="Group_1236" data-name="Group 1236" transform="translate(63.115 123.024)">
      <g id="Group_1235" data-name="Group 1235" transform="translate(0 0)">
        <path id="Path_2853" data-name="Path 2853" d="M274.073,310.718a1.855,1.855,0,0,1-.556-3.625c1.877-.59,3.808-1.093,5.74-1.5a1.855,1.855,0,0,1,.761,3.63c-1.815.38-3.628.854-5.389,1.407A1.868,1.868,0,0,1,274.073,310.718Z" transform="translate(-272.218 -305.555)" fill="#868491"/>
      </g>
    </g>
    <g id="Group_1238" data-name="Group 1238" transform="translate(76.099 121.773)">
      <g id="Group_1237" data-name="Group 1237" transform="translate(0 0)">
        <path id="Path_2854" data-name="Path 2854" d="M352.331,306.573a1.86,1.86,0,0,1-.556-.086,56.63,56.63,0,0,0-21.555-2.44,1.855,1.855,0,1,1-.293-3.7,60.439,60.439,0,0,1,22.961,2.6,1.855,1.855,0,0,1-.556,3.625Z" transform="translate(-328.218 -300.159)" fill="#868491"/>
      </g>
    </g>
    <g id="Group_1240" data-name="Group 1240" transform="translate(63.115 114.32)">
      <g id="Group_1239" data-name="Group 1239" transform="translate(0 0)">
        <path id="Path_2855" data-name="Path 2855" d="M309.316,274.439a1.861,1.861,0,0,1-.556-.086,56.676,56.676,0,0,0-34.13,0,1.855,1.855,0,1,1-1.112-3.539,60.376,60.376,0,0,1,36.354,0,1.855,1.855,0,0,1-.556,3.625Z" transform="translate(-272.219 -268.012)" fill="#868491"/>
      </g>
    </g>
    <g id="Group_1242" data-name="Group 1242" transform="translate(63.115 106.936)">
      <g id="Group_1241" data-name="Group 1241" transform="translate(0 0)">
        <path id="Path_2856" data-name="Path 2856" d="M274.073,242.579a1.855,1.855,0,0,1-.556-3.625,60.588,60.588,0,0,1,21.048-2.72,1.855,1.855,0,0,1-.178,3.706,56.83,56.83,0,0,0-19.758,2.553A1.866,1.866,0,0,1,274.073,242.579Z" transform="translate(-272.218 -236.166)" fill="#868491"/>
      </g>
    </g>
    <g id="Group_1244" data-name="Group 1244" transform="translate(90.936 107.826)">
      <g id="Group_1243" data-name="Group 1243" transform="translate(0 0)">
        <path id="Path_2857" data-name="Path 2857" d="M401.488,245.528a1.86,1.86,0,0,1-.556-.086,57.148,57.148,0,0,0-7.187-1.754,1.855,1.855,0,0,1,.645-3.654,61.007,61.007,0,0,1,7.655,1.869,1.855,1.855,0,0,1-.556,3.625Z" transform="translate(-392.212 -240.005)" fill="#868491"/>
      </g>
    </g>
    <g id="Group_1246" data-name="Group 1246" transform="translate(63.115 99.481)">
      <g id="Group_1245" data-name="Group 1245">
        <path id="Path_2858" data-name="Path 2858" d="M309.316,210.439a1.861,1.861,0,0,1-.556-.086,56.676,56.676,0,0,0-34.13,0,1.855,1.855,0,1,1-1.112-3.539,60.376,60.376,0,0,1,36.354,0,1.855,1.855,0,0,1-.556,3.625Z" transform="translate(-272.219 -204.012)" fill="#868491"/>
      </g>
    </g>
    <g id="Group_1248" data-name="Group 1248" transform="translate(63.115 92.433)">
      <g id="Group_1247" data-name="Group 1247" transform="translate(0 0)">
        <path id="Path_2859" data-name="Path 2859" d="M274.073,179.67a1.855,1.855,0,0,1-.556-3.625A60.742,60.742,0,0,1,285,173.628a1.854,1.854,0,1,1,.409,3.686,57.075,57.075,0,0,0-10.779,2.27A1.869,1.869,0,0,1,274.073,179.67Z" transform="translate(-272.218 -173.615)" fill="#868491"/>
      </g>
    </g>
    <g id="Group_1250" data-name="Group 1250" transform="translate(81.665 92.079)">
      <g id="Group_1249" data-name="Group 1249">
        <path id="Path_2860" data-name="Path 2860" d="M370.773,178.5a1.86,1.86,0,0,1-.556-.086,56.853,56.853,0,0,0-16.165-2.61,1.855,1.855,0,1,1,.058-3.71,60.61,60.61,0,0,1,17.219,2.78,1.856,1.856,0,0,1-.556,3.626Z" transform="translate(-352.226 -172.089)" fill="#868491"/>
      </g>
    </g>
    <g id="Group_1252" data-name="Group 1252" transform="translate(63.115 84.672)">
      <g id="Group_1251" data-name="Group 1251" transform="translate(0 0)">
        <path id="Path_2861" data-name="Path 2861" d="M274.073,146.56a1.855,1.855,0,0,1-.556-3.625,60.254,60.254,0,0,1,24.874-2.416,1.855,1.855,0,0,1,1.639,2.048,1.831,1.831,0,0,1-2.049,1.638,56.614,56.614,0,0,0-23.352,2.27A1.859,1.859,0,0,1,274.073,146.56Z" transform="translate(-272.218 -140.142)" fill="#868491"/>
      </g>
    </g>
    <g id="Group_1254" data-name="Group 1254" transform="translate(94.647 86.347)">
      <g id="Group_1253" data-name="Group 1253" transform="translate(0 0)">
        <path id="Path_2862" data-name="Path 2862" d="M413.781,152.107a1.861,1.861,0,0,1-.556-.086c-1.177-.371-2.386-.706-3.594-1a1.855,1.855,0,0,1,.88-3.6c1.284.313,2.57.672,3.826,1.066a1.855,1.855,0,0,1-.556,3.625Z" transform="translate(-408.216 -147.363)" fill="#868491"/>
      </g>
    </g>
    <g id="Group_1256" data-name="Group 1256" transform="translate(63.115 78.906)">
      <g id="Group_1255" data-name="Group 1255">
        <path id="Path_2863" data-name="Path 2863" d="M274.073,120.014a1.855,1.855,0,0,1-.554-3.625c1.275-.4,2.561-.758,3.824-1.065a1.855,1.855,0,1,1,.877,3.6c-1.185.288-2.393.624-3.592,1A1.857,1.857,0,0,1,274.073,120.014Z" transform="translate(-272.218 -115.27)" fill="#868491"/>
      </g>
    </g>
    <g id="Group_1258" data-name="Group 1258" transform="translate(74.244 77.231)">
      <g id="Group_1257" data-name="Group 1257" transform="translate(0 0)">
        <path id="Path_2864" data-name="Path 2864" d="M346.185,114.467a1.86,1.86,0,0,1-.556-.086,56.63,56.63,0,0,0-23.352-2.27,1.854,1.854,0,1,1-.409-3.686,60.263,60.263,0,0,1,24.874,2.416,1.855,1.855,0,0,1-.556,3.625Z" transform="translate(-320.217 -108.049)" fill="#868491"/>
      </g>
    </g>
    <g id="Group_1260" data-name="Group 1260" transform="translate(13.034 123.024)">
      <g id="Group_1259" data-name="Group 1259" transform="translate(0 0)">
        <path id="Path_2865" data-name="Path 2865" d="M58.073,310.718a1.855,1.855,0,0,1-.556-3.625c1.877-.59,3.808-1.093,5.74-1.5a1.855,1.855,0,0,1,.761,3.63c-1.815.38-3.628.854-5.389,1.407A1.868,1.868,0,0,1,58.073,310.718Z" transform="translate(-56.218 -305.555)" fill="#b4b6bc"/>
      </g>
    </g>
    <g id="Group_1262" data-name="Group 1262" transform="translate(26.018 121.773)">
      <g id="Group_1261" data-name="Group 1261" transform="translate(0 0)">
        <path id="Path_2866" data-name="Path 2866" d="M136.331,306.573a1.86,1.86,0,0,1-.556-.086,56.626,56.626,0,0,0-21.555-2.44,1.855,1.855,0,1,1-.293-3.7,60.443,60.443,0,0,1,22.961,2.6,1.855,1.855,0,0,1-.556,3.625Z" transform="translate(-112.218 -300.159)" fill="#b4b6bc"/>
      </g>
    </g>
    <g id="Group_1264" data-name="Group 1264" transform="translate(13.035 114.32)">
      <g id="Group_1263" data-name="Group 1263" transform="translate(0 0)">
        <path id="Path_2867" data-name="Path 2867" d="M93.316,274.439a1.861,1.861,0,0,1-.556-.086,56.676,56.676,0,0,0-34.13,0,1.855,1.855,0,0,1-1.112-3.539,60.376,60.376,0,0,1,36.354,0,1.855,1.855,0,0,1-.556,3.625Z" transform="translate(-56.219 -268.012)" fill="#b4b6bc"/>
      </g>
    </g>
    <g id="Group_1266" data-name="Group 1266" transform="translate(13.034 106.936)">
      <g id="Group_1265" data-name="Group 1265" transform="translate(0 0)">
        <path id="Path_2868" data-name="Path 2868" d="M58.073,242.579a1.855,1.855,0,0,1-.556-3.625,60.6,60.6,0,0,1,21.048-2.72,1.855,1.855,0,0,1-.178,3.706,56.825,56.825,0,0,0-19.758,2.553A1.866,1.866,0,0,1,58.073,242.579Z" transform="translate(-56.218 -236.166)" fill="#b4b6bc"/>
      </g>
    </g>
    <g id="Group_1268" data-name="Group 1268" transform="translate(40.856 107.826)">
      <g id="Group_1267" data-name="Group 1267" transform="translate(0 0)">
        <path id="Path_2869" data-name="Path 2869" d="M185.488,245.528a1.86,1.86,0,0,1-.556-.086,57.149,57.149,0,0,0-7.188-1.754,1.855,1.855,0,0,1,.645-3.654,61.008,61.008,0,0,1,7.655,1.869,1.855,1.855,0,0,1-.556,3.625Z" transform="translate(-176.212 -240.005)" fill="#b4b6bc"/>
      </g>
    </g>
    <g id="Group_1270" data-name="Group 1270" transform="translate(13.034 99.496)">
      <g id="Group_1269" data-name="Group 1269">
        <path id="Path_2870" data-name="Path 2870" d="M58.073,210.487a1.855,1.855,0,0,1-.556-3.625A60.677,60.677,0,0,1,90.044,205.8a1.855,1.855,0,1,1-.877,3.6,56.927,56.927,0,0,0-30.538,1A1.869,1.869,0,0,1,58.073,210.487Z" transform="translate(-56.218 -204.075)" fill="#b4b6bc"/>
      </g>
    </g>
    <g id="Group_1272" data-name="Group 1272" transform="translate(13.034 92.433)">
      <g id="Group_1271" data-name="Group 1271" transform="translate(0 0)">
        <path id="Path_2871" data-name="Path 2871" d="M58.073,179.67a1.855,1.855,0,0,1-.556-3.625A60.742,60.742,0,0,1,69,173.628a1.854,1.854,0,1,1,.409,3.686,57.075,57.075,0,0,0-10.779,2.27A1.869,1.869,0,0,1,58.073,179.67Z" transform="translate(-56.218 -173.615)" fill="#b4b6bc"/>
      </g>
    </g>
    <g id="Group_1274" data-name="Group 1274" transform="translate(31.585 92.079)">
      <g id="Group_1273" data-name="Group 1273">
        <path id="Path_2872" data-name="Path 2872" d="M151.065,177.464a1.875,1.875,0,0,1-.44-.053,56.973,56.973,0,0,0-12.573-1.61,1.855,1.855,0,0,1-1.826-1.884,1.8,1.8,0,0,1,1.884-1.826,60.755,60.755,0,0,1,13.391,1.715,1.855,1.855,0,0,1-.437,3.657Z" transform="translate(-136.226 -172.088)" fill="#b4b6bc"/>
      </g>
    </g>
    <g id="Group_1276" data-name="Group 1276" transform="translate(13.034 84.672)">
      <g id="Group_1275" data-name="Group 1275" transform="translate(0 0)">
        <path id="Path_2873" data-name="Path 2873" d="M58.073,146.56a1.855,1.855,0,0,1-.556-3.625,60.26,60.26,0,0,1,24.874-2.416,1.855,1.855,0,0,1,1.639,2.048,1.835,1.835,0,0,1-2.049,1.638,56.614,56.614,0,0,0-23.352,2.27A1.859,1.859,0,0,1,58.073,146.56Z" transform="translate(-56.218 -140.142)" fill="#b4b6bc"/>
      </g>
    </g>
    <g id="Group_1278" data-name="Group 1278" transform="translate(13.034 78.906)">
      <g id="Group_1277" data-name="Group 1277">
        <path id="Path_2874" data-name="Path 2874" d="M58.073,120.014a1.855,1.855,0,0,1-.554-3.625c1.275-.4,2.561-.758,3.824-1.065a1.855,1.855,0,1,1,.877,3.6c-1.185.288-2.393.624-3.592,1A1.857,1.857,0,0,1,58.073,120.014Z" transform="translate(-56.218 -115.27)" fill="#b4b6bc"/>
      </g>
    </g>
    <g id="Group_1280" data-name="Group 1280" transform="translate(24.163 77.234)">
      <g id="Group_1279" data-name="Group 1279" transform="translate(0 0)">
        <path id="Path_2875" data-name="Path 2875" d="M126.477,113.442a1.875,1.875,0,0,1-.44-.053,56.82,56.82,0,0,0-19.76-1.269,1.854,1.854,0,1,1-.409-3.686,60.457,60.457,0,0,1,21.046,1.35,1.855,1.855,0,0,1-.436,3.657Z" transform="translate(-104.217 -108.06)" fill="#b4b6bc"/>
      </g>
    </g>
    <g id="Group_1281" data-name="Group 1281" transform="translate(46.417 68.832)">
      <path id="Path_2876" data-name="Path 2876" d="M200.2,105.266a.928.928,0,0,0,1.442.772l4.123-2.748,4.123,2.748a.927.927,0,0,0,1.442-.772V76.671a1.868,1.868,0,0,0-1.1-1.707,58.725,58.725,0,0,0-8.871-3.111.936.936,0,0,0-1.166.908Z" transform="translate(-200.197 -71.823)" fill="#5d647f"/>
    </g>
  </g>
</svg>
