<svg xmlns="http://www.w3.org/2000/svg" width="90.677" height="90.775" viewBox="0 0 90.677 90.775">
  <g id="Page-1" transform="translate(-0.068 -0.006)">
    <g id="_030---Messy-Books" data-name="030---Messy-Books" transform="translate(0.068 0.006)">
      <path id="Shape" d="M8.916,75.7.228,26.377a10.958,10.958,0,0,1-.157-1.44A11.2,11.2,0,0,1,9.479,13.619L26.245,10.66,25.791,75.7Z" transform="translate(-0.068 6.017)" fill="#35495e"/>
      <path id="Shape-2" data-name="Shape" d="M70.3,54.607a3.131,3.131,0,0,1-2.489,2.348l-49.341,8.7A10.975,10.975,0,0,1,5.621,55.327,11.179,11.179,0,0,1,14.4,44.15l13.822,3.882H28.21L15.765,50.239a4.7,4.7,0,0,0-3.569,6.34,4.837,4.837,0,0,0,5.385,2.88l37.711-6.653Z" transform="translate(3.07 24.952)" fill="#2c3e50"/>
      <path id="Shape-3" data-name="Shape" d="M25.95,46.63,13.5,48.837a4.7,4.7,0,0,0-3.569,6.34,4.837,4.837,0,0,0,5.385,2.88L53.031,51.4Z" transform="translate(5.33 26.355)" fill="#f9eab0"/>
      <path id="Shape-4" data-name="Shape" d="M12.826,51.922l8.7-49.332A3.153,3.153,0,0,1,25.152.051L74.113,8.684A11.213,11.213,0,0,1,83.529,20.01a11.193,11.193,0,0,1-.157,1.434l-8.7,49.332Z" transform="translate(7.145 -0.006)" fill="#e64c3c"/>
      <path id="Shape-5" data-name="Shape" d="M58.774,13.855a1.618,1.618,0,0,1-.274-.023L23.042,7.579A1.565,1.565,0,0,1,23.587,4.5l35.456,6.244a1.565,1.565,0,0,1-.269,3.107Z" transform="translate(12.248 2.531)" fill="#3f5c6c"/>
      <path id="Shape-6" data-name="Shape" d="M49.534,17.3a1.487,1.487,0,0,1-.274-.025L26.136,13.2a1.565,1.565,0,0,1,.543-3.082L49.8,14.19a1.565,1.565,0,0,1-.271,3.109Z" transform="translate(13.962 5.702)" fill="#3f5c6c"/>
      <rect id="Rectangle-path" width="36.004" height="18.785" rx="1" transform="matrix(0.985, 0.174, -0.174, 0.985, 32.842, 24.001)" fill="#ecf0f1"/>
      <path id="Shape-7" data-name="Shape" d="M65.549,16.941a10.4,10.4,0,0,1-.157,1.44l-8.7,49.326L44.62,64.029l7-39.667L53.277,15l1.691-9.58,1.174.2a11.215,11.215,0,0,1,9.408,11.318Z" transform="translate(25.122 3.054)" fill="#c03a2b"/>
      <path id="Shape-8" data-name="Shape" d="M66.415,40.192,17.45,31.567a3.237,3.237,0,0,0-.548-.047,3.131,3.131,0,0,0-.532,6.215L65.7,46.423a4.717,4.717,0,0,1,3.553,6.356,4.807,4.807,0,0,1-5.369,2.865L14.742,46.986a3.237,3.237,0,0,0-.548-.047,3.131,3.131,0,0,0-.548,6.215l49.341,8.688A10.969,10.969,0,0,0,75.839,51.526a11.233,11.233,0,0,0-9.424-11.334Z" transform="translate(6.144 17.811)" fill="#802f34"/>
      <path id="Shape-9" data-name="Shape" d="M67.917,50.534A4.807,4.807,0,0,1,62.548,53.4L13.41,44.742l1.628-9.252,49.326,8.688a4.717,4.717,0,0,1,3.553,6.356Z" transform="translate(7.475 20.056)" fill="#f9eab0"/>
    </g>
  </g>
</svg>
