<svg xmlns="http://www.w3.org/2000/svg" width="83.244" height="83.244" viewBox="0 0 83.244 83.244">
  <g id="study" transform="translate(-1 -1)">
    <g id="Group_1228" data-name="Group 1228" transform="translate(2.343 2.343)">
      <g id="Group_1216" data-name="Group 1216" transform="translate(21.482 5.371)">
        <path id="Path_2827" data-name="Path 2827" d="M29.157,6a2.316,2.316,0,0,0-.806.148L18,10.028l9.4,9.4,3.88-10.352a2.316,2.316,0,0,0,.148-.806A2.275,2.275,0,0,0,29.157,6Z" transform="translate(-18 -6)" fill="#aab2bd"/>
      </g>
      <g id="Group_1217" data-name="Group 1217" transform="translate(9.399 9.399)">
        <path id="Path_2828" data-name="Path 2828" d="M25.783,13.7,18.4,21.084H9l4.028-4.028L21.084,9Z" transform="translate(-9 -9)" fill="#fcd770"/>
      </g>
      <g id="Group_1218" data-name="Group 1218" transform="translate(18.797 14.098)">
        <path id="Path_2829" data-name="Path 2829" d="M28.084,17.2,25.4,19.885H16L23.385,12.5Z" transform="translate(-16 -12.5)" fill="#ff826e"/>
      </g>
      <g id="Group_1219" data-name="Group 1219" transform="translate(2.685 0)">
        <path id="Path_2830" data-name="Path 2830" d="M14.741,3.343V19.454l-4.028,4.028H4V3.343A1.347,1.347,0,0,1,5.343,2H13.4A1.347,1.347,0,0,1,14.741,3.343Z" transform="translate(-4 -2)" fill="#e6e9ed"/>
      </g>
      <g id="Group_1220" data-name="Group 1220" transform="translate(2.685 26.853)">
        <path id="Path_2831" data-name="Path 2831" d="M28.168,22v5.371H24.14A1.347,1.347,0,0,0,22.8,28.713v1.343H18.769A1.347,1.347,0,0,0,17.426,31.4v1.343H13.4a1.347,1.347,0,0,0-1.343,1.343V51.538H9.371A5.369,5.369,0,0,1,4,46.168V22Z" transform="translate(-4 -22)" fill="#dfb28b"/>
      </g>
      <g id="Group_1221" data-name="Group 1221" transform="translate(0 21.482)">
        <path id="Path_2832" data-name="Path 2832" d="M31.538,19.343v2.685A1.347,1.347,0,0,1,30.2,23.371H3.343A1.347,1.347,0,0,1,2,22.028V19.343A1.347,1.347,0,0,1,3.343,18H30.2A1.347,1.347,0,0,1,31.538,19.343Z" transform="translate(-2 -18)" fill="#cf9e76"/>
      </g>
      <g id="Group_1222" data-name="Group 1222" transform="translate(60.419 42.965)">
        <path id="Path_2833" data-name="Path 2833" d="M55.056,34,53.9,40.928a1.342,1.342,0,0,1-1.329,1.128H49.484a1.342,1.342,0,0,1-1.329-1.128L47,34Z" transform="translate(-47 -34)" fill="#aab2bd"/>
      </g>
      <g id="Group_1223" data-name="Group 1223" transform="translate(10.741 37.594)">
        <path id="Path_2834" data-name="Path 2834" d="M79.818,31.343V68.937a1.347,1.347,0,0,1-1.343,1.343H51.622l-.148.282a4.334,4.334,0,0,1-7.76,0l-.148-.282H11.343A1.347,1.347,0,0,1,10,68.937V31.343A1.347,1.347,0,0,1,11.343,30h4.028V63.566a1.347,1.347,0,0,0,1.343,1.343H73.1a1.347,1.347,0,0,0,1.343-1.343V30h4.028A1.347,1.347,0,0,1,79.818,31.343Z" transform="translate(-10 -30)" fill="#b4dd7f"/>
      </g>
      <g id="Group_1224" data-name="Group 1224" transform="translate(16.112 34.909)">
        <path id="Path_2835" data-name="Path 2835" d="M46.224,62.909v2.685H15.343A1.347,1.347,0,0,1,14,64.251V29.343A1.347,1.347,0,0,1,15.343,28h4.028V60.224H40.2A8.046,8.046,0,0,1,45.9,62.587Z" transform="translate(-14 -28)" fill="#f0d0b4"/>
      </g>
      <g id="Group_1225" data-name="Group 1225" transform="translate(21.482 32.224)">
        <path id="Path_2836" data-name="Path 2836" d="M70.363,28.685H44.853l-.322-.322A8.046,8.046,0,0,0,38.824,26H19.343A1.347,1.347,0,0,0,18,27.343V60.909H38.824a8.046,8.046,0,0,1,5.706,2.363l.322.322v2.685h25.51a1.347,1.347,0,0,0,1.343-1.343V30.028A1.347,1.347,0,0,0,70.363,28.685Z" transform="translate(-18 -26)" fill="#e6e9ed"/>
      </g>
      <g id="Group_1226" data-name="Group 1226" transform="translate(26.853 37.594)">
        <path id="Path_2837" data-name="Path 2837" d="M22,30H38.112v8.056H22Z" transform="translate(-22 -30)" fill="#ff826e"/>
      </g>
      <g id="Group_1227" data-name="Group 1227" transform="translate(59.076 0)">
        <path id="Path_2838" data-name="Path 2838" d="M54.056,2H48.685A2.693,2.693,0,0,0,46,4.685V43.622a1.347,1.347,0,0,0,1.343,1.343H55.4a1.347,1.347,0,0,0,1.343-1.343V4.685A2.693,2.693,0,0,0,54.056,2Z" transform="translate(-46 -2)" fill="#fcd770"/>
      </g>
    </g>
    <g id="Group_1229" data-name="Group 1229" transform="translate(1 1)">
      <path id="Path_2839" data-name="Path 2839" d="M81.559,38.594H78.874a2.688,2.688,0,0,0-2.685-2.685H73.5V24.655l1.943.972a1.334,1.334,0,0,1,.742,1.2v3.711h2.685V26.827a4.007,4.007,0,0,0-2.226-3.6l-1.485-.742,1.484-.742a4,4,0,0,0,2.227-3.6V12.5a4.025,4.025,0,0,0-3.05-3.908l-2.32-.58V5.028A4.033,4.033,0,0,0,69.475,1H64.1a4.033,4.033,0,0,0-4.028,4.028V35.909H51.234a9.337,9.337,0,0,0-6.578-2.685H30.538V30.538a2.688,2.688,0,0,0,2.685-2.685V25.168a2.665,2.665,0,0,0-.536-1.594l1.69-1.69,3.985-10.628a3.613,3.613,0,0,0-3.385-4.885,3.633,3.633,0,0,0-1.27.23L23.081,10.586l-5.969,5.969V3.685A2.688,2.688,0,0,0,14.426,1H6.371A2.688,2.688,0,0,0,3.685,3.685v18.8A2.688,2.688,0,0,0,1,25.168v2.685a2.688,2.688,0,0,0,2.685,2.685V53.363A6.721,6.721,0,0,0,10.4,60.076h1.343v18.8a2.688,2.688,0,0,0,2.685,2.685H45.847a5.688,5.688,0,0,0,9.662,0h26.05a2.688,2.688,0,0,0,2.685-2.685V41.279a2.688,2.688,0,0,0-2.685-2.685ZM65.242,52.021l-.9-5.371h4.886l-.9,5.371Zm5.577-8.056H62.762V19.8h8.057Zm4.352-32.773a1.343,1.343,0,0,1,1.018,1.3v5.643a1.334,1.334,0,0,1-.742,1.2L73.5,20.31V10.776ZM64.1,3.685h5.371a1.345,1.345,0,0,1,1.343,1.343V17.112H62.762V5.028A1.345,1.345,0,0,1,64.1,3.685ZM61.576,46.363l1.016,6.1a2.677,2.677,0,0,0,2.649,2.244h.205v5.371h2.685V54.706h.205a2.677,2.677,0,0,0,2.649-2.245L72,46.361a2.678,2.678,0,0,0,1.5-2.4V38.594h2.685V73.5H52.021V38.594h8.056v5.371A2.682,2.682,0,0,0,61.576,46.363ZM44.656,70.818a6.655,6.655,0,0,1,4.679,1.912V73.5H19.8V38.594h2.685V70.818Zm4.679-33V69.386a9.336,9.336,0,0,0-4.679-1.254H25.168V35.909H44.656A6.665,6.665,0,0,1,49.335,37.819ZM26.248,12.266l4.074-1.528,3.9,3.9L32.7,18.715Zm.377,4.174-6.042,6.042h-5.6l8.843-8.843Zm1.9,1.9,2.8,2.8-1.343,1.343h-5.6Zm6.126-9.224a.932.932,0,0,1,1.2,1.2l-.588,1.567L33.084,9.7ZM6.371,19.8h5.371V17.112H6.371V14.426H9.056V11.741H6.371V9.056h5.371V6.371H6.371V3.685h8.056V19.241l-3.241,3.241H6.371ZM3.685,25.168H30.538v2.685H3.685Zm8.056,16.112V57.391H10.4a4.033,4.033,0,0,1-4.028-4.028V30.538H27.853v2.685H25.168a2.688,2.688,0,0,0-2.685,2.685H19.8a2.688,2.688,0,0,0-2.685,2.685H14.426a2.688,2.688,0,0,0-2.685,2.685ZM81.559,78.874H53.876L53.363,79.9a3,3,0,0,1-5.371,0l-.513-1.026H14.426V41.279h2.685V73.5A2.688,2.688,0,0,0,19.8,76.188H76.188A2.688,2.688,0,0,0,78.874,73.5V41.279h2.685Z" transform="translate(-1 -1)"/>
      <path id="Path_2840" data-name="Path 2840" d="M39.8,29H21V39.741H39.8Zm-2.685,8.056H23.685V31.685H37.112Z" transform="translate(5.853 8.594)"/>
      <path id="Path_2841" data-name="Path 2841" d="M21,39h5.371v2.685H21Z" transform="translate(5.853 12.021)"/>
      <path id="Path_2842" data-name="Path 2842" d="M27,39H37.741v2.685H27Z" transform="translate(7.909 12.021)"/>
      <path id="Path_2843" data-name="Path 2843" d="M21,43H39.8v2.685H21Z" transform="translate(5.853 13.391)"/>
      <path id="Path_2844" data-name="Path 2844" d="M21,47H39.8v2.685H21Z" transform="translate(5.853 14.762)"/>
      <path id="Path_2845" data-name="Path 2845" d="M41,47H59.8v2.685H41Z" transform="translate(12.706 14.762)"/>
      <path id="Path_2846" data-name="Path 2846" d="M41,51H59.8v2.685H41Z" transform="translate(12.706 16.132)"/>
      <path id="Path_2847" data-name="Path 2847" d="M41,43h8.056v2.685H41Z" transform="translate(12.706 13.391)"/>
      <path id="Path_2848" data-name="Path 2848" d="M41,39h5.371v2.685H41Z" transform="translate(12.706 12.021)"/>
    </g>
  </g>
</svg>
