<svg xmlns="http://www.w3.org/2000/svg" width="94.675" height="85.357" viewBox="0 0 94.675 85.357">
  <g id="Group_1216" data-name="Group 1216" transform="translate(-283.875 -3285)">
    <g id="Icon_1" data-name="Icon 1" transform="translate(-152.738 1800.692)">
      <g id="Group_51" data-name="Group 51" transform="translate(436.613 1484.308)">
        <path id="Path_23" data-name="Path 23" d="M108.085,64.381a26.746,26.746,0,0,0,.422-2.687A34.118,34.118,0,0,0,96.384,32.321C72.507,12.56,28.331,22.142,16.287,50.8c-4.936,11.744-1.213,25.33,4.995,36.493,2.875,5.167,6.351,10.152,11.134,13.747,8.325,6.258,19.86,7.535,30.065,5.019C80.541,101.608,104.159,83.265,108.085,64.381Z" transform="translate(-14.006 -21.908)" fill="#ef2a2a"/>
      </g>
      <path id="edit-tools_1_" data-name="edit-tools (1)" d="M6.5,7.346a1.3,1.3,0,0,1,1.3-1.3H25.482a1.3,1.3,0,0,1,0,2.6H7.8A1.3,1.3,0,0,1,6.5,7.346Zm20.282,5.2a1.3,1.3,0,0,0-1.3-1.3H7.8a1.3,1.3,0,1,0,0,2.6H25.482A1.3,1.3,0,0,0,26.782,12.547ZM7.8,16.447a1.3,1.3,0,0,0,0,2.6h5.981a1.3,1.3,0,0,0,0-2.6ZM32.141,26.626a3.9,3.9,0,0,1-5.517,5.515l-7.11-7.123a1.3,1.3,0,0,1-.333-.572L17.728,19.2a1.3,1.3,0,0,1,1.631-1.591l5.118,1.555a1.3,1.3,0,0,1,.542.326ZM21.6,23.423l4.779,4.788,1.839-1.839-4.806-4.816-2.544-.773Zm8.7,5.041-.25-.251-1.839,1.839.251.252A1.3,1.3,0,0,0,30.3,28.464ZM28.082,0H5.2A5.206,5.206,0,0,0,0,5.2V28.083a5.206,5.206,0,0,0,5.2,5.2H21.126a1.3,1.3,0,1,0,0-2.6H5.2a2.6,2.6,0,0,1-2.6-2.6V5.2A2.6,2.6,0,0,1,5.2,2.6H28.082a2.6,2.6,0,0,1,2.6,2.6V21.193a1.3,1.3,0,0,0,2.6,0V5.2a5.206,5.206,0,0,0-5.2-5.2Zm0,0" transform="translate(467.968 1509.147)" fill="#fff"/>
    </g>
  </g>
</svg>
