<svg xmlns="http://www.w3.org/2000/svg" width="94.324" height="85.041" viewBox="0 0 94.324 85.041">
  <g id="Group_1217" data-name="Group 1217" transform="translate(-283.875 -3657)">
    <g id="Icon_1" data-name="Icon 1" transform="translate(-152.738 2172.692)">
      <g id="Group_51" data-name="Group 51" transform="translate(436.613 1484.308)">
        <path id="Path_23" data-name="Path 23" d="M107.736,64.223a26.65,26.65,0,0,0,.421-2.677A33.991,33.991,0,0,0,96.078,32.283c-23.788-19.688-67.8-10.142-79.8,18.406-4.917,11.7-1.208,25.236,4.976,36.358,2.864,5.148,6.327,10.114,11.093,13.7,8.294,6.234,19.787,7.507,29.953,5C80.295,101.312,103.825,83.038,107.736,64.223Z" transform="translate(-14.006 -21.908)" fill="#f25d0f"/>
      </g>
    </g>
    <g id="miscellaneous" transform="translate(308.962 3676.061)">
      <path id="Path_2273" data-name="Path 2273" d="M.3,43.464l.6,1.358,21.657-8.98,3.773.453,1.358,4.15-1.811,1.736a2.175,2.175,0,0,0-.528,2.49l.755,1.886,12.526-4.9-.679-1.811a2.133,2.133,0,0,0-2.113-1.434h-2.49L31.99,35.164l3.32-1.66a2.268,2.268,0,0,0,1.132-2.792l-4.3-11.545A2.325,2.325,0,0,0,29.2,17.808a.074.074,0,0,0-.075.076l-3.169,1.358L25.5,18.11l1.736-2.037a8.88,8.88,0,0,0,2.188-4.829L31.613,8.6a3.963,3.963,0,0,0-.528-5.584,6.316,6.316,0,0,0-.905-.6,3.75,3.75,0,0,0-2.566-.226l-.227-.679A2.182,2.182,0,0,0,24.52.151L8.6,5.886A2.208,2.208,0,0,0,7.239,8.753v.076l.377.981a4.181,4.181,0,0,0-2.189,5.131A4.292,4.292,0,0,0,8.9,17.733l3.547.377A9.827,9.827,0,0,0,17.351,20l2.49.227.453,1.132a2.247,2.247,0,0,0-1.056,1.509l-.528,2.566L.3,32.9l.528,1.434L11.39,30.108l2.566,7.7ZM36.442,40.3l.151.452L26.934,44.6l-.226-.453a1.046,1.046,0,0,1,.151-.83L29.424,40.9l3.245-1.056h3.018a.757.757,0,0,1,.755.453Zm-4.754-1.811-2.717.906-.981-2.867A1.678,1.678,0,0,0,29.2,36.3l1.283-.6ZM29.651,19.016a.749.749,0,0,1,.981.377l.6,1.585-3.7,1.207.453,1.434,3.7-1.207.905,2.415-3.546,1.207.453,1.434,3.622-1.207.906,2.414-3.471,1.132.453,1.434,3.546-1.207.377.981a.666.666,0,0,1-.377.906l-5.961,2.943a.957.957,0,0,1-.453.076l-5.131-.6-2.792-8.376.528-2.792a.8.8,0,0,1,.453-.528ZM29.575,3.773a2.5,2.5,0,0,1,1.283,3.245,2.644,2.644,0,0,1-.377.6l-.906,1.132a11.278,11.278,0,0,0-.452-2.188l-.981-2.943a3.015,3.015,0,0,1,1.434.151ZM6.937,14.564A2.6,2.6,0,0,1,8.22,11.319l1.056,2.566a10.932,10.932,0,0,0,1.509,2.566L9.2,16.3a2.524,2.524,0,0,1-2.264-1.735Zm10.715,4a8.247,8.247,0,0,1-6.942-5.207L8.749,8.376a.748.748,0,0,1,.377-.981L25.048,1.66a.833.833,0,0,1,.6,0,.774.774,0,0,1,.377.453l1.66,4.98a8.3,8.3,0,0,1-1.584,8l-2.339,2.717.679,1.811-2.717,1.132-.755-1.886ZM12.823,29.5l1.735-.679,1.886,5.735,1.434-.453-1.962-5.886,3.018-1.207L21.5,34.636,15.389,37.2Zm0,0" transform="translate(0 0)" fill="#fff"/>
      <path id="Path_2274" data-name="Path 2274" d="M359.269,45.8v.755h1.509V45.8a3.737,3.737,0,0,1,3.773-3.773V40.52a3.736,3.736,0,0,1-3.773-3.773v-.755h-1.509v.755A3.736,3.736,0,0,1,355.5,40.52v1.509A3.736,3.736,0,0,1,359.269,45.8Zm.755-6.339a5.2,5.2,0,0,0,1.811,1.811,5.2,5.2,0,0,0-1.811,1.811,5.2,5.2,0,0,0-1.811-1.811A5.2,5.2,0,0,0,360.024,39.463Zm0,0" transform="translate(-321.695 -32.597)" fill="#fff"/>
      <path id="Path_2275" data-name="Path 2275" d="M7.269,205.8v.755H8.778V205.8a3.737,3.737,0,0,1,3.773-3.773V200.52a3.736,3.736,0,0,1-3.773-3.773v-.755H7.269v.755A3.736,3.736,0,0,1,3.5,200.52v1.509A3.736,3.736,0,0,1,7.269,205.8Zm.755-6.339a5.2,5.2,0,0,0,1.811,1.811,5.2,5.2,0,0,0-1.811,1.811,5.2,5.2,0,0,0-1.811-1.811A5.2,5.2,0,0,0,8.024,199.463Zm0,0" transform="translate(-2.897 -177.505)" fill="#fff"/>
      <path id="Path_2276" data-name="Path 2276" d="M392.778,196.747v-.755h-1.509v.755a3.736,3.736,0,0,1-3.773,3.773v1.509a3.736,3.736,0,0,1,3.773,3.773v.755h1.509V205.8a3.737,3.737,0,0,1,3.773-3.773V200.52A3.736,3.736,0,0,1,392.778,196.747Zm-.755,6.339a5.2,5.2,0,0,0-1.811-1.811,5.2,5.2,0,0,0,1.811-1.811,5.2,5.2,0,0,0,1.811,1.811A5.2,5.2,0,0,0,392.024,203.086Zm0,0" transform="translate(-350.677 -177.505)" fill="#fff"/>
      <path id="Path_2277" data-name="Path 2277" d="M236.447,49.651l1.056,1.056c4.15-4.15.3-10.489.076-10.715l-1.283.83c.076,0,3.471,5.509.151,8.829Zm0,0" transform="translate(-213.739 -36.22)" fill="#fff"/>
    </g>
  </g>
</svg>
