<svg id="Assesment_iocn" data-name="Assesment iocn" xmlns="http://www.w3.org/2000/svg" width="19.797" height="19.797" viewBox="0 0 19.797 19.797">
  <path id="Path_2197" data-name="Path 2197" d="M11.754,0H2.268A2.267,2.267,0,0,0,0,2.268V15.054a2.267,2.267,0,0,0,2.268,2.268H8.983a5.888,5.888,0,0,1-1.147-3.506,5.985,5.985,0,0,1,5.98-5.98,1.724,1.724,0,0,1,.206.008V2.268A2.267,2.267,0,0,0,11.754,0ZM3.3,3.3H6.6a.825.825,0,0,1,0,1.65H3.3a.825.825,0,1,1,0-1.65Zm4.124,8.249H3.3a.825.825,0,0,1,0-1.65H7.424a.825.825,0,1,1,0,1.65Zm3.3-3.3H3.3a.825.825,0,1,1,0-1.65h7.424a.825.825,0,1,1,0,1.65Z"/>
  <path id="Path_2198" data-name="Path 2198" d="M30.685,35.015a4.331,4.331,0,1,1,4.331-4.331A4.335,4.335,0,0,1,30.685,35.015Zm0-7.011a2.681,2.681,0,1,0,2.681,2.681A2.684,2.684,0,0,0,30.685,28Z" transform="translate(-16.868 -16.868)"/>
  <path id="Path_2199" data-name="Path 2199" d="M46.474,47.3a.823.823,0,0,1-.583-.242L43.21,44.376a.825.825,0,0,1,1.166-1.166l2.681,2.681a.825.825,0,0,1-.583,1.408Z" transform="translate(-27.502 -27.502)"/>
</svg>
