<svg xmlns="http://www.w3.org/2000/svg" width="88.374" height="79.677" viewBox="0 0 88.374 79.677">
  <g id="education_5_" data-name="education (5)" transform="translate(24.873 23.297)">
    <path id="Path_23_1_" d="M155.748,126.676a24.834,24.834,0,0,0,.394-2.509A31.847,31.847,0,0,0,144.826,96.75C122.539,78.3,81.3,87.248,70.059,113.995c-4.607,10.962-1.132,23.644,4.663,34.064,2.684,4.823,5.928,9.476,10.393,12.833,7.771,5.841,18.537,7.034,28.064,4.685C130.039,161.425,152.084,144.3,155.748,126.676Z" transform="translate(-92.804 -110.326)" fill="#49c788"/>
    <path id="Path_2120" data-name="Path 2120" d="M8.834,66.764V64.556A.552.552,0,0,0,8.281,64H.552A.552.552,0,0,0,0,64.556v2.208Zm0,0" transform="translate(0 -59.583)" fill="#fff"/>
    <path id="Path_2121" data-name="Path 2121" d="M0,120v18.219H8.834V120Zm6.625,7.177H2.208a.552.552,0,0,1-.552-.552v-4.417a.552.552,0,0,1,.552-.552H6.625a.552.552,0,0,1,.552.552v4.417A.552.552,0,0,1,6.625,127.181Zm0,0" transform="translate(0 -111.719)" fill="#fff"/>
    <path id="Path_2122" data-name="Path 2122" d="M0,432v2.761a.552.552,0,0,0,.552.552H8.281a.552.552,0,0,0,.552-.552V432Zm0,0" transform="translate(0 -402.187)" fill="#fff"/>
    <path id="Path_2123" data-name="Path 2123" d="M0,400H8.834v1.1H0Zm0,0" transform="translate(0 -372.395)" fill="#fff"/>
    <path id="Path_2124" data-name="Path 2124" d="M144,400h7.177v1.1H144Zm0,0" transform="translate(-134.062 -372.395)" fill="#fff"/>
    <path id="Path_2125" data-name="Path 2125" d="M151.177,2.212V.556A.552.552,0,0,0,150.625,0h-6.073A.552.552,0,0,0,144,.556V2.212Zm0,0" transform="translate(-134.062)" fill="#fff"/>
    <path id="Path_2126" data-name="Path 2126" d="M144,88h7.177v20.428H144Zm0,0" transform="translate(-134.062 -81.927)" fill="#fff"/>
    <path id="Path_2127" data-name="Path 2127" d="M144,432v2.761a.552.552,0,0,0,.552.552h6.073a.552.552,0,0,0,.552-.552V432Zm0,0" transform="translate(-134.062 -402.187)" fill="#fff"/>
    <path id="Path_2128" data-name="Path 2128" d="M144,48h7.177V49.66H144Zm0,0" transform="translate(-134.062 -44.687)" fill="#fff"/>
    <path id="Path_2129" data-name="Path 2129" d="M263.809,132.032l.3,1.134,9.35-2.493-.3-1.134Zm0,0" transform="translate(-245.603 -120.596)" fill="#fff"/>
    <path id="Path_2130" data-name="Path 2130" d="M322.67,357.7l9.35-2.493-.592-2.27-9.35,2.493Zm0,0" transform="translate(-299.85 -328.573)" fill="#fff"/>
    <path id="Path_2131" data-name="Path 2131" d="M284.647,173.6l-3.168-12.146-9.35,2.493,3.168,12.146Zm0,0" transform="translate(-253.349 -150.307)" fill="#fff"/>
    <path id="Path_2132" data-name="Path 2132" d="M248.8,69.955l9.35-2.493-.793-3.041a.565.565,0,0,0-.679-.4L248.4,66.232a.556.556,0,0,0-.392.673Zm0,0" transform="translate(-230.875 -59.586)" fill="#fff"/>
    <path id="Path_2133" data-name="Path 2133" d="M344.046,401.3l-9.35,2.493.659,2.524a.554.554,0,0,0,.26.337.532.532,0,0,0,.276.077.643.643,0,0,0,.143-.016l8.281-2.208a.556.556,0,0,0,.392-.674Zm0,0" transform="translate(-311.598 -373.603)" fill="#fff"/>
  </g>
</svg>
