<svg xmlns="http://www.w3.org/2000/svg" width="22.729" height="23.058" viewBox="0 0 22.729 23.058">
  <g id="icon" transform="translate(-0.208)">
    <path id="Path_2208" data-name="Path 2208" d="M21.286,4.866a1.6,1.6,0,0,0,1.6-1.6V1.6a1.6,1.6,0,1,0-3.2,0V3.271A1.6,1.6,0,0,0,21.286,4.866Z" transform="translate(-4.055)" fill="#030104"/>
    <path id="Path_2209" data-name="Path 2209" d="M22.912,3.483H19.693V4.3a2.434,2.434,0,1,1-4.869,0V3.483h-6.5V4.3a2.435,2.435,0,1,1-4.87,0V3.483L.208,3.443V23.775H21.314l1.622,0Zm-1.6,18.672H1.833V9.167H21.314V22.156Z" transform="translate(0 -0.717)" fill="#030104"/>
    <path id="Path_2210" data-name="Path 2210" d="M6.934,4.866a1.6,1.6,0,0,0,1.6-1.6V1.6a1.6,1.6,0,1,0-3.2,0V3.271A1.593,1.593,0,0,0,6.934,4.866Z" transform="translate(-1.068)" fill="#030104"/>
    <rect id="Rectangle_606" data-name="Rectangle 606" width="2.558" height="2.258" transform="translate(8.332 10.193)" fill="#030104"/>
    <rect id="Rectangle_607" data-name="Rectangle 607" width="2.561" height="2.258" transform="translate(12.468 10.193)" fill="#030104"/>
    <rect id="Rectangle_608" data-name="Rectangle 608" width="2.558" height="2.258" transform="translate(16.305 10.193)" fill="#030104"/>
    <rect id="Rectangle_609" data-name="Rectangle 609" width="2.558" height="2.257" transform="translate(8.332 13.943)" fill="#030104"/>
    <rect id="Rectangle_610" data-name="Rectangle 610" width="2.561" height="2.257" transform="translate(12.468 13.943)" fill="#030104"/>
    <rect id="Rectangle_611" data-name="Rectangle 611" width="2.558" height="2.257" transform="translate(16.305 13.943)" fill="#030104"/>
    <rect id="Rectangle_612" data-name="Rectangle 612" width="2.558" height="2.257" transform="translate(8.332 17.767)" fill="#030104"/>
    <rect id="Rectangle_613" data-name="Rectangle 613" width="2.557" height="2.257" transform="translate(4.268 13.943)" fill="#030104"/>
    <rect id="Rectangle_614" data-name="Rectangle 614" width="2.557" height="2.257" transform="translate(4.268 17.767)" fill="#030104"/>
    <rect id="Rectangle_615" data-name="Rectangle 615" width="2.561" height="2.257" transform="translate(12.468 17.767)" fill="#030104"/>
    <rect id="Rectangle_616" data-name="Rectangle 616" width="2.558" height="2.257" transform="translate(16.305 17.767)" fill="#030104"/>
  </g>
</svg>
