<svg xmlns="http://www.w3.org/2000/svg" width="16.881" height="16.917" viewBox="0 0 16.881 16.917">
  <g id="communications" transform="translate(-0.539)">
    <g id="Group_266" data-name="Group 266" transform="translate(0.539 0)">
      <path id="Path_589" data-name="Path 589" d="M16.978,12.415l-2.361-2.361a1.57,1.57,0,0,0-2.614.59,1.607,1.607,0,0,1-1.855,1.012A7.28,7.28,0,0,1,5.764,7.272,1.528,1.528,0,0,1,6.776,5.417,1.57,1.57,0,0,0,7.366,2.8L5.005.443a1.684,1.684,0,0,0-2.276,0l-1.6,1.6C-.475,3.731,1.3,8.2,5.258,12.162s8.431,5.818,10.118,4.131l1.6-1.6A1.684,1.684,0,0,0,16.978,12.415Z" transform="translate(-0.539 0)" fill="#fff"/>
    </g>
  </g>
</svg>
