<svg id="education_1_" data-name="education (1)" xmlns="http://www.w3.org/2000/svg" width="87.167" height="87.167" viewBox="0 0 87.167 87.167">
  <path id="Path_17" data-name="Path 17" d="M86.761,43.177H85.355V34.5A11.007,11.007,0,0,0,74.348,23.495H72.7V21.973a11.247,11.247,0,1,0-11.247,0v1.521H59.808A11.007,11.007,0,0,0,48.8,34.5v8.677H45.989V38.96a1.406,1.406,0,0,0-1.406-1.406H40.366v-.482A17.657,17.657,0,0,1,44.284,25.94a4.3,4.3,0,1,0-2.041-1.954,20.453,20.453,0,0,0-4.689,13.086v.482H33.336A1.406,1.406,0,0,0,31.93,38.96v4.218H30.524a1.406,1.406,0,0,0-1.406,1.406v5.624a1.406,1.406,0,0,0,1.406,1.406H31.93v8.435a7,7,0,0,0-4.647,12.264,11.3,11.3,0,0,0-5.195,4.8,11.318,11.318,0,0,0-5.195-4.8,7.03,7.03,0,1,0-9.293,0A11.254,11.254,0,0,0,1,82.543v4.218a1.406,1.406,0,0,0,1.406,1.406H61.454a1.406,1.406,0,0,0,1.406-1.406V85.355H83.949a1.406,1.406,0,0,0,1.406-1.406V51.613h1.406a1.406,1.406,0,0,0,1.406-1.406V44.583A1.406,1.406,0,0,0,86.761,43.177ZM45.989,20.683a1.406,1.406,0,1,1-1.406,1.406A1.407,1.407,0,0,1,45.989,20.683ZM82.543,34.5v8.677H79.731V37.554H76.919v5.624H68.484V32.8l3.589,1.794a1.4,1.4,0,0,0,1.167.042,1.409,1.409,0,0,0,.8-.853l2.4-7.2A8.175,8.175,0,0,1,82.543,34.5ZM62.157,26.306l2.785,3.713-2.667,1.334-1.681-5.047Zm9.841,0h1.565l-1.681,5.047-2.667-1.334ZM67.078,3.812a8.444,8.444,0,0,1,8.292,6.92,12.072,12.072,0,0,1-7.055-3.454l-.24-.242a1.445,1.445,0,0,0-1.991,0l-.239.24a12.063,12.063,0,0,1-7.056,3.454,8.439,8.439,0,0,1,8.289-6.919Zm-8.33,9.767a14.839,14.839,0,0,0,8.33-3.609,14.844,14.844,0,0,0,8.33,3.609,8.436,8.436,0,0,1-16.66,0Zm8.33,9.916a11.181,11.181,0,0,0,2.812-.37v1.308l-2.812,3.748-2.812-3.748V23.125A11.181,11.181,0,0,0,67.078,23.495ZM51.613,34.5a8.177,8.177,0,0,1,6.109-7.918l2.4,7.2a1.409,1.409,0,0,0,.8.853,1.368,1.368,0,0,0,.537.108,1.408,1.408,0,0,0,.628-.148l3.589-1.8V43.177H57.237V37.554H54.425v5.624H51.613ZM34.742,40.366h8.435v2.812H34.742Zm-7.03,26.712A4.218,4.218,0,1,1,31.93,71.3,4.223,4.223,0,0,1,27.712,67.078Zm-19.683,0A4.218,4.218,0,1,1,12.247,71.3,4.223,4.223,0,0,1,8.03,67.078ZM3.812,82.543a8.435,8.435,0,1,1,16.871,0v2.812H3.812Zm19.683,0a8.435,8.435,0,1,1,16.871,0v2.812H23.495Zm36.554,2.812H43.177V82.543a8.435,8.435,0,1,1,16.871,0ZM47.4,67.078A4.218,4.218,0,1,1,51.613,71.3,4.223,4.223,0,0,1,47.4,67.078ZM82.543,82.543H62.86a11.254,11.254,0,0,0-6.6-10.231,7.03,7.03,0,1,0-9.293,0,11.3,11.3,0,0,0-5.195,4.8,11.318,11.318,0,0,0-5.195-4.8,6.985,6.985,0,0,0-1.835-11.668V51.613h47.8ZM85.355,48.8H31.93V45.989H85.355Z" transform="translate(-1 -1)" fill="#fff"/>
  <path id="Path_18" data-name="Path 18" d="M5.218,28.306H27.712a4.223,4.223,0,0,0,4.218-4.218v-2.23l5.212-5.212a1.4,1.4,0,0,0,0-1.988L31.93,9.448V7.218A4.223,4.223,0,0,0,27.712,3H5.218A4.223,4.223,0,0,0,1,7.218V24.089A4.223,4.223,0,0,0,5.218,28.306ZM3.812,7.218A1.407,1.407,0,0,1,5.218,5.812H27.712a1.407,1.407,0,0,1,1.406,1.406V10.03a1.4,1.4,0,0,0,.412.994l4.63,4.63-4.63,4.63a1.4,1.4,0,0,0-.412.994v2.812a1.407,1.407,0,0,1-1.406,1.406H5.218a1.407,1.407,0,0,1-1.406-1.406Z" transform="translate(-1 -0.188)" fill="#fff"/>
  <path id="Path_19" data-name="Path 19" d="M5,7H24.683V9.812H5Z" transform="translate(0.624 1.435)" fill="#fff"/>
  <path id="Path_20" data-name="Path 20" d="M5,15H24.683v2.812H5Z" transform="translate(0.624 4.683)" fill="#fff"/>
  <path id="Path_21" data-name="Path 21" d="M7,11H21.059v2.812H7Z" transform="translate(1.435 3.059)" fill="#fff"/>
</svg>
