<svg xmlns="http://www.w3.org/2000/svg" xmlns:xlink="http://www.w3.org/1999/xlink" width="439" height="255" viewBox="0 0 439 255">
  <defs>
    <filter id="Rectangle_422" x="0" y="0" width="439" height="255" filterUnits="userSpaceOnUse">
      <feOffset dy="2" input="SourceAlpha"/>
      <feGaussianBlur stdDeviation="1.5" result="blur"/>
      <feFlood flood-opacity="0.031"/>
      <feComposite operator="in" in2="blur"/>
      <feComposite in="SourceGraphic"/>
    </filter>
    <clipPath id="clip-path">
      <rect width="276.684" height="191.059" fill="none"/>
    </clipPath>
  </defs>
  <g id="Course_1" data-name="Course 1" transform="translate(-280.5 -412.5)">
    <g transform="matrix(1, 0, 0, 1, 280.5, 412.5)" filter="url(#Rectangle_422)">
      <path id="Rectangle_422-2" data-name="Rectangle 422" d="M6,0H424a6,6,0,0,1,6,6V246a0,0,0,0,1,0,0H0a0,0,0,0,1,0,0V6A6,6,0,0,1,6,0Z" transform="translate(4.5 2.5)" fill="#fff"/>
    </g>
    <g id="OBJECTS" transform="translate(353.316 443.788)" clip-path="url(#clip-path)">
      <g id="OBJECTS-2" data-name="OBJECTS" transform="translate(-44.658 -87.848)">
        <g id="Group_789" data-name="Group 789" transform="translate(119.42 131.55)">
          <path id="Path_2045" data-name="Path 2045" d="M281.477,313.381l-29.951-48.638a8.822,8.822,0,0,0-10.686-3.6,51.361,51.361,0,0,0-43.265,0,8.821,8.821,0,0,0-10.686,3.6l-29.951,48.638a8.825,8.825,0,0,0,7.515,13.453h109.51a8.825,8.825,0,0,0,7.515-13.453Zm-90.243-22.034v17.837H180.251Zm55.947,17.837V291.347l10.984,17.837Z" transform="translate(-155.628 -190.766)" fill="#ff615c"/>
          <g id="Group_784" data-name="Group 784" transform="translate(0 65.597)">
            <path id="Path_2046" data-name="Path 2046" d="M281.477,313.381l-29.951-48.638a8.822,8.822,0,0,0-10.686-3.6,51.361,51.361,0,0,0-43.265,0,8.821,8.821,0,0,0-10.686,3.6l-29.951,48.638a8.82,8.82,0,0,0,2.622,11.971c-.16-.234-.313-.474-.451-.726a8.785,8.785,0,0,1,.183-8.753l28.818-47.665a8.408,8.408,0,0,1,10.282-3.53,48.6,48.6,0,0,1,41.629,0,8.41,8.41,0,0,1,10.282,3.53l28.818,47.665a8.786,8.786,0,0,1,.183,8.752c-.139.252-.292.492-.452.726a8.819,8.819,0,0,0,2.623-11.97Z" transform="translate(-155.628 -256.363)" fill="#ff8170"/>
          </g>
          <g id="Group_785" data-name="Group 785" transform="translate(55.739 41.652)">
            <path id="Path_2047" data-name="Path 2047" d="M246.2,255.126h0a7.841,7.841,0,0,1-7.841-7.841V220.822h15.682v26.463A7.84,7.84,0,0,1,246.2,255.126Z" transform="translate(-238.361 -220.822)" fill="#fea56b"/>
            <path id="Path_2048" data-name="Path 2048" d="M238.361,238.006a7.841,7.841,0,1,0,15.683,0V220.822H238.362v17.184Z" transform="translate(-238.361 -220.822)" fill="#ff9844"/>
          </g>
          <path id="Path_2049" data-name="Path 2049" d="M221.02,345.373H195.533v-.129A12.744,12.744,0,0,1,208.276,332.5h0a12.743,12.743,0,0,1,12.743,12.743Z" transform="translate(-168.648 -215.609)" fill="#fea56b"/>
          <g id="Group_788" data-name="Group 788" transform="translate(38.844)">
            <path id="Path_2050" data-name="Path 2050" d="M272.823,204.734h5.461V188.121c0-4.452-2.445-8.062-5.461-8.062h0S269.4,187.706,272.823,204.734Z" transform="translate(-232.214 -165.869)" fill="#b56616"/>
            <path id="Path_2051" data-name="Path 2051" d="M241.359,229.778h0a17.842,17.842,0,0,1-17.843-17.842v-28.07H259.2v28.07A17.842,17.842,0,0,1,241.359,229.778Z" transform="translate(-216.623 -167.111)" fill="#fea56b"/>
            <g id="Group_786" data-name="Group 786" transform="translate(14.673 35.047)">
              <ellipse id="Ellipse_62" data-name="Ellipse 62" cx="2.268" cy="3.045" rx="2.268" ry="3.045" fill="#572923"/>
              <ellipse id="Ellipse_63" data-name="Ellipse 63" cx="2.268" cy="3.045" rx="2.268" ry="3.045" transform="translate(15.59)" fill="#572923"/>
            </g>
            <path id="Path_2052" data-name="Path 2052" d="M239.909,229.3c1.212,4,3.8,6.758,6.8,6.758s5.586-2.762,6.8-6.758Z" transform="translate(-221.971 -181.936)" fill="#fff"/>
            <path id="Path_2053" data-name="Path 2053" d="M237.333,201.534a9.081,9.081,0,0,0-4.11.548,1.7,1.7,0,0,1-2.043-.6h0a1.512,1.512,0,0,1,1.031-2.065,11.924,11.924,0,0,1,5.4-.719c1.083.106,1.762.97,1.535,1.723h0A1.7,1.7,0,0,1,237.333,201.534Z" transform="translate(-219.072 -171.931)" fill="#c17017"/>
            <path id="Path_2054" data-name="Path 2054" d="M263.134,208.219a9.082,9.082,0,0,0-4.107-.573,1.7,1.7,0,0,1-1.808-1.127h0c-.222-.754.463-1.615,1.546-1.714a11.933,11.933,0,0,1,5.4.753,1.512,1.512,0,0,1,1.018,2.071h0A1.7,1.7,0,0,1,263.134,208.219Z" transform="translate(-227.606 -173.927)" fill="#c17017"/>
            <path id="Path_2055" data-name="Path 2055" d="M223.284,204.734h-5.461V188.121c0-4.452,2.445-8.062,5.461-8.062h0S226.708,187.706,223.284,204.734Z" transform="translate(-214.765 -165.869)" fill="#c17017"/>
            <g id="Group_787" data-name="Group 787" transform="translate(0 36.529)">
              <path id="Path_2056" data-name="Path 2056" d="M222.367,215.137a4.992,4.992,0,0,1-6.617,7.478c-2.064-1.827-3.715-4.847-1.18-7.711S220.3,213.31,222.367,215.137Z" transform="translate(-213.284 -213.218)" fill="#fea56b"/>
              <path id="Path_2057" data-name="Path 2057" d="M272.417,215.137a4.993,4.993,0,1,0,6.617,7.478c2.064-1.827,3.714-4.847,1.18-7.711S274.483,213.31,272.417,215.137Z" transform="translate(-232.029 -213.218)" fill="#fea56b"/>
            </g>
            <path id="Path_2058" data-name="Path 2058" d="M226.841,183.866a32.7,32.7,0,0,1,.609,4.166c4.641,3.241,13.376,3.392,18.835,2.981a28.845,28.845,0,0,0,9.712-2.08,14.289,14.289,0,0,0,4-2.7v-2.366Z" transform="translate(-217.707 -167.111)" fill="#ff9844"/>
            <path id="Path_2059" data-name="Path 2059" d="M229.479,164.281c4.193-2.038,9.452-2.2,14.279-1.481,2.687.4,5.876,1.549,8.6,1.356s5.574-3.02,6.123-5.158c3.17,2.554,4.744,7.817,4.133,11.38s-3.39,6.848-7.3,8.629a28.865,28.865,0,0,1-9.712,2.08c-5.918.445-15.7.239-19.922-3.856C221.7,173.372,224.763,166.574,229.479,164.281Z" transform="translate(-216.729 -158.997)" fill="#c17017"/>
            <path id="Path_2060" data-name="Path 2060" d="M230.453,167.963c3.909-2.541,9.108-3.348,13.986-3.236,2.716.063,6.022.81,8.7.282s5.157-3.687,5.438-5.876c.085.052.165.114.249.17-.115-.1-.228-.211-.347-.307-.549,2.138-3.4,4.965-6.123,5.158s-5.91-.958-8.6-1.356c-4.827-.715-10.086-.557-14.279,1.481-4.716,2.293-7.784,9.09-3.8,12.948.092.088.2.165.3.25C225.374,174.059,227.374,169.965,230.453,167.963Z" transform="translate(-216.729 -158.997)" fill="#d68029"/>
          </g>
        </g>
        <g id="Group_791" data-name="Group 791" transform="translate(62.034 267.387)">
          <path id="Path_2061" data-name="Path 2061" d="M306.62,372.142H76.21a5.76,5.76,0,0,1-5.76-5.76h0a5.76,5.76,0,0,1,5.76-5.76H306.62a5.76,5.76,0,0,1,5.76,5.76h0A5.76,5.76,0,0,1,306.62,372.142Z" transform="translate(-70.45 -360.621)" fill="#504e78"/>
        </g>
        <g id="Group_793" data-name="Group 793" transform="translate(117.388 171.441)">
          <path id="Path_2064" data-name="Path 2064" d="M176.335,231.268l-1.154-.141a1.127,1.127,0,0,1-.959-.828c-.026-.1-.054-.2-.084-.3a1.13,1.13,0,0,1,.393-1.207l.916-.716a1.144,1.144,0,0,0,.2-1.6l-2.049-2.62a1.143,1.143,0,0,0-1.6-.2l-.916.716a1.13,1.13,0,0,1-1.266.091c-.089-.053-.179-.1-.269-.154a1.128,1.128,0,0,1-.573-1.13l.142-1.154a1.143,1.143,0,0,0-1-1.273l-3.3-.4a1.143,1.143,0,0,0-1.273,1L163.4,222.5a1.129,1.129,0,0,1-.828.959c-.1.026-.2.054-.3.083a1.128,1.128,0,0,1-1.207-.393l-.716-.916a1.143,1.143,0,0,0-1.6-.2l-2.62,2.048a1.143,1.143,0,0,0-.2,1.6l.716.916a1.128,1.128,0,0,1,.091,1.265c-.053.09-.1.179-.153.27a1.128,1.128,0,0,1-1.13.573l-1.154-.141a1.143,1.143,0,0,0-1.273,1l-.4,3.3a1.143,1.143,0,0,0,1,1.273l1.153.141a1.129,1.129,0,0,1,.959.828c.026.1.054.2.084.3a1.129,1.129,0,0,1-.393,1.207l-.916.716a1.144,1.144,0,0,0-.2,1.6l2.049,2.62a1.143,1.143,0,0,0,1.6.2l.916-.716a1.128,1.128,0,0,1,1.265-.091c.089.053.179.1.269.154a1.127,1.127,0,0,1,.573,1.13l-.141,1.154a1.143,1.143,0,0,0,1,1.273l3.3.4a1.143,1.143,0,0,0,1.273-1l.141-1.154a1.129,1.129,0,0,1,.828-.959c.1-.026.2-.054.3-.083a1.128,1.128,0,0,1,1.207.393l.716.916a1.143,1.143,0,0,0,1.6.2l2.62-2.048a1.144,1.144,0,0,0,.2-1.6l-.716-.916a1.129,1.129,0,0,1-.091-1.266c.053-.089.1-.179.153-.269a1.128,1.128,0,0,1,1.13-.573l1.154.142a1.144,1.144,0,0,0,1.273-1l.4-3.3A1.144,1.144,0,0,0,176.335,231.268Zm-9.514,5.363a4.217,4.217,0,1,1,2.024-5.609A4.217,4.217,0,0,1,166.821,236.631Z" transform="translate(-152.612 -218.903)" fill="#7fcac7"/>
          <path id="Path_2065" data-name="Path 2065" d="M355.55,279.737l-.709-.087a.692.692,0,0,1-.589-.509c-.016-.061-.033-.123-.051-.183a.693.693,0,0,1,.242-.742l.563-.44a.7.7,0,0,0,.121-.986l-1.259-1.61a.7.7,0,0,0-.986-.121l-.563.44a.693.693,0,0,1-.777.056c-.055-.032-.11-.064-.166-.094a.692.692,0,0,1-.352-.694l.087-.709a.7.7,0,0,0-.612-.782l-2.028-.248a.7.7,0,0,0-.782.611l-.087.709a.694.694,0,0,1-.509.589c-.061.016-.123.033-.183.051a.693.693,0,0,1-.741-.242l-.44-.563a.7.7,0,0,0-.986-.121l-1.61,1.258a.7.7,0,0,0-.121.986l.44.563a.693.693,0,0,1,.056.777c-.032.055-.064.11-.094.166a.693.693,0,0,1-.694.352l-.709-.087a.7.7,0,0,0-.782.612l-.248,2.029a.7.7,0,0,0,.611.782l.709.086a.694.694,0,0,1,.589.509c.016.061.034.123.051.183a.694.694,0,0,1-.241.741l-.563.44a.7.7,0,0,0-.121.986l1.259,1.61a.7.7,0,0,0,.986.121l.563-.439a.691.691,0,0,1,.777-.056l.166.094a.692.692,0,0,1,.352.694l-.087.709a.7.7,0,0,0,.612.782l2.029.249a.7.7,0,0,0,.782-.612l.087-.709a.693.693,0,0,1,.509-.589c.061-.016.123-.033.183-.051a.694.694,0,0,1,.741.242l.44.563a.7.7,0,0,0,.986.121l1.61-1.259a.7.7,0,0,0,.121-.986l-.44-.563a.692.692,0,0,1-.056-.777c.032-.055.063-.11.094-.166a.7.7,0,0,1,.695-.352l.709.087a.7.7,0,0,0,.782-.611l.249-2.029A.7.7,0,0,0,355.55,279.737Zm-5.845,3.3a2.591,2.591,0,1,1,1.244-3.447A2.591,2.591,0,0,1,349.705,283.032Z" transform="translate(-214.072 -236.093)" fill="#7fcac7"/>
          <g id="Group_792" data-name="Group 792" transform="translate(103.058)">
            <path id="Path_2066" data-name="Path 2066" d="M342.454,234.132a1.721,1.721,0,0,0-1.722-1.72h-1.751a1.7,1.7,0,0,1-1.586-1.065q-.086-.217-.179-.432a1.7,1.7,0,0,1,.368-1.872l1.238-1.238a1.721,1.721,0,0,0,0-2.433l-3.543-3.539a1.721,1.721,0,0,0-2.433,0l-1.237,1.239a1.7,1.7,0,0,1-1.872.37q-.214-.093-.432-.179a1.7,1.7,0,0,1-1.066-1.585v-1.751a1.721,1.721,0,0,0-1.722-1.721l-5.008,0a1.721,1.721,0,0,0-1.72,1.722v1.752a1.7,1.7,0,0,1-1.065,1.586c-.145.057-.289.117-.432.179a1.7,1.7,0,0,1-1.872-.369l-1.238-1.237a1.721,1.721,0,0,0-2.433,0l-3.539,3.543a1.721,1.721,0,0,0,0,2.433l1.239,1.237a1.7,1.7,0,0,1,.37,1.871q-.093.214-.179.432a1.7,1.7,0,0,1-1.585,1.067H307.3a1.722,1.722,0,0,0-1.721,1.722l0,5.008a1.722,1.722,0,0,0,1.722,1.721h1.752a1.7,1.7,0,0,1,1.586,1.066c.057.144.117.288.179.431a1.7,1.7,0,0,1-.369,1.872l-1.237,1.238a1.721,1.721,0,0,0,0,2.433l3.543,3.54a1.721,1.721,0,0,0,2.433,0l1.237-1.238a1.7,1.7,0,0,1,1.871-.37c.143.061.287.121.432.178a1.7,1.7,0,0,1,1.067,1.585v1.752a1.721,1.721,0,0,0,1.722,1.72l5.008,0a1.721,1.721,0,0,0,1.72-1.722v-1.751a1.7,1.7,0,0,1,1.066-1.586c.144-.057.288-.117.431-.179a1.7,1.7,0,0,1,1.872.368l1.238,1.238a1.721,1.721,0,0,0,2.433,0l3.54-3.543a1.721,1.721,0,0,0,0-2.433l-1.238-1.237a1.7,1.7,0,0,1-.37-1.872c.061-.143.121-.287.178-.432a1.7,1.7,0,0,1,1.585-1.066h1.752a1.721,1.721,0,0,0,1.72-1.721ZM324.02,247.252a10.465,10.465,0,1,1,10.465-10.465A10.465,10.465,0,0,1,324.02,247.252Z" transform="translate(-305.582 -218.207)" fill="#7fcac7"/>
            <circle id="Ellipse_64" data-name="Ellipse 64" cx="5.202" cy="5.202" r="5.202" transform="translate(13.236 13.378)" fill="#7fcac7"/>
          </g>
        </g>
        <g id="Group_796" data-name="Group 796" transform="translate(93.094 154.352)">
          <g id="Group_794" data-name="Group 794" transform="translate(0 49.579)">
            <path id="Path_2067" data-name="Path 2067" d="M116.552,275.077l37.879-8.643-16.237,27.989Z" transform="translate(-116.552 -266.434)" fill="#fff"/>
            <path id="Path_2068" data-name="Path 2068" d="M158.487,266.434l-28.776,16.781-.728,11.764,3.99-8.849Z" transform="translate(-120.608 -266.434)" fill="#e7eef7"/>
            <path id="Path_2069" data-name="Path 2069" d="M128.984,304.519l7.971-5.289-3.982-3.56Z" transform="translate(-120.608 -275.973)" fill="#c7d9ea"/>
          </g>
          <g id="Group_795" data-name="Group 795" transform="translate(121.368)">
            <path id="Path_2070" data-name="Path 2070" d="M321.343,198.466,296.7,192.843l10.564,18.211Z" transform="translate(-296.7 -192.843)" fill="#fff"/>
            <path id="Path_2071" data-name="Path 2071" d="M296.7,192.843l18.721,10.918.473,7.653-2.6-5.756Z" transform="translate(-296.7 -192.843)" fill="#e7eef7"/>
            <path id="Path_2072" data-name="Path 2072" d="M322.679,217.62l-5.186-3.44,2.59-2.316Z" transform="translate(-303.484 -199.049)" fill="#c7d9ea"/>
          </g>
        </g>
        <g id="Group_808" data-name="Group 808" transform="translate(44.658 96.297)">
          <g id="Group_799" data-name="Group 799" transform="translate(41.966)">
            <circle id="Ellipse_65" data-name="Ellipse 65" cx="28.604" cy="28.604" r="28.604" fill="#fffaff"/>
            <g id="Group_798" data-name="Group 798" transform="translate(12.32 10.831)">
              <g id="Group_797" data-name="Group 797" transform="translate(1.183)">
                <path id="Path_2073" data-name="Path 2073" d="M146.859,158c-3.955,0-7.052-7.743-7.052-17.628s3.1-17.628,7.052-17.628,7.053,7.743,7.053,17.628S150.815,158,146.859,158Zm0-33.975c-2.788,0-5.772,6.569-5.772,16.348s2.985,16.348,5.772,16.348,5.773-6.569,5.773-16.348S149.648,124.026,146.859,124.026Z" transform="translate(-131.172 -122.746)" fill="#6a6a93"/>
                <path id="Path_2074" data-name="Path 2074" d="M132.121,154.485c-2.322,0-3.958-.674-4.709-1.975-1.977-3.424,3.179-9.979,11.739-14.921s16.815-6.131,18.793-2.706c1,1.731.253,4.267-2.1,7.141a39.966,39.966,0,0,1-21.2,12.237A15.692,15.692,0,0,1,132.121,154.485Zm21.1-20.308c-3.187,0-8.048,1.415-13.428,4.521-8.469,4.889-12.664,10.759-11.271,13.173.7,1.219,2.862,1.632,5.919,1.127a38.737,38.737,0,0,0,20.414-11.785c1.964-2.4,2.686-4.471,1.983-5.689C156.327,134.643,155.049,134.176,153.219,134.176Z" transform="translate(-126.99 -126.069)" fill="#6a6a93"/>
                <path id="Path_2075" data-name="Path 2075" d="M153.235,154.485a15.627,15.627,0,0,1-2.525-.224,35.885,35.885,0,0,1-11.558-4.456h0c-8.56-4.942-13.717-11.5-11.739-14.921s10.232-2.236,18.793,2.706a35.867,35.867,0,0,1,9.639,7.781c2.354,2.874,3.1,5.409,2.1,7.14C157.193,153.811,155.557,154.485,153.235,154.485ZM139.791,148.7a34.574,34.574,0,0,0,11.126,4.3c3.057.5,5.215.092,5.918-1.127s-.019-3.292-1.983-5.689a34.562,34.562,0,0,0-9.289-7.484c-8.469-4.889-15.65-5.588-17.044-3.175s2.8,8.283,11.271,13.172Z" transform="translate(-126.99 -126.069)" fill="#6a6a93"/>
              </g>
              <circle id="Ellipse_66" data-name="Ellipse 66" cx="2.563" cy="2.563" r="2.563" transform="translate(0 10.555)" fill="#00acbc"/>
              <circle id="Ellipse_67" data-name="Ellipse 67" cx="2.563" cy="2.563" r="2.563" transform="translate(24.89 5.429)" fill="#ffbf00"/>
              <circle id="Ellipse_68" data-name="Ellipse 68" cx="2.563" cy="2.563" r="2.563" transform="translate(11.745 30.421)" fill="#ff615c"/>
              <circle id="Ellipse_69" data-name="Ellipse 69" cx="2.563" cy="2.563" r="2.563" transform="translate(14.308 15.065)" fill="#6a6a93"/>
            </g>
          </g>
          <g id="Group_802" data-name="Group 802" transform="translate(177.509 0.414)">
            <circle id="Ellipse_70" data-name="Ellipse 70" cx="28.604" cy="28.604" r="28.604" fill="#fffaff"/>
            <g id="Group_801" data-name="Group 801" transform="translate(7.574 13.704)">
              <path id="Path_2076" data-name="Path 2076" d="M332.538,142.531v11.258c0,1.794,5.545,3.249,12.385,3.249s12.385-1.455,12.385-3.249V142.531Z" transform="translate(-323.672 -132.489)" fill="#3f3f63"/>
              <g id="Group_800" data-name="Group 800">
                <path id="Path_2077" data-name="Path 2077" d="M320,134.085c-.831.276-.835.737-.008,1.025l20.1,7a5.18,5.18,0,0,0,3-.028l17.729-6.546c.823-.3.818-.789-.01-1.078L341.91,127.85a5.47,5.47,0,0,0-3.018-.024Z" transform="translate(-319.379 -127.626)" fill="#504e78"/>
              </g>
              <path id="Path_2078" data-name="Path 2078" d="M361.259,155.545a.7.7,0,0,1-.7-.7v-12.09l-10.227-3.9a.7.7,0,1,1,.5-1.316l10.68,4.078a.705.705,0,0,1,.453.658v12.575A.7.7,0,0,1,361.259,155.545Z" transform="translate(-329.329 -130.842)" fill="#ffbf00"/>
              <path id="Path_2079" data-name="Path 2079" d="M366.907,168.632H364.6a.954.954,0,0,1-.933-1.151l.974-4.6a1.139,1.139,0,0,1,1.115-.9h0a1.139,1.139,0,0,1,1.115.9l.974,4.6A.952.952,0,0,1,366.907,168.632Z" transform="translate(-333.821 -138.832)" fill="#ffbf00"/>
            </g>
          </g>
          <g id="Group_804" data-name="Group 804" transform="translate(0 55.54)">
            <circle id="Ellipse_71" data-name="Ellipse 71" cx="28.604" cy="28.604" r="28.604" fill="#fffaff"/>
            <g id="Group_803" data-name="Group 803" transform="translate(9.757 12.698)">
              <path id="Path_2080" data-name="Path 2080" d="M79.7,238.972l-8.29-7.138a.735.735,0,0,1-.255-.557V208.693a.736.736,0,0,1,1.216-.557l7.33,6.311v24.526Z" transform="translate(-63.06 -207.956)" fill="#dceaf9"/>
              <path id="Path_2081" data-name="Path 2081" d="M77.918,239.458,66.11,233.772a.736.736,0,0,1-.417-.662V210.217a.735.735,0,0,1,1.055-.662l11.17,5.378Z" transform="translate(-61.278 -208.454)" fill="#c7d9ea"/>
              <path id="Path_2082" data-name="Path 2082" d="M74.308,240.23,59.7,236.687a.735.735,0,0,1-.563-.715V212.961a.736.736,0,0,1,.91-.715L74.308,215.7Z" transform="translate(-59.14 -209.349)" fill="#842d59"/>
              <path id="Path_2083" data-name="Path 2083" d="M90.392,238.972l8.29-7.138a.736.736,0,0,0,.256-.557V208.693a.736.736,0,0,0-1.216-.557l-7.33,6.311Z" transform="translate(-69.337 -207.956)" fill="#dceaf9"/>
              <path id="Path_2084" data-name="Path 2084" d="M90.392,239.458l11.808-5.685a.736.736,0,0,0,.417-.662V210.217a.735.735,0,0,0-1.055-.662l-11.169,5.378Z" transform="translate(-69.337 -208.454)" fill="#c7d9ea"/>
              <path id="Path_2085" data-name="Path 2085" d="M92.576,240.23l14.605-3.543a.735.735,0,0,0,.563-.715V212.961a.736.736,0,0,0-.91-.715L92.576,215.7Z" transform="translate(-70.05 -209.349)" fill="#842d59"/>
              <path id="Path_2086" data-name="Path 2086" d="M87.813,242.3h-4.96a1.2,1.2,0,0,1-1.2-1.2V217.5a1.2,1.2,0,0,1,1.2-1.2h4.96a1.2,1.2,0,0,1,1.2,1.2v23.6A1.2,1.2,0,0,1,87.813,242.3Z" transform="translate(-66.486 -210.678)" fill="#a04477"/>
              <path id="Path_2087" data-name="Path 2087" d="M107.307,227.225l-10.573,2.207v-4.785l10.573-2.208Z" transform="translate(-71.406 -212.682)" fill="#a04477"/>
              <path id="Path_2088" data-name="Path 2088" d="M97.5,232.165a.523.523,0,0,0-.148-.261V215.537a.368.368,0,0,0-.367-.369l-4.214-.005h0c-.2,0-1.09.736-.887.736l4.733.005v16a.518.518,0,0,0-.148.26l-.451,2.13a.442.442,0,0,0,.432.532h1.07a.441.441,0,0,0,.432-.532Z" transform="translate(-69.812 -210.308)" fill="#ff5473"/>
            </g>
          </g>
          <g id="Group_807" data-name="Group 807" transform="translate(219.476 54.68)">
            <circle id="Ellipse_72" data-name="Ellipse 72" cx="28.604" cy="28.604" r="28.604" fill="#fffaff"/>
            <g id="Group_806" data-name="Group 806" transform="translate(16.378 8.784)">
              <path id="Path_2089" data-name="Path 2089" d="M417.211,224.442a9.041,9.041,0,1,0-16.481,5.129,20.414,20.414,0,0,1,3.577,11.642v.879h7.727v-.878a21.922,21.922,0,0,1,3.736-11.88A8.97,8.97,0,0,0,417.211,224.442Z" transform="translate(-396.171 -205.611)" fill="#ffbf00"/>
              <path id="Path_2090" data-name="Path 2090" d="M409.467,242.006a.313.313,0,0,1-.3-.221l-3.17-10.3a.313.313,0,0,1,.469-.355l2.726,1.763.93-1.975a.327.327,0,0,1,.567,0l.93,1.975,2.727-1.763a.313.313,0,0,1,.469.355l-3.171,10.3a.313.313,0,0,1-.6-.184l2.917-9.477-2.3,1.49a.313.313,0,0,1-.453-.129l-.8-1.7-.8,1.7a.317.317,0,0,1-.2.167.312.312,0,0,1-.256-.038l-2.3-1.49,2.917,9.477a.314.314,0,0,1-.208.391A.318.318,0,0,1,409.467,242.006Z" transform="translate(-398.408 -210.621)" fill="#ff615c"/>
              <path id="Path_2091" data-name="Path 2091" d="M410.146,254.406h0a4.96,4.96,0,0,1-4.96-4.96v-4.162a1.827,1.827,0,0,1,1.827-1.827h6.266a1.827,1.827,0,0,1,1.827,1.827v4.162A4.961,4.961,0,0,1,410.146,254.406Z" transform="translate(-398.147 -214.766)" fill="#3f3f63"/>
              <g id="Group_805" data-name="Group 805">
                <path id="Path_2092" data-name="Path 2092" d="M422.761,213.3a.64.64,0,0,1-.453-1.093l4.723-4.722a.64.64,0,0,1,.9.9l-4.722,4.723A.639.639,0,0,1,422.761,213.3Z" transform="translate(-403.673 -202.968)" fill="#ffbf00"/>
                <path id="Path_2093" data-name="Path 2093" d="M400.1,213.3a.64.64,0,0,1-.453-.187l-4.722-4.723a.64.64,0,0,1,.905-.9l4.722,4.722a.64.64,0,0,1-.453,1.093Z" transform="translate(-394.739 -202.968)" fill="#ffbf00"/>
                <path id="Path_2094" data-name="Path 2094" d="M412.575,208.829a.64.64,0,0,1-.64-.64V201.51a.64.64,0,1,1,1.28,0v6.679A.64.64,0,0,1,412.575,208.829Z" transform="translate(-400.35 -200.87)" fill="#ffbf00"/>
              </g>
              <path id="Path_2095" data-name="Path 2095" d="M414.91,247.761H403.865a1,1,0,0,1-1-1h0a1,1,0,0,1,1-1H414.91a1,1,0,0,1,1,1h0A1,1,0,0,1,414.91,247.761Z" transform="translate(-397.39 -215.516)" fill="#504e78"/>
              <path id="Path_2096" data-name="Path 2096" d="M414.91,252.016H403.865a1,1,0,0,1-1-1h0a1,1,0,0,1,1-1H414.91a1,1,0,0,1,1,1h0A1,1,0,0,1,414.91,252.016Z" transform="translate(-397.39 -216.904)" fill="#504e78"/>
              <path id="Path_2097" data-name="Path 2097" d="M414.91,256.27H403.865a1,1,0,0,1-1-1h0a1,1,0,0,1,1-1H414.91a1,1,0,0,1,1,1h0A1,1,0,0,1,414.91,256.27Z" transform="translate(-397.39 -218.292)" fill="#504e78"/>
            </g>
          </g>
        </g>
        <g id="Group_814" data-name="Group 814" transform="translate(156.267 87.848)">
          <path id="Path_2098" data-name="Path 2098" d="M280.684,116.464l-.961-.118a.938.938,0,0,1-.8-.69c-.022-.083-.045-.167-.07-.249a.941.941,0,0,1,.328-1.005l.763-.6a.953.953,0,0,0,.163-1.337l-1.707-2.183a.953.953,0,0,0-1.337-.163l-.763.6a.942.942,0,0,1-1.055.076c-.074-.044-.149-.086-.225-.128a.94.94,0,0,1-.477-.941l.117-.962a.952.952,0,0,0-.83-1.061l-2.75-.337a.952.952,0,0,0-1.061.83l-.118.962a.941.941,0,0,1-.69.8c-.083.021-.166.045-.248.069a.941.941,0,0,1-1.005-.328l-.6-.763a.953.953,0,0,0-1.337-.164l-2.183,1.707a.952.952,0,0,0-.164,1.337l.6.763a.94.94,0,0,1,.076,1.055c-.043.074-.086.149-.127.224a.94.94,0,0,1-.942.478l-.961-.118a.953.953,0,0,0-1.061.83l-.337,2.751a.953.953,0,0,0,.83,1.061l.961.117a.94.94,0,0,1,.8.69c.022.083.045.166.07.249a.94.94,0,0,1-.328,1l-.763.6a.953.953,0,0,0-.164,1.337l1.707,2.183a.953.953,0,0,0,1.337.163l.763-.6a.94.94,0,0,1,1.054-.076c.074.044.149.086.225.128a.939.939,0,0,1,.477.941l-.117.962a.953.953,0,0,0,.83,1.061l2.75.337a.953.953,0,0,0,1.061-.83l.118-.962a.94.94,0,0,1,.69-.8q.125-.033.249-.069a.94.94,0,0,1,1,.327l.6.764a.952.952,0,0,0,1.337.163l2.183-1.707a.953.953,0,0,0,.164-1.337l-.6-.763a.941.941,0,0,1-.076-1.055c.043-.074.086-.149.127-.225a.94.94,0,0,1,.942-.477l.961.118a.953.953,0,0,0,1.062-.83l.337-2.751A.953.953,0,0,0,280.684,116.464Zm-7.927,4.469a3.514,3.514,0,1,1,1.686-4.674A3.514,3.514,0,0,1,272.757,120.933Z" transform="translate(-228.056 -85.921)" fill="#ffbf00"/>
          <g id="Group_813" data-name="Group 813">
            <g id="Group_811" data-name="Group 811" transform="translate(10.694)">
              <path id="Path_2099" data-name="Path 2099" d="M221.431,71.839V96.3A2.667,2.667,0,0,0,224.1,98.97H233.1l4.562,5.494,4.563-5.494h9.006A2.667,2.667,0,0,0,253.9,96.3V71.839a2.667,2.667,0,0,0-2.667-2.667H224.1A2.667,2.667,0,0,0,221.431,71.839Z" transform="translate(-221.431 -69.172)" fill="#ff615c"/>
              <g id="Group_810" data-name="Group 810" transform="translate(10.671 5.068)">
                <g id="Group_809" data-name="Group 809">
                  <path id="Path_2100" data-name="Path 2100" d="M246.795,78.2c3.8,0,6.454,2.151,6.454,5.923,0,3.514-2.352,5.355-5.678,5.59a.849.849,0,0,0-.788.8l-.03.565a.853.853,0,0,1-.852.808h-1.8a.853.853,0,0,1-.853-.828l-.089-3.043a.853.853,0,0,1,.853-.879h.378c2.905,0,5.085-.531,5.057-3.044a2.444,2.444,0,0,0-2.655-2.627,2.418,2.418,0,0,0-2.649,1.962.856.856,0,0,1-.851.665h-2a.848.848,0,0,1-.851-.934C240.8,80.26,243.1,78.2,246.795,78.2Zm-1.816,20.366a2.292,2.292,0,1,1,2.375-2.291A2.3,2.3,0,0,1,244.978,98.565Z" transform="translate(-240.439 -78.199)" fill="#feffff"/>
                </g>
              </g>
            </g>
            <g id="Group_812" data-name="Group 812" transform="translate(0 21.397)">
              <path id="Path_2101" data-name="Path 2101" d="M212.726,127.973a10.344,10.344,0,1,1,10.344-10.344A10.353,10.353,0,0,1,212.726,127.973Z" transform="translate(-202.382 -107.285)" fill="#00acbc"/>
              <path id="Path_2102" data-name="Path 2102" d="M218.315,116.758a2.364,2.364,0,0,0,.131.24c.044.065.109.131.152.2a2.009,2.009,0,0,0,.218.2.728.728,0,0,0,.261.131,1.071,1.071,0,0,0,.283.086,1.331,1.331,0,0,0,.283.022,1.234,1.234,0,0,0,.283-.022.782.782,0,0,0,.24-.086h.022a1.659,1.659,0,0,0,.262-.152,1.437,1.437,0,0,0,.2-.175l.022-.022a1.164,1.164,0,0,0,.152-.2.682.682,0,0,0,.109-.218c0-.021,0-.021.022-.043a1.412,1.412,0,0,0,.087-.283,1.844,1.844,0,0,0,0-.566,2.1,2.1,0,0,0-.087-.283,1.226,1.226,0,0,0-.262-.392l-.043-.043a2.012,2.012,0,0,0-.218-.175c-.087-.043-.152-.087-.24-.13a1.219,1.219,0,0,0-.261-.087,1.332,1.332,0,0,0-.283-.022,1.15,1.15,0,0,0-.545.109h-.022a2.367,2.367,0,0,0-.24.13,1.886,1.886,0,0,0-.218.175,1.4,1.4,0,0,0-.174.2,2.432,2.432,0,0,0-.131.24,1.258,1.258,0,0,0-.087.262,1.338,1.338,0,0,0-.022.283,1.238,1.238,0,0,0,.022.283A2.074,2.074,0,0,0,218.315,116.758Z" transform="translate(-209.322 -110.552)" fill="#feffff"/>
              <path id="Path_2103" data-name="Path 2103" d="M220.73,127.926h-.5v-5.335a.563.563,0,0,0-.566-.566h-2.287a.563.563,0,0,0-.566.566v1.176a.562.562,0,0,0,.566.566h.457v3.615h-.457a.563.563,0,0,0-.566.566v1.176a.562.562,0,0,0,.566.566h3.354a.562.562,0,0,0,.566-.566v-1.176A.581.581,0,0,0,220.73,127.926Z" transform="translate(-208.71 -113.75)" fill="#feffff"/>
            </g>
          </g>
        </g>
        <g id="Group_817" data-name="Group 817" transform="translate(54.727 217.097)">
          <g id="Group_815" data-name="Group 815">
            <circle id="Ellipse_73" data-name="Ellipse 73" cx="1.382" cy="1.382" r="1.382" transform="translate(22.322 15.605)" fill="#feffff"/>
            <circle id="Ellipse_74" data-name="Ellipse 74" cx="1.382" cy="1.382" r="1.382" transform="translate(0 5.149)" fill="#feffff"/>
            <circle id="Ellipse_75" data-name="Ellipse 75" cx="0.829" cy="0.829" r="0.829" transform="translate(16.012)" fill="#feffff"/>
            <circle id="Ellipse_76" data-name="Ellipse 76" cx="0.829" cy="0.829" r="0.829" transform="translate(41.953 40.561)" fill="#feffff"/>
            <circle id="Ellipse_77" data-name="Ellipse 77" cx="3.84" cy="3.84" r="3.84" transform="translate(15.46 24.207)" fill="#feffff"/>
            <circle id="Ellipse_78" data-name="Ellipse 78" cx="2.304" cy="2.304" r="2.304" transform="translate(45.148 31.345)" fill="#feffff"/>
            <circle id="Ellipse_79" data-name="Ellipse 79" cx="2.304" cy="2.304" r="2.304" transform="translate(2.765 35.953)" fill="#feffff"/>
          </g>
          <g id="Group_816" data-name="Group 816" transform="translate(206.789)">
            <circle id="Ellipse_80" data-name="Ellipse 80" cx="1.382" cy="1.382" r="1.382" transform="translate(24.669 15.605)" fill="#feffff"/>
            <circle id="Ellipse_81" data-name="Ellipse 81" cx="1.382" cy="1.382" r="1.382" transform="translate(46.991 5.149)" fill="#feffff"/>
            <circle id="Ellipse_82" data-name="Ellipse 82" cx="0.829" cy="0.829" r="0.829" transform="translate(32.084)" fill="#feffff"/>
            <circle id="Ellipse_83" data-name="Ellipse 83" cx="0.829" cy="0.829" r="0.829" transform="translate(6.144 40.561)" fill="#feffff"/>
            <circle id="Ellipse_84" data-name="Ellipse 84" cx="3.84" cy="3.84" r="3.84" transform="translate(26.615 24.207)" fill="#feffff"/>
            <circle id="Ellipse_85" data-name="Ellipse 85" cx="2.304" cy="2.304" r="2.304" transform="translate(0 31.345)" fill="#feffff"/>
            <circle id="Ellipse_86" data-name="Ellipse 86" cx="2.304" cy="2.304" r="2.304" transform="translate(42.383 35.953)" fill="#feffff"/>
          </g>
        </g>
        <g id="Group_818" data-name="Group 818" transform="translate(135.039 215.437)">
          <path id="Path_2104" data-name="Path 2104" d="M262.37,357.719H184.923a6.111,6.111,0,0,1-6.111-6.111h89.669A6.111,6.111,0,0,1,262.37,357.719Z" transform="translate(-178.812 -305.73)" fill="#c3d0e0"/>
          <path id="Path_2105" data-name="Path 2105" d="M274.218,329.388H212.273a2.717,2.717,0,0,1-2.646-3.334l9.417-40.443a2.717,2.717,0,0,1,2.646-2.1h61.945a2.716,2.716,0,0,1,2.646,3.333l-9.417,40.444A2.717,2.717,0,0,1,274.218,329.388Z" transform="translate(-188.843 -283.511)" fill="#fff"/>
          <path id="Path_2106" data-name="Path 2106" d="M277.389,329.388H215.444a2.717,2.717,0,0,1-2.646-3.334l9.417-40.443a2.717,2.717,0,0,1,2.647-2.1h61.944a2.717,2.717,0,0,1,2.647,3.333l-9.418,40.444A2.717,2.717,0,0,1,277.389,329.388Z" transform="translate(-189.878 -283.511)" fill="#dceaf9"/>
          <circle id="Ellipse_87" data-name="Ellipse 87" cx="7.188" cy="7.188" r="7.188" transform="translate(54.06 15.751)" fill="#fff"/>
        </g>
      </g>
    </g>
  </g>
</svg>
