<svg id="business-and-finance" xmlns="http://www.w3.org/2000/svg" width="90.474" height="90.474" viewBox="0 0 90.474 90.474">
  <g id="Group_21" data-name="Group 21" transform="translate(7.539 16.587)">
    <g id="Group_20" data-name="Group 20">
      <path id="Path_2" data-name="Path 2" d="M55.752,90.734A8.974,8.974,0,0,0,49.277,88h-.464a8.974,8.974,0,0,0-6.467,2.734,8.294,8.294,0,0,0-2.34,6.149l.176,4.059a8.667,8.667,0,0,0,8.806,8.168H49.1a8.667,8.667,0,0,0,8.806-8.168l.184-4.059A8.294,8.294,0,0,0,55.752,90.734ZM54.9,100.817a5.661,5.661,0,0,1-5.793,5.278h-.115a5.661,5.661,0,0,1-5.793-5.278l-.053-1.232a13.608,13.608,0,0,0,7.883-2.958,6.735,6.735,0,0,0,3.933,2.758ZM53,93.689a1.513,1.513,0,0,0-2.808-.561c-.02.032-1.891,2.992-7.172,3.444a5.318,5.318,0,0,1,1.5-3.747,5.961,5.961,0,0,1,4.291-1.809h.464a5.961,5.961,0,0,1,4.291,1.809,5.314,5.314,0,0,1,1.472,3.387A3.567,3.567,0,0,1,53,93.689Z" transform="translate(-39.997 -88)" fill="#fff"/>
    </g>
  </g>
  <g id="Group_23" data-name="Group 23" transform="translate(66.347 52.776)">
    <g id="Group_22" data-name="Group 22">
      <path id="Path_3" data-name="Path 3" d="M367.752,282.734A8.974,8.974,0,0,0,361.277,280h-.464a8.974,8.974,0,0,0-6.467,2.734,8.293,8.293,0,0,0-2.34,6.149l.176,4.059a8.667,8.667,0,0,0,8.806,8.168h.115a8.667,8.667,0,0,0,8.806-8.168l.184-4.059A8.294,8.294,0,0,0,367.752,282.734Zm-.676,6.027-.181,4.056a5.661,5.661,0,0,1-5.793,5.278h-.115a5.661,5.661,0,0,1-5.793-5.278l-.181-4.064a5.322,5.322,0,0,1,1.508-3.928,5.961,5.961,0,0,1,4.292-1.809h.464a5.961,5.961,0,0,1,4.291,1.809A5.323,5.323,0,0,1,367.076,288.761Z" transform="translate(-351.997 -280)" fill="#fff"/>
    </g>
  </g>
  <g id="Group_25" data-name="Group 25" transform="translate(0 20.756)">
    <g id="Group_24" data-name="Group 24">
      <path id="Path_4" data-name="Path 4" d="M46.582,111.291a4.174,4.174,0,0,0-5.8,0L23.944,128.125a1.508,1.508,0,0,1-1.068.442H7.539A7.549,7.549,0,0,0,0,136.106v21.111a4.526,4.526,0,0,0,6.032,4.266v1.766a1.508,1.508,0,0,0,1.508,1.508H25.634a1.508,1.508,0,0,0,1.508-1.508V138.8a1.509,1.509,0,0,1,.4-1.028L46.68,117.192A4.174,4.174,0,0,0,46.582,111.291Zm-2.055,3.793-.016.016L25.333,135.718a4.524,4.524,0,0,0-1.206,3.081V161.74H9.047V139.122a1.508,1.508,0,1,0-3.016,0v18.095a1.508,1.508,0,1,1-3.016,0V136.106a4.524,4.524,0,0,1,4.524-4.524H22.876a4.491,4.491,0,0,0,3.2-1.325L42.91,113.423a1.19,1.19,0,0,1,1.638,0A1.175,1.175,0,0,1,44.527,115.084Z" transform="translate(0 -110.117)" fill="#fff"/>
    </g>
  </g>
  <g id="Group_27" data-name="Group 27" transform="translate(15.079 43.729)">
    <g id="Group_26" data-name="Group 26">
      <path id="Path_5" data-name="Path 5" d="M81.508,232A1.508,1.508,0,0,0,80,233.508V251.6a1.508,1.508,0,1,0,3.016,0V233.508A1.508,1.508,0,0,0,81.508,232Z" transform="translate(-80 -232)" fill="#fff"/>
    </g>
  </g>
  <g id="Group_29" data-name="Group 29" transform="translate(33.173 52.776)">
    <g id="Group_28" data-name="Group 28">
      <path id="Path_6" data-name="Path 6" d="M191.744,282.734A8.974,8.974,0,0,0,185.277,280h-.464a8.974,8.974,0,0,0-6.467,2.734,8.293,8.293,0,0,0-2.34,6.149l.176,4.059a8.667,8.667,0,0,0,8.806,8.168h.115a8.667,8.667,0,0,0,8.806-8.168l.176-4.059A8.293,8.293,0,0,0,191.744,282.734Zm-.668,6.027-.181,4.056a5.661,5.661,0,0,1-5.793,5.278h-.115a5.661,5.661,0,0,1-5.793-5.278l-.181-4.064a5.322,5.322,0,0,1,1.508-3.928,5.961,5.961,0,0,1,4.291-1.81h.464a5.961,5.961,0,0,1,4.291,1.81A5.323,5.323,0,0,1,191.076,288.761Z" transform="translate(-175.997 -280)" fill="#fff"/>
    </g>
  </g>
  <g id="Group_31" data-name="Group 31" transform="translate(27.142 75.395)">
    <g id="Group_30" data-name="Group 30">
      <path id="Path_7" data-name="Path 7" d="M166.87,400H151.288A7.3,7.3,0,0,0,144,407.288v6.283a1.508,1.508,0,0,0,3.016,0v-6.283a4.276,4.276,0,0,1,4.272-4.272H166.87a4.276,4.276,0,0,1,4.272,4.272v6.283a1.508,1.508,0,0,0,3.016,0v-6.283A7.3,7.3,0,0,0,166.87,400Z" transform="translate(-144 -400)" fill="#fff"/>
    </g>
  </g>
  <g id="Group_33" data-name="Group 33" transform="translate(60.316 75.395)">
    <g id="Group_32" data-name="Group 32">
      <path id="Path_8" data-name="Path 8" d="M342.87,400H327.288A7.3,7.3,0,0,0,320,407.288v6.283a1.508,1.508,0,0,0,3.016,0v-6.283a4.276,4.276,0,0,1,4.272-4.272H342.87a4.276,4.276,0,0,1,4.272,4.272v6.283a1.508,1.508,0,1,0,3.016,0v-6.283A7.3,7.3,0,0,0,342.87,400Z" transform="translate(-320 -400)" fill="#fff"/>
    </g>
  </g>
  <g id="Group_35" data-name="Group 35" transform="translate(28.65)">
    <g id="Group_34" data-name="Group 34">
      <path id="Path_9" data-name="Path 9" d="M209.375,0H156.448A4.492,4.492,0,0,0,152,4.524V27.142a1.508,1.508,0,0,0,3.016,0V9.047h55.792v36.19a1.473,1.473,0,0,1-1.432,1.508H157.918a1.508,1.508,0,0,0,0,3.016h51.457a4.492,4.492,0,0,0,4.448-4.524V4.524A4.492,4.492,0,0,0,209.375,0Zm1.432,6.032H155.015V4.524a1.473,1.473,0,0,1,1.433-1.508h52.927a1.473,1.473,0,0,1,1.432,1.508Z" transform="translate(-151.999)" fill="#fff"/>
    </g>
  </g>
  <g id="Group_37" data-name="Group 37" transform="translate(81.426 19.226)">
    <g id="Group_36" data-name="Group 36">
      <path id="Path_10" data-name="Path 10" d="M433.508,102A1.508,1.508,0,0,0,432,103.508V125a1.508,1.508,0,0,0,3.016,0V103.508A1.508,1.508,0,0,0,433.508,102Z" transform="translate(-432 -102)" fill="#fff"/>
    </g>
  </g>
  <g id="Group_39" data-name="Group 39" transform="translate(75.395 28.65)">
    <g id="Group_38" data-name="Group 38">
      <path id="Path_11" data-name="Path 11" d="M401.508,152A1.508,1.508,0,0,0,400,153.508v12.063a1.508,1.508,0,1,0,3.016,0V153.508A1.508,1.508,0,0,0,401.508,152Z" transform="translate(-400 -152)" fill="#fff"/>
    </g>
  </g>
  <g id="Group_41" data-name="Group 41" transform="translate(69.363 25.634)">
    <g id="Group_40" data-name="Group 40">
      <path id="Path_12" data-name="Path 12" d="M369.508,136A1.508,1.508,0,0,0,368,137.508v15.079a1.508,1.508,0,0,0,3.016,0V137.508A1.508,1.508,0,0,0,369.508,136Z" transform="translate(-368 -136)" fill="#fff"/>
    </g>
  </g>
  <g id="Group_43" data-name="Group 43" transform="translate(63.332 34.682)">
    <g id="Group_42" data-name="Group 42">
      <path id="Path_13" data-name="Path 13" d="M337.508,184A1.508,1.508,0,0,0,336,185.508v6.032a1.508,1.508,0,0,0,3.016,0v-6.032A1.508,1.508,0,0,0,337.508,184Z" transform="translate(-336 -184)" fill="#fff"/>
    </g>
  </g>
  <g id="Group_45" data-name="Group 45" transform="translate(57.3 12.063)">
    <g id="Group_44" data-name="Group 44">
      <path id="Path_14" data-name="Path 14" d="M330.471,64.252a1.508,1.508,0,0,0-2.091.418l-5.148,7.72-4.756-3.566a1.507,1.507,0,0,0-2.262.532L310.342,81.1l-5.739,4.31a1.508,1.508,0,1,0,1.809,2.413l6.032-4.524a1.521,1.521,0,0,0,.452-.532l5.222-10.447,4.58,3.44a1.508,1.508,0,0,0,2.111-.3c.017-.022.033-.045.048-.068l6.032-9.047A1.508,1.508,0,0,0,330.471,64.252Z" transform="translate(-303.999 -63.998)" fill="#fff"/>
    </g>
  </g>
  <g id="Group_47" data-name="Group 47" transform="translate(34.682 12.063)">
    <g id="Group_46" data-name="Group 46">
      <path id="Path_15" data-name="Path 15" d="M203.6,64H185.508a1.508,1.508,0,1,0,0,3.016H203.6a1.508,1.508,0,0,0,0-3.016Z" transform="translate(-184 -64)" fill="#fff"/>
    </g>
  </g>
  <g id="Group_49" data-name="Group 49" transform="translate(58.808 12.063)">
    <g id="Group_48" data-name="Group 48">
      <path id="Path_16" data-name="Path 16" d="M316.524,64h-3.016a1.508,1.508,0,1,0,0,3.016h3.016a1.508,1.508,0,1,0,0-3.016Z" transform="translate(-312 -64)" fill="#fff"/>
    </g>
  </g>
</svg>
