<svg xmlns="http://www.w3.org/2000/svg" width="645.776" height="472.608" viewBox="0 0 645.776 472.608"><defs><style>.a{fill:#b3c9e4;}.b{fill:#cedfee;}.c{fill:#ebf3f4;}.d{fill:#afb6dc;}.e{fill:#f7f7f6;}.f{fill:#e2dfdd;}.g{fill:#6a78b3;}.h{fill:#7586ba;}.i{fill:#8395c4;}.j{fill:#8fa2cb;}.k{fill:#99afd3;}.l{fill:#a4bad8;}.m{fill:#58689c;}.n{fill:#f2c75d;}.o{fill:#f8eacd;}.p{fill:#4d5c88;}.q{fill:#fff;}.r{fill:#e5e5e5;}.s{fill:#027696;}.t{fill:#e0e3e8;}.u{fill:#e6d5ba;}.v{fill:#e56f2c;}.w{fill:#cc5728;}.x{fill:#deccb2;}.y{fill:#435278;}.aa,.z{fill:none;}.z{stroke:#bc4a72;stroke-miterlimit:10;stroke-width:1.156px;}.ab{fill:#151416;}.ac{fill:#d0dce5;}.ad{fill:#abbfcd;}.ae{fill:#c0d0d8;}</style></defs><g transform="translate(-6.7 -40.213)"><g transform="translate(529.655 352.73)"><path class="a" d="M329.113,332.284c-2.244-5.159-11.255-25-13.47-37.531s-9.033-22.724-9.219-28.992,10.1-9.95,12.787-22.818,8.095-33.867,11.432-33.229,5.622,23.687,8.8,29.371,11.751,12.745,5.109,20.936-3.1,17.982,3,26.532-11.174,19.2-9.478,30.835-1.527,27.28-1.527,27.28Z" transform="translate(-276.721 -209.7)"/><g transform="translate(46.455 25.68)"><path class="b" d="M324.427,295.7a1.014,1.014,0,0,1-1-.9,66.464,66.464,0,0,0-5.039-18.212c-1.475-3.7-2.749-6.905-2.867-9.9-.144-3.677,1.925-6.537,3.92-9.3,1.855-2.563,3.771-5.211,4.228-8.7.959-7.3-5.626-23.495-5.692-23.657a1.015,1.015,0,0,1,1.879-.767c.277.684,6.85,16.859,5.823,24.69-.524,3.994-2.685,6.983-4.593,9.62-1.96,2.712-3.653,5.054-3.538,8.032.105,2.652,1.261,5.557,2.723,9.234a68.1,68.1,0,0,1,5.172,18.74,1.012,1.012,0,0,1-.9,1.117C324.5,295.694,324.466,295.7,324.427,295.7Z" transform="translate(-315.508 -223.627)"/></g><path class="b" d="M325.545,314.329c-2.491-1.117-3.3-14.7-7.855-16.722s-7.855-8.36-9.374-14.947-14.948-9.374-17.484-16.47,5.069-12.162,4.564-18.749-6.083-15.963-2.028-20.27,11.148,10.641,14.948,13.682,11.146,6.336,9.12,11.908.76,14.7,13.936,19.765S353.161,326.744,325.545,314.329Z" transform="translate(-290.314 -195.609)"/><g transform="translate(12.792 49.805)"><path class="a" d="M321.719,282.316a1.014,1.014,0,0,1-.964-.7c-2.585-7.923-6.662-11.045-11.38-14.659a51.658,51.658,0,0,1-7.411-6.513c-7.372-8.161-3.929-22.366-3.78-22.968a1.014,1.014,0,1,1,1.967.492c-.035.136-3.328,13.763,3.315,21.118a50.183,50.183,0,0,0,7.136,6.262c4.781,3.662,9.3,7.117,12.079,15.638a1.01,1.01,0,0,1-.962,1.328Z" transform="translate(-297.252 -236.711)"/></g><path class="b" d="M324.415,317.366c.675-2.026,1.35-10.809,6.081-12.837s9.459-3.378,13.177-9.459,0-15.54,4.053-21.957,13.176-.339,17.9-6.758-5.744-17.565-2.028-22.3,8.784-17.565,3.717-19.254-19.256,7.431-22.973,15.54S333.2,253.182,331.51,259.6s-7.1,9.8-8.445,16.215.673,16.217-1.689,23.311S324.415,317.366,324.415,317.366Z" transform="translate(-264.607 -197.126)"/><path class="c" d="M352.163,317.889H309.727a5.7,5.7,0,0,1-5.69-5.467l-1.807-45.207h57.43l-1.807,45.207A5.7,5.7,0,0,1,352.163,317.889Z" transform="translate(-280.258 -161.164)"/><g transform="translate(68.251 42.876)"><path class="a" d="M328.345,286.669c-.026,0-.052,0-.076,0a1.015,1.015,0,0,1-.939-1.084c1.276-17.526,7.361-27.033,13.746-34.695,4.862-5.836,7.875-17.065,7.907-17.178a1.014,1.014,0,1,1,1.96.518c-.125.478-3.159,11.777-8.31,17.958-6.168,7.4-12.046,16.59-13.28,33.542A1.012,1.012,0,0,1,328.345,286.669Z" transform="translate(-327.329 -232.953)"/></g></g><g transform="translate(99.894 94.809)"><g transform="translate(72.532 28.958)"><path class="d" d="M96.578,85.527" transform="translate(-96.578 -85.527)"/></g><g transform="translate(12.388 28.958)"><path class="d" d="M63.96,85.527" transform="translate(-63.96 -85.527)"/></g><g transform="translate(22.197 42.083)"><path class="d" d="M69.28,92.645" transform="translate(-69.28 -92.645)"/></g><g transform="translate(62.724 42.083)"><path class="d" d="M91.259,92.645" transform="translate(-91.259 -92.645)"/></g><g transform="translate(22.197 42.083)"><path class="d" d="M69.28,92.645" transform="translate(-69.28 -92.645)"/></g><g transform="translate(62.724 42.083)"><path class="d" d="M91.259,92.645" transform="translate(-91.259 -92.645)"/></g><path class="d" d="M139.01,89.625a3.135,3.135,0,0,1-1.936-.667,60.825,60.825,0,0,0-74.744,0,3.15,3.15,0,0,1-3.876-4.966,67.121,67.121,0,0,1,82.5,0,3.15,3.15,0,0,1-1.942,5.633Z" transform="translate(-57.242 -69.822)"/><g transform="translate(9.24 15.393)"><path class="d" d="M125.543,94.885a3.144,3.144,0,0,1-1.951-.677,45.462,45.462,0,0,0-56.239,0,3.15,3.15,0,0,1-3.9-4.945,51.766,51.766,0,0,1,64.044,0,3.15,3.15,0,0,1-1.953,5.622Z" transform="translate(-62.253 -78.17)"/></g><g transform="translate(19.047 31.752)"><path class="d" d="M70.722,100.525a3.15,3.15,0,0,1-1.984-5.6,35.327,35.327,0,0,1,44.493,0,3.149,3.149,0,1,1-3.966,4.892,29.027,29.027,0,0,0-36.561,0A3.12,3.12,0,0,1,70.722,100.525Z" transform="translate(-67.571 -87.042)"/></g><g transform="translate(34.345 46.462)"><circle class="d" cx="8.115" cy="8.115" r="8.115"/></g></g><g transform="translate(132.983 179.626)"><g transform="translate(32.834)"><path class="a" d="M430.39,127.379h2.449V115.821H134.467a40.534,40.534,0,0,0-11.091,1.519,42.1,42.1,0,0,0-18.238,70.013,41.314,41.314,0,0,0,15.839,9.988,40.678,40.678,0,0,0,13.488,2.3H432.837V188.087H418V127.375H430.39Z" transform="translate(-92.994 -115.821)"/><g transform="translate(12.987 11.537)"><path class="e" d="M100.037,152.443a28.758,28.758,0,0,0,.258,3.874c.087.719.2,1.435.315,2.152A29.859,29.859,0,0,0,105,169.06a18.546,18.546,0,0,0,1.551,2.152,25.948,25.948,0,0,0,2.382,2.7,30.127,30.127,0,0,0,21.467,8.9H411.886V122.078H130.4a30.167,30.167,0,0,0-21.3,8.723,23.247,23.247,0,0,0-1.98,2.154,30.194,30.194,0,0,0-5.768,10.589c-.23.719-.4,1.435-.575,2.152A30.828,30.828,0,0,0,100.037,152.443Z" transform="translate(-100.037 -122.078)"/></g><g transform="translate(12.974 11.558)"><path class="e" d="M412.065,122.089V182.8H131.933a32.459,32.459,0,0,1-22.549-8.886,28.668,28.668,0,0,1-2.5-2.694l-.026-.024a26.532,26.532,0,0,1-1.615-2.13.025.025,0,0,0-.026-.026,29.185,29.185,0,0,1-4.577-10.575c-.122-.71-.245-1.444-.345-2.154a28.5,28.5,0,0,1-.269-3.868c0-.586.026-1.176.048-1.763.026-.564.074-1.125.148-1.665.072-.562.146-1.125.245-1.689.1-.538.219-1.1.343-1.641.2-.71.367-1.42.612-2.154a30.111,30.111,0,0,1,6.046-10.575,24.373,24.373,0,0,1,2.082-2.154,32.564,32.564,0,0,1,22.376-8.716Z" transform="translate(-100.03 -122.089)"/></g><g transform="translate(12.974 11.554)"><path class="e" d="M412.065,122.091V182.8H130.414a30.2,30.2,0,0,1-19.317-6.929,26.775,26.775,0,0,1-2.154-1.958v-.026a26.827,26.827,0,0,1-2.4-2.668V171.2A19.312,19.312,0,0,1,105,169.042c-.269-.391-.514-.784-.76-1.176v-.024c-.465-.808-.929-1.641-1.344-2.5a27,27,0,0,1-1.422-3.623,13.322,13.322,0,0,1-.391-1.3,17.518,17.518,0,0,1-.467-1.96c-.122-.734-.245-1.444-.319-2.154a28.5,28.5,0,0,1-.269-3.868c0-.586.026-1.176.048-1.763.026-.564.074-1.125.148-1.665.072-.562.146-1.125.245-1.689.1-.538.194-1.1.317-1.641.173-.71.345-1.444.564-2.154a23.779,23.779,0,0,1,1.053-2.865,25.192,25.192,0,0,1,1.322-2.74,29.641,29.641,0,0,1,3.4-4.969,13.312,13.312,0,0,1,.955-1.1,13.458,13.458,0,0,1,1.029-1.051,29.96,29.96,0,0,1,3.28-2.816c.391-.269.784-.564,1.175-.832.808-.514,1.641-1.031,2.473-1.5.857-.439,1.739-.857,2.646-1.248.905-.367,1.811-.712,2.766-1a30.836,30.836,0,0,1,8.959-1.322H412.065Z" transform="translate(-100.03 -122.087)"/></g><g transform="translate(13.243 20.263)"><g transform="translate(6.83)"><path class="f" d="M103.88,128.964H408.639V126.81H105.862A23.293,23.293,0,0,0,103.88,128.964Z" transform="translate(-103.88 -126.81)"/></g><g transform="translate(0.489 12.743)"><path class="f" d="M100.441,135.873h311.1v-2.152H101.014C100.784,134.438,100.614,135.156,100.441,135.873Z" transform="translate(-100.441 -133.721)"/></g><g transform="translate(0 25.512)"><path class="f" d="M100.176,140.646c.087.719.2,1.435.315,2.152H411.765v-2.152Z" transform="translate(-100.176 -140.646)"/></g><g transform="translate(4.707 38.257)"><path class="f" d="M102.729,147.558a18.546,18.546,0,0,0,1.551,2.152H409.612v-2.152Z" transform="translate(-102.729 -147.558)"/></g></g><g transform="translate(44.425 21.574)"><path class="a" d="M117.087,150.721l7.894-7.416,7.055,7.416v-23.2H117.087Z" transform="translate(-117.087 -127.521)"/></g></g><g transform="translate(21.627 248.553)"><path class="g" d="M476.607,262.164v60.723h14.808v11.576H128.37a41.673,41.673,0,0,1-29.329-12.321,42.109,42.109,0,0,1,18.238-70,40.855,40.855,0,0,1,11.091-1.519H491.415v11.545Z" transform="translate(-86.916 -250.619)"/><g transform="translate(216.684 11.541)"><path class="e" d="M204.43,287.243a28.762,28.762,0,0,0,.258,3.874c.087.719.2,1.435.317,2.154a29.814,29.814,0,0,0,4.39,10.59,18.388,18.388,0,0,0,1.551,2.152,26.175,26.175,0,0,0,2.382,2.7,30.139,30.139,0,0,0,21.469,8.9h142.45V256.878H234.8a30.172,30.172,0,0,0-21.3,8.723,22.967,22.967,0,0,0-1.979,2.154,30.181,30.181,0,0,0-5.77,10.589c-.23.717-.4,1.435-.575,2.152A30.717,30.717,0,0,0,204.43,287.243Z" transform="translate(-204.43 -256.878)"/></g><g transform="translate(216.676 11.559)"><path class="e" d="M377.428,256.888V317.6h-141.1a32.451,32.451,0,0,1-22.547-8.886,28.424,28.424,0,0,1-2.5-2.694l-.026-.024a26.534,26.534,0,0,1-1.615-2.13.025.025,0,0,0-.026-.026,29.17,29.17,0,0,1-4.577-10.575c-.122-.71-.245-1.444-.343-2.154a28.209,28.209,0,0,1-.269-3.869c0-.588.026-1.176.048-1.763.026-.564.074-1.127.148-1.665.074-.562.147-1.125.245-1.689.1-.538.219-1.1.343-1.641.2-.71.367-1.42.612-2.154a30.139,30.139,0,0,1,6.046-10.575,24.661,24.661,0,0,1,2.082-2.156,32.572,32.572,0,0,1,22.376-8.716h141.1Z" transform="translate(-204.426 -256.888)"/></g><g transform="translate(216.674 11.556)"><path class="e" d="M377.429,256.89V317.6H234.807a30.191,30.191,0,0,1-19.317-6.929,27.093,27.093,0,0,1-2.154-1.958v-.026a27.275,27.275,0,0,1-2.4-2.668V306a19.152,19.152,0,0,1-1.542-2.156c-.269-.391-.514-.784-.76-1.175v-.026c-.465-.808-.929-1.641-1.344-2.5a27,27,0,0,1-1.422-3.623,13.334,13.334,0,0,1-.391-1.3,17.531,17.531,0,0,1-.467-1.96c-.122-.734-.243-1.444-.317-2.154a28.209,28.209,0,0,1-.269-3.868c0-.588.026-1.176.048-1.763.026-.564.074-1.127.148-1.665.074-.562.147-1.125.245-1.689.1-.538.2-1.1.319-1.641.172-.71.343-1.444.562-2.154a24.093,24.093,0,0,1,1.053-2.865,25.2,25.2,0,0,1,1.322-2.74,29.719,29.719,0,0,1,3.4-4.969,13.322,13.322,0,0,1,.955-1.1,13.8,13.8,0,0,1,1.029-1.053,30.137,30.137,0,0,1,3.28-2.814c.391-.269.784-.564,1.175-.832.808-.514,1.641-1.029,2.474-1.5q1.283-.658,2.644-1.248c.905-.367,1.811-.71,2.766-1a30.848,30.848,0,0,1,8.959-1.324h142.62Z" transform="translate(-204.425 -256.886)"/></g><g transform="translate(216.942 20.264)"><g transform="translate(6.832)"><path class="f" d="M208.275,263.763H374v-2.154H210.254A22.979,22.979,0,0,0,208.275,263.763Z" transform="translate(-208.275 -261.609)"/></g><g transform="translate(0.487 12.745)"><path class="f" d="M204.834,270.673H376.9v-2.152h-171.5C205.179,269.236,205.007,269.956,204.834,270.673Z" transform="translate(-204.834 -268.521)"/></g><g transform="translate(0 25.514)"><path class="f" d="M204.57,275.446c.087.719.2,1.435.317,2.154h172.24v-2.154Z" transform="translate(-204.57 -275.446)"/></g><g transform="translate(4.707 38.257)"><path class="f" d="M207.123,282.357a18.388,18.388,0,0,0,1.551,2.152h166.3v-2.152Z" transform="translate(-207.123 -282.357)"/></g></g><g transform="translate(248.124 21.575)"><path class="h" d="M221.481,285.518l7.892-7.412,7.055,7.412v-23.2H221.481Z" transform="translate(-221.481 -262.32)"/></g><g transform="translate(203.063 0.002)"><path class="h" d="M218.058,271.928c-.354.354-.679.743-.97,1.1h.356a30.071,30.071,0,0,0-6.046,10.606c-.26.712-.42,1.422-.614,2.133-.129.549-.26,1.1-.356,1.65s-.16,1.13-.225,1.682-.129,1.1-.162,1.68c0,.583-.033,1.165-.033,1.746a30.342,30.342,0,0,0,.26,3.88c.1.712.225,1.422.354,2.133a29.175,29.175,0,0,0,4.56,10.573.033.033,0,0,1,.033.033,24.691,24.691,0,0,0,1.617,2.133l.033.033a24.1,24.1,0,0,0,2.489,2.683,29.6,29.6,0,0,0,3.461,2.878c.225.129.42.291.647.422a1.736,1.736,0,0,1,.289.225.787.787,0,0,1,.291.194h.033a32.887,32.887,0,0,0,15.974,5.141h.872a.192.192,0,0,0,.129.033H398.485v11.545H238.5a40.613,40.613,0,0,1-13.484-2.3,41.268,41.268,0,0,1-15.845-9.992,42.109,42.109,0,0,1,18.236-70A40.7,40.7,0,0,1,238.5,250.62H398.485v11.545H240.369c-.354,0-.679,0-1.036.033-.42,0-.839.033-1.261.065h-.065c-.743.065-1.488.129-2.231.258q-1.068.147-2.133.389a.472.472,0,0,0-.194.065c-.679.129-1.357.323-2.036.516-.939.291-1.842.647-2.747,1-.905.387-1.779.808-2.652,1.261-.841.452-1.65.97-2.456,1.488-.194.129-.389.26-.551.387a4.729,4.729,0,0,0-.647.454,1.746,1.746,0,0,0-.452.387c-.389.26-.743.551-1.1.841-.581.518-1.163,1.036-1.713,1.584A14.4,14.4,0,0,0,218.058,271.928Z" transform="translate(-197.043 -250.62)"/></g></g><g transform="translate(0 164.807)"><g transform="translate(0 0.004)"><path class="i" d="M471.859,247.107A41.891,41.891,0,0,1,459.7,276.726a41.673,41.673,0,0,1-29.327,12.319H75.187V277.471H90.029V216.748H75.187V205.2H430.375a40.615,40.615,0,0,1,11.091,1.519A41.952,41.952,0,0,1,471.859,247.107Z" transform="translate(-75.187 -205.203)"/><g transform="translate(15.017 11.539)"><path class="e" d="M329.587,241.824a28.783,28.783,0,0,1-.258,3.876c-.087.717-.2,1.435-.317,2.152a29.8,29.8,0,0,1-4.39,10.589,18.411,18.411,0,0,1-1.551,2.154,26.169,26.169,0,0,1-2.382,2.7,30.138,30.138,0,0,1-21.467,8.9H83.331V211.461H299.225a30.17,30.17,0,0,1,21.3,8.723,22.744,22.744,0,0,1,1.978,2.154,30.153,30.153,0,0,1,5.77,10.59c.23.717.4,1.435.575,2.152A30.811,30.811,0,0,1,329.587,241.824Z" transform="translate(-83.331 -211.461)"/></g><g transform="translate(14.84 11.557)"><path class="e" d="M83.235,211.471v60.712H297.78a32.451,32.451,0,0,0,22.547-8.886,27.957,27.957,0,0,0,2.5-2.692l.026-.026a26.525,26.525,0,0,0,1.615-2.128.025.025,0,0,1,.026-.026,29.2,29.2,0,0,0,4.577-10.575c.122-.71.245-1.444.343-2.156a28.183,28.183,0,0,0,.269-3.868c0-.586-.026-1.175-.048-1.763-.026-.562-.074-1.125-.148-1.663-.074-.564-.146-1.125-.245-1.689-.1-.538-.219-1.1-.343-1.641-.2-.71-.367-1.422-.612-2.154a30.147,30.147,0,0,0-6.046-10.577,24.627,24.627,0,0,0-2.082-2.154,32.572,32.572,0,0,0-22.376-8.716H83.235Z" transform="translate(-83.235 -211.471)"/></g><g transform="translate(14.84 11.554)"><path class="e" d="M83.235,211.473v60.712H299.3a30.2,30.2,0,0,0,19.317-6.928,27.127,27.127,0,0,0,2.154-1.96v-.024a27.039,27.039,0,0,0,2.4-2.668v-.026a19.124,19.124,0,0,0,1.542-2.154c.269-.393.514-.784.76-1.176v-.024c.465-.808.929-1.641,1.344-2.5a27.2,27.2,0,0,0,1.422-3.623,13.36,13.36,0,0,0,.391-1.3,17.386,17.386,0,0,0,.467-1.958c.122-.734.245-1.444.317-2.156a28.183,28.183,0,0,0,.269-3.869c0-.586-.026-1.175-.048-1.763-.026-.562-.074-1.125-.148-1.663-.074-.564-.146-1.125-.245-1.689-.1-.538-.2-1.1-.319-1.641-.172-.71-.343-1.444-.562-2.154a23.789,23.789,0,0,0-1.053-2.865,25.4,25.4,0,0,0-1.322-2.742,29.8,29.8,0,0,0-3.4-4.969,24.731,24.731,0,0,0-1.984-2.154,29.937,29.937,0,0,0-3.28-2.814c-.391-.269-.784-.564-1.175-.833-.808-.513-1.641-1.029-2.473-1.494q-1.286-.661-2.646-1.248c-.905-.367-1.811-.712-2.766-1a30.845,30.845,0,0,0-8.959-1.322H83.235Z" transform="translate(-83.235 -211.469)"/></g><g transform="translate(15.017 20.263)"><path class="f" d="M322.5,218.346H83.331v-2.154h237.19A23.247,23.247,0,0,1,322.5,218.346Z" transform="translate(-83.331 -216.192)"/><g transform="translate(0 12.745)"><path class="f" d="M328.842,225.256H83.331V223.1H328.269C328.5,223.819,328.669,224.539,328.842,225.256Z" transform="translate(-83.331 -223.104)"/></g><g transform="translate(0 25.514)"><path class="f" d="M329.331,230.029c-.087.717-.2,1.435-.317,2.152H83.331v-2.152Z" transform="translate(-83.331 -230.029)"/></g><g transform="translate(0 38.255)"><path class="f" d="M324.623,236.939a18.408,18.408,0,0,1-1.551,2.154H83.331v-2.154Z" transform="translate(-83.331 -236.939)"/></g></g><g transform="translate(214.886 21.574)"><path class="j" d="M206.674,240.1l-7.894-7.412-7.055,7.412V216.9h14.948Z" transform="translate(-191.726 -216.903)"/></g></g><path class="j" d="M349.6,247.109a41.919,41.919,0,0,1-12.124,29.618,41.249,41.249,0,0,1-15.845,9.99,40.612,40.612,0,0,1-13.484,2.3H75.187V277.471H305.6a.118.118,0,0,0,.1-.033h.9a30.23,30.23,0,0,0,5.95-.905,32.232,32.232,0,0,0,10.025-4.235h.033a.738.738,0,0,1,.289-.194,1.735,1.735,0,0,1,.291-.227c.227-.127.42-.289.647-.42a29.768,29.768,0,0,0,3.459-2.878,24.323,24.323,0,0,0,2.491-2.685l.033-.033a25.064,25.064,0,0,0,1.617-2.133.033.033,0,0,1,.033-.033c.42-.581.776-1.195,1.163-1.809.033-.033.033-.1.065-.129a17.2,17.2,0,0,0,.905-1.746.033.033,0,0,0,.033-.033,29.289,29.289,0,0,0,2.393-6.854c.127-.714.258-1.422.354-2.135a30.347,30.347,0,0,0,.26-3.88c0-.583-.033-1.165-.033-1.746-.033-.581-.1-1.13-.162-1.682s-.129-1.13-.227-1.68-.225-1.1-.354-1.65c-.194-.712-.356-1.422-.614-2.133a31.34,31.34,0,0,0-2.491-5.628,30.318,30.318,0,0,0-3.557-4.979h.354c-.289-.356-.614-.743-.968-1.1-.325-.354-.679-.712-1.036-1.034-.549-.549-1.13-1.068-1.715-1.584-.354-.291-.712-.581-1.1-.841a1.659,1.659,0,0,0-.454-.387,4.413,4.413,0,0,0-.647-.454c-.16-.129-.354-.258-.549-.387-.808-.518-1.617-1.036-2.458-1.488-.872-.454-1.744-.874-2.652-1.263-.905-.354-1.811-.712-2.749-1-.677-.194-1.357-.389-2.036-.518a.442.442,0,0,0-.194-.063c-.714-.162-1.422-.291-2.135-.389a14.466,14.466,0,0,0-1.68-.194,3.1,3.1,0,0,0-.549-.065h-.227c-.356-.033-.743-.065-1.1-.065-.354-.031-.679-.031-1.034-.031H75.187V205.2H308.152a40.614,40.614,0,0,1,11.091,1.519A41.91,41.91,0,0,1,349.6,247.109Z" transform="translate(-75.187 -205.201)"/></g><g transform="translate(87.012 80.971)"><path class="k" d="M479.728,171.275V232h14.808v11.543H163.86a41.289,41.289,0,0,1-29.327-12.286,42.072,42.072,0,0,1,18.236-70,40.437,40.437,0,0,1,11.091-1.519H494.537v11.545H479.728Z" transform="translate(-122.376 -159.734)"/><g transform="translate(208.829 11.532)"><path class="e" d="M235.63,196.353a28.781,28.781,0,0,0,.258,3.874c.087.719.2,1.435.317,2.152a29.8,29.8,0,0,0,4.39,10.589,18.41,18.41,0,0,0,1.551,2.154,26.166,26.166,0,0,0,2.382,2.7,30.138,30.138,0,0,0,21.467,8.9H383.966V165.988H266a30.171,30.171,0,0,0-21.3,8.723,22.991,22.991,0,0,0-1.978,2.154,30.144,30.144,0,0,0-5.77,10.588c-.229.719-.4,1.436-.575,2.154A30.707,30.707,0,0,0,235.63,196.353Z" transform="translate(-235.63 -165.988)"/></g><g transform="translate(208.819 11.55)"><path class="e" d="M384.145,166V226.71H267.524a32.454,32.454,0,0,1-22.547-8.886,28.2,28.2,0,0,1-2.5-2.692l-.026-.026a26.228,26.228,0,0,1-1.615-2.13.023.023,0,0,0-.024-.024,29.2,29.2,0,0,1-4.578-10.575c-.122-.71-.245-1.444-.343-2.154a28.5,28.5,0,0,1-.269-3.868c0-.588.026-1.178.048-1.765.026-.562.074-1.125.148-1.663.074-.562.147-1.127.245-1.689.1-.538.219-1.1.343-1.641.2-.71.367-1.422.612-2.156a30.147,30.147,0,0,1,6.046-10.573,24.653,24.653,0,0,1,2.082-2.156A32.572,32.572,0,0,1,267.524,166H384.145Z" transform="translate(-235.625 -165.998)"/></g><g transform="translate(208.819 11.546)"><path class="e" d="M384.145,166v60.712H266.007a30.2,30.2,0,0,1-19.317-6.928,27.121,27.121,0,0,1-2.154-1.96V217.8a27.013,27.013,0,0,1-2.4-2.668v-.026a18.912,18.912,0,0,1-1.543-2.154c-.269-.393-.513-.784-.758-1.176v-.024c-.467-.808-.931-1.641-1.346-2.5a27.2,27.2,0,0,1-1.422-3.623,13.489,13.489,0,0,1-.391-1.3,17.5,17.5,0,0,1-.465-1.96c-.122-.734-.245-1.444-.319-2.154a28.5,28.5,0,0,1-.269-3.868c0-.588.026-1.178.048-1.765.026-.562.074-1.125.148-1.663.074-.562.147-1.127.245-1.689.1-.538.2-1.1.319-1.641.172-.71.343-1.444.562-2.156A23.751,23.751,0,0,1,238,184.577a25.546,25.546,0,0,1,1.322-2.74,29.643,29.643,0,0,1,3.4-4.969,13.312,13.312,0,0,1,.955-1.1,13.81,13.81,0,0,1,1.029-1.053,30.147,30.147,0,0,1,3.28-2.814c.391-.269.784-.564,1.175-.832.808-.514,1.641-1.031,2.473-1.5q1.286-.658,2.646-1.25c.905-.367,1.811-.71,2.766-1A30.847,30.847,0,0,1,266.009,166H384.145Z" transform="translate(-235.625 -165.996)"/></g><g transform="translate(209.087 20.257)"><g transform="translate(6.832)"><path class="f" d="M239.475,172.874H380.721V170.72H241.455A22.786,22.786,0,0,0,239.475,172.874Z" transform="translate(-239.475 -170.72)"/></g><g transform="translate(0.489 12.741)"><path class="f" d="M236.035,179.784H383.624V177.63H236.61C236.38,178.349,236.206,179.066,236.035,179.784Z" transform="translate(-236.035 -177.63)"/></g><g transform="translate(0 25.514)"><path class="f" d="M235.77,184.557c.087.719.2,1.435.317,2.152H383.848v-2.152Z" transform="translate(-235.77 -184.557)"/></g><g transform="translate(4.707 38.255)"><path class="f" d="M238.323,191.467a18.41,18.41,0,0,0,1.551,2.154h141.82v-2.154Z" transform="translate(-238.323 -191.467)"/></g></g><g transform="translate(240.269 21.568)"><path class="l" d="M252.681,194.629l7.892-7.414,7.057,7.414v-23.2H252.681Z" transform="translate(-252.681 -171.431)"/></g><g transform="translate(195.621)"><path class="l" d="M249.482,181.038c-.354.356-.679.743-.97,1.1h.356c-.581.679-1.132,1.357-1.682,2.069-.354.518-.743,1.066-1.066,1.617a28.313,28.313,0,0,0-3.3,6.918c-.26.714-.42,1.422-.614,2.135-.129.549-.26,1.1-.356,1.65s-.16,1.13-.225,1.68-.129,1.1-.162,1.682c0,.581-.033,1.165-.033,1.744a30.32,30.32,0,0,0,.26,3.88c.1.712.225,1.423.354,2.133a29.013,29.013,0,0,0,3.784,9.378c.26.42.516.808.776,1.195a.032.032,0,0,1,.033.033.886.886,0,0,0,.162.194,20.21,20.21,0,0,0,1.455,1.94l.033.033a23.951,23.951,0,0,0,2.489,2.685,32.508,32.508,0,0,0,20.888,8.86h.26c.452.033.939.033,1.39.033h131.7v11.543H269.922a40.613,40.613,0,0,1-13.484-2.3,41.241,41.241,0,0,1-15.845-9.99,42.108,42.108,0,0,1,18.236-70,40.627,40.627,0,0,1,11.093-1.519H405.013v11.545H271.537c-.549,0-1.066.033-1.582.063a.539.539,0,0,0-.227.033h-.291c-.743.065-1.488.129-2.231.26q-1.068.144-2.133.387a.471.471,0,0,0-.194.065c-.679.129-1.357.324-2.036.518-.939.289-1.842.647-2.747,1-.905.389-1.779.808-2.652,1.261-.839.454-1.648.97-2.456,1.488-.194.129-.389.26-.551.389a4.731,4.731,0,0,0-.647.454,1.678,1.678,0,0,0-.452.387c-.389.258-.743.549-1.1.841-.581.516-1.163,1.034-1.713,1.584A13.05,13.05,0,0,0,249.482,181.038Z" transform="translate(-228.467 -159.734)"/></g></g></g><g transform="translate(450.889 185.927)"><path class="m" d="M271.23,132.726l-10.848,49.267h0a153.9,153.9,0,0,0,128.062,28.861l1.5-.336,10.848-49.267Z" transform="translate(-236.808 -107.856)"/><path class="g" d="M341.363,183.081l107.822-9.728-93.766-54.115L247.6,128.968Z" transform="translate(-247.597 -119.238)"/><path class="n" d="M329.31,134.819c-4.813-1.06-9.07-.31-9.507,1.68a1.851,1.851,0,0,0,.192,1.147L280.142,145.8l-5.679,25.805-2.275-.5-1.042,4.737,7.578,1.667,1.042-4.735-2.272-.5,5.25-23.834,40.086-8.209a18.683,18.683,0,0,0,4.9,1.785c4.813,1.058,9.07.306,9.507-1.682S334.122,135.878,329.31,134.819Z" transform="translate(-227.724 -106.495)"/></g><g transform="translate(262.562 40.213)"><path class="k" d="M182.012,97.244v.581a3.452,3.452,0,1,1-6.9,0v-.581" transform="translate(-120.444 7.915)"/><path class="n" d="M189.361,53.174a27.416,27.416,0,0,0-27.415,27.417c0,14.495,11.6,24.874,16.63,36.186a2.544,2.544,0,0,0,2.32,1.519h17.543a2.542,2.542,0,0,0,2.32-1.519c5.028-11.312,16.632-21.692,16.632-36.186a27.419,27.419,0,0,0-27.419-27.417" transform="translate(-131.551 -29.276)"/><path class="o" d="M202.241,72.715a5.5,5.5,0,0,0-10.986-.463h-.007l-.494,4.388H179.066l-.491-4.388h-.009a5.5,5.5,0,1,0-5.605,5.965v.048h4.652l3.136,28.014,1.613-.181-3.116-27.834h11.322L187.453,106.1l1.613.181L192.2,78.265h4.65v-.048A5.515,5.515,0,0,0,202.241,72.715ZM173.1,76.641v-.035a3.892,3.892,0,1,1,3.892-3.892h0l.439,3.926H173.1Zm23.628-.033v.035H192.39l.439-3.926h0c0-.085.02-.164.026-.249l0-.033h0a3.883,3.883,0,1,1,3.865,4.173Z" transform="translate(-126.797 -17.441)"/><path class="k" d="M190.542,94.463H173.486a2.473,2.473,0,0,1-2.473-2.473h0a2.473,2.473,0,0,1,2.473-2.473h17.056a2.472,2.472,0,0,1,2.473,2.473h0A2.471,2.471,0,0,1,190.542,94.463Z" transform="translate(-123.899 1.395)"/><path class="k" d="M192.127,93.08H171.344a7.717,7.717,0,0,0,7.717,7.717h5.347a7.718,7.718,0,0,0,7.719-7.717Z" transform="translate(-123.62 4.401)"/><g transform="translate(77.984 0.812)"><path class="n" d="M189.177,59.746a1.4,1.4,0,0,1-.684-.177,1.422,1.422,0,0,1-.562-1.931l8.935-16.247a1.423,1.423,0,0,1,2.493,1.372L190.423,59.01A1.424,1.424,0,0,1,189.177,59.746Z" transform="translate(-187.755 -40.654)"/></g><g transform="translate(92.469 27.349)"><path class="n" d="M197.035,62.357a1.422,1.422,0,0,1-.7-2.663l7.988-4.468a1.421,1.421,0,1,1,1.387,2.48l-7.988,4.466A1.389,1.389,0,0,1,197.035,62.357Z" transform="translate(-195.611 -55.046)"/></g><g transform="translate(97.753 51.855)"><path class="n" d="M218.851,71.179H199.9a1.422,1.422,0,0,1,0-2.843h18.953a1.422,1.422,0,0,1,0,2.843Z" transform="translate(-198.476 -68.336)"/></g><g transform="translate(92.742 72.027)"><path class="n" d="M204.084,86.453a1.413,1.413,0,0,1-.756-.218l-6.9-4.333a1.421,1.421,0,1,1,1.51-2.408l6.907,4.333a1.422,1.422,0,0,1-.758,2.626Z" transform="translate(-195.759 -79.276)"/></g><g transform="translate(57.675 2.981)"><path class="n" d="M178.163,53.338a1.421,1.421,0,0,1-1.422-1.422V43.252a1.422,1.422,0,1,1,2.843,0v8.664A1.421,1.421,0,0,1,178.163,53.338Z" transform="translate(-176.741 -41.83)"/></g><g transform="translate(27.619)"><path class="n" d="M172.019,59.983a1.414,1.414,0,0,1-1.221-.691L160.644,42.368a1.422,1.422,0,0,1,2.439-1.462l10.154,16.923a1.423,1.423,0,0,1-1.219,2.154Z" transform="translate(-160.441 -40.213)"/></g><g transform="translate(14.35 26.266)"><path class="n" d="M163.061,62.311a1.426,1.426,0,0,1-.73-.2l-8.393-5.01a1.422,1.422,0,1,1,1.459-2.441l8.393,5.01a1.422,1.422,0,0,1-.728,2.642Z" transform="translate(-153.244 -54.458)"/></g><g transform="translate(0 48.74)"><path class="n" d="M164.353,72.2a1.445,1.445,0,0,1-.219-.017l-17.467-2.709a1.422,1.422,0,1,1,.435-2.81l17.465,2.709a1.422,1.422,0,0,1-.214,2.827Z" transform="translate(-145.462 -66.647)"/></g><g transform="translate(14.894 71.756)"><path class="n" d="M154.962,85.765a1.422,1.422,0,0,1-.594-2.714l8.259-3.791a1.421,1.421,0,0,1,1.186,2.583l-8.259,3.791A1.42,1.42,0,0,1,154.962,85.765Z" transform="translate(-153.539 -79.129)"/></g><g transform="translate(61.523 27.493)"><path class="o" d="M199.117,80.887a.917.917,0,0,1-.9-.8c-2.183-17.25-18.6-23.135-18.771-23.193a.911.911,0,1,1,.6-1.722c.179.061,17.661,6.326,19.986,24.688a.914.914,0,0,1-.793,1.02C199.2,80.884,199.155,80.887,199.117,80.887Z" transform="translate(-178.828 -55.123)"/></g></g><g transform="translate(230.372 303.316)"><path class="p" d="M128,196.4V378.9a13.5,13.5,0,0,0,13.508,13.5H221.49A13.5,13.5,0,0,0,235,378.9V196.4a13.5,13.5,0,0,0-13.508-13.5H141.512A13.5,13.5,0,0,0,128,196.4Z" transform="translate(-128.004 -182.902)"/><path class="m" d="M128,195.75V369.419c0,7.1,6.046,12.848,13.508,12.848H221.49c7.464,0,13.508-5.753,13.508-12.848V195.752c0-7.1-6.044-12.85-13.508-12.85H141.512C134.052,182.9,128,188.653,128,195.75Z" transform="translate(-128.004 -182.902)"/><path class="q" d="M140.08,186.44h76.654a8.4,8.4,0,0,1,8.4,8.4V356.619a8.4,8.4,0,0,1-8.4,8.4H140.076a8.4,8.4,0,0,1-8.4-8.4V194.844a8.4,8.4,0,0,1,8.4-8.4Z" transform="translate(-124.904 -179.916)"/><g transform="translate(10.932 23.574)"><path class="k" d="M215.245,242.867H137.754a3.82,3.82,0,0,1-3.821-3.821V199.508a3.82,3.82,0,0,1,3.821-3.821h77.492a3.821,3.821,0,0,1,3.822,3.821v39.539A3.821,3.821,0,0,1,215.245,242.867Z" transform="translate(-133.933 -195.687)"/><g transform="translate(3.743 36.074)"><g transform="translate(70.944)"><circle class="r" cx="3.35" cy="3.35" r="3.35"/><g transform="translate(2.218 1.311)"><path class="s" d="M175.99,220.045a.35.35,0,0,1-.256-.588L177.081,218l-1.348-1.453a.35.35,0,0,1,.513-.476L178.035,218l-1.789,1.931A.356.356,0,0,1,175.99,220.045Z" transform="translate(-175.641 -215.962)"/></g></g><circle class="r" cx="3.35" cy="3.35" r="3.35"/><g transform="translate(2.093 1.309)"><path class="s" d="M139.141,220.045a.345.345,0,0,1-.256-.114L137.1,218l1.787-1.929a.35.35,0,1,1,.513.476L138.051,218l1.346,1.457a.35.35,0,0,1-.256.586Z" transform="translate(-137.098 -215.961)"/></g></g><path class="q" d="M168.929,212.712l-16.02-9.247v18.5Z" transform="translate(-117.919 -189.123)"/></g><g transform="translate(10.931 80.027)"><rect class="t" width="85.136" height="6.981"/><rect class="t" width="85.136" height="6.981" transform="translate(0 16.652)"/><rect class="t" width="85.136" height="6.981" transform="translate(0 33.304)"/><rect class="t" width="85.136" height="6.981" transform="translate(0 49.957)"/><rect class="t" width="85.136" height="6.981" transform="translate(0 66.611)"/><rect class="t" width="85.136" height="6.981" transform="translate(0 83.263)"/></g></g><g transform="translate(6.7 354.175)"><path class="a" d="M45.5,333.068c-2.244-5.159-11.255-25-13.47-37.531S23,272.813,22.81,266.546s10.1-9.95,12.787-22.818S43.692,209.861,47.03,210.5s5.622,23.687,8.8,29.371,11.751,12.745,5.109,20.936-3.1,17.982,3,26.532-11.174,19.2-9.478,30.835-1.527,27.28-1.527,27.28Z" transform="translate(6.893 -210.484)"/><g transform="translate(46.455 25.68)"><path class="b" d="M40.813,296.479a1.014,1.014,0,0,1-1-.9,66.466,66.466,0,0,0-5.039-18.212c-1.475-3.7-2.749-6.905-2.867-9.9-.144-3.677,1.925-6.537,3.92-9.3,1.855-2.563,3.771-5.211,4.228-8.7.959-7.3-5.626-23.495-5.692-23.657a1.015,1.015,0,0,1,1.879-.767c.277.684,6.85,16.859,5.823,24.69-.524,3.994-2.685,6.983-4.593,9.62-1.96,2.712-3.653,5.054-3.538,8.032.105,2.652,1.261,5.557,2.723,9.234a68.106,68.106,0,0,1,5.172,18.74,1.012,1.012,0,0,1-.9,1.117C40.888,296.477,40.85,296.479,40.813,296.479Z" transform="translate(-31.894 -224.411)"/></g><path class="b" d="M41.931,315.113c-2.491-1.117-3.3-14.7-7.855-16.722s-7.855-8.36-9.374-14.947S9.753,274.07,7.218,266.975s5.069-12.162,4.564-18.749S5.7,232.263,9.753,227.956,20.9,238.6,24.7,241.638s11.146,6.336,9.12,11.908.76,14.7,13.936,19.765S69.547,327.53,41.931,315.113Z" transform="translate(-6.7 -196.393)"/><g transform="translate(12.792 49.807)"><path class="a" d="M38.1,283.1a1.014,1.014,0,0,1-.964-.7c-2.585-7.923-6.662-11.045-11.381-14.659a51.664,51.664,0,0,1-7.411-6.513c-7.372-8.161-3.929-22.366-3.78-22.968a1.014,1.014,0,0,1,1.967.492c-.035.136-3.328,13.763,3.315,21.118a50.189,50.189,0,0,0,7.136,6.262c4.781,3.662,9.3,7.117,12.079,15.638a1.016,1.016,0,0,1-.651,1.28A1.076,1.076,0,0,1,38.1,283.1Z" transform="translate(-13.638 -237.496)"/></g><path class="b" d="M40.8,318.15c.675-2.026,1.35-10.809,6.081-12.837s9.459-3.378,13.176-9.459,0-15.54,4.053-21.957,13.176-.339,17.9-6.758-5.744-17.565-2.028-22.3,8.784-17.565,3.717-19.254-19.256,7.431-22.973,15.54S49.584,253.966,47.9,260.383s-7.1,9.8-8.445,16.215.673,16.217-1.689,23.311S40.8,318.15,40.8,318.15Z" transform="translate(19.007 -197.91)"/><path class="c" d="M68.549,318.672H26.113a5.7,5.7,0,0,1-5.69-5.467L18.616,268h57.43l-1.807,45.207A5.7,5.7,0,0,1,68.549,318.672Z" transform="translate(3.356 -161.947)"/><g transform="translate(68.251 42.876)"><path class="a" d="M44.731,287.453c-.026,0-.052,0-.076,0a1.015,1.015,0,0,1-.939-1.084c1.276-17.526,7.361-27.033,13.746-34.695,4.862-5.836,7.875-17.065,7.907-17.178a1.014,1.014,0,1,1,1.96.518c-.125.478-3.159,11.777-8.31,17.958-6.168,7.4-12.046,16.59-13.28,33.542A1.014,1.014,0,0,1,44.731,287.453Z" transform="translate(-43.715 -233.737)"/></g></g><g transform="translate(108.087 229.411)"><path class="u" d="M70.431,246.155c-13.2-5.25-6.2,59.886-2.063,73.474s3.839-11.48,5.224-34.638S75.624,248.219,70.431,246.155Z" transform="translate(-60.764 -55.871)"/><path class="u" d="M94.849,244.957c-13.077-5.119-9.188,60.163-5.452,73.682s5.375,4.814,7.459-18.3S99.995,246.972,94.849,244.957Z" transform="translate(-41.332 -56.87)"/><path class="u" d="M97.158,281.78l-1.816,17.349-6.926-1.141L86.69,279.121Z" transform="translate(-40.584 -27.798)"/><path class="u" d="M74.991,281.914l-1.975,17.333L66.1,298.04l-1.553-18.881Z" transform="translate(-59.269 -27.766)"/><path class="u" d="M81.118,214.652c-5.089.935-8.454,6.568-7.355,12.21a152.207,152.207,0,0,0,6.972,22.42c7.368,17.867,13.309,34.828,20.6,35.447s9.347-12.581,4.057-30.939c-4.785-16.6-6.739-38.248-11.993-39.8C90.737,213.2,85.569,213.833,81.118,214.652Z" transform="translate(-51.669 -83.067)"/><path class="u" d="M74.806,213.329c-4.837-.8-9.813,3.33-10.842,8.941a156.355,156.355,0,0,0-1.783,23.137c.184,19.036-.575,36.758,5.655,39.729S80.574,276.506,82.4,257.7c1.654-17,7.6-37.78,3.505-40.951C83.832,215.14,79.034,214.031,74.806,213.329Z" transform="translate(-61.27 -83.404)"/><path class="u" d="M78.409,173.6a6.376,6.376,0,0,0,1.038,6.723c6.957,8.482,30.749,36.524,37.387,31.853,7.8-5.489-14.786-29.113-22.193-35.126C88.467,172.038,80.961,168.271,78.409,173.6Z" transform="translate(-48.033 -119.033)"/><path class="u" d="M95.1,202.849a6.292,6.292,0,0,1,3.229-4.855c8.766-5.095,40.663-23.3,44.235-20.661,4.149,3.065-40.639,31.431-43.131,30.29C97.5,206.732,94.854,206.144,95.1,202.849Z" transform="translate(-33.499 -113.916)"/><path class="u" d="M134.018,174.645c-.669-1.23-6.765,2.462-8.655,3.343a1.3,1.3,0,0,1-.54.183c-.061-.024-.035-.107.037-.221.441-.717,3.035-2.976,2.29-4.058-.817-1.189-5.585,1.588-7.464,3.638-.105.112-.236.23-.321.339-1.617,2.061-2.211,3.559-1.274,6.026,1.494,3.937,8.137.513,10.359-.736a13.1,13.1,0,0,0,4.525-4.66C133.935,176.863,134.388,175.329,134.018,174.645Z" transform="translate(-14.462 -116.842)"/><path class="v" d="M83.477,169.8l5.841,27.437,1.477,6.9s13.562,11.045,19.125,11.482c4.848.389,27.127-16.049,32.908-20.384.883-.669,1.383-1.04,1.383-1.04l-4.894-8.5s-25.062,11.139-27.127,10.628C110.107,195.807,83.477,169.8,83.477,169.8Z" transform="translate(-43.295 -120.054)"/><path class="w" d="M86.645,185.6l1.477,6.9s13.562,11.045,19.125,11.482c4.848.389,27.127-16.049,32.908-20.384-8.375,4.6-25.449,13.547-31.927,13.827C102.726,197.669,93.047,190.738,86.645,185.6Z" transform="translate(-40.622 -108.413)"/><path class="u" d="M105.036,168.376a4.49,4.49,0,0,1-.057.7,19.761,19.761,0,0,1-1.888,6.618,4.836,4.836,0,0,1-2.139,2.179,9.436,9.436,0,0,1-8.952-.1,7.659,7.659,0,0,1-1.147-.758l-.8,3.19-.466,1.829-.817,3.269-12.533-7.066L79.214,167.5a1.572,1.572,0,0,1-.136-.234l.157.02s10.859-.876,8.445-6.17c-1.713-3.774,0-5.506,1.672-5.8,1.715-.313,3.815,7.667,5.858,5.506,1.246-1.285-.135-3.579,1.383-5.935,2.025-3.212,8.64-.8,8.64-.8l.059.194c-.039,0-.059.022-.116.039A75.384,75.384,0,0,1,105.036,168.376Z" transform="translate(-49.406 -134.046)"/><path class="x" d="M86.344,168.13l-.8,3.19c-1.652-3.094-3.968-7.569-3.968-7.569Z" transform="translate(-44.9 -125.158)"/><path class="p" d="M61.751,267.092c.588,36.745,4.6,78.662,4.848,78.911.419.4,11.806-.14,11.806-.14l10-90.3a.015.015,0,0,0,.017.015c.358.762,11.947,25.077,12.773,31.1.822,6.107,6.245,57.222,6.245,57.222h11.25s4.444-48.336,3.9-63.9c-.561-15.553-14.248-66.155-14.248-66.155l-33.186-.793-5.921-.14C62.822,215.043,61.331,239.622,61.751,267.092Z" transform="translate(-61.685 -83.669)"/><path class="y" d="M61.751,267.092C65,228.125,73.993,214.67,75.158,213.055l-5.921-.14C62.822,215.043,61.331,239.622,61.751,267.092Z" transform="translate(-61.685 -83.669)"/><path class="v" d="M63.536,243.711c.031,1.615.031,3.31.124,4.956a23.1,23.1,0,0,0,.372,3.544c.171.76.638,2.921,1.584,3.076,1.117.186,4.647.466,5.764.6,1.134.157,2.253.28,3.387.406a102.46,102.46,0,0,0,30.483-1.584c.155-.033.326-.063.481-.111a2.3,2.3,0,0,0,1.073-.559,2.876,2.876,0,0,0,.6-1.554c.017-.063.017-.124.031-.188.188-1.055.374-2.113.513-3.17.063-.4.124-.822.188-1.228.044-.293.077-.588.124-.883q.581-4.149.933-8.251c.077-.994.155-1.988.216-2.983.73-10.672.483-21.284.14-32.316-.017-.371-.017-.76-.031-1.132a44.844,44.844,0,0,0-.529-4.988c-1.226-8-4.412-20.819-8.825-24.393l-1.289-.511a33.133,33.133,0,0,1-4.086-1.866,32.689,32.689,0,0,1-7.224-5.3c-6.184,2.255-12.212,5.9-15.428,11.639a19.319,19.319,0,0,0-1.506,3.433c-.232.653-.433,1.3-.607,1.973q-.373,1.466-.6,2.982c-.077.483-.14.948-.188,1.429-.138,1.01-.216,2.021-.3,3.044q-.86,3.822-1.366,7.551c-.124.839-.232,1.663-.326,2.487-.278,2.439-.6,4.956-.9,7.519-1.027,8.281-2.052,17-2.268,25.062-.14,1.071-.249,2.128-.356,3.17A74.874,74.874,0,0,0,63.536,243.711Z" transform="translate(-60.146 -123.865)"/><path class="w" d="M74.934,188.714s5.569,17.218,8.8,19.68,22.658,13.722,21.752,13.593S70.272,210.336,70.4,209.3s6.085-31.721,6.085-31.721Z" transform="translate(-54.329 -113.489)"/><path class="w" d="M69.123,224.246c3.992,6.184,20.554,13.438,34.507,23.46a2.3,2.3,0,0,0,1.073-.559,2.876,2.876,0,0,0,.6-1.554c.326-1.833.607-3.651.856-5.469q.581-4.149.933-8.251c.077-.994.155-1.988.216-2.983l-14.884-4.848-14.17-12.428L76.316,187.92l-7.785-14.464c-.232.653-.433,1.3-.607,1.973q-.373,1.466-.6,2.982c-.077.483-.14.948-.188,1.429l.063.5S63.5,215.5,69.123,224.246Z" transform="translate(-58.042 -116.968)"/><g transform="translate(12.146 50.443)"><path class="u" d="M72.983,170.521a6.379,6.379,0,0,0-3.88,5.591c-.793,10.944-2.847,47.659,5.183,48.843,9.439,1.394,9.323-31.293,8.091-40.756C81.35,176.317,78.5,168.419,72.983,170.521Z" transform="translate(-68.272 -170.177)"/><path class="u" d="M72.312,196.138a6.284,6.284,0,0,1,5.821-.35c9.347,3.927,43.1,18.406,43.143,22.851.053,5.157-49.573-13.49-50.161-16.165C70.658,200.39,69.534,197.923,72.312,196.138Z" transform="translate(-66.392 -149.027)"/></g><path class="v" d="M70.748,171.52c2.716-2.194,6.568-3,9.293-.813,2.495,2,5.074,6.109,5.412,14.556.673,16.89-1.613,29.984-.743,31.007S116.9,232.736,116.9,232.736l-3.6,8.8s-39.26-7.818-42.754-15.863S66.26,199.14,66.751,187.6C67.121,178.878,67.306,174.3,70.748,171.52Z" transform="translate(-57.523 -120.376)"/><path class="z" d="M91.428,216.121" transform="translate(-36.586 -80.963)"/><path class="y" d="M96.175,286.931a48.579,48.579,0,0,0,8.924,8.216c6.2,4.643,7.805,3.616,7.958,5.36s-25.6.433-25.6.433l-.245-14.358S96.168,286.556,96.175,286.931Z" transform="translate(-40.14 -21.501)"/><path class="y" d="M73.837,287.474a48.424,48.424,0,0,0,8.784,8.368c6.118,4.744,7.743,3.747,7.868,5.495s-25.6,0-25.6,0V286.974S73.837,287.1,73.837,287.474Z" transform="translate(-58.982 -21.171)"/><path class="aa" d="M94.315,211.771,93.1,212l-3.389.614-.857.16" transform="translate(-38.761 -84.634)"/><path class="ab" d="M71.431,281.165" transform="translate(-53.461 -26.073)"/><g transform="translate(36.569 86.49)"><g transform="translate(0.216)"><path class="ac" d="M91.237,221.826l4.475-.188,29.489-1.195,12.4-29.084-.343-.017-33.2-1.615L94.951,212.5Zm26.973-15.133c-.684,1.523-2.1,2.362-3.155,1.9-1.055-.5-1.366-2.1-.666-3.621.682-1.506,2.1-2.36,3.153-1.894C118.582,203.569,118.894,205.171,118.21,206.693Z" transform="translate(-73.532 -189.727)"/><path class="ad" d="M107.109,197.028c1.053.487,1.363,2.095.675,3.61s-2.1,2.362-3.151,1.89-1.364-2.095-.675-3.61S106.053,196.558,107.109,197.028Z" transform="translate(-63.107 -183.675)"/><path class="ad" d="M103.052,202.222l-3.717,9.321-17.7-9.638Z" transform="translate(-81.635 -179.45)"/></g><g transform="translate(0 22.448)"><path class="ad" d="M99.424,211.534l33.95-1.361-.219,1.569-33.941,1.3s.238-1.527.21-1.506l-.21,1.5-17.7-9.633.212-1.5" transform="translate(-81.518 -201.901)"/></g></g><path class="u" d="M94.321,209.854c.236-.013.47-.028.706-.039l.966-.055a2.316,2.316,0,0,0,.915-.105c.1-.048.194-.105.3-.149a1.264,1.264,0,0,1,.339-.09c.476-.066,1.031.013,1.423-.321a5.414,5.414,0,0,0,.889-1.422c.024-.039.046-.076.074-.112a4.788,4.788,0,0,1,2.333-1.73,4.007,4.007,0,0,1,3.688,1c.706.7.489,1.494.066,2.274a5.543,5.543,0,0,1-2.321,2.406,7.141,7.141,0,0,1-3.127.627,9.473,9.473,0,0,1-1.8-.144,13.03,13.03,0,0,1-1.726-.485,8.113,8.113,0,0,1-1.529-.656,4.413,4.413,0,0,1-1.027-.8A2.475,2.475,0,0,1,94.321,209.854Z" transform="translate(-34.144 -89.758)"/><path class="y" d="M77.065,162.094q.03-1.46.142-2.919c.271-3.494,1.239-7.44,4.344-9.057,2.486-1.3,5.475-.642,8.275-.533a20.369,20.369,0,0,0,12.6-3.8c1.56-1.121,3.048-2.51,4.936-2.875,2.535-.487,5.1,1.092,6.592,3.2a10.744,10.744,0,0,1,.492,11.368,10.933,10.933,0,0,1-10.093,5.2c-2.628-.219-6.621-1.91-8.473.988-1.5,2.358-.118,4.652-1.366,5.943-2.036,2.15-4.152-5.816-5.86-5.521-1.676.3-3.385,2.025-1.68,5.8,1.807,3.964-3.905,5.5-6.7,5.95-1.066.173-1.182.315-1.75-.518-.824-1.206-.835-4-1.027-5.436A51.539,51.539,0,0,1,77.065,162.094Z" transform="translate(-48.715 -142.821)"/><path class="u" d="M86.988,213.425" transform="translate(-40.333 -83.238)"/><path class="u" d="M86.988,213.425" transform="translate(-40.333 -83.238)"/><path class="y" d="M76.179,244.675a.015.015,0,0,0,.017.015c.358.762,11.947,25.077,12.773,31.1.822,6.107,6.245,57.222,6.245,57.222h1.305c-.249-10.239-1.259-45.1-3.031-58.51-2.065-15.8-14.495-48.686-14.495-48.686Z" transform="translate(-49.454 -72.779)"/><path class="ae" d="M93.664,220.9l29.489-1.195,12.4-29.084-.343-.017C132.211,198.618,115.509,212.68,93.664,220.9Z" transform="translate(-34.699 -102.498)"/></g></g></svg>