<svg xmlns="http://www.w3.org/2000/svg" width="33.283" height="33.283" viewBox="0 0 33.283 33.283">
  <path id="edit-tools_1_" data-name="edit-tools (1)" d="M6.5,7.346a1.3,1.3,0,0,1,1.3-1.3H25.482a1.3,1.3,0,0,1,0,2.6H7.8A1.3,1.3,0,0,1,6.5,7.346Zm20.282,5.2a1.3,1.3,0,0,0-1.3-1.3H7.8a1.3,1.3,0,1,0,0,2.6H25.482A1.3,1.3,0,0,0,26.782,12.547ZM7.8,16.447a1.3,1.3,0,0,0,0,2.6h5.981a1.3,1.3,0,0,0,0-2.6ZM32.141,26.626a3.9,3.9,0,0,1-5.517,5.515l-7.11-7.123a1.3,1.3,0,0,1-.333-.572L17.728,19.2a1.3,1.3,0,0,1,1.631-1.591l5.118,1.555a1.3,1.3,0,0,1,.542.326ZM21.6,23.423l4.779,4.788,1.839-1.839-4.806-4.816-2.544-.773Zm8.7,5.041-.25-.251-1.839,1.839.251.252A1.3,1.3,0,0,0,30.3,28.464ZM28.082,0H5.2A5.206,5.206,0,0,0,0,5.2V28.083a5.206,5.206,0,0,0,5.2,5.2H21.126a1.3,1.3,0,1,0,0-2.6H5.2a2.6,2.6,0,0,1-2.6-2.6V5.2A2.6,2.6,0,0,1,5.2,2.6H28.082a2.6,2.6,0,0,1,2.6,2.6V21.193a1.3,1.3,0,0,0,2.6,0V5.2a5.206,5.206,0,0,0-5.2-5.2Zm0,0" transform="translate(0.001 -0.001)" fill="#fff"/>
</svg>
