<svg xmlns="http://www.w3.org/2000/svg" xmlns:xlink="http://www.w3.org/1999/xlink" width="407.122" height="269.952" viewBox="0 0 407.122 269.952"><defs><style>.a{fill:#725ea9;}.a,.x{opacity:0.2;}.b,.j{fill:#fff;}.ai,.b{opacity:0.3;}.c{fill:url(#a);}.d,.k,.t{opacity:0.4;}.e{fill:#3fafbf;}.f{fill:url(#b);}.g{opacity:0.5;}.h{fill:url(#c);}.i{fill:url(#d);}.k{fill:#785da8;}.l{fill:#ffd055;}.m{fill:#f1637e;}.n{fill:#f05470;}.o{fill:#bbb6da;}.p{fill:#a49dcd;}.q{fill:#e4e8f5;}.r{fill:#6d4fa1;}.s{fill:url(#e);}.t{fill:#3b2972;}.u{fill:url(#f);}.v{fill:#38286f;}.w{fill:url(#g);}.y{fill:#d0b4d6;}.z{fill:#4a2e8f;}.aa{fill:url(#h);}.ab{fill:#323b72;}.ac{fill:#f4ba9a;}.ad{fill:url(#i);}.ae{fill:#f08f78;}.af{fill:#30386f;}.ag{fill:url(#j);}.ah{fill:url(#k);}.aj{fill:url(#l);}.ak{fill:#fff2a0;}.al{fill:url(#m);}.am{fill:url(#n);}.an{fill:url(#o);}.ao{fill:#d8c2df;}.ap{fill:#e3d0e6;}.aq{fill:url(#p);}.ar{fill:url(#q);}.as{fill:url(#r);}.at{fill:url(#s);}</style><linearGradient id="a" x1="0.495" y1="0.542" x2="0.422" y2="0.066" gradientUnits="objectBoundingBox"><stop offset="0" stop-color="#2a75aa"/><stop offset="1" stop-color="#98d2b2"/></linearGradient><linearGradient id="b" x1="0.553" y1="0.682" x2="0.278" y2="0.095" gradientUnits="objectBoundingBox"><stop offset="0.004" stop-color="#1b2450"/><stop offset="1" stop-color="#2b4699"/></linearGradient><linearGradient id="c" x1="0.769" y1="0.798" x2="0.077" y2="0.028" gradientUnits="objectBoundingBox"><stop offset="0" stop-color="#268fbd"/><stop offset="1" stop-color="#98d2b2"/></linearGradient><linearGradient id="d" x1="0.845" y1="0.977" x2="0.052" y2="-0.133" gradientUnits="objectBoundingBox"><stop offset="0.004" stop-color="#f0bf6a"/><stop offset="1" stop-color="#98d2b2"/></linearGradient><linearGradient id="e" x1="-0.932" y1="0.855" x2="0.47" y2="0.542" gradientUnits="objectBoundingBox"><stop offset="0" stop-color="#422c80"/><stop offset="0.414" stop-color="#533393"/><stop offset="0.571" stop-color="#4f308b"/><stop offset="0.816" stop-color="#442c7c"/><stop offset="1" stop-color="#38286f"/></linearGradient><linearGradient id="f" x1="0" y1="0.5" x2="1" y2="0.5" xlink:href="#e"/><linearGradient id="g" x1="0.5" y1="0.922" x2="0.5" y2="-0.098" gradientUnits="objectBoundingBox"><stop offset="0" stop-color="#eccfe4"/><stop offset="0.176" stop-color="#e5c8e0"/><stop offset="0.438" stop-color="#d1b6d7"/><stop offset="0.752" stop-color="#b49bc9"/><stop offset="1" stop-color="#9b84bd"/></linearGradient><linearGradient id="h" x1="0.094" y1="1.173" x2="0.577" y2="0.218" gradientUnits="objectBoundingBox"><stop offset="0" stop-color="#ffcf3d"/><stop offset="1" stop-color="#feef56"/></linearGradient><linearGradient id="i" y1="0.5" x2="0.999" y2="0.5" gradientUnits="objectBoundingBox"><stop offset="0" stop-color="#283267"/><stop offset="0.999" stop-color="#3b467f"/></linearGradient><linearGradient id="j" x1="0" y1="0.5" x2="1" y2="0.5" xlink:href="#i"/><linearGradient id="k" x1="0" y1="0.5" x2="1.001" y2="0.5" xlink:href="#i"/><linearGradient id="l" x1="0" y1="0.5" x2="1" y2="0.5" xlink:href="#h"/><linearGradient id="m" x1="0" y1="0.5" x2="1" y2="0.5" xlink:href="#h"/><linearGradient id="n" x1="-0.008" y1="1.621" x2="0.803" y2="-0.564" gradientUnits="objectBoundingBox"><stop offset="0" stop-color="#4a2e8f"/><stop offset="1" stop-color="#6d4fa1"/></linearGradient><linearGradient id="o" x1="0" y1="0.5" x2="1" y2="0.5" xlink:href="#n"/><linearGradient id="p" x1="0.5" y1="0.417" x2="0.5" y2="1.034" xlink:href="#n"/><linearGradient id="q" x1="0.5" y1="-0.137" x2="0.5" y2="0.787" xlink:href="#n"/><linearGradient id="r" x1="0.667" y1="0.002" x2="0.075" y2="0.789" gradientUnits="objectBoundingBox"><stop offset="0" stop-color="#ffcf3d"/><stop offset="1" stop-color="#feef89"/></linearGradient><linearGradient id="s" x1="7.161" y1="-1.683" x2="1.821" y2="0.108" xlink:href="#r"/></defs><g transform="translate(-120 184.171)"><g transform="translate(-47.017 -193.513)"><ellipse class="a" cx="200.153" cy="9.941" rx="200.153" ry="9.941" transform="translate(167.933 259.411)"/><path class="b" d="M241.229,128.265V119.58l-6.8-.5a22.49,22.49,0,0,0-3.043-7.339l4.456-5.164-6.143-6.143-5.162,4.458a22.453,22.453,0,0,0-7.34-3.043l-.5-6.8h-8.685l-.5,6.8a22.481,22.481,0,0,0-7.34,3.043l-5.163-4.458-6.141,6.143,4.455,5.164a22.462,22.462,0,0,0-3.043,7.339l-6.8.5v8.685l6.8.5a22.453,22.453,0,0,0,3.043,7.342l-4.455,5.163,6.141,6.143,5.163-4.456a22.451,22.451,0,0,0,7.34,3.042l.5,6.8H216.7l.5-6.8a22.478,22.478,0,0,0,7.34-3.042l5.162,4.456,6.143-6.143-4.456-5.163a22.491,22.491,0,0,0,3.043-7.342Zm-13.414-4.343a15.457,15.457,0,1,1-15.457-15.455A15.459,15.459,0,0,1,227.815,123.923Z" transform="translate(4.811 25.035)"/><path class="b" d="M209.5,91.973V88.582l-2.655-.2a8.776,8.776,0,0,0-1.189-2.866L207.4,83.5l-2.4-2.4-2.016,1.74a8.771,8.771,0,0,0-2.867-1.189L199.922,79H196.53l-.2,2.655a8.777,8.777,0,0,0-2.866,1.189l-2.017-1.74-2.4,2.4,1.742,2.017a8.748,8.748,0,0,0-1.189,2.866l-2.655.2v3.392l2.655.2a8.771,8.771,0,0,0,1.189,2.867l-1.742,2.016,2.4,2.4,2.017-1.74a8.748,8.748,0,0,0,2.866,1.189l.2,2.655h3.392l.194-2.655a8.743,8.743,0,0,0,2.867-1.189L205,99.449l2.4-2.4-1.74-2.016a8.771,8.771,0,0,0,1.189-2.867Zm-5.239-1.7a6.037,6.037,0,1,1-6.037-6.035A6.036,6.036,0,0,1,204.261,90.277Z" transform="translate(5.823 20.347)"/><g transform="translate(203.008 146.76)"><path class="c" d="M220,188.979c-8.944-7.251-15.338-17.342-19.262-28.166s-5.485-22.393-5.839-33.9c-.089-2.91-.053-6.007,1.523-8.458s5.264-3.742,7.48-1.854c1.591,1.355,1.821,3.688,1.936,5.776.715,13.044.942,26.219,2.142,39.221.985,10.675,4.838,20.792,12.648,28.368" transform="translate(-194.872 -115.696)"/><g class="d" transform="translate(5.432 5.587)"><path class="e" d="M205.061,168.242a.357.357,0,0,1-.344-.261,159.722,159.722,0,0,1-5.546-47.617.372.372,0,0,1,.368-.344.357.357,0,0,1,.344.37,158.942,158.942,0,0,0,5.521,47.4.355.355,0,0,1-.249.437A.3.3,0,0,1,205.061,168.242Z" transform="translate(-199.076 -120.02)"/></g></g><g transform="translate(196.279 165.643)"><path class="f" d="M190.357,141.061a14.217,14.217,0,0,1-.495-6.413c.469-2.111,2.109-4.114,4.263-4.321a5.4,5.4,0,0,1,4.923,3.033,16.843,16.843,0,0,1,1.543,5.891,188.8,188.8,0,0,0,12.429,45.665c-1.16-2.773-4.524-5.345-6.33-7.829a94.062,94.062,0,0,1-6.919-11.308A107.112,107.112,0,0,1,190.357,141.061Z" transform="translate(-189.664 -130.31)"/><g class="g" transform="translate(4.36 3.84)"><path class="e" d="M205.4,171.037a.359.359,0,0,1-.318-.2,128.278,128.278,0,0,1-12.038-37.148.355.355,0,0,1,.7-.112,127.6,127.6,0,0,0,11.971,36.941.356.356,0,0,1-.158.478A.37.37,0,0,1,205.4,171.037Z" transform="translate(-193.039 -133.282)"/></g></g><path class="h" d="M200.8,210.23c-2.989-5.174-2.832-11.914-6.612-16.54-3.084-3.777-8.34-5.515-10.808-9.719-4.25-7.238,2.142-16.942-1.052-24.7-2.52-6.117-10.272-9.086-12.117-15.44a9.55,9.55,0,0,1,16.782-8.433c3.265,4.308,2.849,11.221,7.417,14.11,2.991,1.894,7.171,1.274,9.943,3.476,3.418,2.719,2.849,7.984,4.388,12.069,1.792,4.752,6.4,7.723,9.888,11.412a29.131,29.131,0,0,1,7.843,21.025c-.262,6.029-3.185,16.31-8.923,19.592C212.01,220.242,203.58,215.044,200.8,210.23Z" transform="translate(0.831 35.733)"/><path class="i" d="M192.12,198.051c-3.035-2.16-7.545-1.941-9.977-4.761-2.19-2.539-1.7-6.369-2.747-9.554-.972-2.949-3.244-5.256-5.437-7.458s-4.45-4.533-5.375-7.5-.039-6.745,2.764-8.086c3.3-1.58,7.166.914,9.344,3.853s3.68,6.542,6.706,8.6c3.181,2.159,7.63,2.287,10.231,5.118,2.123,2.309,2.371,5.739,3.713,8.574,1.7,3.589,5.043,6.055,8.126,8.556,6.8,5.528,10.961,16.054-.13,19.454C196.353,218.826,199.311,203.172,192.12,198.051Z" transform="translate(0.355 44.065)"/><g class="g" transform="translate(174.255 211.477)"><path class="j" d="M208.365,205.932a.35.35,0,0,1-.261-.112c-11.957-12.9-23.866-26.171-35.4-39.446a.357.357,0,1,1,.538-.469c11.525,13.271,23.429,26.538,35.381,39.431a.356.356,0,0,1-.019.5A.345.345,0,0,1,208.365,205.932Z" transform="translate(-172.619 -165.783)"/><g transform="translate(17.696 12.153)"><path class="j" d="M186.932,184.08a.356.356,0,0,1-.355-.346l-.262-8.179a.358.358,0,0,1,.345-.367.366.366,0,0,1,.367.348l.262,8.176a.358.358,0,0,1-.345.368Z" transform="translate(-186.314 -175.188)"/></g><g transform="translate(21.007 15.227)"><path class="j" d="M189.232,186.771a.354.354,0,0,1-.355-.355v-8.494a.355.355,0,0,1,.711,0v8.494A.353.353,0,0,1,189.232,186.771Z" transform="translate(-188.877 -177.567)"/></g><g transform="translate(8.169 15.225)"><path class="j" d="M185.425,179.295a.318.318,0,0,1-.059-.005l-6.127-1.016a.357.357,0,0,1-.292-.411.353.353,0,0,1,.408-.292l6.128,1.016a.357.357,0,0,1-.058.708Z" transform="translate(-178.941 -177.566)"/></g><g transform="translate(5.984 1.298)"><path class="j" d="M177.766,173.235a.357.357,0,0,1-.355-.346l-.16-5.736a.356.356,0,0,1,.712-.019l.16,5.736a.357.357,0,0,1-.346.366Z" transform="translate(-177.25 -166.787)"/></g><g transform="translate(23.292 33.04)"><path class="j" d="M198.668,193.664a.471.471,0,0,1-.074-.006l-7.666-1.6a.356.356,0,0,1-.275-.42.352.352,0,0,1,.421-.275l7.666,1.6a.355.355,0,0,1-.072.7Z" transform="translate(-190.645 -191.353)"/></g></g><g class="d" transform="translate(177.55 173.989)"><g transform="translate(1.513)"><path class="e" d="M214.445,203.638a.358.358,0,0,1-.31-.181L176.387,137.3a.356.356,0,1,1,.618-.354l37.75,66.157a.358.358,0,0,1-.133.487A.348.348,0,0,1,214.445,203.638Z" transform="translate(-176.34 -136.769)"/></g><g transform="translate(12.051 40.289)"><path class="e" d="M199.142,171.887a.332.332,0,0,1-.079-.008l-14.29-3.226a.355.355,0,0,1,.158-.693l14.29,3.225a.355.355,0,0,1-.079.7Z" transform="translate(-184.496 -167.951)"/></g><g transform="translate(21.12 18.601)"><path class="e" d="M191.87,167.636h-.031a.357.357,0,0,1-.323-.388l1.4-15.76a.365.365,0,0,1,.386-.322.356.356,0,0,1,.323.388l-1.4,15.757A.359.359,0,0,1,191.87,167.636Z" transform="translate(-191.515 -151.165)"/></g><g transform="translate(16.622 16.62)"><path class="e" d="M188.391,160.2a.136.136,0,0,1-.04,0,.354.354,0,0,1-.315-.391l1.089-9.86a.356.356,0,0,1,.708.078l-1.089,9.861A.357.357,0,0,1,188.391,160.2Z" transform="translate(-188.033 -149.632)"/></g><g transform="translate(0 7.364)"><path class="e" d="M182.486,145.366a.336.336,0,0,1-.106-.017l-6.962-2.186a.356.356,0,0,1,.213-.678l6.962,2.184a.357.357,0,0,1-.107.7Z" transform="translate(-175.169 -142.468)"/></g></g><path class="k" d="M427.648,130.036a4.544,4.544,0,1,0,4.544,4.544A4.549,4.549,0,0,0,427.648,130.036Zm0,7.652a3.108,3.108,0,1,1,3.107-3.107A3.112,3.112,0,0,1,427.648,137.688Zm9.7,4.566-2.023-2.026a1.431,1.431,0,0,0-1.381-.364l-.673-.673a7.264,7.264,0,1,0-1.016,1.018l.673.672a1.423,1.423,0,0,0,.367,1.38l2.025,2.025a1.435,1.435,0,0,0,2.029-2.031Zm-15.545-7.674a5.842,5.842,0,1,1,5.841,5.842A5.848,5.848,0,0,1,421.806,134.581Z" transform="translate(74.002 34.456)"/><g transform="translate(467.042 227.364)"><path class="l" d="M405.846,184.734v.95h64.935a2.282,2.282,0,0,0,2.282-2.282V180.36a2.281,2.281,0,0,0-2.282-2.282H405.846v.95h.621v5.7h-.621Z" transform="translate(-397.283 -178.078)"/><path class="j" d="M406.327,178.815H460.1a1.912,1.912,0,0,1,1.911,1.911v1.881a1.912,1.912,0,0,1-1.911,1.911H406.327Z" transform="translate(-397.143 -177.863)"/><g transform="translate(4.359 7.605)"><path class="m" d="M402.593,193.567v.951h76.344a2.282,2.282,0,0,0,2.282-2.286v-5.985a2.282,2.282,0,0,0-2.282-2.283H402.593v.948h.62v8.652h-.62Z" transform="translate(-402.593 -183.964)"/><path class="n" d="M464.444,184.378H454.355a2.274,2.274,0,0,1,.817,1.749v5.985a2.272,2.272,0,0,1-.866,1.788h10.087a2.274,2.274,0,0,0,.868-1.788v-5.985A2.275,2.275,0,0,0,464.444,184.378Z" transform="translate(-387.488 -183.843)"/><path class="j" d="M403.073,184.7h50.368a1.913,1.913,0,0,1,1.912,1.911v4.827a1.911,1.911,0,0,1-1.912,1.912H403.073Z" transform="translate(-402.453 -183.749)"/></g><path class="o" d="M404.233,212.311v1h80.744a2.414,2.414,0,0,0,2.414-2.414v-7.293a2.415,2.415,0,0,0-2.414-2.415H404.233V202.2h.656V212.31h-.656Z" transform="translate(-397.754 -171.326)"/><path class="p" d="M469.65,201.632H458.98a2.41,2.41,0,0,1,.864,1.85v7.293a2.4,2.4,0,0,1-.916,1.89H469.6a2.406,2.406,0,0,0,.915-1.89v-7.293A2.409,2.409,0,0,0,469.65,201.632Z" transform="translate(-381.779 -171.198)"/><path class="j" d="M404.741,201.973h53.273A2.023,2.023,0,0,1,460.036,204v6.066a2.022,2.022,0,0,1-2.022,2.021H404.741Z" transform="translate(-397.606 -171.099)"/><rect class="j" width="2.658" height="3.486" transform="translate(71.237 2.062)"/><rect class="j" width="0.733" height="3.486" transform="translate(69.406 2.062)"/><g transform="translate(0 18.164)"><path class="q" d="M399.219,202.891v.948h76.346a2.281,2.281,0,0,0,2.282-2.283V194.42a2.283,2.283,0,0,0-2.282-2.284H399.219v.951h.621v9.8h-.621Z" transform="translate(-399.219 -192.136)"/><path class="j" d="M399.7,192.873h50.369a1.911,1.911,0,0,1,1.911,1.911v5.978a1.912,1.912,0,0,1-1.911,1.912H399.7Z" transform="translate(-399.079 -191.921)"/><rect class="o" width="10.051" height="5.627" transform="translate(66.394 3.5)"/></g></g><g transform="translate(197.202 103.175)"><path class="r" d="M222.8,85.557l-32.329,156.4a4.27,4.27,0,0,0,4.181,5.135H294.8Z" transform="translate(-190.378 -80.913)"/><path class="s" d="M226.095,85.557l-32.329,156.4a4.27,4.27,0,0,0,4.18,5.135H298.1Z" transform="translate(-189.415 -80.913)"/><g transform="translate(15.023 61.209)"><path class="t" d="M270.363,167.232l-1.156-2.592H202.54l-.535,2.592Z" transform="translate(-202.005 -119.023)"/><path class="t" d="M209.837,129.335l-.535,2.6h38.6l-1.156-2.6Z" transform="translate(-199.874 -129.335)"/></g><path class="u" d="M515.174,248.141H284.044c-4.261,0-9.045-3.456-10.679-7.718L216.039,91.083c-1.637-4.261-.047-9.12,4.216-9.12H451.384c4.263,0,9.043,3.455,10.68,7.718l57.864,150.744C521.565,244.685,519.437,248.141,515.174,248.141Z" transform="translate(-183.068 -81.963)"/><path class="v" d="M517.942,248.141H286.814c-4.263,0-9.045-3.456-10.68-7.718L218.27,89.681c-1.637-4.261.492-7.718,4.755-7.718H454.153c4.263,0,9.045,3.455,10.679,7.718L522.7,240.425C524.334,244.685,522.2,248.141,517.942,248.141Z" transform="translate(-182.393 -81.963)"/><path class="r" d="M428.695,147.489c1.144,2.985-.345,5.4-3.327,5.4a8.754,8.754,0,0,1-7.47-5.4c-1.145-2.981.345-5.4,3.325-5.4A8.766,8.766,0,0,1,428.695,147.489Z" transform="translate(-124.035 -64.4)"/><path class="w" d="M496.7,236.959H282.408l-23.273-60.63-33.513-87.31H439.91l21.073,54.9Z" transform="translate(-180.084 -79.902)"/><g transform="translate(58.248 17.718)"><g class="x"><path class="y" d="M335.737,134.678H250.43l-14.971-39h85.306Z" transform="translate(-235.459 -95.676)"/><path class="y" d="M415.427,134.678H365.9l-14.971-39h49.531Z" transform="translate(-201.733 -95.676)"/><path class="y" d="M369.746,134.678H323.113l-14.971-39h46.631Z" transform="translate(-214.229 -95.676)"/><path class="y" d="M301.335,162.874H261.254l-12.016-31.3H289.32Z" transform="translate(-231.434 -85.191)"/><path class="y" d="M312.992,193.242H272.911l-12.015-31.3h40.081Z" transform="translate(-228.029 -76.321)"/><path class="y" d="M383.911,201.95H313.534L286.52,131.574h70.374Z" transform="translate(-220.545 -85.191)"/><path class="y" d="M422.675,140.847H351.553L348,131.574h71.119Z" transform="translate(-202.588 -85.191)"/><path class="y" d="M427.556,153.56H356.435l-3.56-9.273H424Z" transform="translate(-201.163 -81.477)"/><path class="y" d="M432.436,166.272H361.315L357.755,157h71.122Z" transform="translate(-199.738 -77.764)"/><path class="y" d="M441.854,190.81H370.733l-8.1-21.1h71.122Z" transform="translate(-198.312 -74.05)"/></g><path class="b" d="M351.6,151.2a15.531,15.531,0,0,0-7.355-4.029c-.585-1.946-1.251-3.972-2.094-6.171a3.207,3.207,0,0,0-2.735-1.977h-35.8c-1.092,0-1.637.886-1.218,1.977.845,2.2,1.734,4.226,2.642,6.171a5.629,5.629,0,0,0-4.26,4.029c-.737,2.681.257,6.044,2.659,8.994l1.494,1.832a16.223,16.223,0,0,0,7.82,5.287,11.359,11.359,0,0,0,3.127.466,7.6,7.6,0,0,0,3.371-.73c4.711,4.013,9.419,6.053,13.559,6.547l1.461,3.8h-7.951c-1.092,0-1.638.886-1.218,1.977l3.6,9.379h-2.24c-1.092,0-1.637.884-1.218,1.977a3.206,3.206,0,0,0,2.737,1.974h28.288c1.093,0,1.638-.884,1.218-1.974a3.2,3.2,0,0,0-2.735-1.977h-2.239l-3.6-9.379a3.207,3.207,0,0,0-2.737-1.977h-7.949l-1.461-3.8a10.187,10.187,0,0,0,8.533-6.547,11.77,11.77,0,0,0,3.932.73,7.975,7.975,0,0,0,2.769-.466,5.661,5.661,0,0,0,3.761-5.287l.084-1.832C355.979,157.24,354.392,153.878,351.6,151.2Zm-39.062,12.355a9.471,9.471,0,0,1-4.571-3.091l-1.494-1.835a6.032,6.032,0,0,1-1.553-5.252,3.2,3.2,0,0,1,2.113-2.224,59.779,59.779,0,0,0,8.661,12.463A5.663,5.663,0,0,1,312.536,163.551Zm39.075-4.925-.085,1.835a3.312,3.312,0,0,1-2.2,3.091,5.406,5.406,0,0,1-3.107.065,33.219,33.219,0,0,0-.907-12.465,9.108,9.108,0,0,1,3.818,2.224A7.126,7.126,0,0,1,351.611,158.625Z" transform="translate(-216.449 -83.016)"/><g transform="translate(180.772 98.128)"><g transform="translate(17.022)"><path class="b" d="M389.137,179.965c1.768,4.61,6.94,8.346,11.549,8.346s6.911-3.735,5.141-8.346-6.94-8.344-11.549-8.344S387.367,175.358,389.137,179.965Z" transform="translate(-388.54 -171.621)"/><path class="j" d="M394.6,176.357l1.955,5.095c.236.611-.072,1.109-.684,1.109a1.8,1.8,0,0,1-1.534-1.109l-1.955-5.095c-.235-.61.071-1.106.682-1.106A1.805,1.805,0,0,1,394.6,176.357Zm2.293-1.106c-.611,0-.916.5-.682,1.106l1.956,5.095a1.8,1.8,0,0,0,1.535,1.109c.611,0,.917-.5.682-1.109l-1.955-5.095A1.806,1.806,0,0,0,396.893,175.251Z" transform="translate(-387.441 -170.561)"/></g><g transform="translate(0 2.229)"><path class="b" d="M388.04,179.461c1.3,3.38-.393,6.119-3.77,6.119s-7.17-2.739-8.466-6.119.39-6.115,3.768-6.115S386.742,176.083,388.04,179.461Z" transform="translate(-375.366 -173.346)"/><path class="j" d="M382.14,176.25a.457.457,0,0,0-.566.124l-1.034,1.68-.492-1.283a.942.942,0,0,0-.547-.519.456.456,0,0,0-.566.124l-1.145,1.857c-.134.218,0,.574.3.793l2.57,1.858a.819.819,0,0,0,.46.165.433.433,0,0,0,.2-.044.381.381,0,0,0,.147-.518l-.492-1.282,2.326,1.68a.809.809,0,0,0,.46.165.43.43,0,0,0,.2-.044.379.379,0,0,0,.149-.518l-1.425-3.713A.935.935,0,0,0,382.14,176.25Z" transform="translate(-374.673 -172.51)"/></g><g transform="translate(38.816 2.229)"><path class="b" d="M405.845,179.461c1.3,3.38,5.087,6.119,8.467,6.119s5.066-2.739,3.769-6.119-5.088-6.115-8.466-6.115S404.546,176.083,405.845,179.461Z" transform="translate(-405.407 -173.346)"/><path class="j" d="M414.274,178.23l-2.57-1.857a.676.676,0,0,0-.66-.124.385.385,0,0,0-.146.519l.491,1.283-2.323-1.68a.677.677,0,0,0-.66-.124.385.385,0,0,0-.147.519l1.426,3.713a.925.925,0,0,0,.547.518.682.682,0,0,0,.233.044.378.378,0,0,0,.335-.165l1.035-1.68.491,1.282a.928.928,0,0,0,.548.518.67.67,0,0,0,.231.044.379.379,0,0,0,.336-.165l1.143-1.858C414.716,178.8,414.579,178.448,414.274,178.23Z" transform="translate(-404.586 -172.511)"/></g></g><path class="b" d="M270.373,141.431l-1.24-3.233h.655c.72,0,1.079-.584.8-1.3a2.108,2.108,0,0,0-1.8-1.3h-4.848c-.72,0-1.079.581-.8,1.3a2.116,2.116,0,0,0,1.8,1.3h.655l1.242,3.233c-2.994.793-4.307,3.765-2.946,7.308,1.594,4.151,6.254,7.52,10.406,7.52s6.228-3.368,4.633-7.52A12.56,12.56,0,0,0,270.373,141.431Zm-5.924,4.29a3.867,3.867,0,0,1,2.982-3.336l.681-.182-1.536-4h1.576l1.536,4,.819.182a10.869,10.869,0,0,1,5.544,3.336Z" transform="translate(-227.402 -84.017)"/><path class="b" d="M396.107,118.973l-4.418-1.786c.841-1.265,1.349-3.52-.158-7.444-2.228-5.8-6.946-8.4-10.636-8.4s-6.417,2.6-4.188,8.4a15.657,15.657,0,0,0,5.555,7.445l-1.424.835a8.574,8.574,0,0,0-1.332-.7l-2.8-1.136c.528-.991.76-2.635-.267-5.307-1.681-4.379-5.258-6.338-8.057-6.338s-4.872,1.96-3.19,6.338a11.893,11.893,0,0,0,3.807,5.307l-1.933,1.136c-1.529.9-2,2.815-1.2,4.889a1.532,1.532,0,0,0,1.309.948h9.987a7.138,7.138,0,0,0,.481,2.248,1.529,1.529,0,0,0,1.309.946H402.05c.522,0,.782-.421.583-.946A12.032,12.032,0,0,0,396.107,118.973Zm-16.855,5.488a4.266,4.266,0,0,1,.008-1.788,3.437,3.437,0,0,1,.172-.538c.025-.054.05-.106.076-.162a3.082,3.082,0,0,1,.2-.35c.037-.057.075-.114.118-.167a2.979,2.979,0,0,1,.26-.3c.044-.044.085-.093.134-.134a2.884,2.884,0,0,1,.428-.317.408.408,0,0,1,.043-.028l.649-.381.512-.3,0,0,3.026-1.775a.647.647,0,0,0,.224-.818,1.568,1.568,0,0,0-.8-.854,12.027,12.027,0,0,1-5.7-6.808c-1.841-4.8.353-6.507,3.021-6.507s6.176,1.709,8.02,6.507c1.242,3.241,1.074,5.658-.475,6.808a.684.684,0,0,0-.145.854,1.59,1.59,0,0,0,.851.818l6.075,2.459a9.038,9.038,0,0,1,4.339,3.779Z" transform="translate(-197.744 -94.02)"/></g><g transform="translate(65.688 75.139)"><path class="r" d="M243.131,141.04c.2.512-.058.925-.569.925a1.5,1.5,0,0,1-1.279-.925c-.2-.512.058-.924.569-.924A1.5,1.5,0,0,1,243.131,141.04Z" transform="translate(-241.217 -140.116)"/><path class="r" d="M247.548,154.955h0a1.5,1.5,0,0,1-1.279-.925l-3.591-9.352c-.2-.512.059-.926.57-.926h0a1.5,1.5,0,0,1,1.28.926l3.591,9.352C248.313,154.541,248.058,154.955,247.548,154.955Z" transform="translate(-240.809 -139.054)"/></g></g><g transform="translate(507.215 94.507)"><g transform="translate(0 66.375)"><path class="z" d="M482.1,126.625c2.3,43.669-1.018,104.562-1.018,104.562l3.5,3.909H470.851l.114-99.732a.948.948,0,0,0-1.058-.942h0a.943.943,0,0,0-.81.724l-23.043,99.949H430.31l6.546-3.909,21.716-104.141Z" transform="translate(-430.31 -126.625)"/></g><path class="aa" d="M477.985,96.941c-.965-.665-3.751-1.142-6.665-1.443a112.144,112.144,0,0,0-15.894.451,33.112,33.112,0,0,0-6.436,1.8,6.67,6.67,0,0,0-3.875,4.694l-1.824,8.293a29.111,29.111,0,0,1,6.192,9.439l1.567-9,2.7,29.909,23.4-5.083,3.065,3.347s13.144-18.666,13.23-20.031S481.116,99.092,477.985,96.941Zm-.193,32.482-1.612-19.6,7.679,9.89Z" transform="translate(-426.518 -69.376)"/><g class="x" transform="translate(29.116 65.356)"><path class="ab" d="M453.111,129.88a.267.267,0,0,1-.05-.528l18.264-3.511a.265.265,0,0,1,.31.212.262.262,0,0,1-.212.31l-18.261,3.512A.232.232,0,0,1,453.111,129.88Z" transform="translate(-452.844 -125.836)"/></g><g transform="translate(46.766 61.622)"><path class="ac" d="M466.746,124.494s3.662-2.142,4.578-1.385a3.289,3.289,0,0,1,.845,2.5c.047.441,1.574.959,1.743,2.358s1.317,2.2,1.253,3.365-1.974,1.7-2.47,1.828-1.3-2.379-1.3-2.379-1.264.149-1.522-.2-1.141-2.43-1.141-2.43a7.935,7.935,0,0,1-1.8-.836,4.864,4.864,0,0,1-.429-1.11l.9-.556Z" transform="translate(-466.504 -122.947)"/></g><path class="z" d="M461.594,93.7s1.172-.252,1.708.345.814,6.481-.132,6.646c-.873.152-3.708-3.086-3.708-3.086s-2.874,3.565-3.784,3.179c-.84-.355.257-6.955,2.137-6.959S461.594,93.7,461.594,93.7Z" transform="translate(-422.984 -69.883)"/><path class="ad" d="M451.059,82.429s.037,2.982,1.206,4.344l.229-4.949Z" transform="translate(-424.249 -73.336)"/><g transform="translate(27.958 2.992)"><path class="ac" d="M460.475,101.834a2.165,2.165,0,0,0,1.911-.911c.811-1.345.371-3.058,1.212-4.371a21.2,21.2,0,0,1,1.379-1.7A7.621,7.621,0,0,0,466.25,91.8c1.209-4.889-.621-15.152-7.88-14.169s-6.741,9.14-6.05,12.834a13.165,13.165,0,0,0,1.416,4.235,5.387,5.387,0,0,0,1.5,1.708,21.949,21.949,0,0,0,2.2.965c.964.54.78,1.908.889,2.841A1.733,1.733,0,0,0,460.475,101.834Z" transform="translate(-451.948 -77.57)"/></g><path class="z" d="M468.476,87.56c-.925.419-1.331,2.538-1.331,2.538l-.9-.283.537-3.89s-2.458-.659-2.189-4.294a5.912,5.912,0,0,1-5.758,2.792L460,82.291s-11.987,9.26-13.737,1.4l6.989-2.354s-5.015,1.33-6.989-2.313l6.913-.908-4.148-1.058s16.527-4.263,17.066.306c0,0,1.576-1.4,3.419.628,1.486,1.632-.116,9.335-.116,9.335Z" transform="translate(-425.65 -75.255)"/><g transform="translate(41.495 12.022)"><circle class="ac" cx="2.087" cy="2.087" r="2.087"/></g><g transform="translate(25.517 13.427)"><circle class="ac" cx="2.087" cy="2.087" r="2.087"/></g><g transform="translate(32.721 13.551)"><path class="ae" d="M456.106,89.3a.46.46,0,0,1-.472-.525,3.891,3.891,0,0,1,.547-1.521,3.412,3.412,0,0,0,.227-.482,1.918,1.918,0,0,0,0-.724.265.265,0,0,1,.227-.3.268.268,0,0,1,.3.229,2.344,2.344,0,0,1-.017.937,3.473,3.473,0,0,1-.269.585,3.81,3.81,0,0,0-.483,1.257,3.565,3.565,0,0,0,.506-.2,4.638,4.638,0,0,1,.509-.207.269.269,0,0,1,.333.176.266.266,0,0,1-.174.335,4.1,4.1,0,0,0-.447.183A2.185,2.185,0,0,1,456.106,89.3Z" transform="translate(-455.634 -85.743)"/></g><g transform="translate(33.673 16.312)"><path class="ae" d="M457.068,90.154a2.879,2.879,0,0,1-.472-.037.266.266,0,1,1,.083-.526,2.485,2.485,0,0,0,2.7-1.543.267.267,0,1,1,.5.2,3.008,3.008,0,0,1-2.809,1.911Z" transform="translate(-456.371 -87.879)"/></g><g transform="translate(27.808 13.996)"><path class="ae" d="M452.5,88.966a.266.266,0,0,1-.262-.222l-.4-2.345a.265.265,0,0,1,.216-.309.26.26,0,0,1,.307.217l.407,2.345a.269.269,0,0,1-.217.309A.322.322,0,0,1,452.5,88.966Z" transform="translate(-451.832 -86.086)"/></g><g transform="translate(26.768 14.831)"><path class="ae" d="M452.429,87.431a.261.261,0,0,1-.075-.01,3.931,3.931,0,0,0-1.062-.154.267.267,0,0,1,0-.534h0a4.446,4.446,0,0,1,1.208.173.268.268,0,0,1-.075.525Z" transform="translate(-451.027 -86.733)"/></g><g transform="translate(42.193 12.897)"><path class="ae" d="M463.32,87.249a.268.268,0,0,1-.243-.155,1.317,1.317,0,0,1,2.177-1.43.268.268,0,0,1-.4.355.783.783,0,0,0-1.295.85.264.264,0,0,1-.129.354A.233.233,0,0,1,463.32,87.249Z" transform="translate(-462.965 -85.236)"/></g><g transform="translate(34.83 22.136)"><path class="ae" d="M458.205,93.479a6.728,6.728,0,0,1-.7-.036.269.269,0,0,1-.238-.293.261.261,0,0,1,.295-.238,6.263,6.263,0,0,0,3.177-.5.267.267,0,1,1,.217.487A6.759,6.759,0,0,1,458.205,93.479Z" transform="translate(-457.266 -92.386)"/></g><g transform="translate(34.067 9.58)"><path class="af" d="M456.944,83.977a.263.263,0,0,1-.173-.063.268.268,0,0,1-.032-.376,2.447,2.447,0,0,1,3.669-.08.267.267,0,0,1-.015.377.265.265,0,0,1-.376-.016,1.9,1.9,0,0,0-1.45-.616,1.94,1.94,0,0,0-1.42.68A.269.269,0,0,1,456.944,83.977Z" transform="translate(-456.676 -82.669)"/></g><g transform="translate(29.04 10.298)"><path class="af" d="M453.054,84.9a.28.28,0,0,1-.119-.027.267.267,0,0,1-.123-.357,2.29,2.29,0,0,1,3.406-.857.266.266,0,1,1-.311.432,1.758,1.758,0,0,0-2.614.658A.262.262,0,0,1,453.054,84.9Z" transform="translate(-452.785 -83.225)"/></g><circle class="ag" cx="0.733" cy="0.733" r="0.733" transform="translate(34.715 12.483)"/><circle class="ah" cx="0.733" cy="0.733" r="0.733" transform="translate(30.821 13.114)"/><g transform="translate(8.181 36.639)"><path class="z" d="M451.418,103.65l-13.467,2.923a1.663,1.663,0,0,0-1.261,2.02l4.587,18.811a1.664,1.664,0,0,0,1.973,1.229l12.8-2.815a1.661,1.661,0,0,0,1.27-1.961L453.4,104.934A1.657,1.657,0,0,0,451.418,103.65Z" transform="translate(-436.642 -103.611)"/></g><g transform="translate(8.786 49.643)"><path class="ac" d="M441.109,113.675s-3.7.406-3.95,1.419a2.884,2.884,0,0,0,.713,2.2c.2.335-.609,1.5.005,2.573s.222,2.235.877,3.029,2.283.165,2.7-.006-.328-2.355-.328-2.355.969-.557.966-.939-.466-2.31-.466-2.31a6.9,6.9,0,0,0,.828-1.529,4.333,4.333,0,0,0-.278-1.008l-.924.08Z" transform="translate(-437.11 -113.675)"/></g></g><path class="b" d="M378.846,27.752a16.407,16.407,0,0,0-3.023.291,22,22,0,0,0-43.754,3.313,22.431,22.431,0,0,0,.149,2.481,13.432,13.432,0,1,0-2.536,26.622h49.165a16.353,16.353,0,0,0,0-32.707Z" transform="translate(43.588)"/><path class="b" d="M452.387,33.95a8.061,8.061,0,0,0-1.5.145,10.91,10.91,0,0,0-21.7,1.642,10.772,10.772,0,0,0,.075,1.231,6.661,6.661,0,1,0-1.26,13.2h24.379a8.11,8.11,0,0,0,0-16.22Z" transform="translate(74.287 4.521)"/><g class="ai" transform="translate(398.957 64.518)"><path class="j" d="M346.88,84.064a.355.355,0,0,1-.355-.355V82.285a.355.355,0,1,1,.709,0v1.424A.355.355,0,0,1,346.88,84.064Zm0-4.981a.355.355,0,0,1-.355-.355V77.3a.355.355,0,1,1,.709,0v1.424A.355.355,0,0,1,346.88,79.083Zm0-4.981a.356.356,0,0,1-.355-.355V72.323a.355.355,0,1,1,.709,0v1.424A.355.355,0,0,1,346.88,74.1Zm0-4.98a.356.356,0,0,1-.355-.355V67.343a.355.355,0,1,1,.709,0v1.424A.356.356,0,0,1,346.88,69.123Zm0-4.981a.356.356,0,0,1-.355-.357V62.362a.355.355,0,1,1,.709,0v1.423A.355.355,0,0,1,346.88,64.142Zm0-4.981a.355.355,0,0,1-.355-.355V57.383a.355.355,0,1,1,.709,0v1.423A.355.355,0,0,1,346.88,59.161Zm0-4.981a.355.355,0,0,1-.355-.355V52.4a.355.355,0,1,1,.709,0v1.424A.355.355,0,0,1,346.88,54.18Z" transform="translate(-346.525 -52.045)"/></g><g class="ai" transform="translate(446.369 48.298)"><path class="j" d="M424.842,40.2h-1.425a.355.355,0,0,1,0-.711h1.425a.355.355,0,0,1,0,.711Zm-4.981,0h-1.425a.355.355,0,1,1,0-.711h1.425a.355.355,0,0,1,0,.711Zm-4.98,0h-1.425a.355.355,0,0,1,0-.711h1.425a.355.355,0,0,1,0,.711Zm-4.984,0h-1.423a.355.355,0,0,1,0-.711H409.9a.355.355,0,1,1,0,.711Zm-4.98,0H403.5a.355.355,0,1,1,0-.711h1.423a.355.355,0,0,1,0,.711Zm-4.981,0h-1.423a.355.355,0,0,1,0-.711h1.423a.355.355,0,0,1,0,.711Zm-4.98,0h-1.423a.355.355,0,0,1,0-.711h1.423a.355.355,0,0,1,0,.711Zm-4.981,0h-1.423a.355.355,0,0,1,0-.711h1.423a.355.355,0,0,1,0,.711Zm-4.98,0h-1.424a.355.355,0,0,1,0-.711H385a.355.355,0,0,1,0,.711Z" transform="translate(-383.219 -39.492)"/></g><g transform="translate(243.037 238.702)"><g transform="translate(40.741 10.231)"><rect class="aj" width="173.561" height="10.209" transform="translate(0 10.211)"/><rect class="ak" width="173.561" height="10.21"/></g><rect class="al" width="173.561" height="10.209" transform="translate(40.741 0.022)"/><path class="j" d="M392.844,186.853a5.1,5.1,0,1,0,0,10.209,5.105,5.105,0,1,0,0,10.21,5.1,5.1,0,1,0,0,10.207c-.025-.025,41.219-15.289,41.219-15.289Z" transform="translate(-178.567 -186.853)"/><path class="am" d="M417.8,202.124c4.432-1.642,7.486-2.772,7.486-2.772l-7.486-2.786Z" transform="translate(-169.787 -184.016)"/><rect class="j" width="7.236" height="30.606" transform="translate(33.505 0.022)"/><path class="an" d="M241.154,217.476h18.2V186.87h-18.2a15.3,15.3,0,0,0-15.3,15.3h0A15.3,15.3,0,0,0,241.154,217.476Z" transform="translate(-225.852 -186.848)"/></g><g transform="translate(288.736 37.645)"><path class="ao" d="M270.574,57.147l26.821-25.9-27.45,18.925Z" transform="translate(-258.672 -31.247)"/><path class="j" d="M269.843,48.394l30.1-17.147L261.22,42.606Z" transform="translate(-261.22 -31.247)"/><path class="j" d="M269.945,50.172l9.524,6.392L297.4,31.247Z" transform="translate(-258.672 -31.247)"/><path class="ap" d="M267.894,48.394l3.279,8.753-.629-6.975,27.45-18.925Z" transform="translate(-259.271 -31.247)"/></g><g class="ai" transform="translate(167.017 58.365)"><path class="j" d="M177.082,143.479a.35.35,0,0,1-.262-.116q-.479-.519-.934-1.056a.357.357,0,0,1,.543-.463c.3.353.6.7.915,1.039a.355.355,0,0,1-.022.5A.35.35,0,0,1,177.082,143.479ZM174,139.609a.358.358,0,0,1-.292-.154c-.273-.4-.538-.793-.793-1.2a.357.357,0,0,1,.6-.382c.251.4.51.789.777,1.177a.355.355,0,0,1-.09.494A.33.33,0,0,1,174,139.609Zm-2.539-4.277a.358.358,0,0,1-.318-.2q-.326-.642-.624-1.292a.355.355,0,0,1,.646-.3q.295.638.614,1.268a.356.356,0,0,1-.156.479A.39.39,0,0,1,171.457,135.332Zm-1.954-4.58a.358.358,0,0,1-.336-.238c-.159-.451-.309-.908-.451-1.364a.356.356,0,1,1,.68-.209c.138.448.287.893.442,1.339a.356.356,0,0,1-.217.455A.413.413,0,0,1,169.5,130.752Zm-1.342-4.794a.356.356,0,0,1-.348-.283c-.1-.468-.189-.938-.271-1.41a.356.356,0,0,1,.7-.121q.118.694.265,1.385a.356.356,0,0,1-.348.429Zm-.707-4.927a.355.355,0,0,1-.354-.327c-.036-.479-.063-.956-.083-1.433a.357.357,0,0,1,.341-.371.337.337,0,0,1,.37.341c.018.469.047.939.081,1.407a.358.358,0,0,1-.327.382Zm-.05-4.976h-.021a.355.355,0,0,1-.335-.376c.027-.478.066-.955.111-1.43a.364.364,0,0,1,.389-.32.355.355,0,0,1,.32.388q-.068.7-.11,1.4A.357.357,0,0,1,167.4,116.056Zm.633-4.937a.349.349,0,0,1-.348-.43l.022-.11c.088-.434.185-.862.288-1.288a.356.356,0,1,1,.691.168c-.1.417-.2.839-.28,1.258l-.026.121A.356.356,0,0,1,168.037,111.119Zm1.322-4.8a.343.343,0,0,1-.119-.021.356.356,0,0,1-.217-.455c.16-.451.327-.9.5-1.345a.355.355,0,0,1,.66.262q-.26.655-.494,1.319A.354.354,0,0,1,169.358,106.322Zm1.968-4.571a.347.347,0,0,1-.162-.04.356.356,0,0,1-.155-.479q.328-.638.678-1.265a.356.356,0,1,1,.62.349q-.345.614-.665,1.242A.356.356,0,0,1,171.326,101.751Zm2.556-4.27a.351.351,0,0,1-.2-.063.355.355,0,0,1-.09-.495q.407-.591.839-1.165a.355.355,0,1,1,.57.425q-.423.566-.823,1.145A.361.361,0,0,1,173.882,97.481Zm3.089-3.9a.356.356,0,0,1-.264-.594q.483-.533.982-1.048a.356.356,0,0,1,.51.5q-.492.506-.964,1.029A.359.359,0,0,1,176.971,93.579Zm3.57-3.468a.355.355,0,0,1-.229-.627q.547-.465,1.111-.91a.356.356,0,0,1,.442.558c-.37.291-.733.589-1.093.893A.361.361,0,0,1,180.541,90.111Zm4-2.965a.355.355,0,0,1-.191-.654q.6-.388,1.225-.753a.356.356,0,1,1,.36.614c-.4.238-.8.485-1.2.736A.348.348,0,0,1,184.538,87.145Zm4.365-2.389a.356.356,0,0,1-.147-.68l.2-.089c.371-.167.746-.329,1.122-.485a.355.355,0,1,1,.273.656q-.552.231-1.1.475l-.191.088A.337.337,0,0,1,188.9,84.756Zm4.644-1.783a.356.356,0,0,1-.109-.7c.456-.143.915-.282,1.374-.411a.355.355,0,1,1,.194.684q-.68.192-1.352.4A.352.352,0,0,1,193.546,82.973Zm4.816-1.253a.356.356,0,0,1-.072-.7q.7-.147,1.407-.277a.355.355,0,1,1,.129.7q-.7.128-1.39.274A.357.357,0,0,1,198.362,81.72Zm4.915-.828a.356.356,0,0,1-.045-.708c.473-.062.946-.12,1.423-.174a.356.356,0,1,1,.081.707q-.707.081-1.41.173A.329.329,0,0,1,203.277,80.892Zm4.959-.514a.355.355,0,0,1-.027-.709c.475-.037.951-.072,1.425-.107a.356.356,0,0,1,.05.709c-.474.032-.947.068-1.419.106Zm4.977-.315a.356.356,0,0,1-.018-.711l1.425-.068a.356.356,0,0,1,.032.711l-1.421.068Zm4.978-.221a.356.356,0,0,1-.014-.712l1.421-.059a.356.356,0,1,1,.031.711l-1.423.059Zm4.975-.23a.356.356,0,0,1-.018-.712c.473-.026.943-.052,1.416-.081a.356.356,0,0,1,.043.711c-.473.028-.946.056-1.421.081Zm4.965-.341a.356.356,0,0,1-.03-.711c.472-.043.942-.085,1.412-.134a.363.363,0,0,1,.39.318.356.356,0,0,1-.318.39q-.709.072-1.421.134Zm4.949-.567a.357.357,0,0,1-.049-.709q.7-.1,1.4-.218a.356.356,0,0,1,.119.7q-.705.118-1.414.221A.283.283,0,0,1,233.08,78.7Zm4.893-.916a.356.356,0,0,1-.08-.7q.688-.161,1.37-.341a.356.356,0,1,1,.182.687q-.692.184-1.392.346A.278.278,0,0,1,237.973,77.787Zm4.777-1.39a.356.356,0,0,1-.119-.691q.663-.236,1.317-.495a.355.355,0,1,1,.262.66q-.667.266-1.342.505A.305.305,0,0,1,242.75,76.4Zm4.561-1.976a.356.356,0,0,1-.163-.672q.622-.324,1.233-.674a.356.356,0,0,1,.355.616q-.624.36-1.261.69A.354.354,0,0,1,247.311,74.421Zm10.627-2.034h-.012c-.482-.017-.963-.047-1.439-.09a.356.356,0,0,1,.065-.708c.465.043.933.071,1.4.088a.355.355,0,0,1-.013.711Zm3.555-.093a.355.355,0,0,1-.028-.709c.468-.039.934-.088,1.4-.145a.355.355,0,0,1,.088.705q-.713.089-1.43.149Zm-9.959-.5a.355.355,0,0,1-.212-.641l.022-.017a.357.357,0,0,1-.034-.3.352.352,0,0,1,.45-.226l.186.061q.242-.192.479-.389a.356.356,0,0,1,.455.548l-.1.085.324.085a.356.356,0,0,1-.172.69c-.282-.071-.562-.147-.837-.23-.114.088-.23.174-.345.261A.367.367,0,0,1,251.534,71.8Zm14.881-.244a.356.356,0,0,1-.072-.7c.226-.048.454-.1.678-.149s.466-.107.7-.164a.356.356,0,0,1,.168.691c-.236.057-.473.114-.709.167s-.459.1-.689.151A.378.378,0,0,1,266.415,71.554Zm4.813-1.273a.356.356,0,0,1-.106-.7c.448-.142.9-.291,1.341-.444a.356.356,0,1,1,.234.672q-.676.235-1.361.451A.351.351,0,0,1,271.228,70.281ZM248.4,69.869a.355.355,0,0,1-.178-.048c-.42-.243-.832-.505-1.225-.78a.356.356,0,1,1,.408-.583c.377.264.771.516,1.173.748a.355.355,0,0,1-.178.663Zm27.5-1.313a.356.356,0,0,1-.138-.684c.433-.183.866-.373,1.293-.569a.356.356,0,0,1,.295.649q-.651.3-1.313.576A.364.364,0,0,1,275.9,68.556Zm-20.688-.1a.36.36,0,0,1-.236-.089.355.355,0,0,1-.03-.5c.313-.354.614-.717.89-1.076a.355.355,0,1,1,.563.433c-.287.375-.6.748-.921,1.115A.356.356,0,0,1,255.211,68.451ZM244.527,66.77a.358.358,0,0,1-.262-.115c-.329-.359-.645-.734-.935-1.116a.356.356,0,0,1,.566-.432c.278.364.579.722.894,1.065a.356.356,0,0,1-.021.5A.352.352,0,0,1,244.527,66.77Zm35.861-.367a.356.356,0,0,1-.169-.669q.622-.335,1.235-.686a.355.355,0,1,1,.354.616q-.62.357-1.253.7A.344.344,0,0,1,280.387,66.4ZM258,64.345a.351.351,0,0,1-.156-.036.356.356,0,0,1-.163-.477c.2-.419.39-.846.552-1.273a.356.356,0,1,1,.665.252c-.169.448-.364.9-.579,1.336A.356.356,0,0,1,258,64.345Zm26.656-.5a.352.352,0,0,1-.3-.16.356.356,0,0,1,.1-.494q.589-.39,1.167-.8a.356.356,0,1,1,.411.581q-.585.413-1.184.809A.355.355,0,0,1,284.658,63.842Zm-42.83-1.229a.355.355,0,0,1-.328-.218,13.174,13.174,0,0,1-.485-1.38.355.355,0,1,1,.684-.2,11.8,11.8,0,0,0,.457,1.3.356.356,0,0,1-.191.465A.345.345,0,0,1,241.828,62.614ZM288.671,60.9a.356.356,0,0,1-.224-.633q.55-.444,1.087-.9A.356.356,0,0,1,290,59.9q-.545.465-1.1.916A.349.349,0,0,1,288.671,60.9Zm-29.28-1.305a.153.153,0,0,1-.035,0,.355.355,0,0,1-.319-.389,10.069,10.069,0,0,0,.05-1.009c0-.121,0-.243-.006-.364a.357.357,0,0,1,.345-.367.334.334,0,0,1,.368.344c0,.129.006.26.006.388,0,.36-.019.724-.054,1.08A.359.359,0,0,1,259.391,59.591Zm-18.472-1.833H240.9a.354.354,0,0,1-.339-.371,9.836,9.836,0,0,1,.178-1.464.355.355,0,1,1,.7.137,9.274,9.274,0,0,0-.164,1.358A.357.357,0,0,1,240.919,57.758Zm51.469-.173a.354.354,0,0,1-.255-.107.358.358,0,0,1,.005-.5q.5-.494,1-1a.356.356,0,1,1,.512.495q-.5.516-1.009,1.018A.361.361,0,0,1,292.388,57.585Zm-33.623-2.9a.352.352,0,0,1-.335-.238,11.75,11.75,0,0,0-.539-1.269.356.356,0,0,1,.637-.317,12.32,12.32,0,0,1,.572,1.348.354.354,0,0,1-.216.454A.329.329,0,0,1,258.766,54.689Zm-16.407-1.649a.349.349,0,0,1-.18-.049.356.356,0,0,1-.128-.487,11.715,11.715,0,0,1,.82-1.216.352.352,0,0,1,.5-.065.356.356,0,0,1,.065.5,10.9,10.9,0,0,0-.77,1.142A.354.354,0,0,1,242.359,53.041Zm13.789-2.54a.357.357,0,0,1-.251-.1,8.957,8.957,0,0,0-1.039-.889.356.356,0,0,1,.42-.575,9.643,9.643,0,0,1,1.12.959.356.356,0,0,1,0,.5A.35.35,0,0,1,256.148,50.5Zm-10.4-1.056a.351.351,0,0,1-.3-.16.356.356,0,0,1,.1-.492,9.784,9.784,0,0,1,1.292-.716.356.356,0,0,1,.3.647,9.106,9.106,0,0,0-1.2.664A.379.379,0,0,1,245.744,49.445Zm6.1-1.3a.319.319,0,0,1-.07-.006c-.118-.025-.238-.045-.358-.062a7.249,7.249,0,0,0-.99-.079.356.356,0,0,1,0-.712h0a7.9,7.9,0,0,1,1.088.085c.132.019.262.043.392.068a.356.356,0,0,1-.07.705Z" transform="translate(-167.017 -47.283)"/></g><path class="k" d="M360.012,65.916a2.736,2.736,0,0,1-1.654,2.509v7.408a1.077,1.077,0,0,1-2.154,0V68.425a2.731,2.731,0,0,1,0-5.02v-2.37a1.077,1.077,0,0,1,2.154,0v2.37A2.74,2.74,0,0,1,360.012,65.916Zm4.132,3.3V61.034a1.076,1.076,0,1,0-2.151,0v8.182a2.73,2.73,0,0,0,0,5.018v1.6a1.076,1.076,0,1,0,2.151,0v-1.6a2.729,2.729,0,0,0,0-5.018Zm7.442-.424a2.733,2.733,0,0,0-1.655-2.509V61.036a1.076,1.076,0,1,0-2.151,0v5.247a2.729,2.729,0,0,0,0,5.018v4.531a1.076,1.076,0,1,0,2.151,0V71.3A2.732,2.732,0,0,0,371.586,68.792Z" transform="translate(54.776 14.784)"/><path class="k" d="M209.855,46.942h-6.513a.245.245,0,0,0-.03.006.5.5,0,0,0-.143.03.22.22,0,0,0-.049.017.478.478,0,0,0-.15.1s0,0,0,0l-3.558,3.56a0,0,0,0,0,0,0,.5.5,0,0,0-.1.15.46.46,0,0,0-.018.05.431.431,0,0,0-.027.14c0,.012-.006.021-.006.032V62.014a.529.529,0,0,0,.528.53h10.073a.53.53,0,0,0,.53-.53V47.472A.532.532,0,0,0,209.855,46.942Zm-7.042,1.808V50.5h-1.752Zm6.513,12.735h-9.015V51.56h3.03a.529.529,0,0,0,.53-.53V48h5.455Z" transform="translate(9.416 10.983)"/><path class="k" d="M185.564,204.8a.511.511,0,0,1-.512.512H171.477a.512.512,0,0,1-.512-.512V193.36a.512.512,0,1,1,1.023,0v10.93h.974V198.48a.512.512,0,0,1,.512-.512h1.682a.512.512,0,0,1,.512.512v5.809h1.246v-3.46a.511.511,0,0,1,.512-.512h1.68a.511.511,0,0,1,.512.512v3.46h1.246v-6.984a.512.512,0,0,1,.512-.512h1.682a.512.512,0,0,1,.512.512v6.984h1.485A.51.51,0,0,1,185.564,204.8Z" transform="translate(1.153 53.6)"/><g transform="translate(240.952 195.605)"><rect class="aq" width="46.731" height="28.675" transform="translate(22.167 14.443)"/><path class="ar" d="M269.5,153.5l-45.266,14.443L269.5,182.388l45.264-14.446Z" transform="translate(-224.238 -153.499)"/><g transform="translate(14.731 10.561)"><path class="as" d="M236.413,183.115a.773.773,0,0,1-.774-.771V170.5a.771.771,0,0,1,.571-.744l29.759-8.06a.772.772,0,0,1,.4,1.49l-29.188,7.906v11.249A.771.771,0,0,1,236.413,183.115Z" transform="translate(-235.639 -161.673)"/></g><g transform="translate(13.837 29.858)"><path class="at" d="M238.42,186.024h-3.473v-7.683a1.737,1.737,0,0,1,1.738-1.734h0a1.736,1.736,0,0,1,1.737,1.734v7.683Z" transform="translate(-234.947 -176.607)"/></g></g><g class="ai" transform="translate(514.51 55.932)"><path class="j" d="M436.31,107.3a.355.355,0,0,1-.354-.355v-1.424a.355.355,0,1,1,.709,0v1.424A.354.354,0,0,1,436.31,107.3Zm0-4.98a.355.355,0,0,1-.354-.357v-1.423a.355.355,0,1,1,.709,0v1.423A.355.355,0,0,1,436.31,102.32Zm0-4.981a.355.355,0,0,1-.354-.357V95.56a.355.355,0,1,1,.709,0v1.423A.354.354,0,0,1,436.31,97.339Zm0-4.981a.354.354,0,0,1-.354-.355V90.58a.355.355,0,1,1,.709,0V92A.354.354,0,0,1,436.31,92.358Zm0-4.981a.354.354,0,0,1-.354-.355V85.6a.355.355,0,1,1,.709,0v1.424A.354.354,0,0,1,436.31,87.377Zm0-4.98a.354.354,0,0,1-.354-.355V80.618a.355.355,0,1,1,.709,0v1.424A.354.354,0,0,1,436.31,82.4Zm0-4.981a.354.354,0,0,1-.354-.355V75.637a.355.355,0,1,1,.709,0v1.424A.354.354,0,0,1,436.31,77.417Zm0-4.981a.354.354,0,0,1-.354-.355V70.656a.355.355,0,1,1,.709,0V72.08A.353.353,0,0,1,436.31,72.436Zm0-4.98a.355.355,0,0,1-.354-.355V65.677a.355.355,0,1,1,.709,0V67.1A.354.354,0,0,1,436.31,67.456Zm0-4.981a.355.355,0,0,1-.354-.355V60.7a.355.355,0,1,1,.709,0V62.12A.354.354,0,0,1,436.31,62.475Zm0-4.98a.355.355,0,0,1-.354-.357V55.716a.355.355,0,1,1,.709,0v1.423A.355.355,0,0,1,436.31,57.5Zm0-4.982a.354.354,0,0,1-.354-.355V50.735a.355.355,0,1,1,.709,0v1.423A.353.353,0,0,1,436.31,52.513Zm0-4.98a.354.354,0,0,1-.354-.355V45.754a.355.355,0,0,1,.709,0v1.424A.354.354,0,0,1,436.31,47.533Z" transform="translate(-435.956 -45.4)"/></g><g transform="translate(288.736 83.676)"><path class="j" d="M344.388,66.872H269.567a8.346,8.346,0,0,0-8.347,8.346v36.446a8.346,8.346,0,0,0,8.347,8.347h4.225a3.6,3.6,0,0,1,3.6,3.6v4.478a1.745,1.745,0,0,0,2.98,1.233l8.258-8.255a3.6,3.6,0,0,1,2.545-1.056h53.215a8.347,8.347,0,0,0,8.347-8.347V75.218A8.347,8.347,0,0,0,344.388,66.872Z" transform="translate(-261.22 -66.872)"/><g transform="translate(12.059 12.135)"><g transform="translate(0.001)"><path class="ap" d="M318.348,78.926H271.885a1.331,1.331,0,1,1,0-2.662h46.463a1.331,1.331,0,0,1,0,2.662Z" transform="translate(-270.554 -76.264)"/></g><g transform="translate(0.001 9.304)"><path class="ap" d="M299.234,86.127h-27.35a1.331,1.331,0,1,1,0-2.662h27.35a1.331,1.331,0,0,1,0,2.662Z" transform="translate(-270.554 -83.465)"/></g><g transform="translate(0 18.61)"><path class="ap" d="M320.6,93.329H271.884a1.331,1.331,0,0,1,0-2.662H320.6a1.331,1.331,0,0,1,0,2.662Z" transform="translate(-270.553 -90.667)"/></g><g transform="translate(0 27.914)"><path class="ap" d="M277.5,100.528h-5.614a1.33,1.33,0,1,1,0-2.66H277.5a1.33,1.33,0,1,1,0,2.66Z" transform="translate(-270.553 -97.868)"/></g><g transform="translate(33.045 9.304)"><path class="ap" d="M300.873,86.127h-3.414a1.331,1.331,0,1,1,0-2.662h3.414a1.331,1.331,0,0,1,0,2.662Z" transform="translate(-296.128 -83.465)"/></g><g transform="translate(42.427 9.304)"><path class="ap" d="M327.028,86.127H304.72a1.331,1.331,0,0,1,0-2.662h22.308a1.331,1.331,0,0,1,0,2.662Z" transform="translate(-303.389 -83.465)"/></g><g transform="translate(52.273)"><path class="ap" d="M324.8,78.926H312.339a1.331,1.331,0,0,1,0-2.662H324.8a1.331,1.331,0,0,1,0,2.662Z" transform="translate(-311.009 -76.264)"/></g><g transform="translate(11.248 27.914)"><path class="ap" d="M286.2,100.528h-5.614a1.33,1.33,0,1,1,0-2.66H286.2a1.33,1.33,0,1,1,0,2.66Z" transform="translate(-279.258 -97.868)"/></g></g></g></g></g></svg>