<svg xmlns="http://www.w3.org/2000/svg" width="509.889" height="442.916" viewBox="0 0 509.889 442.916">
  <g id="Group_1212" data-name="Group 1212" transform="translate(-385.837 -1687.124)">
    <g id="Layer_1" transform="translate(355.771 1659.007)">
      <g id="Group_216" data-name="Group 216" transform="translate(30.066 28.117)">
        <path id="Path_307" data-name="Path 307" d="M355.36,844.466c-46.928-52.811-58.14-160.634-14.673-235.6,36.23-62.485,102.962-126.76,187.053-145.5S685.5,444.651,717.363,469.4c26.073,20.256,13.953,48.467,5.777,72.44-10.915,32-12.524,57.411,32.38,103.9,51.259,53.07,65.134,72.993,67.7,124.309,2.09,41.737-27.468,97.878-66.253,105.921-54,11.2-74.037-18.382-126.862-38.324-42.377-16-71.768-8.517-110.189,22.142S424.228,921.967,355.36,844.466Z" transform="translate(-313.437 -449.997)" fill="#f5fbff"/>
      </g>
    </g>
    <g id="OBJECTS" transform="translate(400 1724.479)">
      <g id="Group_1063" data-name="Group 1063" transform="translate(0 0)">
        <g id="Group_1062" data-name="Group 1062" transform="translate(0)">
          <g id="Group_1061" data-name="Group 1061">
            <path id="Path_2565" data-name="Path 2565" d="M61.494,381.5a128.7,128.7,0,0,0,62.137,0,128.7,128.7,0,0,0-62.137,0Z" transform="translate(340.535 -66.975)" fill="#e6e7e8"/>
            <g id="Group_1015" data-name="Group 1015" transform="translate(386.651 110.067)">
              <g id="Group_1011" data-name="Group 1011" transform="translate(0)">
                <path id="Path_2566" data-name="Path 2566" d="M79.982,268.14C69.108,256.295,67.342,244,78.3,236.333s.044-40.809,20.824-44.257c21.055,1.774,13.67,35.646,25.395,42.408s11.259,19.142,1.678,31.806,13.908,19.695,11.927,38.932-31.7,25.267-31.7,25.267S76.2,326.858,72.2,307.861,90.855,279.986,79.982,268.14Z" transform="translate(-70.904 -192.076)" fill="#037262"/>
                <g id="Group_1010" data-name="Group 1010" transform="translate(12.637 18.713)">
                  <g id="Group_1009" data-name="Group 1009" transform="translate(0)">
                    <path id="Path_2567" data-name="Path 2567" d="M92.642,209.387c-.731,14.138-.788,28.3-.587,42.448.224,14.154.9,28.3,1.834,42.436,1.182,14.121,2.5,28.242,4.632,42.286a335.122,335.122,0,0,0,8.859,41.749l-2.117-10.446c-.772-3.468-1.205-6.991-1.824-10.479l-.91-5.237-.739-5.259c-.468-3.509-1.033-7-1.423-10.52Q97.754,315.3,96.3,294.137c-1.14-14.1-1.774-28.217-2.4-42.342q-.488-10.593-.737-21.2C92.9,223.531,92.79,216.461,92.642,209.387Z" transform="translate(-75.43 -209.387)" fill="#008c7b"/>
                    <path id="Path_2568" data-name="Path 2568" d="M124.135,236.148c-1.656,1.083-3.205,2.261-4.8,3.4q-2.341,1.748-4.614,3.561-4.537,3.627-8.867,7.437l1.5-.129a190.91,190.91,0,0,0-18.245-9.345,183.089,183.089,0,0,0,16.922,11.075l.8.473.7-.6q4.394-3.752,8.571-7.7,2.085-1.975,4.106-4.005C121.527,238.932,122.883,237.587,124.135,236.148Z" transform="translate(-89.112 -207.219)" fill="#008c7b"/>
                    <path id="Path_2569" data-name="Path 2569" d="M123.473,282.5c-1.776,1.236-3.436,2.567-5.155,3.852q-2.517,1.978-4.968,4.009-4.905,4.065-9.592,8.313l1.573-.111c-3.273-2.089-6.572-4.147-9.946-6.116-1.677-1-3.382-1.96-5.1-2.912-1.741-.922-3.441-1.892-5.224-2.763,1.476,1.233,3.035,2.367,4.552,3.552,1.545,1.151,3.1,2.294,4.681,3.4,3.145,2.24,6.364,4.392,9.608,6.514l.835.546.738-.657q4.732-4.211,9.264-8.59Q117,289.35,119.2,287.1C120.625,285.568,122.106,284.082,123.473,282.5Z" transform="translate(-84.073 -203.465)" fill="#008c7b"/>
                  </g>
                </g>
              </g>
              <g id="Group_1014" data-name="Group 1014" transform="translate(27.754 19.396)">
                <path id="Path_2570" data-name="Path 2570" d="M62.063,274.364c-7.612-11.729-7.166-22.725,3.694-28.1s6.665-35.783,25.449-36.245c18.176,4.151,6.2,32.946,15.384,40.32s6.765,18.175-3.694,28.1,9,18.986,4.137,35.61-31.9,18.253-31.9,18.253-25.918-6.911-26.34-24.064S69.675,286.093,62.063,274.364Z" transform="translate(-48.785 -210.019)" fill="#008c7b"/>
                <g id="Group_1013" data-name="Group 1013" transform="translate(13.054 16.61)">
                  <g id="Group_1012" data-name="Group 1012" transform="translate(0)">
                    <path id="Path_2571" data-name="Path 2571" d="M85.455,225.384c-2.937,12.309-5.285,24.717-7.408,37.153-2.1,12.439-3.811,24.929-5.281,37.44-1.257,12.529-2.393,25.075-2.805,37.653a293.216,293.216,0,0,0,.99,37.705l-.16-9.422c-.114-3.136.078-6.278.1-9.414l.052-4.706.205-4.7c.159-3.135.23-6.271.461-9.4q1.129-18.8,3.289-37.533c1.289-12.5,3.027-24.965,4.775-37.426q1.291-9.351,2.794-18.68C83.386,237.82,84.435,231.606,85.455,225.384Z" transform="translate(-57.702 -225.384)" fill="#037262"/>
                    <path id="Path_2572" data-name="Path 2572" d="M91.186,250.884c-1.628.746-3.177,1.588-4.761,2.388q-2.338,1.247-4.623,2.554-4.568,2.622-8.984,5.429l1.339.071a160.047,160.047,0,0,0-14.482-10.443,152.428,152.428,0,0,0,13.041,11.8l.625.513.716-.44q4.462-2.75,8.766-5.694,2.15-1.474,4.252-3.005C88.447,253,89.856,251.991,91.186,250.884Z" transform="translate(-52.512 -223.319)" fill="#037262"/>
                    <path id="Path_2573" data-name="Path 2573" d="M98.027,292.107c-1.758.865-3.431,1.828-5.146,2.742q-2.528,1.425-5.008,2.9-4.962,2.959-9.761,6.108l1.4.1c-2.532-2.234-5.09-4.446-7.729-6.59-1.308-1.082-2.648-2.136-4-3.182-1.377-1.022-2.71-2.084-4.133-3.067,1.093,1.264,2.277,2.451,3.416,3.676,1.167,1.2,2.344,2.393,3.552,3.56,2.393,2.352,4.867,4.636,7.368,6.9l.643.582.755-.485q4.834-3.108,9.519-6.391,2.341-1.643,4.631-3.346C95.031,294.444,96.571,293.325,98.027,292.107Z" transform="translate(-63.65 -220.06)" fill="#037262"/>
                  </g>
                </g>
              </g>
              <path id="Path_2574" data-name="Path 2574" d="M64.483,337.032l1.055,6.474.995,6.062.909,5.6.993,6.061,3.953,24.186h38.359l3.952-24.186.993-6.061.91-5.6.993-6.062,1.055-6.474Z" transform="translate(-44.368 -180.335)" fill="#a97c50"/>
              <path id="Path_2575" data-name="Path 2575" d="M65.459,343.021l.995,6.062h50.071l.993-6.062Z" transform="translate(-44.289 -179.85)" fill="#fff"/>
              <path id="Path_2576" data-name="Path 2576" d="M67.22,353.811l.993,6.061h46.265l.993-6.061Z" transform="translate(-44.146 -178.976)" fill="#fff"/>
            </g>
            <g id="Group_1060" data-name="Group 1060">
              <path id="Path_2577" data-name="Path 2577" d="M97.659,387.036S192.814,401.6,310.195,401.6s212.536-14.561,212.536-14.561-95.156-14.56-212.536-14.56S97.659,387.036,97.659,387.036Z" transform="translate(-97.659 -67.397)" fill="#e6e7e8"/>
              <path id="Path_2578" data-name="Path 2578" d="M177.613,397.241h6.137L135.729,240.372H121.855Z" transform="translate(215.166 -78.097)" fill="#8b5e3c"/>
              <path id="Path_2579" data-name="Path 2579" d="M245.836,397.241H239.7l32.014-156.869h13.872Z" transform="translate(-14.06 -78.097)" fill="#8b5e3c"/>
              <path id="Path_2580" data-name="Path 2580" d="M416.495,374.676h18.8l-.239-4.61-3.333-65.305-.815-15.927H423.7l-6.817,81.144Z" transform="translate(-354.882 -74.172)" fill="#d1d3d4"/>
              <g id="Group_1016" data-name="Group 1016" transform="translate(21.198 290.931)">
                <path id="Path_2581" data-name="Path 2581" d="M428.926,386.348l-49.815-26.956V385.12Z" transform="translate(-329.301 -359.388)" fill="#d1d3d4"/>
                <path id="Path_2582" data-name="Path 2582" d="M425.189,386.343l40.039-.989,9.775-.238V359.388l-3.1,1.678-5.914,3.2Z" transform="translate(-425.189 -359.388)" fill="#d1d3d4"/>
              </g>
              <path id="Path_2583" data-name="Path 2583" d="M361.314,247.174l77.2,57.859,35.2-4.4s-38.735-99.615-51.606-131.472c-1.629-4.035-2.845-6.968-3.509-8.5-4.073-13.471-21.253-12.9-47.77-12.055l-1.165,12.055Z" transform="translate(-333.65 -85.559)" fill="#3e2e59"/>
              <g id="Group_1042" data-name="Group 1042" transform="translate(67.601 67.83)">
                <path id="Path_2584" data-name="Path 2584" d="M331.494,199.093l3.694,13.889L374,231.627v5.184H360.725s-37.833-8.229-38.915-10.7-6.6-20.575-6.6-20.575Z" transform="translate(-251.701 -149.271)" fill="#ff7d6f"/>
                <g id="Group_1026" data-name="Group 1026" transform="translate(65.387 165.229)">
                  <g id="Group_1017" data-name="Group 1017" transform="translate(13.384)">
                    <path id="Path_2585" data-name="Path 2585" d="M332.48,307.662l-12.743,49.09,4.313.6,11.768,1.652,22.553-53.155-15.139,1.059Z" transform="translate(-319.737 -305.853)" fill="#ffa07f"/>
                    <path id="Path_2586" data-name="Path 2586" d="M346.485,307.582l-12.743,49.09,4.313.6,19.181-50.444Z" transform="translate(-333.742 -305.774)" fill="#ff7d6f"/>
                  </g>
                  <g id="Group_1025" data-name="Group 1025" transform="translate(0 47.076)">
                    <g id="Group_1022" data-name="Group 1022">
                      <g id="Group_1021" data-name="Group 1021">
                        <g id="Group_1020" data-name="Group 1020">
                          <g id="Group_1019" data-name="Group 1019" transform="translate(0)">
                            <g id="Group_1018" data-name="Group 1018">
                              <path id="Path_2587" data-name="Path 2587" d="M331.992,349.4c-3.265,5.445-8.006,16.48-8.992,18.792l-.383,1.21-1.258,3.965,6.9,2.239,2.707-3.876,1.193-1.714.664,2.227,1.6,5.352,35.455,11.49,1.657-5.177a6.031,6.031,0,0,0,.086-.83,2.924,2.924,0,0,0-.844-2.167c-2.6-2.585-12.452-11.2-14.649-14.917-1.7-2.879-2.277-8.049-2.455-10.219Z" transform="translate(-321.359 -349.402)" fill="#985551"/>
                            </g>
                          </g>
                        </g>
                      </g>
                    </g>
                    <g id="Group_1024" data-name="Group 1024" transform="translate(26.954 11.784)">
                      <g id="Group_1023" data-name="Group 1023" transform="translate(0)">
                        <path id="Path_2588" data-name="Path 2588" d="M335.67,362.419c-.053.049-.1.1-.157.148-.382.377-.757,1.024-.281,1.479a1.528,1.528,0,0,0,.92.336,10.111,10.111,0,0,0,3.4-.3,8.084,8.084,0,0,0,3.489-1.431,1.285,1.285,0,0,0-.816-2.309A9.061,9.061,0,0,0,335.67,362.419Z" transform="translate(-335.009 -360.303)" fill="#763231"/>
                        <path id="Path_2589" data-name="Path 2589" d="M333.115,366.077c-.053.048-.1.1-.156.148-.383.376-.758,1.024-.282,1.479a1.538,1.538,0,0,0,.921.336,10.106,10.106,0,0,0,3.4-.3,8.08,8.08,0,0,0,3.491-1.43A1.286,1.286,0,0,0,339.67,364,9.064,9.064,0,0,0,333.115,366.077Z" transform="translate(-329.693 -360.007)" fill="#763231"/>
                        <path id="Path_2590" data-name="Path 2590" d="M329.5,369.114c-.053.049-.1.1-.156.148-.383.377-.758,1.024-.282,1.479a1.532,1.532,0,0,0,.921.336,10.079,10.079,0,0,0,3.4-.3,8.08,8.08,0,0,0,3.491-1.43,1.286,1.286,0,0,0-.817-2.309A9.062,9.062,0,0,0,329.5,369.114Z" transform="translate(-322.169 -359.761)" fill="#763231"/>
                      </g>
                    </g>
                    <path id="Path_2591" data-name="Path 2591" d="M360.157,381.368l-38.8-10.835,1.6,5.352,35.455,11.49,1.657-5.177A6.075,6.075,0,0,0,360.157,381.368Z" transform="translate(-309.894 -347.691)" fill="#763231"/>
                    <path id="Path_2592" data-name="Path 2592" d="M360.226,367.905l-1.258,3.965,6.9,2.24,2.707-3.876Z" transform="translate(-358.968 -347.903)" fill="#763231"/>
                  </g>
                </g>
                <path id="Path_2593" data-name="Path 2593" d="M333.855,249.88s50.571,7.575,59.681,18.417c5.555,10.339-23.167,81.143-23.167,81.143l-21.959-5.711,13.169-54.86-45.035-8.676-6.134-30.313Z" transform="translate(-266.761 -145.157)" fill="#af97a6"/>
                <g id="Group_1039" data-name="Group 1039" transform="translate(101.424 164.168)">
                  <g id="Group_1027" data-name="Group 1027" transform="translate(0)">
                    <path id="Path_2594" data-name="Path 2594" d="M304.471,321.354l18.073,47.388,3.863-2.006,10.547-5.477-12.437-56.387-11.72,9.64Z" transform="translate(-304.471 -304.871)" fill="#ffa07f"/>
                    <path id="Path_2595" data-name="Path 2595" d="M314.228,320.632,332.3,368.019l3.863-2.006-13.61-52.224Z" transform="translate(-314.228 -304.149)" fill="#ff7d6f"/>
                  </g>
                  <g id="Group_1038" data-name="Group 1038" transform="translate(15.812 53.445)">
                    <g id="Group_1032" data-name="Group 1032" transform="translate(0)">
                      <g id="Group_1031" data-name="Group 1031">
                        <g id="Group_1030" data-name="Group 1030">
                          <g id="Group_1029" data-name="Group 1029" transform="translate(0)">
                            <g id="Group_1028" data-name="Group 1028">
                              <path id="Path_2596" data-name="Path 2596" d="M269.527,363.09c.917,6.283,4.222,17.828,4.922,20.244l.469,1.178,1.533,3.868,6.764-2.632-.356-4.714-.159-2.083,1.922,1.3,4.622,3.135,34.729-13.527-1.991-5.058a5.99,5.99,0,0,0-.458-.7,2.926,2.926,0,0,0-2.025-1.145c-3.651-.355-16.73-.8-20.781-2.288-3.135-1.156-6.855-4.8-8.364-6.363Z" transform="translate(-269.527 -354.311)" fill="#985551"/>
                            </g>
                          </g>
                        </g>
                      </g>
                    </g>
                    <g id="Group_1037" data-name="Group 1037" transform="translate(21.907 2.764)">
                      <g id="Group_1036" data-name="Group 1036" transform="translate(0)">
                        <g id="Group_1033" data-name="Group 1033">
                          <path id="Path_2597" data-name="Path 2597" d="M294.189,362.906c-.011.07-.019.142-.027.213-.057.532.062,1.271.718,1.324a1.532,1.532,0,0,0,.924-.323,10.063,10.063,0,0,0,2.44-2.386,8.075,8.075,0,0,0,1.8-3.314,1.285,1.285,0,0,0-2.093-1.271A9.061,9.061,0,0,0,294.189,362.906Z" transform="translate(-294.149 -356.868)" fill="#763231"/>
                        </g>
                        <g id="Group_1034" data-name="Group 1034" transform="translate(4.64 1.317)">
                          <path id="Path_2598" data-name="Path 2598" d="M289.9,364.124c-.011.07-.021.142-.027.213-.057.532.062,1.272.718,1.324a1.534,1.534,0,0,0,.924-.322,10.1,10.1,0,0,0,2.44-2.386,8.085,8.085,0,0,0,1.8-3.315,1.285,1.285,0,0,0-2.093-1.271A9.058,9.058,0,0,0,289.9,364.124Z" transform="translate(-289.857 -358.086)" fill="#763231"/>
                        </g>
                        <g id="Group_1035" data-name="Group 1035" transform="translate(9.744 1.387)">
                          <path id="Path_2599" data-name="Path 2599" d="M285.174,364.189c-.011.07-.019.142-.027.213-.057.533.062,1.272.718,1.324a1.536,1.536,0,0,0,.925-.322,10.12,10.12,0,0,0,2.44-2.386,8.079,8.079,0,0,0,1.8-3.315,1.286,1.286,0,0,0-2.094-1.271A9.069,9.069,0,0,0,285.174,364.189Z" transform="translate(-285.135 -358.151)" fill="#763231"/>
                        </g>
                      </g>
                    </g>
                    <path id="Path_2600" data-name="Path 2600" d="M306.431,363.374l-36.9,16.147,4.622,3.135,34.729-13.527-1.991-5.058A5.915,5.915,0,0,0,306.431,363.374Z" transform="translate(-254.434 -353.577)" fill="#763231"/>
                    <path id="Path_2601" data-name="Path 2601" d="M307.232,382.509l1.533,3.868,6.764-2.631-.357-4.715Z" transform="translate(-301.841 -352.309)" fill="#763231"/>
                  </g>
                </g>
                <g id="Group_1040" data-name="Group 1040" transform="translate(0.001 97.778)">
                  <path id="Path_2602" data-name="Path 2602" d="M307.442,285.549c1.783,6.277,81.944,7.6,81.944,7.6l26.869,55.141,21.9-8.355s-19.739-69.7-28.364-74.21-53.075-5.053-53.075-5.053l-10.732-16.319-30.161-.9S305.659,279.261,307.442,285.549Z" transform="translate(-307.232 -243.456)" fill="#c2adb9"/>
                  <path id="Path_2603" data-name="Path 2603" d="M322.33,285.549c1.783,6.277,81.944,7.6,81.944,7.6l26.869,55.141,5.8-2.215c-7.515-12.139-27.39-59.385-29.931-60.526-3.5-1.579-66.208-.065-70.243-2.337-3.661-2.071,1.954-33.169,3.021-38.858l-9.085-.9S320.547,279.261,322.33,285.549Z" transform="translate(-322.12 -243.456)" fill="#af97a6"/>
                </g>
                <path id="Path_2604" data-name="Path 2604" d="M350.853,159.73a31.245,31.245,0,0,1,5.025,5.2c2.282,3.044,10.4,36.386,10.4,36.386l-18.4,8.58Z" transform="translate(-279.304 -152.459)" fill="#ffc253"/>
                <path id="Path_2605" data-name="Path 2605" d="M433.612,199.612c-2.161,3.348-6.994,7.811-10.5,10.826l-6.784,22.827,6.27,23.767c-39.184,9.986-68.067,8.131-68.067,8.131l12.142-37.035s9.248-73.408,9.4-73.635c.08-.107,13.11-1.49,13.11-1.49s4.752,13.458,13.372,13.731c8.426.267,13.79-9.944,14.158-10.324l9.369,3.863S437.2,194.075,433.612,199.612Z" transform="translate(-354.531 -153.004)" fill="#ffc253"/>
                <path id="Path_2606" data-name="Path 2606" d="M399.833,154.382s7.371,4.383,9.45,11.994S423.72,199.86,423.72,199.86l-30.772,12.713s-7.955-37.364-6.433-45.127S399.833,154.382,399.833,154.382Z" transform="translate(-378.293 -152.892)" fill="#ffc253"/>
                <path id="Path_2607" data-name="Path 2607" d="M403.783,167.6l12.69,33.853-30.42,9.783,25.129-12.955Z" transform="translate(-370.756 -151.822)" fill="#f2b052"/>
                <g id="Group_1041" data-name="Group 1041" transform="translate(17.905 51.479)">
                  <path id="Path_2608" data-name="Path 2608" d="M340.379,207.722s5.908,20.355,8.823,22.258,68.363,4.947,68.363,4.947V223.51l-51.178-11.225-3.946-11.659Z" transform="translate(-340.379 -200.626)" fill="#ffa07f"/>
                  <path id="Path_2609" data-name="Path 2609" d="M307.7,222.073s8.118-4.566,11.543-3.551,16.727,6.088,16.727,6.088,7.878,9.609,6.991,10.639H334.2s-5.2-2.268-6.341-1.76-9.893,1.76-9.893,1.76L307.7,233.49V222.073Z" transform="translate(-230.509 -199.188)" fill="#ffa07f"/>
                </g>
                <path id="Path_2610" data-name="Path 2610" d="M359.56,165.008s6.469,23.084,5.962,28.284-8.625,16.174-8.625,16.174,5-15.793,4.973-16.808S359.56,165.008,359.56,165.008Z" transform="translate(-288.315 -152.032)" fill="#f2b052"/>
              </g>
              <g id="Group_1043" data-name="Group 1043" transform="translate(151.493 92.912)">
                <path id="Path_2611" data-name="Path 2611" d="M244.767,176.206h70.593a3.706,3.706,0,0,1,3.707,3.707L303.06,235.728a4.677,4.677,0,0,1-4.3,3.707H224.626l16.007-59.522C241.1,178.074,242.72,176.206,244.767,176.206Z" transform="translate(-182.74 -176.206)" fill="#252727"/>
                <path id="Path_2612" data-name="Path 2612" d="M242.548,176.206h70.592a3.706,3.706,0,0,1,3.707,3.707L300.84,235.728a4.677,4.677,0,0,1-4.3,3.707H222.406l16.007-59.522C238.88,178.074,240.5,176.206,242.548,176.206Z" transform="translate(-178.12 -176.206)" fill="#424242"/>
                <rect id="Rectangle_651" data-name="Rectangle 651" width="44.286" height="2.668" transform="translate(0 60.561)" fill="#252727"/>
                <path id="Path_2613" data-name="Path 2613" d="M256.476,206.182c-.293,3.96,2.33,7.381,5.857,7.64s6.623-2.738,6.915-6.7-2.33-7.381-5.857-7.642l-.529,7.17Z" transform="translate(-167.348 -174.321)" fill="#939598"/>
              </g>
              <g id="Group_1045" data-name="Group 1045" transform="translate(291.822 128.905)">
                <path id="Path_2614" data-name="Path 2614" d="M195.3,209.5a6.819,6.819,0,0,1,0,13.638H155.286v-2.506h1.253v-8.625h-1.253V209.5H195.3Z" transform="translate(-131.162 -209.502)" fill="#ba3252"/>
                <g id="Group_1044" data-name="Group 1044" transform="translate(0 0.001)">
                  <path id="Path_2615" data-name="Path 2615" d="M179.921,210.662h0v1.252h38.76a4.312,4.312,0,1,1,0,8.624H179.922v1.253h0V210.662Z" transform="translate(-178.668 -209.409)" fill="#fff"/>
                  <path id="Path_2616" data-name="Path 2616" d="M217.615,220.633a4.312,4.312,0,0,0,0-8.624H177.6V209.5h40.013a6.819,6.819,0,0,1,0,13.638H177.6v-2.506h40.013Z" transform="translate(-177.602 -209.503)" fill="#d94562"/>
                </g>
                <path id="Path_2617" data-name="Path 2617" d="M193,215.81s-3.238,1.88-2.819,6.684l-3.446-1.774-2.634,1.774s.4-5.8,2.588-6.684Z" transform="translate(-153.203 -208.991)" fill="#92278f"/>
              </g>
              <path id="Path_2618" data-name="Path 2618" d="M487.077,300.231c-2.445-11.746-9.076-41.723-14.746-50.245-3.213-7.8-37.281-9.5-41.356-13.2-7.937-6.14-3.341-81.784-10.024-86.819s-12.22,4.955-13.472,7.65-17.648,78.8-15.977,94.671c1.624,15.43,11.636,52.6,89.643,52.8C483.387,305.084,488.349,305.744,487.077,300.231Z" transform="translate(-379.724 -85.533)" fill="#493564"/>
              <path id="Path_2619" data-name="Path 2619" d="M344.823,138.217a67.042,67.042,0,0,0,20.692,11.793,69.712,69.712,0,0,0,60.132-6.451c-4.209-2.768-6.554-7.458-7.5-12.159s-.686-9.551-.709-14.332-.388-9.7-2.47-14.092c-.137-.3-.286-.595-.446-.881C409.131,92.178,395.6,88.872,384.6,90.77a28.571,28.571,0,0,0-15.236,7.343c-3.878,3.843-6.062,8.876-7.756,13.9s-2.95,10.215-5.376,14.973S350.039,136.169,344.823,138.217Z" transform="translate(-267.759 -90.256)" fill="#161818"/>
              <g id="Group_1054" data-name="Group 1054" transform="translate(98.037 9.888)">
                <path id="Path_2620" data-name="Path 2620" d="M372.686,153.063c3.762,3.747,12.823,12.149,18.328,12.157,5.414,0,7.54-7.225,8.242-10.68-3.357-1.535-6.129-2.8-6.389-2.91a.033.033,0,0,0-.023-.012l-13.3-.457a57.587,57.587,0,0,0-5.74,1.485C373.487,152.747,373.115,152.883,372.686,153.063Z" transform="translate(-369.524 -95.211)" fill="#ffa07f"/>
                <g id="Group_1052" data-name="Group 1052" transform="translate(1.951)">
                  <path id="Path_2621" data-name="Path 2621" d="M387.1,165.312l-11.5-12.791c.089-1.981.282-2.721.629-7.619.38-5.448.755-10.554.755-10.554l15.183,6.615a36.294,36.294,0,0,0-3.178,12.318C388.142,162.07,387.1,165.312,387.1,165.312Z" transform="translate(-367.533 -96.573)" fill="#ffa07f"/>
                  <path id="Path_2622" data-name="Path 2622" d="M391.535,140.963a36.294,36.294,0,0,0-3.178,12.318c-.494.186-.974.358-1.427.5-1.807.561-7.374-4.733-11.331-8.877.38-5.448.755-10.554.755-10.554Z" transform="translate(-366.903 -96.573)" fill="#ff7d6f"/>
                  <g id="Group_1050" data-name="Group 1050" transform="translate(0)">
                    <g id="Group_1047" data-name="Group 1047" transform="translate(5.336)">
                      <path id="Path_2623" data-name="Path 2623" d="M394.993,126.063c-.36,1.413-.81,2.894-1.359,4.44,0,0,.426,7.731-.443,9.431s-6.428,12.29-11.852,11.437c-4.527-.711-15.414-7.752-19.141-11.853a4.578,4.578,0,0,1-1.276-2.025c-.426-3.077-1.783-16.628-1.916-17.763-.357-3.074-.844-26.282,26.937-18.874a13.49,13.49,0,0,1,9.815,10.471A33.777,33.777,0,0,1,394.993,126.063Z" transform="translate(-358.922 -99.403)" fill="#ffa07f"/>
                      <path id="Path_2624" data-name="Path 2624" d="M380.328,138.524l-11.563-2.731s-.018,5.662,5.2,6.521A5.324,5.324,0,0,0,380.328,138.524Z" transform="translate(-353.644 -96.456)" fill="#ffeede"/>
                      <g id="Group_1046" data-name="Group 1046" transform="translate(23.214 25.175)">
                        <path id="Path_2625" data-name="Path 2625" d="M372.3,132.612a6.439,6.439,0,0,1-4.186-2.442,2.718,2.718,0,0,0,.17,2.027,8.072,8.072,0,0,0,1.177,1.716,3.683,3.683,0,0,0,2.071,1.545C371.72,134.574,372.108,133.5,372.3,132.612Z" transform="translate(-367.986 -122.087)" fill="#ff7d6f"/>
                        <path id="Path_2626" data-name="Path 2626" d="M367.237,132.691a12.241,12.241,0,0,1,2.729,2.347c1.091-4.158.588-7.754.211-12.062-.026-.311.44-.383.571-.134,2.1,3.989,1.476,9.41.079,13.517a.6.6,0,0,1-.992.225,17.44,17.44,0,0,1-3.041-3.482A.315.315,0,0,1,367.237,132.691Z" transform="translate(-366.461 -122.692)" fill="#fc5b68"/>
                      </g>
                      <path id="Path_2627" data-name="Path 2627" d="M391.516,128.5s.426,7.731-.443,9.431-6.428,12.29-11.852,11.437c-4.527-.711-15.414-7.752-19.141-11.853,4.619,3.448,16.952,12.268,20.7,11.107,4.641-1.437,10.173-11.407,10.108-12.414s-.137-7.6-.137-7.6,1-2.045,2.128-4.549C392.515,125.478,392.066,126.959,391.516,128.5Z" transform="translate(-356.804 -97.406)" fill="#ffbf90"/>
                    </g>
                    <g id="Group_1049" data-name="Group 1049" transform="translate(0 22.385)">
                      <path id="Path_2628" data-name="Path 2628" d="M399.03,135.471a10.715,10.715,0,0,1-7.3-4.365,8.624,8.624,0,0,1-.7-1.13c-.94-1.856-1.013-8.18,1.624-9.559,1.846-.964,3.114.571,3.707,1.578v0a5.929,5.929,0,0,1,.384.761Z" transform="translate(-390.428 -120.111)" fill="#ffbf90"/>
                      <path id="Path_2629" data-name="Path 2629" d="M398.621,135.425a10.715,10.715,0,0,1-7.3-4.365c-.112-.182-.21-.356-.293-.52-.942-1.855-1.013-8.18,1.623-9.557a2.483,2.483,0,0,1,3.3.966v0a5.926,5.926,0,0,1,.384.761Z" transform="translate(-390.019 -120.065)" fill="#ffa07f"/>
                      <path id="Path_2630" data-name="Path 2630" d="M392.95,125.09a2.708,2.708,0,0,0,.066,1.533c.633,2.144,2.694,3.833,4.669,5.4a5.327,5.327,0,0,1-.6-3.342,11.421,11.421,0,0,0,.172-1.174C397.332,125.923,393.818,122.132,392.95,125.09Z" transform="translate(-391.719 -119.797)" fill="#ff7d6f"/>
                      <g id="Group_1048" data-name="Group 1048" transform="translate(1.771 4.174)">
                        <path id="Path_2631" data-name="Path 2631" d="M397.136,132.669l-.112-.069c-.071-.046-.188-.11-.32-.206a4.584,4.584,0,0,1-.969-.937,4.058,4.058,0,0,1-.764-1.711,3.515,3.515,0,0,1,.332-2.217,1.916,1.916,0,0,1,.158-.272l.042-.067c.011-.016,0-.005.007-.008v0h0s0,0-.005-.011l-.031-.062-.064-.123c-.044-.081-.088-.162-.134-.241a9.559,9.559,0,0,0-.58-.894c-.2-.278-.415-.535-.625-.771a5.958,5.958,0,0,0-.619-.618,1.423,1.423,0,0,0-.646-.312,1.033,1.033,0,0,0-.562.074.533.533,0,0,0-.256.216.49.49,0,0,0-.039.106.242.242,0,0,1,.011-.112.5.5,0,0,1,.218-.281,1.141,1.141,0,0,1,.647-.179,1.786,1.786,0,0,1,.86.279,5.629,5.629,0,0,1,.77.592,8.456,8.456,0,0,1,.752.758,7.585,7.585,0,0,1,.69.918c.054.082.1.168.155.252l.073.13.1.183.068.129c-.021.041-.051.082-.075.123l-.109.176a1.664,1.664,0,0,0-.135.237,3.721,3.721,0,0,0-.395,1.958,4.212,4.212,0,0,0,.48,1.625,4.633,4.633,0,0,0,.732,1c.1.112.2.189.258.248S397.136,132.669,397.136,132.669Z" transform="translate(-391.945 -123.972)" fill="#cf4a57"/>
                      </g>
                    </g>
                  </g>
                  <g id="Group_1051" data-name="Group 1051" transform="translate(12.675 15.752)">
                    <path id="Path_2632" data-name="Path 2632" d="M381.579,119.8a4.289,4.289,0,0,1-2.185,1.741,1.81,1.81,0,0,0-1.325-.743c-1.284-.044-2.384,1.592-2.455,3.655s.912,3.772,2.2,3.815,2.384-1.592,2.455-3.655a5.588,5.588,0,0,0-.215-1.776A6.881,6.881,0,0,0,381.579,119.8Z" transform="translate(-369.633 -113.504)" fill="#161818"/>
                    <path id="Path_2633" data-name="Path 2633" d="M378.434,122.108a4.792,4.792,0,0,0,5.062,2.255,4.79,4.79,0,0,0-5.062-2.255Z" transform="translate(-374.603 -113.322)" fill="#ffeede"/>
                    <path id="Path_2634" data-name="Path 2634" d="M365.363,122.137a2.954,2.954,0,0,1-1.5,1.2,1.308,1.308,0,0,0-.9-.442c-.969-.034-1.8,1.2-1.85,2.754s.689,2.842,1.656,2.875,1.8-1.2,1.85-2.754a4.065,4.065,0,0,0-.249-1.594A5.087,5.087,0,0,0,365.363,122.137Z" transform="translate(-337.751 -113.314)" fill="#161818"/>
                    <path id="Path_2635" data-name="Path 2635" d="M364.066,124.288a3.874,3.874,0,0,1-3.7,1.352,3.871,3.871,0,0,1,3.7-1.352Z" transform="translate(-335.637 -113.144)" fill="#ffeede"/>
                    <ellipse id="Ellipse_107" data-name="Ellipse 107" cx="3.621" cy="1.581" rx="3.621" ry="1.581" transform="translate(31.47 20.18) rotate(161.445)" fill="#ff7d6f"/>
                    <ellipse id="Ellipse_108" data-name="Ellipse 108" cx="5.285" cy="2.308" rx="5.285" ry="2.308" transform="matrix(-0.959, -0.284, 0.284, -0.959, 10.136, 21.592)" fill="#ff7d6f"/>
                    <path id="Path_2636" data-name="Path 2636" d="M364.385,119.278s-3.409-4.908-5.47-3.083-1.167,2.056-1.167,2.056Z" transform="translate(-332.923 -113.828)" fill="#424242"/>
                    <path id="Path_2637" data-name="Path 2637" d="M374.261,119.184s6.858-7.369,9.465-4.578c1.522,1.629.389,2.664.389,2.664Z" transform="translate(-371.117 -113.975)" fill="#424242"/>
                  </g>
                </g>
                <g id="Group_1053" data-name="Group 1053" transform="translate(0 51.883)">
                  <path id="Path_2638" data-name="Path 2638" d="M399.66,154.843l-3.149-5.058s-6.361-3.048-18.668-2.254l-3.629,5.418-4.286.911s13.208,26.7,16.446,29.191c2.51,1.927,5.9,3.146,9.5-.286s6.765-26.12,6.765-26.12Z" transform="translate(-369.928 -147.399)" fill="#fff"/>
                  <path id="Path_2639" data-name="Path 2639" d="M375.807,154.095c.249.056.488.128.733.191a.444.444,0,0,1,.067-.168l1.015-1.553c.33-.5,1.144-.031.81.473l-.979,1.485c.609.174,1.213.358,1.813.543.076-.145.152-.289.218-.426.257-.537.518-1.073.777-1.61.184-.383.86-.107.694.293-.244.584-.486,1.167-.732,1.75-.035.083-.068.168-.1.252.922.28,1.844.551,2.8.759a8.258,8.258,0,0,1,.383-1.1,11.678,11.678,0,0,1,.843-2.073c.145-.252.617-.161.583.158a11.49,11.49,0,0,1-.52,2.165c-.1.317-.166.706-.3,1.043.414.068.835.125,1.264.164.653.059,1.3.088,1.957.1a5.79,5.79,0,0,1,.026-1.362c.049-.94.142-1.877.219-2.815a.349.349,0,0,1,.7,0c.012.938.039,1.877.023,2.815a6.5,6.5,0,0,1-.056,1.354,29.678,29.678,0,0,0,4.116-.349.531.531,0,0,1-.192-.389,25.97,25.97,0,0,1,.184-3.431.313.313,0,0,1,.625,0,25.965,25.965,0,0,1,.184,3.431.514.514,0,0,1-.084.264c.65-.118,1.3-.242,1.943-.4a.3.3,0,0,1,.158.577c-4.554,1.267-10.684,1.785-15.612.162a.277.277,0,0,1-.255-.083,13.59,13.59,0,0,1-3.486-1.764A.25.25,0,0,1,375.807,154.095Z" transform="translate(-368.493 -147.024)" fill="#d1d3d4"/>
                </g>
              </g>
              <path id="Path_2640" data-name="Path 2640" d="M367.278,136.169a53.619,53.619,0,0,1,25.233-24.947c-1.394,1.876-2.778,3.752-4.174,5.628l23.609-7.892c-.549,1.293-1.088,2.586-1.637,3.889a27.12,27.12,0,0,0,14.172-10.282c.115-.149.229-.309.332-.469-.205-.389-.433-.755-.674-1.121a20.446,20.446,0,0,0-6.919-6.566c-6.418-3.843-14.938-4.919-22.328-3.638a32.341,32.341,0,0,0-7.95,2.425,24.793,24.793,0,0,0-7.286,4.919c-3.878,3.843-6.062,8.876-7.756,13.9s-2.95,10.215-5.376,14.973a24.979,24.979,0,0,1-7.584,9.163c-.023.012-.034.023-.045.023a17.181,17.181,0,0,1-3.775,2.048,67.042,67.042,0,0,0,20.692,11.793A29.472,29.472,0,0,1,367.278,136.169Z" transform="translate(-278.055 -90.256)" fill="#ff8035"/>
              <path id="Path_2641" data-name="Path 2641" d="M362.144,136.146a32.644,32.644,0,0,0,8.167-6.36c5.01-5.272,8.648-11.667,13.177-17.352s10.329-10.866,17.466-12.239c-.686,1.9-1.384,3.808-2.07,5.72q7.156-4.445,14.3-8.865c0,1.67.012,3.34.012,5.01q3.6-3.827,7.23-7.652c-6.418-3.843-14.938-4.919-22.328-3.638a32.341,32.341,0,0,0-7.95,2.425,24.793,24.793,0,0,0-7.286,4.919c-3.878,3.843-6.062,8.876-7.756,13.9s-2.95,10.215-5.376,14.973A24.961,24.961,0,0,1,362.144,136.146Z" transform="translate(-281.259 -90.256)" fill="#ffa049"/>
              <path id="Path_2642" data-name="Path 2642" d="M356.61,118.657c.137.446.308.9.492,1.361.195.526.412,1.064.652,1.624.549,1.327,1.213,2.723,1.957,4.22,0,0,2.5-5.067,5.753-2.23,0,0,14.035-1.053,17.479-8.384,0,0-.962,5.193-3.592,5.982,1.419-.195,24.421-3.706,25.267-17.078a8.094,8.094,0,0,0-.057-1.59,7.417,7.417,0,0,0-.343-1.59c-5.753-9.048-18.668-12.033-29.249-10.2a32.342,32.342,0,0,0-7.95,2.425,21.052,21.052,0,0,0-6.04,5.422C355.328,106.133,354.07,111.154,356.61,118.657Z" transform="translate(-258.132 -90.256)" fill="#161818"/>
              <path id="Path_2643" data-name="Path 2643" d="M367.278,136.169a53.619,53.619,0,0,1,25.233-24.947c-1.394,1.876-2.778,3.752-4.174,5.628l23.609-7.892c-.549,1.293-1.088,2.586-1.637,3.889a27.12,27.12,0,0,0,14.172-10.282c.115-.149.229-.309.332-.469-.205-.389-.433-.755-.674-1.121a20.446,20.446,0,0,0-6.919-6.566c-6.418-3.843-14.938-4.919-22.328-3.638a32.341,32.341,0,0,0-7.95,2.425,24.793,24.793,0,0,0-7.286,4.919c-3.878,3.843-6.062,8.876-7.756,13.9s-2.95,10.215-5.376,14.973a24.979,24.979,0,0,1-7.584,9.163c-.023.012-.034.023-.045.023a17.181,17.181,0,0,1-3.775,2.048,67.042,67.042,0,0,0,20.692,11.793A29.472,29.472,0,0,1,367.278,136.169Z" transform="translate(-278.055 -90.256)" fill="#424242"/>
              <g id="Group_1055" data-name="Group 1055" transform="translate(47.858 2.493)">
                <path id="Path_2644" data-name="Path 2644" d="M448.259,111.125l-14.55-18.563-7.471,10.8Z" transform="translate(-426.238 -92.562)" fill="#fff"/>
                <path id="Path_2645" data-name="Path 2645" d="M419.417,110.317l4.107-14.238-8.156-.281Z" transform="translate(-389.753 -92.3)" fill="#fff"/>
                <path id="Path_2646" data-name="Path 2646" d="M444.515,119.224,428.989,116.7l-.515,7.471Z" transform="translate(-424.911 -90.607)" fill="#fff"/>
              </g>
              <path id="Path_2647" data-name="Path 2647" d="M362.144,136.146a32.644,32.644,0,0,0,8.167-6.36c5.01-5.272,8.648-11.667,13.177-17.352s10.329-10.866,17.466-12.239c-.686,1.9-1.384,3.808-2.07,5.72q7.156-4.445,14.3-8.865c0,1.67.012,3.34.012,5.01q3.6-3.827,7.23-7.652c-6.418-3.843-14.938-4.919-22.328-3.638a32.341,32.341,0,0,0-7.95,2.425,24.793,24.793,0,0,0-7.286,4.919c-3.878,3.843-6.062,8.876-7.756,13.9s-2.95,10.215-5.376,14.973A24.961,24.961,0,0,1,362.144,136.146Z" transform="translate(-281.259 -90.256)" fill="#595959"/>
              <path id="Path_2648" data-name="Path 2648" d="M304.826,397.241h6.136l-48.02-156.869H249.068Z" transform="translate(-49.562 -78.097)" fill="#a97c50"/>
              <path id="Path_2649" data-name="Path 2649" d="M366.6,397.241h-6.137l32.014-156.869h13.872Z" transform="translate(-265.359 -78.097)" fill="#a97c50"/>
              <rect id="Rectangle_652" data-name="Rectangle 652" width="138.421" height="10.938" transform="translate(222.612 156.139)" fill="#a97c50"/>
              <rect id="Rectangle_653" data-name="Rectangle 653" width="116.352" height="10.938" transform="translate(106.26 156.139)" fill="#8b5e3c"/>
              <ellipse id="Ellipse_109" data-name="Ellipse 109" cx="12.906" cy="31.629" rx="12.906" ry="31.629" transform="translate(51.252 83.403)" fill="#493564"/>
              <path id="Path_2650" data-name="Path 2650" d="M419.8,392.057l40.039-.989,5.877-16.392.489-1.353.312-6.542,3.1-64.939,5.827,2.919-.815-15.927h-7.206L460.6,369.977Z" transform="translate(-398.601 -74.172)" fill="#e6e7e8"/>
              <g id="Group_1057" data-name="Group 1057" transform="translate(286.045 115.288)">
                <path id="Path_2651" data-name="Path 2651" d="M200.643,196.906a6.819,6.819,0,1,1,0,13.638H160.63v-2.506h1.253v-8.624H160.63v-2.507h40.013Z" transform="translate(-136.506 -196.906)" fill="#449bcc"/>
                <g id="Group_1056" data-name="Group 1056" transform="translate(0 0.001)">
                  <path id="Path_2652" data-name="Path 2652" d="M185.266,198.066h0v1.253h38.759a4.312,4.312,0,1,1,0,8.623H185.266V209.2h0Z" transform="translate(-184.013 -196.813)" fill="#fff"/>
                  <path id="Path_2653" data-name="Path 2653" d="M222.959,208.037a4.312,4.312,0,1,0,0-8.623H182.946v-2.507h40.013a6.819,6.819,0,0,1,0,13.638H182.946v-2.506h40.013Z" transform="translate(-182.946 -196.907)" fill="#5ecaef"/>
                </g>
                <path id="Path_2654" data-name="Path 2654" d="M204.619,205.271s-3.238,1.88-2.819,6.684l-3.446-1.774-2.634,1.774s.4-5.8,2.588-6.684Z" transform="translate(-171.594 -196.228)" fill="#ff7415"/>
              </g>
              <g id="Group_1059" data-name="Group 1059" transform="translate(284.792 142.546)">
                <path id="Path_2655" data-name="Path 2655" d="M201.8,222.121a6.819,6.819,0,1,1,0,13.638H161.788v-2.506h1.253v-8.625h-1.253v-2.506H201.8Z" transform="translate(-137.663 -222.121)" fill="#037262"/>
                <g id="Group_1058" data-name="Group 1058" transform="translate(0 0.001)">
                  <path id="Path_2656" data-name="Path 2656" d="M186.425,223.281h0v1.252h38.759a4.312,4.312,0,0,1,0,8.624H186.425v1.253h0Z" transform="translate(-185.172 -222.028)" fill="#fff"/>
                  <path id="Path_2657" data-name="Path 2657" d="M224.118,233.252a4.312,4.312,0,1,0,0-8.624H184.1v-2.506h40.013a6.819,6.819,0,0,1,0,13.638H184.1v-2.506h40.013Z" transform="translate(-184.105 -222.122)" fill="#008c7b"/>
                </g>
                <path id="Path_2658" data-name="Path 2658" d="M205.778,230.486s-3.238,1.879-2.819,6.684l-3.446-1.774-2.634,1.774s.4-5.8,2.588-6.684Z" transform="translate(-172.753 -221.443)" fill="#ff7415"/>
              </g>
            </g>
          </g>
        </g>
      </g>
    </g>
  </g>
</svg>
