<svg xmlns="http://www.w3.org/2000/svg" width="503.68" height="479.505" viewBox="0 0 503.68 479.505">
  <g id="Group_1214" data-name="Group 1214" transform="translate(-1016.32 -2237.847)">
    <path id="Path_108" data-name="Path 108" d="M1056.986,858.555c-13.3,18.3-23.569,43.205-16.446,66.19,7.1,22.915,29.811,37.045,39.736,58.81,5.61,12.3,5.76,25.829,5.972,39.034.278,17.286-3.212,35.643,8.862,50.251,7.142,8.641,17.919,13.747,28.816,17.1,21.886,6.736,44.814,9.9,64.254,22.621,31.937,20.9,71.159,28.209,109.218,25.951a254.673,254.673,0,0,0,56.93-10.121c21.48-6.344,40.574-17.573,62.2-23.588,37.484-10.425,88.74-10.568,110.676-47.265,14.769-24.707,19.885-55.244,8.4-82.163-5.463-12.8-15.889-22.575-21.828-35.141-8.205-17.361-10.417-37.157-4.936-55.6q.341-1.138.713-2.266c5.727-17.244,17.256-32.07,22.024-49.623,9.843-36.239-11.908-74.556-40.5-97.849-11.882-9.679-25.157-17.735-39.616-22.328-39.88-12.667-84.19,1.993-124.191-10.259-30.687-9.4-55.88-33.83-87.147-40.9-24.027-5.429-49.993.366-70.4,14.556s-35.223,36.4-41.974,60.855c-6.256,22.662-6.06,47.554-17.155,68.14-9.492,17.612-27.085,27.116-41.369,39.893A87.165,87.165,0,0,0,1056.986,858.555Z" transform="translate(-21.89 1578.444)" fill="#fff"/>
    <g id="students" transform="translate(837.538 1895.357)">
      <path id="Path_1545" data-name="Path 1545" d="M1541.893,1258.984a25.393,25.393,0,0,1,.453,3.71h-5.587l.067-.132.618-1.546,2.418-6.018A10.267,10.267,0,0,1,1541.893,1258.984Z" transform="translate(-934.605 -616.875)" fill="#4b3584"/>
      <path id="Path_1546" data-name="Path 1546" d="M877.538,1178.84a66.593,66.593,0,0,0-1.712,7.752,9.31,9.31,0,0,0-1.535,1.347c-2.253,2.485-3.3,5.952-3.887,9.309-.066.409-.21,1.491-.21,1.491l-2.716,9.132-.155.53a1.5,1.5,0,0,0,.11,1.149H583.172a1.63,1.63,0,0,1-1.634-1.635v-27.44a1.631,1.631,0,0,1,1.634-1.635H877.538Z" transform="translate(-268.021 -563.729)" fill="#4b3584"/>
      <path id="Path_1547" data-name="Path 1547" d="M1607.174,1184.758l.149,22.617a1.359,1.359,0,0,1-.243.773c-.552.905-2.076,1.557-3.865,1.557h-2.97c-.707-.552-1.479-1.06-2.153-1.679a5.888,5.888,0,0,1-.629-.651c-2.551-3.07-1.38-8.05-.972-12.389a.986.986,0,0,0,.4-.044,1.154,1.154,0,0,0,.773-.74c.762-3.6,3.777-9.375,6.482-15.139a6.136,6.136,0,0,1,1.612.431A50.38,50.38,0,0,1,1607.174,1184.758Z" transform="translate(-975.852 -563.885)" fill="#4b3584"/>
      <g id="Group_608" data-name="Group 608" transform="translate(292.965 371.011)">
        <path id="Path_1548" data-name="Path 1548" d="M1552.208,1236.395a3.221,3.221,0,0,1-1.182,1.192,2.408,2.408,0,0,1-1.5,0,36.122,36.122,0,0,1-10.148-3.909,7.465,7.465,0,0,1-2.661-2.209c-1.414-2.109-.939-5.168-1.568-7.73a10.2,10.2,0,0,0-2.032-3.986l-2.418,6.018a7.57,7.57,0,0,1-.939,2.021,1.5,1.5,0,0,1-1.6.4l-.033-.011a1.5,1.5,0,0,1-.95-.972,2.142,2.142,0,0,1,.144-1.435l2.716-9.132s.144-1.082.21-1.491c.585-3.357,1.634-6.824,3.887-9.309a9.32,9.32,0,0,1,1.535-1.347c.806.607,1.7,1.225,2.65,1.833a25.173,25.173,0,0,0,1.9,7.233c6.879,15.448,7.685,5.587,7.939-.121,0,0-1.237,8.613,1.314,11.683,1.546,1.866,4.285,2.672,4.87,5.156C1554.824,1232.388,1553.477,1234.573,1552.208,1236.395Z" transform="translate(-1220.825 -952.642)" fill="#e6325c"/>
        <path id="Path_1549" data-name="Path 1549" d="M652.995,495.276a23.135,23.135,0,0,0-5.77,12.281,2.1,2.1,0,0,1-2.077,1.816h-18.82a2.1,2.1,0,0,1-2.078-1.822,22.693,22.693,0,0,0-5.841-12.312,23.375,23.375,0,1,1,34.586.037Z" transform="translate(-582.488 -430.434)" fill="#f7af4d"/>
        <path id="Path_1550" data-name="Path 1550" d="M666.489,658.48h-.2c-5.518,0-9.991-3.851-9.991-8.6v-6.441a.6.6,0,0,1,.6-.6h18.993a.6.6,0,0,1,.6.6v6.441C676.48,654.629,672.007,658.48,666.489,658.48Z" transform="translate(-613.155 -560.704)" fill="#c2def5"/>
        <path id="Path_1551" data-name="Path 1551" d="M664.577,657.4h-.2c-5.965,0-10.819-4.23-10.819-9.429v-6.44a1.424,1.424,0,0,1,1.423-1.423h18.993a1.425,1.425,0,0,1,1.423,1.423v6.44C675.4,653.167,670.542,657.4,664.577,657.4Zm-9.364-15.637v6.207c0,4.286,4.11,7.773,9.163,7.773h.2c5.053,0,9.163-3.487,9.163-7.773V641.76Z" transform="translate(-611.243 -558.793)" fill="#2a2150"/>
        <path id="Path_1552" data-name="Path 1552" d="M533.083,546.46H514.075a.552.552,0,0,1,0-1.1h19.009a.552.552,0,1,1,0,1.1Z" transform="translate(-513.523 -492.675)" fill="#2b2150"/>
        <path id="Path_1553" data-name="Path 1553" d="M818.863,546.46H799.854a.552.552,0,0,1,0-1.1h19.009a.552.552,0,0,1,0,1.1Z" transform="translate(-712.949 -492.675)" fill="#2b2150"/>
        <path id="Path_1554" data-name="Path 1554" d="M688.419,391.124a.552.552,0,0,1-.552-.552V371.563a.552.552,0,1,1,1.1,0v19.009A.552.552,0,0,1,688.419,391.124Z" transform="translate(-635.186 -371.011)" fill="#2b2150"/>
        <path id="Path_1555" data-name="Path 1555" d="M578.58,436.622a.55.55,0,0,1-.39-.162L564.748,423.02a.552.552,0,0,1,.781-.781L578.97,435.68a.552.552,0,0,1-.39.942Z" transform="translate(-549.157 -406.647)" fill="#2b2150"/>
        <path id="Path_1556" data-name="Path 1556" d="M767.217,436.622a.552.552,0,0,1-.391-.942l13.441-13.441a.552.552,0,1,1,.781.781l-13.441,13.441A.551.551,0,0,1,767.217,436.622Z" transform="translate(-690.174 -406.647)" fill="#2b2150"/>
      </g>
      <path id="Path_1557" data-name="Path 1557" d="M940.931,1471.258v12.931c0,10.866-9.927,19.357-22.173,19.357H625.529a2.433,2.433,0,0,1-2.551-2.407v-.055a2.554,2.554,0,0,1,2.551-2.562h1.436l-.2.232v.144h124.69a13.311,13.311,0,0,0,13.471-13.151v-15.768a13.311,13.311,0,0,0-13.471-13.152H671.641v-.066H625.529a2.559,2.559,0,0,1-2.551-2.551v-.044a2.555,2.555,0,0,1,2.551-2.562H859v7.917c0,.619.464.961.8.585l7.31-8.5h1.789l7.31,8.5c.331.376.8.033.8-.585V1451.6h41.762C931,1451.6,940.931,1460.416,940.931,1471.258Z" transform="translate(-296.939 -754.072)" fill="#2bb19e"/>
      <path id="Path_1558" data-name="Path 1558" d="M635.519,1510.82v.141h124.69a13.313,13.313,0,0,0,13.47-13.151v-15.768a13.313,13.313,0,0,0-13.47-13.151H635.519v.141C640.612,1475.2,640.852,1505.118,635.519,1510.82Z" transform="translate(-305.69 -766.138)" fill="#c2def5"/>
      <path id="Path_1559" data-name="Path 1559" d="M1618.961,1277.8a2.832,2.832,0,0,1-.032.457,2.684,2.684,0,0,1-2.841,2.2c0-.011-3.556-.177-3.556-.177a3.73,3.73,0,0,0-.088-.6,5.125,5.125,0,0,0-2.087-2.827h2.97c1.789,0,3.313-.652,3.865-1.557.044-.071.7.363.761.411A2.689,2.689,0,0,1,1618.961,1277.8Z" transform="translate(-985.965 -631.04)" fill="#f7af4d"/>
      <path id="Path_1560" data-name="Path 1560" d="M904.532,1329.408v.055a2.721,2.721,0,0,1-2.54,2.783H608.753c-12.235,0-22.173-9-22.173-20.119v-13.218c0-8.238,5.477-15.327,13.306-18.44H879.279a12.065,12.065,0,0,0,.53,2.827,4.9,4.9,0,0,0,.254.6H734.58a13.523,13.523,0,0,0-13.726,13.317v15.956a13.031,13.031,0,0,0,3.567,8.944,13.852,13.852,0,0,0,10.159,4.362l167.413.32A2.578,2.578,0,0,1,904.532,1329.408Z" transform="translate(-271.539 -634.65)" fill="#f7af4d"/>
      <path id="Path_1561" data-name="Path 1561" d="M1209.43,1290.423c-4.859,7.122-4.969,36.2.342,41.828v.144h-49.48v-23.555h-18V1332.4h-99.624a13.931,13.931,0,0,1-9.551-3.754,13.061,13.061,0,0,1-4.174-9.552v-15.956a13.528,13.528,0,0,1,13.726-13.306h145.835a4.886,4.886,0,0,0,.254.6,3.155,3.155,0,0,0,.331.6,7.466,7.466,0,0,0,2.661,2.208,36.138,36.138,0,0,0,10.148,3.909,2.41,2.41,0,0,0,1.5,0,3.219,3.219,0,0,0,1.182-1.193c1.148-1.645,2.363-3.6,2.219-5.521a3.71,3.71,0,0,0-.088-.6h3.058S1209.539,1290.257,1209.43,1290.423Z" transform="translate(-580.236 -641.18)" fill="#c2def5"/>
      <path id="Path_1562" data-name="Path 1562" d="M724.929,1332.244l-20.881.022c-4.726-5.8-5.864-11.075-5.864-17.436v-17.071c0-6.339,3.456-13.715,9.518-17.292h16.608c-7.387,1.391-13.041,8.613-13.041,17.292v17.071C711.27,1323.765,717.244,1331.153,724.929,1332.244Z" transform="translate(-349.421 -634.647)" fill="#5970b4"/>
      <path id="Path_1563" data-name="Path 1563" d="M842.125,1332.244l-20.881.022c-4.726-5.831-5.864-11.131-5.864-17.513V1297.6c0-6.239,3.291-13.46,9.121-17.138H840.48c-6.879,1.844-12.014,8.823-12.014,17.138v17.149C828.466,1323.719,834.44,1331.153,842.125,1332.244Z" transform="translate(-431.204 -634.648)" fill="#5970b4"/>
      <path id="Path_1564" data-name="Path 1564" d="M895.489,899.154v.055a2.646,2.646,0,0,1-2.65,2.628h-.353c0-.011.011-.022.022-.033v-.144H718.348c-7.9,0-14.3,6.04-14.3,13.483V931.31c0,7.442,6.4,13.482,14.3,13.482h8.48v5.676l-.828.011h-4.7a25.993,25.993,0,0,1-6-.7c-9.861-2.319-17.116-10.225-17.116-19.622v-13.35c0-11.2,10.347-20.307,23.112-20.307H892.839A2.651,2.651,0,0,1,895.489,899.154Z" transform="translate(-349.421 -366.706)" fill="#4a5da6"/>
      <path id="Path_1565" data-name="Path 1565" d="M1015.347,1059.127v.055a2.632,2.632,0,0,1-2.65,2.628l-142.755.155v-5.654l142.755.166A2.651,2.651,0,0,1,1015.347,1059.127Z" transform="translate(-469.279 -478.225)" fill="#4a5da6"/>
      <path id="Path_1566" data-name="Path 1566" d="M906.028,913.748c-5.389,6.393-5.632,36.969.022,42.811v.144H763.626V931.14H740.371V956.7h-8.48c-7.9,0-14.3-6.04-14.3-13.482V927.055c0-7.442,6.4-13.483,14.3-13.483H906.05v.144C906.04,913.726,906.028,913.737,906.028,913.748Z" transform="translate(-362.963 -378.617)" fill="#c2def5"/>
      <path id="Path_1567" data-name="Path 1567" d="M916.332,1071.205c-.563,4.24-3.666,11.241-5.6,20.638-.7,3.39-1.9,7.288-2.915,11.109h-.011l-280.343-.121c-1.413,0-2.551-.718-2.551-1.6v-.033c0-.883,1.137-1.612,2.551-1.612h46.113v-.188h121.3c7.575,0,13.726-3.677,13.726-8.215v-9.861c0-4.549-6.151-8.226-13.726-8.226H698.953v17.933c0,.795-.607,1.237-1.027.75l-10.6-12.312-10.6,12.312c-.42.486-1.027.044-1.027-.75v-17.933H627.774v.088c.066.044.121.1.188.143h-.5c-1.414,0-2.551-.718-2.551-1.59v-.033c0-.895,1.137-1.612,2.551-1.612h239.6c.464.21.939.4,1.414.574,5.643,2.054,30.532,1.723,38.228,1.424C909.134,1072,915.383,1071.667,916.332,1071.205Z" transform="translate(-298.29 -487.84)" fill="#e6325c"/>
      <path id="Path_1568" data-name="Path 1568" d="M815.209,1088.252v9.861c0,4.539-6.151,8.215-13.726,8.215H634.38v-.088c5.433-3.567,5.19-22.272,0-26.126v-.088H682.3v17.933c0,.795.607,1.237,1.027.75l10.6-12.312,10.6,12.312c.42.486,1.027.044,1.027-.75v-17.933h95.925C809.057,1080.026,815.209,1083.7,815.209,1088.252Z" transform="translate(-304.896 -494.773)" fill="#c2def5"/>
      <path id="Path_1569" data-name="Path 1569" d="M948.646,641.166c-.129-.364-.26-.728-.386-1.093,0,0-12.256-34.844-12.71-36.031a12.313,12.313,0,0,0-8.591-7.686l-8.966-2.021c-1.778-.4-3.559-.785-5.331-1.2.736.179-.146,1.5-.146,1.788,0,1.982-1.357,3.52-2.794,4.722a23.509,23.509,0,0,1-5.509,3.482c-.11.049-.7-.341-.793-.391a25.178,25.178,0,0,1-3.657-2.292,12.6,12.6,0,0,1-2.562-2.518,6.141,6.141,0,0,1-.65-1.079,9.683,9.683,0,0,1-.476-4.055c-.442.144-.894.287-1.336.453-.972.342-2.043.2-3.015.588-2.518,1-5.237,1.448-7.779,2.392-2.276.845-4.3,2.788-6.3,4.22a10.843,10.843,0,0,0-3.081,3.6c-1.652,2.89-15.238,31.647-15.547,32.442a8.369,8.369,0,0,0-.806,2.429,15.96,15.96,0,0,0,.243,4.77,11.077,11.077,0,0,0,2.9,4.693c3.865,3.064,15.919-2.326,15.919-2.326-.111.475-1.77,3.96-2.091,4.844-.111.265-.21.541-.3.817a.993.993,0,0,0-.055.166l29.593,10.855s24.161-7.873,24.128-8.028C937.166,652.372,951.658,647.376,948.646,641.166Zm-19.469.42.221-9.927,2.871,4.792.651,1.093.574.961Z" transform="translate(-461.046 -154.765)" fill="#e6325c"/>
      <path id="Path_1570" data-name="Path 1570" d="M885.925,866.168c-3.865.287-12.312.563-16.166.85a6.4,6.4,0,0,1-2.54-.154,5.462,5.462,0,0,1-3.125-3.556c-2.087-5.643-1.48-12.9,2-17.27l16.608,5.444Z" transform="translate(-464.359 -331.489)" fill="#f7af4d"/>
      <path id="Path_1571" data-name="Path 1571" d="M899.692,874.333a.561.561,0,0,1-.191-.034.553.553,0,0,1-.328-.709,16,16,0,0,0,.828-7.469.552.552,0,1,1,1.1-.129,17.089,17.089,0,0,1-.887,7.979A.553.553,0,0,1,899.692,874.333Z" transform="translate(-489.654 -345.074)" fill="#2b2150"/>
      <path id="Path_1572" data-name="Path 1572" d="M912.622,875.947a.552.552,0,0,1-.519-.742,16.227,16.227,0,0,0,.829-7.468.552.552,0,1,1,1.1-.129,17.332,17.332,0,0,1-.887,7.978A.554.554,0,0,1,912.622,875.947Z" transform="translate(-498.676 -346.2)" fill="#2b2150"/>
      <g id="Group_609" data-name="Group 609" transform="translate(391.083 438.476)">
        <path id="Path_1573" data-name="Path 1573" d="M1083.575,836.239c4.245,5.04,5.833,13.8,4.4,20.246-.333,1.5-1.026,3.169-2.5,3.608a4.864,4.864,0,0,1-2.3-.074c-3.567-.7-11.327-1.807-14.894-2.5l.113-16.124C1072.174,839.965,1082.977,835.528,1083.575,836.239Z" transform="translate(-998.768 -763.074)" fill="#f7af4d"/>
        <path id="Path_1574" data-name="Path 1574" d="M1096.293,868.258a.553.553,0,0,1-.515-.353,23.9,23.9,0,0,1-1.609-8.779.552.552,0,0,1,.552-.549h0a.551.551,0,0,1,.549.555,23.087,23.087,0,0,0,1.536,8.375.552.552,0,0,1-.516.751Z" transform="translate(-1016.835 -778.716)" fill="#2b2150"/>
        <path id="Path_1575" data-name="Path 1575" d="M1084.623,868.786a.554.554,0,0,1-.516-.353,23.887,23.887,0,0,1-1.609-8.778.552.552,0,0,1,.552-.549h0a.552.552,0,0,1,.549.555,23.067,23.067,0,0,0,1.536,8.374.553.553,0,0,1-.316.714A.572.572,0,0,1,1084.623,868.786Z" transform="translate(-1008.691 -779.085)" fill="#2b2150"/>
        <path id="Path_1576" data-name="Path 1576" d="M1074.205,871.5a.554.554,0,0,1-.516-.353,23.88,23.88,0,0,1-1.608-8.779.544.544,0,0,1,.556-.549.552.552,0,0,1,.549.555,23.072,23.072,0,0,0,1.535,8.374.553.553,0,0,1-.516.751Z" transform="translate(-1001.422 -780.976)" fill="#2b2150"/>
        <path id="Path_1577" data-name="Path 1577" d="M933.618,798.685l-7.056,2.01a19.91,19.91,0,0,0-3.511-6.548c-.607-.718-11.4,3.724-15.188,5.149.353,5.118-.358,11.225-.117,16.119.022,0,.077.938.077.938l-16.839-5.521-22.261,6.349L865.5,802.495,845.29,795.87a10.214,10.214,0,0,1-6.537-12.908l.055-.188a10.2,10.2,0,0,1,6.106-6.382c.155-.066.32-.121.486-.177a10.083,10.083,0,0,1,1.513-.375,10.489,10.489,0,0,1,1.988,1.06,5.963,5.963,0,0,0,4.251-.132l37.378,13.7,36.937-11.506a10.336,10.336,0,0,1,7.36,19.26A10.644,10.644,0,0,1,933.618,798.685Z" transform="translate(-838.238 -720.978)" fill="#2bb19e"/>
        <path id="Path_1578" data-name="Path 1578" d="M967.975,595.372h-6.509c1.7-.36,3.391-.719,5.091-1.09h1.4A5.159,5.159,0,0,0,967.975,595.372Z" transform="translate(-924.231 -594.282)" fill="#8396cc"/>
        <path id="Path_1579" data-name="Path 1579" d="M1044.7,595.372h-5.757a3.737,3.737,0,0,0-.185-1.09h.055Q1041.754,594.838,1044.7,595.372Z" transform="translate(-978.166 -594.282)" fill="#8396cc"/>
        <path id="Path_1580" data-name="Path 1580" d="M945.04,606.188a6.339,6.339,0,0,0,.774,1.09h-18.48a12.654,12.654,0,0,1,1.352-.9,3.506,3.506,0,0,1,.349-.185Z" transform="translate(-900.413 -602.591)" fill="#8396cc"/>
        <path id="Path_1581" data-name="Path 1581" d="M1054.214,607.279h-18.959a7.353,7.353,0,0,0,.676-1.09h16.288A13.7,13.7,0,0,1,1054.214,607.279Z" transform="translate(-975.723 -602.591)" fill="#8396cc"/>
        <path id="Path_1582" data-name="Path 1582" d="M940.9,618.131c.567.371,1.145.73,1.722,1.09H916.149c.262-.371.534-.742.818-1.09Z" transform="translate(-892.607 -610.925)" fill="#8396cc"/>
        <path id="Path_1583" data-name="Path 1583" d="M1047.23,619.221h-27.2c.087-.055.185-.109.272-.164.491-.305.992-.611,1.472-.927H1046.4C1046.7,618.48,1046.968,618.84,1047.23,619.221Z" transform="translate(-965.098 -610.925)" fill="#8396cc"/>
        <path id="Path_1584" data-name="Path 1584" d="M971.655,631.128H908.932c.2-.371.4-.73.611-1.09h61.621C971.338,630.4,971.5,630.758,971.655,631.128Z" transform="translate(-887.571 -619.234)" fill="#8396cc"/>
        <path id="Path_1585" data-name="Path 1585" d="M968.76,643.071H902.943c.142-.283.273-.556.414-.839a2.532,2.532,0,0,0,.12-.251h64.935C968.534,642.341,968.651,642.7,968.76,643.071Z" transform="translate(-883.391 -627.568)" fill="#8396cc"/>
        <path id="Path_1586" data-name="Path 1586" d="M897.659,653.891h5.19v1.093h-5.72C897.317,654.62,897.493,654.245,897.659,653.891Z" transform="translate(-879.334 -635.879)" fill="#8396cc"/>
        <path id="Path_1587" data-name="Path 1587" d="M972.24,653.891l-4.264,1.093H927.009l-4.262-1.093Z" transform="translate(-897.211 -635.879)" fill="#8396cc"/>
        <path id="Path_1588" data-name="Path 1588" d="M1102.532,654.984h-9.308v-1.093h9.021C1102.345,654.245,1102.445,654.609,1102.532,654.984Z" transform="translate(-1016.176 -635.879)" fill="#8396cc"/>
        <path id="Path_1589" data-name="Path 1589" d="M891.86,665.841h6.935v1.082h-7.476C891.5,666.559,891.672,666.194,891.86,665.841Z" transform="translate(-875.28 -644.218)" fill="#8396cc"/>
        <path id="Path_1590" data-name="Path 1590" d="M990.613,665.841l-4.218,1.082H973.485l-4.218-1.082Z" transform="translate(-929.674 -644.218)" fill="#8396cc"/>
        <path id="Path_1591" data-name="Path 1591" d="M1103.46,666.922h-10.236V665.84h9.949c.033.132.066.254.1.386C1103.339,666.459,1103.394,666.7,1103.46,666.922Z" transform="translate(-1016.176 -644.218)" fill="#8396cc"/>
        <path id="Path_1592" data-name="Path 1592" d="M886.038,677.754h8.7v1.082h-9.232C885.685,678.472,885.862,678.107,886.038,677.754Z" transform="translate(-871.225 -652.532)" fill="#8396cc"/>
        <path id="Path_1593" data-name="Path 1593" d="M1104.522,678.836h-11.3v-1.082h10.965A11,11,0,0,0,1104.522,678.836Z" transform="translate(-1016.177 -652.532)" fill="#8396cc"/>
        <path id="Path_1594" data-name="Path 1594" d="M880.2,689.667H890.66v1.093h-11C879.839,690.4,880.026,690.032,880.2,689.667Z" transform="translate(-867.145 -660.845)" fill="#8396cc"/>
        <path id="Path_1595" data-name="Path 1595" d="M1105.756,690.76h-12.533v-1.093h12.146C1105.49,690.032,1105.623,690.407,1105.756,690.76Z" transform="translate(-1016.175 -660.845)" fill="#8396cc"/>
        <path id="Path_1596" data-name="Path 1596" d="M874.392,701.581H886.6v1.093H873.851C874.028,702.3,874.215,701.945,874.392,701.581Z" transform="translate(-863.09 -669.159)" fill="#8396cc"/>
        <path id="Path_1597" data-name="Path 1597" d="M1107.172,702.674h-13.946v-1.093h13.5C1106.873,701.956,1107.018,702.31,1107.172,702.674Z" transform="translate(-1016.177 -669.159)" fill="#8396cc"/>
        <path id="Path_1598" data-name="Path 1598" d="M868.545,713.531h13.979v1.093H868C868.192,714.26,868.368,713.9,868.545,713.531Z" transform="translate(-859.01 -677.498)" fill="#8396cc"/>
        <path id="Path_1599" data-name="Path 1599" d="M1108.793,714.623h-15.569V713.53h15.062C1108.452,713.894,1108.606,714.259,1108.793,714.623Z" transform="translate(-1016.176 -677.497)" fill="#8396cc"/>
        <path id="Path_1600" data-name="Path 1600" d="M862.811,725.444h15.735v1.093H862.3C862.469,726.162,862.634,725.8,862.811,725.444Z" transform="translate(-855.031 -685.811)" fill="#8396cc"/>
        <path id="Path_1601" data-name="Path 1601" d="M1115.075,726.527h-14.713c-.191-.36-.378-.719-.579-1.09h14.8C1114.754,725.8,1114.927,726.156,1115.075,726.527Z" transform="translate(-1020.753 -685.806)" fill="#8396cc"/>
        <path id="Path_1602" data-name="Path 1602" d="M880.968,738.475H857.8a.507.507,0,0,1-.3-.1.52.52,0,0,1-.243-.442.533.533,0,0,1,.53-.541h22.394Z" transform="translate(-851.512 -694.15)" fill="#8396cc"/>
        <path id="Path_1603" data-name="Path 1603" d="M1118.248,738.432l-14.145-.055-.651-1.093,14.466.055C1118.039,737.7,1118.16,738.056,1118.248,738.432Z" transform="translate(-1023.312 -694.073)" fill="#8396cc"/>
        <path id="Path_1604" data-name="Path 1604" d="M883.608,750.364H857.8a.512.512,0,0,1-.254-.066.536.536,0,0,1,0-.949.428.428,0,0,1,.254-.077h25Z" transform="translate(-851.513 -702.439)" fill="#8396cc"/>
        <path id="Path_1605" data-name="Path 1605" d="M1113.412,750.377h-18.774c.458-.392.927-.752,1.406-1.09h17.314a2,2,0,0,1,.021.251C1113.4,749.81,1113.412,750.094,1113.412,750.377Z" transform="translate(-1017.162 -702.45)" fill="#8396cc"/>
        <path id="Path_1606" data-name="Path 1606" d="M884.578,761.22c-.055.1-.088.143-.121.154-.464.122-1.524.563-2.474.939H857.8a.483.483,0,0,1-.276-.088.511.511,0,0,1-.265-.453.592.592,0,0,1,.088-.309v-.011a.576.576,0,0,1,.453-.232Z" transform="translate(-851.511 -710.777)" fill="#8396cc"/>
        <path id="Path_1607" data-name="Path 1607" d="M1097.832,761.219a4.594,4.594,0,0,1-.21.618c-.066.155-.144.32-.221.475h-23.553a5.773,5.773,0,0,0-.928-1.049c-.022-.011-.033-.033-.055-.044h24.967Z" transform="translate(-1001.969 -710.776)" fill="#8396cc"/>
        <path id="Path_1608" data-name="Path 1608" d="M875.454,773.136a16.152,16.152,0,0,0-1.756.959,2.518,2.518,0,0,0,.305.131H863.145a3.894,3.894,0,0,1-.589-.458,4.448,4.448,0,0,1-.567-.632h13.465Z" transform="translate(-854.812 -719.092)" fill="#8396cc"/>
        <path id="Path_1609" data-name="Path 1609" d="M934.17,774.226h-16.8c.088-.364.166-.718.221-1.093h12.312Z" transform="translate(-893.462 -719.09)" fill="#8396cc"/>
        <path id="Path_1610" data-name="Path 1610" d="M1097.334,773.133a11.394,11.394,0,0,1-1.3,1.093h-20.605l.2-1.093Z" transform="translate(-1003.756 -719.09)" fill="#8396cc"/>
        <path id="Path_1611" data-name="Path 1611" d="M941.932,786.176H913.257c-.221-.1-.441-.188-.662-.276-.132-.055-.276-.111-.409-.166.088-.221.177-.431.254-.651h28.125A14.08,14.08,0,0,0,941.932,786.176Z" transform="translate(-889.841 -727.429)" fill="#8396cc"/>
        <path id="Path_1612" data-name="Path 1612" d="M1089.555,785.083c-.618.243-1.237.453-1.844.663-.4.143-.817.287-1.237.431h-13.207l.2-1.093Z" transform="translate(-1002.25 -727.429)" fill="#8396cc"/>
        <path id="Path_1613" data-name="Path 1613" d="M983.231,797c-1.027.353-2.087.718-3.158,1.082h-41.8c-.862-.353-1.734-.718-2.6-1.082Z" transform="translate(-906.238 -735.743)" fill="#8396cc"/>
        <path id="Path_1614" data-name="Path 1614" d="M991.007,808.928s-2.833.752-3.754,1.09h-19.9c-.872-.349-1.735-.719-2.6-1.09Z" transform="translate(-926.524 -744.069)" fill="#8396cc"/>
      </g>
      <path id="Path_1615" data-name="Path 1615" d="M612.354,757.2,596.63,793.64l-12.8,3.335a17.062,17.062,0,0,0,1.027-3.545,20.232,20.232,0,0,0-1.171-8.635c-.519-1.325-1.711-1.557-3.1-1.226-.166.044-3.7.32-4.041,2.474-1.292,8.094-4.549,8.834-6.173,10.214a2.616,2.616,0,0,0-.7,1.06l-20.992-2.4,11.782-35.082,29.185,2.275.011-.044Z" transform="translate(-245.094 -269.495)" fill="#ea5e83"/>
      <path id="Path_1616" data-name="Path 1616" d="M278.365,1508.842c-.044,2.507-2.3,4.472-4.351,6.051a3.679,3.679,0,0,1-1.756.906,3.117,3.117,0,0,1-1.778-.519,46.965,46.965,0,0,1-10.8-7.9,9.33,9.33,0,0,1-2.484-3.379c-1.027-2.838.453-6.073.486-9.143a12.012,12.012,0,0,0-1.2-5.146l-5.864,7.343a1.87,1.87,0,0,1-2.529.3l-.033-.011a1.778,1.778,0,0,1-.563-2.429l6.294-9.739s.5-1.149.7-1.568c1.7-3.533,3.986-7.012,7.4-9a10.122,10.122,0,0,1,6.283-1.325l-.541.552c-1.568,2.462-.85,7.63.188,10.468a12.092,12.092,0,0,0,2.043,3.721,4.521,4.521,0,0,0,5.245,1.458,6.231,6.231,0,0,0,.983-.486c-1.734,4.2-3.743,8.624-1.9,12.412C275.438,1504.017,278.431,1505.881,278.365,1508.842Z" transform="translate(-34.724 -769.151)" fill="#f7af4d"/>
      <path id="Path_1617" data-name="Path 1617" d="M321.857,1485.743c-1.645,3.821-6.449,4.384-9.044-2.772-1.038-2.838-1.756-8.006-.188-10.468l1.166-1.2c-.232.464,5.9,5.676,6.343,6.029a27.019,27.019,0,0,0,3.843,2.662,9.375,9.375,0,0,0,.883.442,11.15,11.15,0,0,0-.663,1.293C324.33,1481.537,321.857,1485.743,321.857,1485.743Z" transform="translate(-79.729 -767.818)" fill="#f5ae9e"/>
      <path id="Path_1618" data-name="Path 1618" d="M465.747,1546.887a3.594,3.594,0,0,1-.883,1.744,3.139,3.139,0,0,1-1.745.608,48.719,48.719,0,0,1-13.472-.177,9.6,9.6,0,0,1-4.03-1.314c-2.529-1.7-3.257-5.168-5.068-7.686a12.378,12.378,0,0,0-4.041-3.479l-.364,9.331a1.839,1.839,0,0,1-1.877,1.7h-.033a1.808,1.808,0,0,1-1.91-1.634l-.718-11.506s-.276-1.215-.364-1.678c-.74-3.843-.961-7.973.607-11.539a9.1,9.1,0,0,1,4.262-4.649c-.033.077.11-.022,0,0,.762,3.246,1.667,6.7,4.152,8.922s6.1,2.75,9.419,2.407a3.2,3.2,0,0,0,2.241-.894,2.366,2.366,0,0,0,.386-.762c1.5,4.406,2,8.094,5.51,9.6,2.694,1.138,6.117,1.171,7.829,3.6C467.105,1541.541,466.453,1544.424,465.747,1546.887Z" transform="translate(-162.742 -799.433)" fill="#f7af4d"/>
      <path id="Path_1619" data-name="Path 1619" d="M464.077,1527.881c-1.149,1.844-5.444,1.855-10.722-.96-2.639-1.4-4.561-5.444-4.836-8.337a9.6,9.6,0,0,1,.872-.475l13.008,1.358C462.774,1520.264,463.778,1526.99,464.077,1527.881Z" transform="translate(-175.195 -800.483)" fill="#f5ae9e"/>
      <path id="Path_1620" data-name="Path 1620" d="M385.808,1116.914c-.265,13.792-2.871,34.518-4.483,46.19v.022c-.508,3.7-.916,6.47-1.115,7.84-.033.188-.055.353-.077.486a3.927,3.927,0,0,0-.055.409.3.3,0,0,0-.011.077l-.022.155-3.854,30.819-1.281,10.247v.033l-2.606,20.793-1.281-.132-1.226-.132-3.854-.4-1.281-.132-3.843-.4-1.281-.132-3.843-.4-.177-.022,2.175-44.357c-.1.144-.828,1.193-2,2.86-.375.552-.817,1.181-1.292,1.866-1.093,1.568-2.407,3.445-3.843,5.51-.132.177-.254.365-.386.552-7.52,10.767-18.242,26.06-20.274,28.6-.055.066-.1.132-.143.177a.815.815,0,0,0-.1.11c-.011.011-.022.011-.033.022-.475.221-3.622-2.242-4.693-3.114-.154-.121-.265-.221-.32-.265-.32-.276-.641-.552-.961-.839-1.325-1.192-2.584-2.451-3.854-3.721-.044-.044-.155-.132-.276-.232l-.022-.022c-.386-.321-.972-.8-.906-.961,1.347-3.136,11.716-23.089,15.316-30.09.431-.85,3.975-7.5,5.124-9.474a67.793,67.793,0,0,1,4.174-6.78,23.35,23.35,0,0,1,2.219-2.153.011.011,0,0,0,.011-.011,6.9,6.9,0,0,0,.563-.552c.707-.839.464-1.38.464-1.38a227.311,227.311,0,0,0-1.778-24.658,2.7,2.7,0,0,0,1.458.11c1.281-.784,1.292-1.27.464-2.032-1.513-1.391-2.44-5.289-2.606-6.117a32.4,32.4,0,0,0-1.049-3.633c0-.011,0-.011-.011-.022-.287-1.855-.53-3.423-.674-4.472a55.286,55.286,0,0,1-.486-7.641v-.442c.177.022.386.044.618.066,4.339.453,16.354,1.546,24,.685,1.888-.21,3.92-9.883,3.92-9.883a104.008,104.008,0,0,0,12.677-1.016s.11,6.681,0,8.061C382.938,1117.645,384.494,1117.292,385.808,1116.914Z" transform="translate(-84.526 -514.945)" fill="#4b3584"/>
      <path id="Path_1621" data-name="Path 1621" d="M347.937,1170.85c-2.413,1.784-3.762,15.706-3.762,15.706-1.07,4.214,3.838,8.961,7.938,9.558,2.805.288,6.161-10.455,6.433-12.778a26.189,26.189,0,0,0,2.28,2.547c.56.472,2.655,1.025,3.072.768,1.275-.787,1.286-1.268.46-2.031-1.512-1.4-2.44-5.3-2.6-6.123-.232-1.178-1.679-6.146-2.656-7.046Z" transform="translate(-102.277 -558.154)" fill="#f5ae9e"/>
      <path id="Path_1622" data-name="Path 1622" d="M391.763,898.811c-1.215-3.809-3.92-6.934-6.648-9.85a186.636,186.636,0,0,0-13.626-13.14l-8.171,1.954c-.177.044-.342.088-.519.144-2.816.795-5.113,1.922-5.577,4.152L351.1,922.607c-1.149,4.527-1.181,42.358-1.181,42.358h14.2l.144-8.492c4.339.453,16.354,1.546,24,.685,1.888-.21,3.92-9.883,3.92-9.883.541-12.655-.221-25.607.331-38.361C392.657,905.525,392.789,902.047,391.763,898.811Zm-27.363,50.4.42-23.929,3.445-14.212,2.242,13.626Z" transform="translate(-106.392 -352.273)" fill="#2bb19e"/>
      <path id="Path_1623" data-name="Path 1623" d="M534.23,880.632l-20.417,31.691a4.419,4.419,0,0,1-6.681,2.341l-5.974-4.019c.872,12.809,2.164,32.453,2.2,35.9-.519.077-4.638,1.634-4.549.586.11-1.38,0-8.061,0-8.061s-2.076-16.287-2.286-18.474c-.386-4.052.464-27.263.486-28.92a11.234,11.234,0,0,0-1.215-4.494q-3.992-9.292-8.392-18.4a4.852,4.852,0,0,0-1.413-1.954,3.286,3.286,0,0,0-1.358-.519c-.022-.265-.055-.53-.077-.795l7.332,2.01c3.556,1.159,8.094,11.9,9.684,14.432,1.314,2.12,3.158,4.859,2.971,8.514l2,3.158L521.222,874.8Z" transform="translate(-200.34 -345.081)" fill="#2bb19e"/>
      <g id="Group_610" data-name="Group 610" transform="translate(247.192 468.953)">
        <path id="Path_1624" data-name="Path 1624" d="M453.007,770.155a23.757,23.757,0,0,1-1.833,7.807,20.425,20.425,0,0,1-5.047,7.431,15.161,15.161,0,0,1-2.739,1.988c.284,2.758.513,5.538.825,8.285a10.936,10.936,0,0,1,.007,4.221c-1.1,3.687-6.462.242-8.285-.857a31.1,31.1,0,0,1-7.6-6.747,37.476,37.476,0,0,1,1.193-6.217,20.51,20.51,0,0,1-2.6-2.322c-.29-.355.159-1.2.135-1.63a5.42,5.42,0,0,0-.762-1.978,3.438,3.438,0,0,1,.574-3.18,7.592,7.592,0,0,0,1.446-3.026c.21-2.153-2.032-4.174-1.358-6.239a8.357,8.357,0,0,1,.707-1.358c1.292-2.341.519-5.665-.651-7.233l24.161.674A22.092,22.092,0,0,1,453.007,770.155Z" transform="translate(-406.746 -739.776)" fill="#f5ae9e"/>
        <path id="Path_1625" data-name="Path 1625" d="M441.986,941.925c.541-12.655-.221-25.607.331-38.361.144-3.39.276-6.868-.751-10.1-1.215-3.809-3.92-6.934-6.648-9.85a186.681,186.681,0,0,0-13.626-13.14,16.982,16.982,0,0,1,4-1.711,31.182,31.182,0,0,0,7.288,6.371c1.822,1.093,7.189,4.539,8.282.861a10.912,10.912,0,0,0,0-4.229c-.144-1.192-.265-2.407-.376-3.611a3.284,3.284,0,0,1,1.358.519,4.852,4.852,0,0,1,1.413,1.954q4.406,9.11,8.392,18.4a11.239,11.239,0,0,1,1.215,4.495c-.022,1.656-.872,24.867-.486,28.92.21,2.187,2.286,18.474,2.286,18.474A103.99,103.99,0,0,1,441.986,941.925Z" transform="translate(-403.388 -815.874)" fill="#a4c6e9"/>
        <path id="Path_1626" data-name="Path 1626" d="M414.7,742.218l-3.191-.187-.011-.033c-1.281-.077-2.562-.143-3.854-.221-2.016-.121-4.359-.115-6.217-1.016a20.535,20.535,0,0,0,5.057-7.442,24.981,24.981,0,0,0,1.689-12.137,22.61,22.61,0,0,0-1.689-6.039l-.486-.011-23.675-.662c.584.016,1.148,2.68,1.215,3.1.372,2.3-.63,3.481-1.271,5.493-.674,2.065,1.568,4.086,1.358,6.239-.2,2.086-3.084,3.979-2.021,6.2a6.4,6.4,0,0,1-1.556,7.588l-17.6-.895c-1.27-2.517.751-5.532,2.164-7.961a14.57,14.57,0,0,0,1.579-2.407c1.093-3.092-3.147-6.935,1.568-10.623,6.548-5.1-7.829-9.982,9.982-22.305,9.717-6.725,23.012-3.092,24.922.629a16.969,16.969,0,0,1,7.2,4.02c2.981,3.07,4.086,7.586,3.854,11.793l-1.215-.033a5.546,5.546,0,0,1,.674,3.092c-.276,2.286-2.5,4.163-2.241,6.46.221,2,2.275,3.478,2.319,5.477.033,1.524-1.137,3-.707,4.472a6.238,6.238,0,0,0,1.148,1.8A6.678,6.678,0,0,1,414.7,742.218Z" transform="translate(-362.041 -695.143)" fill="#f7af4d"/>
        <path id="Path_1627" data-name="Path 1627" d="M450.332,786.6h-.047a.829.829,0,0,1-.78-.874l.076-1.346a.829.829,0,1,1,1.654.094l-.076,1.346A.829.829,0,0,1,450.332,786.6Z" transform="translate(-423.074 -756.872)" fill="#2b2150"/>
        <path id="Path_1628" data-name="Path 1628" d="M492.145,789.121H492.1a.829.829,0,0,1-.78-.874l.064-1.13a.829.829,0,0,1,1.654.094l-.064,1.13A.829.829,0,0,1,492.145,789.121Z" transform="translate(-452.253 -758.78)" fill="#2b2150"/>
        <path id="Path_1629" data-name="Path 1629" d="M465.651,788.38a3.384,3.384,0,0,1-2.565-.916.828.828,0,0,1,1.213-1.128c.505.544,1.8.382,2.494.3-.011-.043.075-.214.07-.257l-.935-9.548a.828.828,0,1,1,1.649-.162l.93,9.493A1.759,1.759,0,0,1,467,788.275,10.742,10.742,0,0,1,465.651,788.38Z" transform="translate(-432.399 -751.509)" fill="#2b2150"/>
        <path id="Path_1630" data-name="Path 1630" d="M460.564,822.658a7.151,7.151,0,0,1-2.241.806,11,11,0,0,1-1.954.166,12.4,12.4,0,0,1-3.766-.563c.828,1.336,2.186,1.734,4.24,1.314a.828.828,0,0,1,.331,1.623,9.129,9.129,0,0,1-1.745.188c-2.6,0-4.329-1.446-5.068-4.251a1.093,1.093,0,0,1,.144-.983,1.014,1.014,0,0,1,.751-.353.8.8,0,0,1,.6.287l.055.033c.154.088.254.155.375.221a10.153,10.153,0,0,0,5.731.685,5.369,5.369,0,0,0,1.711-.6.827.827,0,1,1,.839,1.424Z" transform="translate(-423.634 -782.694)" fill="#2b2150"/>
        <path id="Path_1631" data-name="Path 1631" d="M487.426,805.561a3.648,3.648,0,0,0,6.543,2.418l.011-.01c.278-.663.514-1.338.732-2.035a3.648,3.648,0,0,0-7.286-.373Z" transform="translate(-449.535 -769.795)" fill="#ee7e94"/>
        <path id="Path_1632" data-name="Path 1632" d="M435.7,802.541a3.648,3.648,0,0,1-6.659,1.844,7.26,7.26,0,0,0,1.336-2.827,4.522,4.522,0,0,0-.441-2.186,3.6,3.6,0,0,1,2.33-.674A3.644,3.644,0,0,1,435.7,802.541Z" transform="translate(-408.795 -767.402)" fill="#ee7e94"/>
        <path id="Path_1633" data-name="Path 1633" d="M491.215,774.3a.829.829,0,0,1-.319-.064,6.99,6.99,0,0,0-2.588-.537.829.829,0,0,1-.818-.838.805.805,0,0,1,.838-.818,8.663,8.663,0,0,1,3.207.665.828.828,0,0,1-.32,1.592Z" transform="translate(-449.583 -748.806)" fill="#2b2150"/>
        <path id="Path_1634" data-name="Path 1634" d="M443.831,771.169a.828.828,0,0,1-.231-1.623,8.664,8.664,0,0,1,3.262-.3.828.828,0,0,1-.168,1.648,6.983,6.983,0,0,0-2.632.24A.831.831,0,0,1,443.831,771.169Z" transform="translate(-418.539 -746.826)" fill="#2b2150"/>
        <path id="Path_1635" data-name="Path 1635" d="M480.315,714.657a.546.546,0,0,1-.27-.071,10.593,10.593,0,0,0-3.6-1.3.552.552,0,1,1,.162-1.092,11.7,11.7,0,0,1,3.982,1.424.552.552,0,0,1-.271,1.034Z" transform="translate(-441.544 -707.042)" fill="#2b2150"/>
        <path id="Path_1636" data-name="Path 1636" d="M406.756,735.9a.536.536,0,0,1-.182-.031.552.552,0,0,1-.339-.7,8.734,8.734,0,0,1,3.557-4.849.552.552,0,1,1,.576.942,7.691,7.691,0,0,0-3.091,4.271A.552.552,0,0,1,406.756,735.9Z" transform="translate(-392.859 -719.628)" fill="#2b2150"/>
        <path id="Path_1637" data-name="Path 1637" d="M409.973,801.7a.552.552,0,0,1-.552-.548,12.386,12.386,0,0,0-.154-1.6,6.663,6.663,0,0,1,1.136-5.553,12.893,12.893,0,0,0,.819-1.553,6.089,6.089,0,0,0-.47-5.5.552.552,0,0,1,.934-.59,7.211,7.211,0,0,1,.557,6.509,13.871,13.871,0,0,1-.886,1.688,5.633,5.633,0,0,0-1,4.844,13.508,13.508,0,0,1,.164,1.747.552.552,0,0,1-.548.556Z" transform="translate(-394.883 -758.614)" fill="#2b2150"/>
      </g>
      <g id="Group_612" data-name="Group 612" transform="translate(234.973 594.63)">
        <g id="Group_611" data-name="Group 611">
          <path id="Path_1638" data-name="Path 1638" d="M321.9,1472.22v1c-.192-.2-.295-.313-.295-.313C321.706,1472.67,321.808,1472.444,321.9,1472.22Z" transform="translate(-321.603 -1363.089)" fill="#ea5e83"/>
          <path id="Path_1639" data-name="Path 1639" d="M336.626,1433.98v17.341c-.448-.351-.871-.714-1.281-1.078V1436.8C335.781,1435.835,336.2,1434.9,336.626,1433.98Z" transform="translate(-331.193 -1336.404)" fill="#ea5e83"/>
          <path id="Path_1640" data-name="Path 1640" d="M353.591,1397.87v30.8c-.256.363-.4.551-.4.551a9.68,9.68,0,0,1-.884-.438v-28.254C352.746,1399.61,353.168,1398.722,353.591,1397.87Z" transform="translate(-343.031 -1311.205)" fill="#ea5e83"/>
          <path id="Path_1641" data-name="Path 1641" d="M370.557,1364.24v33.729c-.448.627-.884,1.228-1.281,1.8V1366.7C369.71,1365.844,370.146,1365.029,370.557,1364.24Z" transform="translate(-354.87 -1287.737)" fill="#ea5e83"/>
          <path id="Path_1642" data-name="Path 1642" d="M387.521,1333.97V1369.6c-.436.614-.858,1.215-1.281,1.8v-35.271C386.687,1335.36,387.11,1334.647,387.521,1333.97Z" transform="translate(-366.708 -1266.614)" fill="#ea5e83"/>
          <path id="Path_1643" data-name="Path 1643" d="M404.485,1144.7v17.241a38.767,38.767,0,0,0-1.281-5.225v-12.167C403.64,1144.615,404.062,1144.666,404.485,1144.7Z" transform="translate(-378.547 -1134.432)" fill="#ea5e83"/>
          <path id="Path_1644" data-name="Path 1644" d="M403.2,1313.063c.525-.691.948-1.9,1.281-2.3v35.489c-.423.582-.858,1.163-1.281,1.745Z" transform="translate(-378.547 -1250.421)" fill="#ea5e83"/>
          <path id="Path_1645" data-name="Path 1645" d="M421.451,1146.338v77.822c-.423.6-.859,1.2-1.281,1.817V1146.25C420.592,1146.289,421.014,1146.313,421.451,1146.338Z" transform="translate(-390.386 -1135.617)" fill="#ea5e83"/>
          <path id="Path_1646" data-name="Path 1646" d="M438.414,1147.356v70.316c-.423.589-.846,1.19-1.281,1.8v-72.183C437.556,1147.332,437.979,1147.344,438.414,1147.356Z" transform="translate(-402.224 -1136.345)" fill="#ea5e83"/>
          <path id="Path_1647" data-name="Path 1647" d="M440.823,1509.2l.166-3.393v3.405Z" transform="translate(-404.799 -1386.529)" fill="#ea5e83"/>
          <path id="Path_1648" data-name="Path 1648" d="M455.391,1147.994V1260.03l-1.281-.132V1147.961C454.541,1147.973,454.96,1147.985,455.391,1147.994Z" transform="translate(-414.071 -1136.811)" fill="#ea5e83"/>
          <path id="Path_1649" data-name="Path 1649" d="M472.347,1148.07v112.566l-1.281-.132V1148.148A8.183,8.183,0,0,0,472.347,1148.07Z" transform="translate(-425.903 -1136.887)" fill="#ea5e83"/>
          <path id="Path_1650" data-name="Path 1650" d="M489.3,1116.75v122.3a.653.653,0,0,1-.044.254l-1.226-.132a.41.41,0,0,1-.011-.121V1120.141l.894-3.346A3.673,3.673,0,0,0,489.3,1116.75Z" transform="translate(-437.736 -1115.031)" fill="#ea5e83"/>
          <path id="Path_1651" data-name="Path 1651" d="M506.273,1112.77v92.822l-1.281,10.277V1112.884C505.428,1112.846,505.85,1112.809,506.273,1112.77Z" transform="translate(-449.578 -1112.253)" fill="#ea5e83"/>
          <path id="Path_1652" data-name="Path 1652" d="M523.238,1111.06v53.557c-.73,5.341-1.256,8.762-1.256,8.762l-.026.2v-62.4C522.38,1111.148,522.815,1111.108,523.238,1111.06Z" transform="translate(-461.417 -1111.06)" fill="#ea5e83"/>
        </g>
      </g>
      <path id="Path_1653" data-name="Path 1653" d="M815.212,1023.139l-10.6-12.319-10.6,12.319c-.418.486-1.028.041-1.028-.75V971.728H816.24v50.661C816.24,1023.179,815.63,1023.626,815.212,1023.139Z" transform="translate(-415.573 -419.2)" fill="#f7af4d"/>
      <path id="Path_1654" data-name="Path 1654" d="M1423.243,1392.21l-8.208-9.537-8.207,9.537c-.324.376-.8.032-.8-.581l.273-38.182h17.733v38.182C1424.041,1392.243,1423.569,1392.588,1423.243,1392.21Z" transform="translate(-843.38 -685.576)" fill="#313c85"/>
      <path id="Path_1655" data-name="Path 1655" d="M724.367,1523.175l-6.387-7.422-6.387,7.422c-.252.293-.619.024-.619-.452V1492.2h14.013v30.523C724.986,1523.2,724.619,1523.468,724.367,1523.175Z" transform="translate(-358.345 -782.403)" fill="#e6325c"/>
      <path id="Path_1656" data-name="Path 1656" d="M764.657,1490.38H694.1a.552.552,0,1,0,0,1.1h3.887v29.56a1.491,1.491,0,0,0,.265.884,1.149,1.149,0,0,0,1.811.1l5.753-6.692,5.764,6.692a1.139,1.139,0,0,0,.861.42,1.3,1.3,0,0,0,1.215-1.4v-29.56h51a.552.552,0,0,0,0-1.1ZM712,1519.983l-5.554-6.449a.841.841,0,0,0-1.248,0l-5.554,6.449v-28.5H712v28.5Z" transform="translate(-346.182 -781.133)" fill="#2b2150"/>
      <path id="Path_1657" data-name="Path 1657" d="M679.157,796.683l4.16-10.328L695.9,784.07l-4.543,10.574Z" transform="translate(-336.143 -288.246)" fill="#f7af4d"/>
      <path id="Path_1658" data-name="Path 1658" d="M691.648,803.426a.552.552,0,0,1-.11-1.093l7.856-1.6a.552.552,0,0,1,.221,1.082l-7.856,1.6A.579.579,0,0,1,691.648,803.426Z" transform="translate(-344.474 -299.863)" fill="#2b2150"/>
      <path id="Path_1659" data-name="Path 1659" d="M969.588,652.172v30.852c-.936.329-4.064,3.336-4.516,3.176-.576-.2-2.633-1.927-3.291-2.039a8.337,8.337,0,0,1-3.214-1.557c-.519-.364-1-.751-1.468-1.093-1.237-.95-2.275-1.656-2.937-1.193-.58.406-.208,1.766-.055,2.286.259.882,1.2,2.651,1.526,3.52l-3.5-1c-3.721-1.237-8.977-2.992-11-1.458a4.35,4.35,0,0,0-1.9,2.551,3.491,3.491,0,0,0,.784,2.506,19.774,19.774,0,0,0,3.2,3.578l-.1.033-.033.011-.044-.011-9.795-2.518-4.262-1.093-7.564-1.944a15.5,15.5,0,0,0,1.59-.563c.95-.376,2.01-.817,2.474-.939.033-.011.066-.055.121-.154.066-.155.166-.442.287-.8,4.248-.572,8.838-1.039,12.787-2.816a10.73,10.73,0,0,0,4.362-3.589,20.681,20.681,0,0,0,2.219-3.611,6.491,6.491,0,0,0,.651-2.506,4.256,4.256,0,0,0-2.076-3.611,10.1,10.1,0,0,0-1.149-.663c-1.159-.574-2.97-.144-4.925.663a47.381,47.381,0,0,0-4.958,2.518c-.707.4-1.37.773-1.954,1.093a11.507,11.507,0,0,1-1.932.916,15.019,15.019,0,0,0,.353-2.01,8.141,8.141,0,0,0,.5-2.518c-.061-1.221-.674-1.957-1.8-1.093a9.264,9.264,0,0,0-1.1,1.093c-.718.784-1.513,1.734-2.385,2.518a6.35,6.35,0,0,1-1.966,1.259,5.525,5.525,0,0,0-1.9,2.341,6.582,6.582,0,0,0-.629,1.568l-3.931.176V652.172l2.021.519,4.262,1.093,9.794,2.518,4.218,1.082,6.449,1.656,6.46-1.656,4.218-1.082,9.827-2.518,4.262-1.093Z" transform="translate(-501.457 -196.203)" fill="#f7af4d"/>
      <path id="Path_1660" data-name="Path 1660" d="M1018.186,751.563a5,5,0,0,0-2.961-2.724c-3.169-.542-6.2-4.828-7.62-3.845-.463.321-.348,2.221.437,3.326a12.733,12.733,0,0,1,1.037,2.477c-2.247-.182-11.636-4.639-14.5-2.455-3.271,2.493-2.07,4.336,1.167,7.736,3.91,4.106,8.672,5.269,20.586,5.75Z" transform="translate(-554.902 -260.876)" fill="#f5ae9e"/>
      <path id="Path_1661" data-name="Path 1661" d="M934.949,717.86c14.058-1.945,15.362-3.616,18.421-8.4,2.531-3.954,2.034-6.623-1.655-8.443-3.231-1.594-11.592,4.579-13.763,5.189a12.745,12.745,0,0,1,.543-2.63c.559-1.235.308-3.121-.208-3.348-1.578-.693-3.736,4.095-6.742,5.234-.958.363-2.514,3.146-2.555,4.247Z" transform="translate(-510.485 -229.692)" fill="#f5ae9e"/>
      <path id="Path_1662" data-name="Path 1662" d="M949.035,516.742l1.369,9.6c-1.866.265-3.07-4.108-3.07-4.108C945.755,518.531,947.246,516.875,949.035,516.742Z" transform="translate(-522.82 -101.696)" fill="#f5ae9e"/>
      <path id="Path_1663" data-name="Path 1663" d="M995.63,489.957c-.011.033-.828,4.826-4.218,4.936a20.1,20.1,0,0,1-8.083,11.031v4.483c0,4.539-8.3,8.2-8.3,8.2s-8.138-3.666-8.138-8.2v-4.781c-4.075-3.236-6.515-8.966-7.266-15.713v-.022c.541-5.19,2.1-14.477,5.212-17.624a1.943,1.943,0,0,1,3.048.342,8.078,8.078,0,0,0,1.667,1.933c1.877,1.325,4.825,1.689,8.547-.2,2.661,1.546,7.862,2.341,10.115-1.27,3.589,2.551,3.214,14.786,3.677,19.655l1.7-7.266.044-.486a2.206,2.206,0,0,1,.938.11C996.37,485.716,996.159,487.561,995.63,489.957Z" transform="translate(-531.86 -70.251)" fill="#f5ae9e"/>
      <path id="Path_1664" data-name="Path 1664" d="M987.328,524.688a.829.829,0,0,1-.828-.828V522a.828.828,0,0,1,1.657,0v1.857A.829.829,0,0,1,987.328,524.688Z" transform="translate(-550.617 -104.789)" fill="#2b2150"/>
      <path id="Path_1665" data-name="Path 1665" d="M1038.358,524.688a.828.828,0,0,1-.828-.828V522a.828.828,0,1,1,1.656,0v1.857A.829.829,0,0,1,1038.358,524.688Z" transform="translate(-586.227 -104.789)" fill="#2b2150"/>
      <circle id="Ellipse_30" data-name="Ellipse 30" cx="3.766" cy="3.766" r="3.766" transform="translate(448.712 421.136)" fill="#ee7e94"/>
      <circle id="Ellipse_31" data-name="Ellipse 31" cx="3.766" cy="3.766" r="3.766" transform="translate(431.016 420.879)" fill="#ee7e94"/>
      <path id="Path_1666" data-name="Path 1666" d="M989.784,445.875l-.916,11.131-1.7,7.266c-.464-4.87-.089-17.1-3.677-19.655-2.252,3.611-7.454,2.816-10.115,1.27-3.721,1.888-6.669,1.524-8.547.2a8.064,8.064,0,0,1-1.667-1.933,1.944,1.944,0,0,0-3.048-.342c-3.556,3.6-5.091,15.216-5.389,19.567l-1.2-6.305-.663-11.473c0-5.046,4.969-12.412,10.3-12.412h.662c1.932,0,4.549.552,5.9-.839a4.9,4.9,0,0,1,3.534-1.447,4.661,4.661,0,0,1,4.339,2.672c.11-.022.262.062.331-.022,2.175-2.65,5.964.781,5.411,1.976C985.716,434.853,989.784,441.59,989.784,445.875Z" transform="translate(-527.14 -41.793)" fill="#4b3584"/>
      <path id="Path_1667" data-name="Path 1667" d="M1002.995,566.878a5.611,5.611,0,0,1-3.892-1.5.828.828,0,1,1,1.165-1.179,3.978,3.978,0,0,0,2.8,1.024,3.814,3.814,0,0,0,2.739-1.149.828.828,0,0,1,1.2,1.141,5.455,5.455,0,0,1-3.914,1.663Z" transform="translate(-559.24 -134.545)" fill="#2b2150"/>
      <path id="Path_1668" data-name="Path 1668" d="M1262.6,1352.03h-20.715a.552.552,0,1,1,0-1.1H1262.6a.552.552,0,0,1,0,1.1Z" transform="translate(-728.45 -683.817)" fill="#2b2150"/>
      <path id="Path_1669" data-name="Path 1669" d="M1330.347,1102.941h-9l.055-.163a51.309,51.309,0,0,0,.071-32.317l-.125-.38h9l.125.38a51.315,51.315,0,0,1-.071,32.317Z" transform="translate(-784.282 -487.834)" fill="#2bb19e"/>
      <path id="Path_1670" data-name="Path 1670" d="M1384.367,1102.941h-9l.055-.163a51.31,51.31,0,0,0,.071-32.317l-.125-.38h9l.125.38a51.313,51.313,0,0,1-.071,32.317Z" transform="translate(-821.979 -487.834)" fill="#2bb19e"/>
      <path id="Path_1671" data-name="Path 1671" d="M1438.867,1102.941h-9l.055-.163a51.307,51.307,0,0,0,.07-32.317l-.125-.38h9l.125.38a51.311,51.311,0,0,1-.071,32.317Z" transform="translate(-860.011 -487.834)" fill="#2bb19e"/>
      <g id="Group_613" data-name="Group 613" transform="translate(610.456 624.696)">
        <path id="Path_1672" data-name="Path 1672" d="M1673.351,1249.317a2.845,2.845,0,0,1-.453,1.458,2.173,2.173,0,0,1-1.226.64,33.284,33.284,0,0,1-9.9,1.137,6.86,6.86,0,0,1-3.1-.662c-2.043-1.1-2.959-3.765-4.56-5.576a8.543,8.543,0,0,0-2.319-1.833s.65,6.426.652,6.438a1.417,1.417,0,0,1-2.794.409s-1.6-8.193-1.59-8.293a2.3,2.3,0,0,1-1.093-.585,2.7,2.7,0,0,1-.486-.994,17.094,17.094,0,0,1-.872-8.867c1.391-.1,2.893-.3,4.384-.541a11.884,11.884,0,0,0,3.213,3.291c8.138,5.2,9.717,4,9.221,1.358,1,2.142,2.219,4,3.909,4.693,2.054.839,4.616.342,6.151,2.1C1673.771,1244.978,1673.608,1247.319,1673.351,1249.317Z" transform="translate(-1620.824 -1225.556)" fill="#e6325c"/>
        <path id="Path_1673" data-name="Path 1673" d="M1663.959,1230.673a11.885,11.885,0,0,1-3.213-3.291c4.439-.729,8.768-1.833,9.794-2.021l.066.618a1.024,1.024,0,0,0,.121.364c.243.42.5.895.762,1.414.011.011.011.022.022.033v.011a16.96,16.96,0,0,1,1.645,4.163v.011a.041.041,0,0,1,.011.033c.011.011.011.011.011.022C1673.677,1234.67,1672.1,1235.873,1663.959,1230.673Z" transform="translate(-1631.584 -1220.89)" fill="#f5ae9e"/>
        <path id="Path_1674" data-name="Path 1674" d="M1574.351,1216.969l-.276.707c-.254,5.709-1.06,15.569-7.939.121a25.165,25.165,0,0,1-1.9-7.233c3,1.954,6.471,3.92,9.055,5.852A2.56,2.56,0,0,0,1574.351,1216.969Z" transform="translate(-1564.236 -1210.564)" fill="#f5ae9e"/>
      </g>
      <path id="Path_1675" data-name="Path 1675" d="M1481.73,1025.6c-1.447.265-10.3,2.573-15.978,2.672,0,0-2.639-14.046-4.3-18.551-2.893,6.371-6.515,13.041-7.365,17.038a1.154,1.154,0,0,1-.773.74c-.519.188-1.071-.166-1.524-.508-3.39-2.54-8.315-5.135-11.7-7.686.806-5.83,3.445-13.086,4.638-18.86,1.933-9.4,5.036-16.4,5.6-20.638-.95.464-7.2.795-9.629.883-7.7.3-32.586.629-38.228-1.424-5.245-1.921-10.159-5.72-11.76-11.065-1.822-6.117,1.016-12.555,3.777-18.319,1.171-2.429,2.86-8.613,3.9-10.766.033,0,.055.011.088.011.3.1.6.2.884.3-.906,2.131-1.9,4.351-3.015,6.658a1.022,1.022,0,0,0,.1.055c1.182.651,13.372,7.177,26.568,8.271,9.254.762,11.793-3.158,12.433-5.974.055-.243.089-.475.122-.7v-.011c0-.331.011-.74.055-1.2,0-.055.011-.11.011-.166.011-.011.011-.011,0-.022.033-.342.067-.806.1-1.336,6.647,1.3,24.5,7.023,34.11,10.269,1.833.618,5.477,2.838,6.537,4.461,2.44,3.721,2.562,39.885,3.026,45.782C1479.929,1012.349,1480.794,1015.652,1481.73,1025.6Z" transform="translate(-832.284 -396.444)" fill="#f7af4d"/>
      <path id="Path_1676" data-name="Path 1676" d="M1449.695,806.845l-6.758,2.374a3.549,3.549,0,0,1-4.527-2.164l-.586-1.656a68.693,68.693,0,0,0-1.4,9.358c-.2,3.5.371,7.742-2.267,10.509-2.665,2.8-7.1,2.976-10.692,2.68-13.2-1.093-25.386-7.619-26.568-8.271a.906.906,0,0,1-.1-.055c1.115-2.308,2.109-4.527,3.015-6.659l-1.656-.552c-1.866-.629-3.677-1.237-3.865-1.325-2.562-1.049-3.865-4.041-3.412-7.034l5-29.483,1.016-6.714a5.266,5.266,0,0,1,.707-2.452,8.363,8.363,0,0,1,3.81-3.125c.685-.32,9.121-3.6,10.214-4.064a6.792,6.792,0,0,1,1.038-.32c-.022.055-.033.077-.033.077-.265,2.694,2.065,4.892,2.065,4.892,5.863,4.318,12.036,2.241,12.555-2.661l.055-.077-.155-1.866a18.112,18.112,0,0,1,2.518.475c4.052.552,6.085,1.234,7.376,5.963a13.153,13.153,0,0,0,1.027,2.429s-2.275,14.9-2.275,14.907l-4.218,1.689,3.219,7.128.138,1.518-2.4,11.053Z" transform="translate(-832.747 -269.98)" fill="#4b3584"/>
      <path id="Path_1677" data-name="Path 1677" d="M1427.578,615.775c-.718,1.093-2.518,1.767-3.744,2.264-3.158,1.259-7.476-.751-10.833-1.292-7.686-1.215-12.157,5.676-12.157,5.676-.839-3.2-3.986-3.909-5.654-2.705a2.8,2.8,0,0,0-.884,3.313,15.688,15.688,0,0,0,.6,1.745c1.038,2.617,1.932,2.827,2.705,7.961a26.784,26.784,0,0,1-3.037-2.882,14.838,14.838,0,0,1-1.391,5.344c-1.8,3.545-5.676,5.786-9.684,6.383a23.791,23.791,0,0,1-11.881-1.734c3.655-1.59,7.321-4.163,8.171-7.984.74-3.313-.519-6.968-.95-10.28a45.607,45.607,0,0,1-.464-8.845c.364-5.7,2.65-11.285,8.6-13.218a12.577,12.577,0,0,1,10.369,1.248c.066.044.121.077.176.121a1.3,1.3,0,0,1,.155.11.782.782,0,0,1,.155-.11c4.494-2.849,9.7-2.915,14.73-1.535,7.178,1.977,9.43,6.239,10.038,6.526C1425.877,607.383,1429.929,612.164,1427.578,615.775Z" transform="translate(-819.363 -158.735)" fill="#ea5e83"/>
      <path id="Path_1678" data-name="Path 1678" d="M1479.252,665.026a38.924,38.924,0,0,1-1,4.925,32.037,32.037,0,0,1-1.679,4.748c-2.385,5.312-6.084,9.088-11.042,9.353l.331,4.847c-.519,4.9-6.692,6.979-12.555,2.661,0,0-2.33-2.2-2.065-4.892a30.5,30.5,0,0,0,2.253-8.492,25.684,25.684,0,0,1-4.1-5.665l.2.166c-.917-6.084-2-5.256-3.3-9.706-1.347-4.594,5.267-5.466,6.537-.607,0,0,4.472-6.891,12.157-5.676,3.357.541,7.675,2.551,10.833,1.292,1.226-.5,3.026-1.171,3.744-2.264A34.719,34.719,0,0,1,1479.252,665.026Z" transform="translate(-871.348 -198.677)" fill="#f5ae9e"/>
      <path id="Path_1679" data-name="Path 1679" d="M1509.365,723.683a5.955,5.955,0,0,1-3.645-1.145c-.092-.076-.178-.156-.264-.238a.9.9,0,0,1-.095-1.223.766.766,0,0,1,1.112-.094l.049.046c.13.122.191.18.258.236a4.528,4.528,0,0,0,3.609.636,2.955,2.955,0,0,0,1.1-.554.828.828,0,1,1,1.055,1.277,4.612,4.612,0,0,1-1.725.875A5.575,5.575,0,0,1,1509.365,723.683Z" transform="translate(-912.557 -244.084)" fill="#2b2150"/>
      <path id="Path_1680" data-name="Path 1680" d="M1478.325,635.909a.552.552,0,0,1-.342-.986,8.341,8.341,0,0,1,5.251-1.688.527.527,0,0,1,.56.544.552.552,0,0,1-.544.56,7.278,7.278,0,0,0-4.582,1.451A.545.545,0,0,1,1478.325,635.909Z" transform="translate(-893.443 -182.988)" fill="#2b2150"/>
      <path id="Path_1681" data-name="Path 1681" d="M1403.316,717.576c-.226,0-.458-.01-.693-.031a.552.552,0,0,1-.5-.6.56.56,0,0,1,.6-.5c3.807.335,6.387-2.668,7.583-4.488a.552.552,0,0,1,.923.606C1409.966,714.482,1407.313,717.576,1403.316,717.576Z" transform="translate(-840.649 -237.75)" fill="#2b2150"/>
      <circle id="Ellipse_32" data-name="Ellipse 32" cx="3.725" cy="3.725" r="3.725" transform="translate(585.805 469.005)" fill="#ee7e94"/>
      <path id="Path_1682" data-name="Path 1682" d="M1456.272,680.289a.551.551,0,0,1-.439-.217,5.728,5.728,0,0,1-1.347-3.237.545.545,0,0,1,.6-.5.552.552,0,0,1,.5.6,4.907,4.907,0,0,0,1.125,2.474.551.551,0,0,1-.439.887Z" transform="translate(-877.188 -213.06)" fill="#2b2150"/>
      <path id="Path_1683" data-name="Path 1683" d="M1542.6,687.779a.693.693,0,0,1-.071,0,.827.827,0,0,1-.755-.895l.1-1.151a.837.837,0,0,1,.9-.755.828.828,0,0,1,.755.9l-.1,1.151A.827.827,0,0,1,1542.6,687.779Z" transform="translate(-938.1 -219.092)" fill="#2b2150"/>
      <path id="Path_1684" data-name="Path 1684" d="M1500.235,686.574a.712.712,0,0,1-.071,0,.828.828,0,0,1-.755-.9l.091-1.06a.828.828,0,0,1,1.65.141l-.091,1.06A.831.831,0,0,1,1500.235,686.574Z" transform="translate(-908.539 -218.315)" fill="#2b2150"/>
      <path id="Path_1685" data-name="Path 1685" d="M1538.583,700.246c-.075.28-.16.559-.245.838a34.145,34.145,0,0,1-1.772,4.689c-.217.466-.443.92-.676,1.352a3.659,3.659,0,0,1-2.318-3.983,3.588,3.588,0,0,1,3.879-3.264A3.062,3.062,0,0,1,1538.583,700.246Z" transform="translate(-932.359 -229.476)" fill="#ee7e94"/>
      <path id="Path_1686" data-name="Path 1686" d="M1581.06,760.233l-8.978,42.932-15.713,7.211-.2.1h-.011l-10.037-2-17.149-3.423,1.679-10.976,17.888-3.545a3.41,3.41,0,0,0,2.463-4v-.044c-.729-4.362-7.818-6.239-12.677-5.278l-6.1,2.44,2.275-14.9.883-5.786,27.187,5.422h.011Z" transform="translate(-929.172 -271.612)" fill="#8ecfd4"/>
      <path id="Path_1687" data-name="Path 1687" d="M1546.316,838.412l-16.761,3.31-3.77-8.485,10.318-4.15c4.858-.959,11.948.921,12.672,5.287l.006.034A3.412,3.412,0,0,1,1546.316,838.412Z" transform="translate(-926.947 -319.49)" fill="#f5ae9e"/>
      <path id="Path_1688" data-name="Path 1688" d="M1669.1,825.579c.174-2.184-4.42-1.579-5.679.214a11.546,11.546,0,0,0-1.844,3.412c-.745,2.656-.763,10.743,1.074,10.9a19.308,19.308,0,0,0,4.053-.066,1.7,1.7,0,0,0,.764-.667C1668.123,836.943,1668.76,829.848,1669.1,825.579Z" transform="translate(-1021.378 -316.235)" fill="#f5ae9e"/>
      <path id="Path_1689" data-name="Path 1689" d="M1646.665,798.853a.552.552,0,0,1-.213-1.062l10.494-4.381a.552.552,0,0,1,.425,1.019l-10.494,4.381A.551.551,0,0,1,1646.665,798.853Z" transform="translate(-1010.916 -294.734)" fill="#2b2150"/>
      <path id="Path_1690" data-name="Path 1690" d="M1644.305,807.473a.552.552,0,0,1-.213-1.062l10.494-4.381a.552.552,0,0,1,.425,1.019l-10.494,4.381A.532.532,0,0,1,1644.305,807.473Z" transform="translate(-1009.269 -300.749)" fill="#2b2150"/>
      <path id="Path_1691" data-name="Path 1691" d="M1023.44,698.03V687.906l16.822-4.594v10.221Z" transform="translate(-576.395 -217.934)" fill="#c2def5"/>
      <path id="Path_1692" data-name="Path 1692" d="M1051.083,696.925a.552.552,0,0,1-.147-1.084l6.2-1.706a.552.552,0,1,1,.293,1.064l-6.2,1.706A.567.567,0,0,1,1051.083,696.925Z" transform="translate(-595.299 -225.472)" fill="#2b2150"/>
      <path id="Path_1693" data-name="Path 1693" d="M1027.424,704.305a.552.552,0,0,1-.147-1.084l4.831-1.33a.552.552,0,1,1,.293,1.064l-4.831,1.33A.551.551,0,0,1,1027.424,704.305Z" transform="translate(-578.789 -230.885)" fill="#2b2150"/>
      <path id="Path_1694" data-name="Path 1694" d="M1027.914,710.4a.552.552,0,0,1-.147-1.084l13.348-3.673a.552.552,0,1,1,.293,1.065l-13.348,3.674A.568.568,0,0,1,1027.914,710.4Z" transform="translate(-579.131 -233.504)" fill="#2b2150"/>
      <path id="Path_1695" data-name="Path 1695" d="M617.422,861.284l7.536,3.535c1.287-2.047,5.464-4.313,6.388-6.548a15.483,15.483,0,0,0,.125-12.887c-.52-1.329-1.713-1.562-3.1-1.224-.173.042-3.707.322-4.049,2.47-1.289,8.1-4.549,8.834-6.165,10.214C617.177,857.682,616.887,859.688,617.422,861.284Z" transform="translate(-292.877 -330.082)" fill="#f5ae9e"/>
      <path id="Path_1696" data-name="Path 1696" d="M657.935,475.847a24.2,24.2,0,1,0-42.06,18.032,21.949,21.949,0,0,1,5.643,11.87,2.944,2.944,0,0,0,2.893,2.54h18.816a2.918,2.918,0,0,0,2.9-2.529,22.156,22.156,0,0,1,5.554-11.837A24.036,24.036,0,0,0,657.935,475.847Zm-7.464,16.961a23.821,23.821,0,0,0-5.985,12.721,1.264,1.264,0,0,1-1.259,1.1H634.36V492.919l7.531-8.977a.549.549,0,1,0-.839-.707l-7.244,8.635-7.244-8.635a.558.558,0,0,0-.784-.066.545.545,0,0,0-.066.773l7.542,8.977v13.715h-8.845a1.264,1.264,0,0,1-1.259-1.115,23.543,23.543,0,0,0-6.051-12.754,22.546,22.546,0,0,1,16.707-37.687q.812,0,1.623.066a22.54,22.54,0,0,1,15.04,37.665Z" transform="translate(-287.606 -57.51)" fill="#2b2150"/>
      <path id="Path_1697" data-name="Path 1697" d="M681.636,789.357H629.383c8.989-2.794,15.437-10.413,15.437-19.357V757.069c0-8.635-6.018-16.034-14.532-19.037h.619a3.468,3.468,0,0,0,0-6.934.143.143,0,0,0-.066.011c-.033-.044-.066-.077-.1-.121-5-5.311-5.068-34.065-.21-40.857a3.423,3.423,0,0,0,3.291-3.489,3.463,3.463,0,0,0-1.557-2.893c.022-.121.033-13.77.033-13.77.221,1.127.353,1.844.364,1.888.232.762.927.663,1.568.7a20.254,20.254,0,0,0,1.093,8.182,3.512,3.512,0,0,0,.651,1.281,2.334,2.334,0,0,0,.95.64s1.535,7.829,1.535,7.84c.53,2.705,4.715,2.076,4.439-.651l-.464-4.638A10.928,10.928,0,0,1,644.622,688a9.526,9.526,0,0,0,3.291,3.644,7.614,7.614,0,0,0,3.456.762,32.487,32.487,0,0,0,10.159-1.159,3.047,3.047,0,0,0,1.645-.916,3.553,3.553,0,0,0,.629-1.877c.309-2.374.387-4.814-1.071-6.482a6.4,6.4,0,0,0-4.218-1.811,9.7,9.7,0,0,1-2.231-.519c-1.414-.586-2.518-2.253-3.434-4.2-.629-1.347-2.231-5.311-2.54-5.864a1.39,1.39,0,0,1-.044-.751c0-2.849-.74-5.874-1.138-8.7-.519-3.732-.939-6.714-1.159-10.822-.011-.132-.243-5.643-.375-10.3-.4-14.852-.861-28.588-2.043-34.11-.685-3.213-3.655-5.123-6.46-6.438a57.93,57.93,0,0,0-6.493-2.275c-3.467-1.137-14.7-4.66-16.762-5.278-.409-.122-11.65-3.158-11.65-3.158.177-2.739.74-6.946,1.159-9.585a4.348,4.348,0,0,0,5.124,1.745l6.548-2.308s9.916,1.977,9.982,1.977c.132,0,16.254-7.376,16.254-7.376a.831.831,0,0,0,.464-.585l1.491-7.089a1.509,1.509,0,0,0,.221-.022,2.23,2.23,0,0,0,1.457-1.27c.651-2.385,1.259-8.9,1.668-13.935a2.2,2.2,0,0,0-.044-.607l4.2-20.009a.853.853,0,0,0-.3-.817.8.8,0,0,0-.85-.11l-18.242,8.05-26.932-5.367a.828.828,0,0,0-.64.132.8.8,0,0,0-.342.552l-.376,2.462a17.148,17.148,0,0,1-.629-1.6c-1.314-4.086-7.321-4.3-8.5-4.3a4.663,4.663,0,0,0-.685.077l-.132-1.778c4.505-.6,8.326-4.008,10.91-9.75a32.528,32.528,0,0,0,1.557-4.318,5.354,5.354,0,0,0,3.147-4.417,5.273,5.273,0,0,0-1.6-4.273,29,29,0,0,0-.011-6.128,5.415,5.415,0,0,0,.409-4.251,11.488,11.488,0,0,0-5.819-6.526c-.1-.088-.232-.254-.42-.464a18.523,18.523,0,0,0-9.828-6.151c-5.753-1.579-10.91-1.082-15.095,1.458a13.655,13.655,0,0,0-10.976-1.292c-5.455,1.778-8.7,6.736-9.154,13.957a45.838,45.838,0,0,0,.453,9.011c.132.95.32,1.933.508,2.893.464,2.4.95,4.881.464,7.1-.828,3.7-4.638,6.073-7.7,7.409a.83.83,0,0,0,.033,1.524,26.885,26.885,0,0,0,9.574,1.977,18.413,18.413,0,0,0,2.727-.2c4.549-.674,8.5-3.291,10.3-6.824a13.328,13.328,0,0,0,1.237-3.909c.508.486,1.038.972,1.612,1.436a27.108,27.108,0,0,0,3.865,5.433,30.337,30.337,0,0,1-2,7.531s-7.862,3.059-8.149,3.158c-2.462.828-7.6,2.54-7.774,7.255,0,0-6.3,37.555-6.316,37.633-.508,2.97,2.5,5.654,4.859,6.89.254.132,2.926,1.314,3.026,1.071-.431,1.115-.938,2.606-1.446,4.174a58.576,58.576,0,0,1-2.01,5.576c-2.959,6.139-5.686,12.666-3.821,18.9a15.35,15.35,0,0,0,3.588,6.084,18.9,18.9,0,0,0,4.141,3.346H546.864a3.954,3.954,0,0,0,.033-.519,3.478,3.478,0,0,0-3.147-3.456.228.228,0,0,0-.066-.088c-5.223-5.389-5.279-34.54-.221-41.4a3.5,3.5,0,0,0-.044-6.99h-61.86a28.3,28.3,0,0,0-1.1-10.214l6.25-1.778a11.18,11.18,0,0,0-3.346-21.82q-.364,0-.729.033c2.672-1.48,4.781-3.136,5.687-4.969a4.419,4.419,0,0,0,.055-4.086l-12.853-36.373a12.683,12.683,0,0,0-9.43-8.977L452.3,477.554v-.906a19.409,19.409,0,0,0,7.973-11.374c3.3-.629,4.218-5,4.306-5.51.431-1.944,1.093-4.892-1.6-5.83a2.629,2.629,0,0,0-.32-.088l.817-9.883c0-4.494-3.169-10.38-6.681-11.109a2.783,2.783,0,0,0-.442-1.347,4.215,4.215,0,0,0-3.732-1.877,3.1,3.1,0,0,0-1.932.762,5.615,5.615,0,0,0-4.572-2.231,5.736,5.736,0,0,0-4.13,1.7c-.8.817-2.385.729-3.921.641-.681-.047-1.36-.055-2.042-.055-5.632,0-11.131,7.586-11.131,13.3l.607,10.468a3.218,3.218,0,0,0-1.966,1.424c-.519.861-.906,2.441.2,5.057.265.917,1.458,4.66,3.677,4.671A19.166,19.166,0,0,0,434.2,476.13v.861c-.983.364-2.474.751-4.174,1.2-3.545.928-7.962,2.087-11,3.765-2.584,1.424-5.1,4.848-5.609,5.576-.033.044-14.388,29.328-16.309,32.961a15.711,15.711,0,0,0-.773,7.211,12.433,12.433,0,0,0,1.734,5.057,13.333,13.333,0,0,0-2.33,1.115,12.15,12.15,0,0,0-2.12,1.623,11.257,11.257,0,0,0-.95,14.9,11.074,11.074,0,0,0,5.2,3.633l2.529.828a19.318,19.318,0,0,0-2.308,13.991H371.876c-13.2,0-23.94,9.485-23.94,21.135v13.35c0,7.575,4.539,14.233,11.341,17.966h-30.1c-1.9,0-3.379,1.071-3.379,2.474,0,1.358,1.48,2.418,3.379,2.418h.176c2.087,2.021,3.445,7.5,3.269,13.405-.155,5.389-2.065,10.391-3.744,11.208-1.756.1-3.081,1.137-3.081,2.462a1.7,1.7,0,0,0,.243.894H315.151a2.465,2.465,0,0,0-2.462,2.462v27.44a2.464,2.464,0,0,0,2.462,2.462h9.364c-6.592,3.688-11,10.314-11,17.856v13.229c0,8.58,5.687,15.978,13.8,19.224a3.408,3.408,0,0,0,1.27,6.559h.663c4.814,6.073,4.947,33.933.375,40.359H328.59a3.191,3.191,0,0,0-3.379,3.192,3.363,3.363,0,0,0,1.016,2.407H302.994a4.92,4.92,0,0,0,.806-1.789c.828-2.882,1.38-5.864-.221-8.116-1.9-2.683-5.411-2.705-8.182-3.887a5.525,5.525,0,0,1-1.8-1.259,9.976,9.976,0,0,1-1.877-3.567c-.817-2.363-1.767-4.748-2.429-7.167-.144-.519-.265-1.049-.387-1.568-.077-.331-.729-2.308-.541-2.5a.807.807,0,0,0,.232-.486l7.774-62.047.055-.409c.95-6.394,3.611-24.967,4.936-41.166.033-.409.066-.806.088-1.2.32-4.064.629-11.617.6-11.7.155-.044.994-.309,1.093-.331a.812.812,0,0,0,.707-.817c-.022-3.257-1.149-20.483-2.087-34.265l4.572,3.07a5.328,5.328,0,0,0,4.814.552,6.489,6.489,0,0,0,3.092-3.214s20.329-31.581,20.351-31.614a.834.834,0,0,0-.353-1.2l-.839-.376a27.41,27.41,0,0,1,2.142-1.91c1.535-1.27,3.114-2.584,3.7-4,.044-.1.088-.21.132-.342l12.379-3.224a.783.783,0,0,0,.552-.464s15.669-36.34,15.713-36.44a.833.833,0,0,0-.927-1.137l-22.692,4.87L315.438,529.4a.836.836,0,0,0-.85.563s-11.76,35-11.782,35.082a.828.828,0,0,0,.685,1.082l20.064,2.308a5.561,5.561,0,0,0-.077,1.424l-2.264-1.016a.824.824,0,0,0-.983.254L306.262,587s-1.2-1.888-1.259-1.977c-.276-.441-.1-1.91-.221-2.5a12.42,12.42,0,0,0-.762-2.43,41.364,41.364,0,0,0-2.462-4.362c-.85-1.48-4.284-7.763-5.124-9.452-.939-1.9-1.9-3.853-4.671-4.748l-6.769-1.855-.287-2.8a14.526,14.526,0,0,0,2.109-1.546s5.93.972,5.974.972a.831.831,0,0,0,.132-1.645l-4.6-.762c.475,0,2-2.6,2.241-2.971a24.371,24.371,0,0,0,2.6-5.7,25.955,25.955,0,0,0,1.126-5.941,22.852,22.852,0,0,0-1.414-9.585l4.24.121c.751,1.767.221,3.169-.651,4.77-1.414,2.606-1.5,4.494.077,7.034a5.1,5.1,0,0,1,.916,3.324c-.155,1.281-.95,2.451-.552,3.788.32,1.093,1.248,1.844,1.745,2.849.132.265.972,3.478.541,3.456L296.7,554.9a.83.83,0,0,0-.088,1.656l3.191.188h.044a.828.828,0,0,0,.806-.607,7.471,7.471,0,0,0-.1-4.207c-.442-1.369-1.679-2.352-2.065-3.666-.409-1.38.585-2.573.718-3.9a5.879,5.879,0,0,0-1.27-3.622c-1.27-1.988-1.159-3.291-.022-5.366.961-1.756,1.623-3.523.983-5.51a.852.852,0,0,0,.784-.784c.287-4.925-1.2-9.452-4.075-12.411a17.543,17.543,0,0,0-7.255-4.163c-1.667-2.54-7.166-4.494-12.842-4.494a23.048,23.048,0,0,0-13.1,3.909c-11.528,7.973-10.06,13.229-8.989,17.071.64,2.286,1.027,3.666-1.027,5.256-3.423,2.672-2.694,5.532-2.109,7.84a5.663,5.663,0,0,1,.276,3.158,18.686,18.686,0,0,1-1.855,2.838c-1.435,2.429-3.235,5.455-1.855,8.171a.814.814,0,0,0,.7.453l17.613.906h.033a.83.83,0,0,0,.574-.221,8.1,8.1,0,0,0,2-3.026c.42.386.85.751,1.292,1.1-.132.585-.939,4.969-1.1,5.875,0,.022-8.458,2.374-11.793,3.4-3.048.861-5.6,2.131-6.15,4.814l-6.105,40.458c-1.159,4.571-1.2,41.011-1.2,42.557a.829.829,0,0,0,.828.828h.552c-1.844,3.8-2.794,12.61-3,14.742a6.981,6.981,0,0,0,1.259,5.576,12.171,12.171,0,0,0,3.346,3.335,8.463,8.463,0,0,0,4.251,1.623c3.114,0,5.808-8.017,6.78-11.782A9.674,9.674,0,0,0,258,668.222c.166.132,1.4.629,1.414.7.254,1.921.674,6.637.674,6.637.563,6.084.906,11.859,1.027,17.645a.829.829,0,0,0,1.656-.033c-.133-5.83-.464-11.639-1.027-17.767,0,0-.42-4.6-.618-6.15a1.632,1.632,0,0,0,.939-.166,2.541,2.541,0,0,0,1.414-1.7,2.047,2.047,0,0,0-.828-1.645c-1.148-1.06-2.076-4.273-2.352-5.676a34.05,34.05,0,0,0-2.319-6.7.808.808,0,0,0,.585-.762l.132-7.6c3.544.353,10.192.916,16.3.916a62.986,62.986,0,0,0,6.979-.331c1.954-.221,3.5-5.345,4.494-9.883a103.725,103.725,0,0,0,11.186-.883c.033,2.44.066,6.117-.011,7.045-.066.85.685,1.259,1.424,1.259a6.643,6.643,0,0,0,1.358-.188c-.475,17.524-4.417,45.273-5.632,53.389-.044.287-.066.453-.066.453l-7.663,61.24-15.194-1.59,2.12-43.352c.464-.662,8.006-11.186,8.171-11.584.906-1.844,2.153-6.8,3.92-15.625.42-2.065,2.915-15.382,3.688-19.677.5-2.727,2.231-12.191,2.584-14.046a.826.826,0,0,0-1.623-.309c-.353,1.855-2.087,11.33-2.584,14.057-.784,4.284-3.28,17.58-3.688,19.644-1.689,8.447-2.959,13.56-3.8,15.249-.066.166-31.636,44.765-31.957,45.23,0,0-3.456,4.9-3.831,5.433-.066-.033-2.617-1.623-3.953-2.705-1.358-1.093-5.135-4.87-5.963-5.378a.246.246,0,0,0-.055-.033c.022-.044,13.947-27.208,15.216-29.682.431-.817,5.974-10.921,6.383-11.594,1.325-2.231,2.606-4.207,3.809-5.874a.828.828,0,0,0-1.347-.961c-1.226,1.7-2.529,3.721-3.876,5.974-.42.685-6.018,10.877-6.438,11.7-1.281,2.474-15.371,29.958-15.514,30.245q-.4-.033-.8-.033a11.414,11.414,0,0,0-5.6,1.513c-3.014,1.767-5.543,4.826-7.719,9.364a4.13,4.13,0,0,0-.453,1.281c-.077.044-6.493,9.927-6.493,9.927a2.6,2.6,0,0,0,.828,3.578,2.763,2.763,0,0,0,1.59.5,2.578,2.578,0,0,0,2.054-.961l4.98-6.239a10.147,10.147,0,0,1,.607,3.511,20.89,20.89,0,0,1-.409,3.291c-.375,2.032-.751,4.141-.022,6.15a10.13,10.13,0,0,0,2.672,3.688,48.471,48.471,0,0,0,11,8.039,4.26,4.26,0,0,0,1.988.618,2.162,2.162,0,0,0,.265-.011,4.488,4.488,0,0,0,2.175-1.071c2.4-1.855,4.616-3.953,4.671-6.7.044-2.164-1.248-3.743-2.5-5.278a13.545,13.545,0,0,1-1.778-2.529c-1.723-3.534.287-7.851,1.679-11.142a44.759,44.759,0,0,1,2.739-5.378c1.689-2.871,3.523-5.576,5.444-8.293.32-.464,4.439-6.283,5.124-7.255L272.2,715.627l-2.032,41.508a.813.813,0,0,0,.585.817,10.633,10.633,0,0,0-2.4,3.412c-1.4,3.169-1.623,7.111-.674,12.036a4.7,4.7,0,0,0,.386,1.281c-.022.089.685,11.793.685,11.8.166,2.6,4.074,3.3,5.2.983a4.171,4.171,0,0,0,.3-1.69c.1-2.418.188-4.847.287-7.277a9.136,9.136,0,0,1,2.915,3c.751,1.182,1.347,2.462,2,3.7a8.612,8.612,0,0,0,3.776,4.152H198.29a.828.828,0,1,0,0,1.656H681.634a.828.828,0,0,0,0-1.656Zm-342.7-225.585a20.269,20.269,0,0,1-1.237,3.986c-.431,1.038-1.844,2.209-3.213,3.346a21.989,21.989,0,0,0-2.672,2.474l-6.581-3.081a3.57,3.57,0,0,1,.585-3.224,9.738,9.738,0,0,1,.861-.618c1.778-1.193,4.461-2.992,5.587-10.093.132-.861,1.314-1.5,3.224-1.767a.86.86,0,0,0,.2-.033c1.148-.276,1.822-.088,2.131.718A19.326,19.326,0,0,1,338.936,563.772Zm6.261-30.6,20.66-4.439-14.918,34.6-10.9,2.827a11.684,11.684,0,0,0,.552-2.286,21.133,21.133,0,0,0-1.226-8.989,2.773,2.773,0,0,0-.85-1.237Zm-40.5,31.427,11.263-33.491,27.694,2.142s-6.3,19.788-6.316,19.832a9.026,9.026,0,0,0-2.065.077c-3.688.5-4.494,2.175-4.638,3.136-1.016,6.383-3.246,7.884-4.881,8.989a8.434,8.434,0,0,0-1.005.729,2.781,2.781,0,0,0-.651.806Zm-.033,22.946s.961,1.491,1.038,1.546c-.221,3.346-.508,6.736-.839,10.093a.827.827,0,0,0,1.645.166c.376-3.7.685-7.465.916-11.153l13.714-17.579,10.413,4.66.85.387.276.121s-19.192,29.991-19.987,31.1c-.861,1.192-1.159,1.932-2.242,2.308a3.6,3.6,0,0,1-3.191-.409l-5.643-3.8c-.265-3.931-.718-10.49-.718-10.49A17.984,17.984,0,0,0,304.661,587.547Zm-39.785-31.6-11.186-.574c-.055-1.59.817-3.059,1.745-4.6a13.7,13.7,0,0,0,1.866-4.086,12.884,12.884,0,0,0,.011-3.854,11.482,11.482,0,0,1,.033-3.644,23.927,23.927,0,0,1,1.954-4.262,20.175,20.175,0,0,0,1.1-4.715c.144-.928.309-1.9.508-2.86.144-.674-.95-.939-1.082-.221-.21.972-.364,1.966-.519,2.9a20.12,20.12,0,0,1-1.016,4.439,25.726,25.726,0,0,0-2.021,4.461,12.163,12.163,0,0,0-.055,4,11.841,11.841,0,0,1,0,3.534,13.031,13.031,0,0,1-1.734,3.743c-.95,1.6-1.932,3.246-1.91,5.113l-4.417-.232c-.574-1.844.773-4.119,1.977-6.151a18.326,18.326,0,0,0,1.988-3.136,7.135,7.135,0,0,0-.221-4.13c-.563-2.2-1.049-4.108,1.513-6.117,2.926-2.275,2.253-4.682,1.6-7-.983-3.556-2.219-7.962,8.348-15.272a21.356,21.356,0,0,1,12.147-3.611c5.709,0,10.589,2.032,11.572,3.931a.788.788,0,0,0,.53.42,16.3,16.3,0,0,1,6.813,3.8,14.481,14.481,0,0,1,3.633,10.369l-2.683-.077c-.541-3.754-3.081-7.973-6.592-10.921-.5-.42-1.3.364-.706.85a17.934,17.934,0,0,1,6.161,10.037s-26.612-.74-26.745-.74a.837.837,0,0,0-.685,1.325,6.512,6.512,0,0,1,1.181,4.1c-.077,1.491-.916,2.407-1.358,3.743a5.422,5.422,0,0,0,.629,3.909,5.343,5.343,0,0,1,.685,2.506,6.83,6.83,0,0,1-1.325,2.672c-1.171,1.888-.983,3.2-.607,3.975a3.839,3.839,0,0,1,.685,1.877A6.888,6.888,0,0,1,264.876,555.943Zm3.39-3.456a6.471,6.471,0,0,0,.088-1.038,3.983,3.983,0,0,0-.32-1.7c-.574-1.281-.894-1.965-.011-3.3a7.551,7.551,0,0,0,1.568-3.368,6.775,6.775,0,0,0-.806-3.335,4.063,4.063,0,0,1-.585-2.739c.486-1.391,1.292-2.363,1.4-3.931.033-.431-.1-4.019-.7-4.042l22.173.618a21.279,21.279,0,0,1,1.546,9.507,23.947,23.947,0,0,1-1.049,5.565c-2,6.316-7.067,12.964-14.432,12.412A14.316,14.316,0,0,1,268.266,552.487Zm15.272,16.939c-1.391,1.5-5.577-1.358-6.736-2.054a28.538,28.538,0,0,1-6.051-5.024c-.044-.044-.928-1.049-1.126-1.281,0-.033.773-4,.85-4.34a24.483,24.483,0,0,0,3.335,1.391,12.889,12.889,0,0,0,4.141.707,12.566,12.566,0,0,0,5.179-1.126C283.36,559.94,284.575,568.3,283.537,569.426ZM244.37,648.843s12.533.033,12.6,0l-.055,2.9H244.359C244.359,650.828,244.359,649.859,244.37,648.843Zm14.3,11.54c.011.044.95,4.826,2.849,6.57a2.542,2.542,0,0,1,.265.276c.044.055-.541.409-.619.42a3.587,3.587,0,0,1-2.087-.674,25.457,25.457,0,0,1-2.164-2.429.837.837,0,0,0-1.469.42c-.376,3.257-3.809,12.235-5.488,12.058a10.009,10.009,0,0,1-6.25-4.229,6.051,6.051,0,0,1-1.1-3.335,27.227,27.227,0,0,1,.342-3.136c.254-2.164.574-4.317.994-6.449a39.234,39.234,0,0,1,.961-4.086,6.248,6.248,0,0,1,1.082-2.385h10.049c.4-.077,1.281,2.462,1.369,2.694A35.976,35.976,0,0,1,258.67,660.383Zm26.7-65.957a.6.6,0,0,0-.243.044c-4.638,2.032-7.707,1.557-11.263,1.005-.4-.066-.983-.232-1.148.287-.21.651.563.74.983.806a31.386,31.386,0,0,0,4.848.5,16.841,16.841,0,0,0,6.78-1.48c-.011.309-.022.607-.033.906-.276,6.4-.221,12.952-.166,19.291.055,6.272.111,12.743-.166,19.026-.961,4.527-2.462,8.79-3.18,9.132a62.274,62.274,0,0,1-6.791.32c-6.117,0-12.809-.574-16.265-.917l.11-6.4L264.92,612.5a.893.893,0,0,0,.011-.342l-2.219-13.449s5.146-21.223,5.157-21.29a.829.829,0,0,0-1.612-.386l-5.223,21.61-3.4,14.046a1.137,1.137,0,0,0-.033.188l-.42,23.84-.2,11.075c-.077-.033-12.61-.055-12.61-.055.066-13.692.353-34.22,1.159-37.389l6.117-40.5c.331-1.6,1.966-2.551,4.1-3.246.508-.177,1.6-.475,1.6-.475l7.233-2.032s1.656,1.458,2.418,2.142c3.854,3.467,7.6,7.122,11.12,10.9,2.628,2.816,5.3,5.864,6.471,9.541A23.414,23.414,0,0,1,285.37,594.426Zm-26.4,35.127.287-16.563,2.462-10.159,1.557,9.441Zm27.683,4.505a1.061,1.061,0,0,1,.011-.188c.221-6.018.166-12.157.121-18.1-.055-6.316-.11-12.842.166-19.214.132-3.268.3-6.968-.795-10.38-1.27-4.008-4.064-7.221-6.824-10.17-4.053-4.329-8.348-8.492-12.8-12.412.11-.055,1.711-.486,2.352-.7.585.585,1.016.972,1.6,1.557a28.811,28.811,0,0,0,5.466,4.34c2.319,1.391,7.332,4.836,9.254,1.1a7.557,7.557,0,0,0,.4-4.052c-.055-.718-.144-2.662-.32-3.456.464.519,2.816,5.388,2.816,5.388.4.883-.364,2.429-.839,3.147-1.2,1.778-3.059,2.209-5.091,2.209a3.982,3.982,0,0,1-2.12-.353.555.555,0,0,0-.574.95,5.056,5.056,0,0,0,2.639.508,7.488,7.488,0,0,0,4.539-1.1,6.3,6.3,0,0,0,2.385-3.434c1.954,4.174,3.843,8.392,5.653,12.61a10.461,10.461,0,0,1,1.148,4.152c0,.309-.641,27.363-.486,29.008.188,1.91,2.186,17.668,2.186,17.69A107.307,107.307,0,0,1,286.651,634.058Zm12.666,7.4c.044-1.5.022-2.992.011-4.494a36.581,36.581,0,0,0-.2-4.406c-.154-1.17-.3-2.341-.441-3.5-.4-3.114-1.535-12.257-1.679-13.737-.144-1.524.486-28.522.486-28.831a11.855,11.855,0,0,0-1.281-4.826c-2.65-6.184-8.823-19.28-9.121-19.7l4.2,1.148c2.065.674,2.771,2.1,3.655,3.9.453.906,5.764,10.5,5.764,10.5a19.951,19.951,0,0,1,2.109,4.053,9.321,9.321,0,0,1,.519,3.909c-.177,2.319-1.259,5.035-3.953,8.249-.188.243-.188.276-.121,1.148.144,2.1,2.771,41.254,2.915,45.859a1.159,1.159,0,0,0-.188.055A18.263,18.263,0,0,1,299.317,641.455ZM215.251,767.281c-.707.895-2.44-.166-1.789-1.182l5.609-8.69a13.233,13.233,0,0,1,1.723,2.915S215.262,767.26,215.251,767.281Zm23.454-3a30.966,30.966,0,0,0-5.046-.364,1.151,1.151,0,0,0-1.115,1.071c-.066,1.259.077,3.887.144,4.792a1.022,1.022,0,0,0,1.148.927,16.438,16.438,0,0,1,4.229-.077,8.02,8.02,0,0,0,.641,1.877,15.107,15.107,0,0,0,1.988,2.849c1.1,1.358,2.153,2.639,2.12,4.2-.033,2.054-1.954,3.821-4.03,5.422a2.013,2.013,0,0,1-2.639.309,46.78,46.78,0,0,1-10.612-7.751,8.849,8.849,0,0,1-2.275-3.07,6.672,6.672,0,0,1-.276-2.86,13.036,13.036,0,0,0,1.689,1.955c1.966,1.944,4.019,3.9,6.073,5.8a26.288,26.288,0,0,0,2.153,1.822,13.541,13.541,0,0,0,3.092,1.689c.663.221,1.049-.8.4-1.038a12,12,0,0,1-2.838-1.546,23.7,23.7,0,0,1-2.054-1.745c-2.054-1.888-4.086-3.832-6.051-5.764a6.678,6.678,0,0,1-2.164-3.224c.022-.122.044-.254.066-.387a21.317,21.317,0,0,0,.442-3.556c.044-3.544-1.711-6.648-3.048-8.679a2.536,2.536,0,0,1-.563-1.248,2.636,2.636,0,0,1,.331-.983c2.032-4.218,4.34-7.045,7.067-8.635a9.337,9.337,0,0,1,4.274-1.27,12.091,12.091,0,0,0-.574,6.051c-.309.166-.861.386-1.082.486a8.354,8.354,0,0,0-1.535.928,19.794,19.794,0,0,0-4.748,5.035.551.551,0,0,0,.916.607,18.783,18.783,0,0,1,4.494-4.759,8.675,8.675,0,0,1,2.12-1.182,18.533,18.533,0,0,0,.861,3.368c1.115,3.026,3.71,7.2,7.564,5.852C239.445,762.2,239.047,763.229,238.705,764.28ZM237.9,769.5a18.146,18.146,0,0,0-4.119.089,38.668,38.668,0,0,1-.077-4.572c1.325-.055,4.66.331,4.682.331A12.832,12.832,0,0,0,237.9,769.5Zm3.467-12.014a3.339,3.339,0,0,1-2.948,2.264c-1.734-.044-3.434-1.921-4.561-4.992-.972-2.694-1.612-7.509-.3-9.684l.376-.386c.353.21,2.882,2.705,4.638,4.24a30.867,30.867,0,0,0,3.313,2.562,14.908,14.908,0,0,0,2.2,1.414Zm48.928,14.19a11.916,11.916,0,0,0,1.656,3.235,18.226,18.226,0,0,0-2.959,2.22c-.762-.916-1.9-2.33-2.5-3.18a38.463,38.463,0,0,1,3.732-2.242C290.251,771.7,290.273,771.689,290.3,771.677Zm-3.589-12.026c.265,1.38,2.219,6.493,1.314,7.4-1.126,1.137-4.825,1.016-9.474-1.458-2.2-1.159-3.953-4.582-4.34-7.255Zm-14.134,26.678c-.044,1.137-2.1,1.17-2.164.055l-.641-10.269c.364.177,3.147,1.06,3.147,1.391C272.914,777.509,272.572,786.3,272.572,786.329Zm29.638.774a3.047,3.047,0,0,1-.641,1.358,2.529,2.529,0,0,1-1.3.4,47.3,47.3,0,0,1-13.24-.166,8.94,8.94,0,0,1-3.688-1.181c-1.414-.961-2.231-2.606-3.092-4.351a21.479,21.479,0,0,0-1.767-3.136,12.93,12.93,0,0,0-3.865-3.445,24.27,24.27,0,0,0-3.788-1.811,2.862,2.862,0,0,1-1.2-.7,2.637,2.637,0,0,1-.32-.983c-.884-4.594-.7-8.2.563-11.053a9.258,9.258,0,0,1,2.683-3.5,14.01,14.01,0,0,0,2.739,6.349,10.716,10.716,0,0,0-.817,1.446,9.461,9.461,0,0,0-.453,1.226,19.2,19.2,0,0,0-.85,6.46c0,.364.022.762.453.85,1.027.21.641-2.253.674-2.794a19.393,19.393,0,0,1,.773-4.2,7.992,7.992,0,0,1,.994-2.131,7.279,7.279,0,0,0,1.7,1.3,17.736,17.736,0,0,0,7.884,2.352,4.874,4.874,0,0,0,3.534-1.17c.044.132.618,1.822.574,1.844-.111.055-.221.121-.32.177a33.956,33.956,0,0,0-4.119,2.518,1.4,1.4,0,0,0-.331,1.888c.707,1.082,2.4,3.136,2.992,3.832a1.308,1.308,0,0,0,1.877.1,16.727,16.727,0,0,1,3.3-2.44,7.273,7.273,0,0,0,1.6.938,22.185,22.185,0,0,0,2.794.894c1.888.508,3.677.994,4.682,2.418C303.424,782.09,302.927,784.619,302.21,787.1Zm328.7-50.519H581.494V732.52s48.686.011,48.829,0C632.772,732.344,633.558,736.583,630.908,736.583Zm-2.275-5.708h-47.14V708.1h28.125a.554.554,0,0,0,.552-.552.547.547,0,0,0-.552-.552H539.731a.547.547,0,0,0-.552.552.554.554,0,0,0,.552.552h22.1v22.78H463.042a12.708,12.708,0,0,1-12.9-12.478V702.442a12.71,12.71,0,0,1,12.9-12.489H608.017c.044.077.1.154.144.232a8.273,8.273,0,0,0,2.937,2.462,36.757,36.757,0,0,0,10.38,4,3.242,3.242,0,0,0,2.021-.055,3.873,3.873,0,0,0,1.535-1.469,11.668,11.668,0,0,0,2.319-4.991H628.6C624.26,698.368,624.282,723.267,628.633,730.876Zm-48.8-22.78v37.1l-7.553-8.756a.821.821,0,0,0-1.248,0l-7.553,8.768V708.1h16.354Zm25.618-28.367a8.535,8.535,0,0,1,1.027,2.451,16.892,16.892,0,0,1,.364,2.694h-3.468Zm-4.007,5.533a.717.717,0,0,1-1.347-.475l2.5-8.414c.033.044,1.248,1.226,1.711,1.767C604.305,678.138,601.5,685.127,601.447,685.26Zm2.372-10a2.151,2.151,0,0,1-.673-.839c-.044-.177.243-1.568.188-1.6a11.731,11.731,0,0,1,4.527,5.819.556.556,0,0,0,1.038-.4,12.863,12.863,0,0,0-5.311-6.592,15.516,15.516,0,0,1,3.3-7,6.234,6.234,0,0,1,.916-.872c.586.431,1.215.862,1.866,1.281a25.847,25.847,0,0,0,1.933,7.1c3.434,7.719,5.168,8.756,6.416,8.756a1.729,1.729,0,0,0,1.347-.618,7.742,7.742,0,0,0,1.6,3.611,11.844,11.844,0,0,0,2.186,1.91c1.193.883,2.22,1.645,2.507,2.9.353,1.468-.442,3.114-1.48,4.715a42.639,42.639,0,0,1-8.381-2.992.552.552,0,0,0-.541.961,45.539,45.539,0,0,0,8.238,3.015,1.321,1.321,0,0,1-1.656.618,35.624,35.624,0,0,1-9.916-3.821,6.845,6.845,0,0,1-2.385-1.943c-1.424-2.131-.861-5.08-1.446-7.476A13.553,13.553,0,0,0,603.819,675.256Zm7.72-9v-.011c.044.033,1.159.729,1.678,1.049,2.032,1.259,6.25,4.1,6.294,4.119l.011-.022s-.552,5.852-.85,6.835-.585,1.027-.651,1.027c-.144,0-1.535-.21-4.9-7.774A24.523,24.523,0,0,1,611.539,666.257Zm9.681,6.968a5.548,5.548,0,0,1,.409-1.656,1.86,1.86,0,0,0,.983-1.192c.6-2.772,2.617-6.979,4.748-11.429.309-.651,1.27-2.959,1.668-3.5.552,1.977,1.568,6.526,1.612,6.813v21.113c0,.607-1.281,1.5-3.28,1.5h-2.705c-.166-.132-.343-.265-.508-.387a10.345,10.345,0,0,1-1.9-1.645C620.329,680.544,620.779,676.824,621.221,673.225Zm9.409,15.226c-.055.022-3.357-.144-3.357-.154a4.884,4.884,0,0,0-.862-1.767h.95a6.063,6.063,0,0,0,4.064-1.347,1.857,1.857,0,0,1,.74,1.513A1.736,1.736,0,0,1,630.63,688.451Zm7.442-7.155a1.783,1.783,0,0,1-.862-.364,2.318,2.318,0,0,1-.309-.707,16.748,16.748,0,0,1-.972-7.84c.972-.1,2.1-.254,3.324-.42a13.891,13.891,0,0,0,1.414,1.668,20.1,20.1,0,0,0-1.06,2.319,7.813,7.813,0,0,0-.2,1.016,16.519,16.519,0,0,0-.011,4.726C638.922,681.538,638.48,681.408,638.073,681.3Zm2.662,9.331a.577.577,0,0,1-.652-.442l-1.358-6.956a11.279,11.279,0,0,1,1.91.8s.619,5.951.619,6A.55.55,0,0,1,640.735,690.627Zm14.918-9.452c.905.144,1.745.486,2.606.629,1.325.2,2.462.375,3.224,1.248a4.61,4.61,0,0,1,.85,3.136c-1.049,1.369-3.147,1.568-4.726,1.844a24.358,24.358,0,0,1-8.536.066.55.55,0,0,0-.2,1.082,22.525,22.525,0,0,0,4.13.375c3,0,6.548-.32,9.22-1.789-.132.519.011,1.226-.464,1.612a1.279,1.279,0,0,1-.519.221,32.365,32.365,0,0,1-9.817,1.149,6.379,6.379,0,0,1-2.727-.552,8.635,8.635,0,0,1-2.683-3.081,16.861,16.861,0,0,0-1.656-2.33,10.575,10.575,0,0,0-3.754-2.628,15.057,15.057,0,0,1-.1-5.024,8.44,8.44,0,0,1,.166-.894,14.924,14.924,0,0,1,.806-1.855,8.619,8.619,0,0,0,.917.685c3.942,2.518,6.636,3.733,8.359,3.733a2.421,2.421,0,0,0,1.667-.619C652.616,679.108,655.332,681.121,655.653,681.175Zm-4.384-5.2V676c.143.8-.044,1.016-.089,1.049s-1.127.961-7.9-3.379a9.453,9.453,0,0,1-2.175-2.021l-.011-.011c.309-.056,7.785-1.59,7.851-1.612C649.225,670.7,651.135,675.222,651.268,675.975Zm-42.391-85.359c6.162,1.535,12.18,3.655,18.242,5.521,1.436.442,2.838.894,4.174,1.314a50.5,50.5,0,0,1,7.642,2.771,11.91,11.91,0,0,1,4.483,3.423c1.866,2.661,2.429,27.517,2.672,38.129.067,3.335.132,5.963.2,7.244v.044c.265,3.39.607,5.9,1,8.79.387,2.794.817,5.93,1.259,10.534,0,0-13.527,2.44-13.9,2.474a.04.04,0,0,0-.011-.033c-.386-1.59-.817-3.269-1.281-4.947a13.968,13.968,0,0,0,2.948.265,53.354,53.354,0,0,0,9.441-1.127.551.551,0,0,0,.431-.651.566.566,0,0,0-.651-.431c-.1.022-9.154,1.933-12.5.7-.188-.685-2.263-8.083-2.672-9.828-.144-.607-.254-1.137-.331-1.568a.209.209,0,0,0,.022-.077c5.134-13.56,9.275-34.794,9.309-35,1.369-6.979-4.053-11.583-9.154-13.428l-28.953-8.282a8.6,8.6,0,0,0,.862-.806,8.305,8.305,0,0,0,2.043-6.217C604.163,589.479,608.191,590.44,608.877,590.616Zm1.036-12.268a2.838,2.838,0,0,1-.906.155,2.727,2.727,0,0,1-2.562-1.822l-.453-1.27,7.84,1.557Zm35.4-15.669a1.3,1.3,0,0,1-.221.2,17.673,17.673,0,0,1-2.054.121c-.574,0-1.137-.033-1.623-.055-.905-.618-1.181-7.166-.42-9.872a10.794,10.794,0,0,1,1.723-3.158,4.156,4.156,0,0,1,3.081-1.259,1.533,1.533,0,0,1,1.038.265c.022.022.066.077.055.243C646.576,553.161,645.956,560.184,645.315,562.679Zm-38.4-30.455,25.817,5.146s-1.822,12.4-1.833,12.467a.553.553,0,0,0,1.093.166l1.866-12.632,16.895-7.454-3.611,17.292A4.042,4.042,0,0,0,645.8,547a5.771,5.771,0,0,0-4.439,1.966,12.213,12.213,0,0,0-1.966,3.666c-.674,2.418-.839,9.121.574,11.164a1.607,1.607,0,0,0,1.237.773c.619.055,2.131.088,2.275.077l-1.3,6.217-14.245,6.548,3.5-23.708a.547.547,0,0,0-.464-.618.537.537,0,0,0-.629.464l-3.589,24.315-26.016-5.19,1.3-8.591c.585-.42,1.579-1.159,1.579-1.159l15.912-3.3a4.267,4.267,0,0,0,3.114-4.991c-.685-4.086-5.974-6.228-10.855-6.228a14.1,14.1,0,0,0-2.794.265l-4.892,1.954Zm-6.98,21.864,9.452-3.809c4.362-.828,10.987.817,11.627,4.66a2.574,2.574,0,0,1-1.811,3.048l-16.3,3.224Zm7.155-47.979c-.232,1.645-1.038,5.024-1.071,5.124a3.8,3.8,0,0,1-1,.033,4.237,4.237,0,0,1,.353-8.459c.254,0,2.076.221,2.043.541C607.33,504.221,607.221,505.138,607.088,506.109Zm.42-3.942a5.092,5.092,0,0,0-1.689-.442,5.362,5.362,0,0,0-5.775,4.87,5.256,5.256,0,0,0-.011.718h-.541l-.243-1.866a.832.832,0,0,0-.927-.718.816.816,0,0,0-.707.928l.21,1.623s-.762-.022-.762-.044a5.337,5.337,0,0,0-10.336-2.275l-4.086-1.546c1.138-1.424,4.373-4.836,9.187-4.836a18.651,18.651,0,0,1,4.726.85,22.546,22.546,0,0,0,5.565.994,6.938,6.938,0,0,0,2.661-.475c.265-.111,2.761-.906,2.761-1.314A32.56,32.56,0,0,1,607.508,502.167Zm-11.552,4.98a4.234,4.234,0,1,1-3.865-4.583A4.266,4.266,0,0,1,595.956,507.147Zm12.975-2.385a4.243,4.243,0,0,1-.983,5.643,39.988,39.988,0,0,0,.773-4.064C608.8,505.8,608.865,505.27,608.932,504.762ZM573.079,515.97c-1.557,3.07-5.035,5.344-9.066,5.941a16.553,16.553,0,0,1-2.484.176,23.7,23.7,0,0,1-7.133-1.215c2.97-1.59,6.029-4.063,6.835-7.686.8-3.544-.475-7.078-.938-10.568a44.381,44.381,0,0,1-.453-8.679c.3-4.6,1.922-10.5,8.028-12.489a12.039,12.039,0,0,1,8.922.74,16.764,16.764,0,0,0-1.767,1.535,14.049,14.049,0,0,0-2.3-.751c-2.981-.442-5.952,1.005-8.116,4.064a.555.555,0,0,0,.906.641c2.308-3.28,5.621-4.45,8.7-3.1a21.057,21.057,0,0,0-5.156,13.008c-.265,4.726,1.623,9.541,5.278,13.692A13.589,13.589,0,0,1,573.079,515.97Zm-2.366-18.3c.364-6.427,3.357-11.87,8.193-14.94a15.007,15.007,0,0,1,8.182-2.275,22.353,22.353,0,0,1,5.886.85,16.94,16.94,0,0,1,9.011,5.631c0,.132-1.292,2.661-7.145,2.882-.42.011-.961.188-.795.751.121.431.541.386.905.353,2.65-.265,6.206-.618,7.984-3.125a9.993,9.993,0,0,1,4.958,5.51,3.819,3.819,0,0,1-.276,2.992,4.553,4.553,0,0,1-2.374,1.712,8.538,8.538,0,0,1-3.125.751,21.061,21.061,0,0,1-5.134-.938,20.557,20.557,0,0,0-5.157-.906,13.648,13.648,0,0,0-10.126,5,4.748,4.748,0,0,0-4.075-2.44,3.694,3.694,0,0,0-3.015,1.4,3.9,3.9,0,0,0-.464,3.523,19.178,19.178,0,0,0,1.524,3.754A12.388,12.388,0,0,1,577,511.674C572.7,507.523,570.438,502.532,570.713,497.673Zm8.382,16.21a22.611,22.611,0,0,0-1.954-6.493,14.412,14.412,0,0,1-1.4-3.445c-.42-1.435.254-2.8,1.888-2.8a3.233,3.233,0,0,1,3.059,2.639.848.848,0,0,0,1.182.53l4.582,1.734a5.468,5.468,0,0,0,1.2,4.185,5.341,5.341,0,0,0,9.187-1.866l1.126.022.6,4.516v.044a3.913,3.913,0,0,1-1.976-.331.828.828,0,1,0-1.171,1.171c.938.938,2.54.861,3.754.784,1.049-.066,1.115-1.27,1.016-2l-.552-4.152.574.011a5.353,5.353,0,0,0,4.7,3.942,3.521,3.521,0,0,0,.762.011,30.071,30.071,0,0,1-1.2,3.18c-1.91,4.251-5.576,9.364-11.727,8.845C587.453,523.954,582.054,519.139,579.1,513.883Zm3.644,7.255c2.893,2.694,6.361,4.627,9.861,4.914.276.022.552.044.817.044l.265,3.92c-.265,2.551-2.385,4.274-5.278,4.274a10.139,10.139,0,0,1-5.886-2.131,6.011,6.011,0,0,1-1.811-4.086A30.957,30.957,0,0,0,582.74,521.138Zm-20.979,59c-1.48-1.005-3.412-2.584-3.092-4.616L565,537.79c.077-2.054,1.347-3.379,3.036-4.34,2.176-.972,4.417-1.866,6.515-2.783.828,2.341,4.306,5.356,8.182,7.2a16.709,16.709,0,0,0,7.078,1.756,11.186,11.186,0,0,0,4.384-.861,6.749,6.749,0,0,0,3.832-4.406.554.554,0,0,0-1.038-.386,5.7,5.7,0,0,1-3.224,3.776c-3.832,1.612-7.851.409-10.557-.872-4.031-1.932-7.045-4.847-7.652-6.659l3.522-1.347a8.006,8.006,0,0,0,2.385,4.561,11.833,11.833,0,0,0,6.946,2.518,7.412,7.412,0,0,0,4.715-1.557,6.79,6.79,0,0,0,1.524-1.877,13.831,13.831,0,0,0,.817-3.258c.6,0,6.372.177,7.365,3.236a21.676,21.676,0,0,0,1.778,3.876l-2.286,14.973-3.026,1.215-26,12.224s3.655-17.392,3.666-17.458a.83.83,0,0,0-1.623-.342l-3.909,18.672a13.8,13.8,0,0,0-1.711.607,11.354,11.354,0,0,0-4.1,3.512.83.83,0,0,0,1.336.983,9.847,9.847,0,0,1,3.544-3.048c.663-.364,1.436-.453,2.087-.762,3.467-1.645,17.668-8.337,21.334-10.071l.044-.022c.7,2.407,1.337,4.859,1.889,7.3a.556.556,0,0,0,1.082-.254c-.574-2.506-1.237-5.047-1.955-7.531l3.434-1.612,3.18,7.619c-.287.21-25.033,17.9-33.723,19.258A8.647,8.647,0,0,1,561.76,580.137Zm4.925,3.247a9.2,9.2,0,0,0,1.447-.111c8.58-1.358,25.265-12.909,32.034-17.811l-1.181,7.741a.828.828,0,0,0,.651.939l4.6.95c-.132,0-1.679,12.931-1.756,14.234-.165,2.807-1.193,5.433-3.556,6.647-2.44,1.259-5.466,1.27-8.138,1.049-12.389-1.016-24.05-7-26.027-8.061C564.764,588.96,566.673,583.384,566.685,583.384Zm-3.448,6.073a.141.141,0,0,0-.011.066h-.011A.423.423,0,0,0,563.238,589.457Zm-4.019,21.951c-1.69-5.686.8-11.627,3.732-17.723.188-.386,1.159-3,1.226-3.158,2.584,1.358,14.156,7.133,26.479,8.15.806.066,1.568.1,2.308.1a15.442,15.442,0,0,0,6.36-1.159l30.366,8.69c4.439,1.6,9.2,5.576,8.039,11.528-.044.221-4.2,21.544-9.32,34.982-.453.994-2.164,4.616-2.54,5.411-2.186,4.549-4.307,9.143-4.936,12.08-.056,0-4.792-3.158-6.846-4.428-1.866-1.148-3.8-2.341-5.4-3.5.011-.066.651-3.324.817-4.019,1.358.905,10.336,5.356,10.611,5.576.541.475,1.248-.409.7-.85-.354-.287-9.772-4.958-11.02-5.886.11-.464.232-.916.364-1.38.342-1.292,5.51-21.157,6.626-24.68.828-2.6,1.568-5.212,2.451-7.785a31.183,31.183,0,0,1,1.833-4.815.83.83,0,0,0-1.248-1.093,31.809,31.809,0,0,0-2.131,5.057s-2.341.364-3.368.442c-6.438.53-12.942.574-19.4.574-12.942,0-21.621-.563-24.459-1.6C564.764,619.844,560.567,615.913,559.219,611.408Zm-13.978,9.431a1.275,1.275,0,0,1-.077.464H401.491V618.8l141.927.166A1.838,1.838,0,0,1,545.241,620.838Zm-3.711-45c-4.539,8.326-4.516,33.6.033,41.3H401.491V592.913H441.63a.554.554,0,0,0,.552-.552.561.561,0,0,0-.552-.552H371.059a.561.561,0,0,0-.552.552.554.554,0,0,0,.552.552h5.521V617.14h-7.652c-7.431,0-13.472-5.676-13.472-12.654V588.319c0-6.979,6.04-12.655,13.472-12.655h32.851a4.762,4.762,0,0,0,2.551.629c.386,0,.762-.022,1.126-.055,1.921-.144,10.2-.519,11.23-.574H472.8c.961.166,1.833.32,2.529.453a5.7,5.7,0,0,0,2.694.055,3.251,3.251,0,0,0,1.038-.508h62.555A.8.8,0,0,0,541.53,575.841Zm-141.7,17.392V642.78s-10.126-11.771-10.17-11.815a.836.836,0,0,0-1.259,0l-10.17,11.815V593.233Zm22.35-19.711L419.468,561.1l21.544,7.067Zm25.982-3.014,10.689,3.5H426.523l12.29-3.5Zm-26.4,4.859a.55.55,0,0,1-.132.022h-.066A1.211,1.211,0,0,0,421.765,575.367Zm54.857-3.412a.5.5,0,0,0,.662-.364,21.79,21.79,0,0,0-.519-11.892,35.2,35.2,0,0,0-1.325-3.6,28.793,28.793,0,0,0-1.6-3.39,10.926,10.926,0,0,1,1.612-.409,19.092,19.092,0,0,1,2.871,5.223c.188.508.364,1.038.53,1.579a25.723,25.723,0,0,1,.629,12.489,5.522,5.522,0,0,1-1.071,2.418c-.762.839-1.767.674-2.771.486-.74-.143-12.368-2.043-14.145-2.363l.033-14.9c2.926-1.137,7.984-3.1,11.23-4.185.486-.155,2.727,6.217,2.948,6.946a20.805,20.805,0,0,1,.508,11.319A.522.522,0,0,0,476.622,571.955Zm4.475-.011c.11-.475.2-.95.265-1.436h62.058a1.837,1.837,0,0,1,1.822,1.877,1.723,1.723,0,0,1-1.668,1.7c-.132-.1-63.173,0-63.173,0A9.963,9.963,0,0,0,481.1,571.944ZM483.36,536.7a9.673,9.673,0,0,1,9.419,10.49,9.494,9.494,0,0,1-6.548,8.083l-6.294,1.8a20.427,20.427,0,0,0-3.412-6.084,1.106,1.106,0,0,0-.883-.353c-1.524,0-7.476,2.253-14.1,4.836V554.21a.834.834,0,0,0-.552-.784l-15.028-5.51,34.6-10.789A9.335,9.335,0,0,1,483.36,536.7ZM428.909,510.57a1.536,1.536,0,0,0-.773-.906c-1.358-.6-2.529.707-3.865,2.219a10.617,10.617,0,0,1-3.5,2.992c-1.093.409-2.451,2.606-2.937,4.1-.552-.044-1.391-.088-2.407-.1V496.911l24.856,6.394.519.132v6.769c-2.75-.563-6.979,1.833-10.446,3.8-.662.364-1.292.729-1.844,1.016a4.7,4.7,0,0,1,.254-.905A5.145,5.145,0,0,0,428.909,510.57Zm-7.553,5.852a11.6,11.6,0,0,0,4.152-3.434,8.763,8.763,0,0,1,1.866-1.789,3.521,3.521,0,0,1-.121,2.231,13.025,13.025,0,0,0-.607,2.882.828.828,0,0,0,1.049.883,21.374,21.374,0,0,0,3.467-1.756c2.926-1.645,7.829-4.406,9.707-3.489a4.582,4.582,0,0,1,2.661,2.617c.331,1.193-.11,2.716-1.347,4.638-2.816,4.428-3.887,6.084-17.745,7.972-1.314-2.12-3.942-5.874-5.091-7.52A7.751,7.751,0,0,1,421.356,516.423Zm33.612,13.129a13.533,13.533,0,0,0-1.149-2.705,3.525,3.525,0,0,1-.552-2.164,9.126,9.126,0,0,1,2.175,1.4,11.652,11.652,0,0,0,4.737,2.573,4.538,4.538,0,0,1,2.219,1.932l-2.186,9.364c-11.131-.519-15.261-1.745-18.772-5.444-1.877-1.976-2.959-3.324-2.871-4.373.055-.651.574-1.347,1.6-2.131,1.668-1.27,7,.508,10.192,1.568a22.041,22.041,0,0,0,3.744,1.06A.836.836,0,0,0,454.968,529.552Zm5.487-2.518a10.674,10.674,0,0,1-4.009-2.264c-1.612-1.237-3-2.3-4.218-1.447a1.536,1.536,0,0,0-.586,1.038,5.123,5.123,0,0,0,.817,3.445,4.9,4.9,0,0,1,.42.839c-.586-.176-1.281-.409-2-.641-2.727-.906-5.9-1.965-8.425-2.076v-4.141q.547-.778,1.126-1.689c1.5-2.341,2-4.3,1.535-5.974a5.463,5.463,0,0,0-2.661-3.18v-7.652l24.845-6.372v29.2l-4.053,2.75A13.51,13.51,0,0,0,460.456,527.034Zm-35.411,1.723c.033-.1,14.123-2.065,15.757-4.98v2.241a3.746,3.746,0,0,0-1.634.674c-1.435,1.1-2.153,2.153-2.241,3.313-.121,1.513.85,2.926,2.286,4.539l-16.486-4.229c.386-.155,1.667-.607,1.667-.607C424.636,529.618,424.8,529.442,425.044,528.757Zm16.375,8.072h.055l.011.011c3.6,3.092,8.271,4.262,18.408,4.748a.633.633,0,0,0,.077.232l-16.552,5.157L414.94,536.266c.21-.629.5-1.513.839-2.584.177-.541.376-1.171.5-1.557l3.246-.961h.011C419.6,531.209,441.419,536.829,441.419,536.829Zm21.532-77.385c-.033.144-.563,2.926-2.253,3.9.055-.254.1-.519.132-.784v-.011l1.645-7.034C463.429,455.878,463.538,456.805,462.952,459.445Zm-6.457-24.956c2.462.541,5.322,5.5,5.322,9.4l-.906,11.075-.011.033-.442.221c-.353-5.8-1-10.589-3.059-12.71.1-.2.188-.42.276-.641a7.014,7.014,0,0,0-.994-5.93,4.889,4.889,0,0,0-.64-.762A2.827,2.827,0,0,0,456.494,434.489Zm-4.022,17.579a5.979,5.979,0,0,0-5.952,5.433h-.662c-.033-2.639,0-5.013,0-5.057a.842.842,0,0,0-.817-.839h-.011a.825.825,0,0,0-.828.817c-.011.177-.033,2.5-.011,5.08h-2.617a5.98,5.98,0,0,0-11.683-1.171l-.828-.431c.817-5.3,2.33-11.23,4.494-13.417a1.143,1.143,0,0,1,.917-.342,1.173,1.173,0,0,1,.839.541,8.543,8.543,0,0,0,1.9,2.164c2.352,1.656,5.609,1.667,9.011.055a11.118,11.118,0,0,0,3.081,1.027,10.479,10.479,0,0,0,1.9.176,6.706,6.706,0,0,0,5.245-2.175c1.656,2.142,2.153,7.663,2.4,12.091l-.641.32A5.972,5.972,0,0,0,452.472,452.068Zm4.883,5.985a4.881,4.881,0,1,1-4.881-4.881A4.882,4.882,0,0,1,457.355,458.053Zm-16.852,0a4.881,4.881,0,1,1-4.881-4.881A4.889,4.889,0,0,1,440.5,458.053ZM425.321,460.2l-.044-.111c-.663-1.557-.784-2.838-.32-3.589a1.545,1.545,0,0,1,.718-.607l1.082,5.654.011.077c.055.641.144,1.281.254,1.9A7.737,7.737,0,0,1,425.321,460.2Zm2.054-4.185-.176-1.049-.651-11.274c0-4.848,4.77-11.583,9.474-11.583.651,0,1.292.011,1.944.055,1.822.1,3.887.221,5.212-1.148a4.058,4.058,0,0,1,2.938-1.193,3.881,3.881,0,0,1,3.589,2.175,1.066,1.066,0,0,0,1.833,0,1.292,1.292,0,0,1,1.171-.706c1.557-.077,3.026,1.281,2.131,2.816a.718.718,0,0,0-.089.221,3.109,3.109,0,0,0-1.137-.221.829.829,0,0,0,0,1.656,2.309,2.309,0,0,1,1.711,1.126,4.855,4.855,0,0,1,.066,5.742c-1.634,2.12-4.505,1.9-5.8,1.679-.839-.155-4.163-.938-4.163-2.186a.828.828,0,0,0-1.656,0,2.4,2.4,0,0,0,.839,1.668c-2.507.961-4.792.872-6.438-.287a7.557,7.557,0,0,1-1.458-1.689,2.8,2.8,0,0,0-4.34-.5c-2.606,2.661-4.086,8.966-4.87,13.8Q427.441,455.579,427.374,456.01Zm1.049,5.433c.088-1.281.243-2.783.464-4.384l.784.4a5.4,5.4,0,0,0-.033.6,5.981,5.981,0,0,0,11.937.552h2.639c.033,1.7.1,3.39.21,4.583a1.393,1.393,0,0,1-.011.386l-2.1.088a.829.829,0,0,0,.033,1.656h.033l2.485-.111a.693.693,0,0,0,.364-.1,2.14,2.14,0,0,0,.839-2.076c-.11-1.137-.166-2.771-.188-4.428h.64a5.981,5.981,0,0,0,11.937-.552,5.837,5.837,0,0,0-.033-.607l.486-.232c.022.431.033.85.055,1.248.066,1.513.132,2.827.221,3.854a18.532,18.532,0,0,1-6.891,12.312,16.573,16.573,0,0,1-1.656,1.093,14.072,14.072,0,0,1-14.786-.464,15.271,15.271,0,0,1-1.656-1.3A19.033,19.033,0,0,1,428.423,461.443Zm22.218,16.166v2.429c0,3.114-5.1,6.173-7.465,7.288-2.33-1.115-7.321-4.174-7.321-7.288v-2.816c1.6,1.612,6.5,2.01,7.255,2.032A15.768,15.768,0,0,0,450.641,477.609ZM398.576,521.27c1.932-3.655,14.421-29.759,16.111-32.663.011-.022.022-.033.033-.055.32-.453,2.771-3.865,5.1-5.146,2.86-1.568,7.166-2.705,10.623-3.611,1.446-.386,2.749-.718,3.754-1.049v1.292c0,5.013,8.282,8.8,8.624,8.966.6.232,1.38-.331,1.877-.6a24.8,24.8,0,0,0,3.07-1.877c2.087-1.5,4.527-3.7,4.527-6.493v-.784l1.171.265a16.573,16.573,0,0,1-1.005,4.859,9.755,9.755,0,0,1-1,2.043,14.528,14.528,0,0,1-4.329,3.765l-3.931,2.628-4.428-2.429c-2.2-1.215-4.086-2.363-4.925-4.262a.549.549,0,0,0-1.005.442c1.049,2.4,3.567,3.776,5.4,4.781l5.013,2.75,4.494-2.992a15.661,15.661,0,0,0,4.627-4.064,11.481,11.481,0,0,0,1.126-2.275,17.275,17.275,0,0,0,1.049-5l11.175,2.529a11.046,11.046,0,0,1,8.215,7.851l12.909,36.506a2.917,2.917,0,0,1-.011,2.716c-2.164,4.373-13.593,8.149-21.356,10.148-1.248.32-3.578.85-3.666.872,0,0,2.3-9.839,2.308-9.861l4.284-3.037c.221-.077,4.527-3.445,4.527-3.445a.828.828,0,0,0-.994-1.325l-3.059,2.253-.077-5.841.607.961a.826.826,0,0,0,1.4-.872l-1.855-3.578V495.85a.842.842,0,0,0-1.038-.806l-4.6,1.181a13.789,13.789,0,0,1-.5-4.074.829.829,0,0,0-1.656-.055,14.689,14.689,0,0,0,.552,4.549l-20.351,5.223-18.639-4.792s.42-4.859.42-4.881a.832.832,0,0,0-1.656-.143l-.387,4.616s-6.261-1.612-6.294-1.623a.837.837,0,0,0-1.038.806V518.9c-4.086.155-9.739,1.06-12.743,4.6a.827.827,0,0,0,1.27,1.06c1.811-2.142,4.539-3.092,7.222-3.544a63.387,63.387,0,0,1,8.5-.364c2.087,2.982,4.274,6.195,5.19,7.674L405.179,533.7c-2.661.375-4.627-.3-5.83-2C397.063,528.47,397.969,522.419,398.576,521.27ZM414.355,532.7c-.055.155-.1.309-.154.486-.287.906-.663,2.065-.906,2.749l-4.395-1.612Zm-15.967,19.766a9.608,9.608,0,0,1-5.841-12.356,9.456,9.456,0,0,1,6.9-5.974,7.046,7.046,0,0,0,4.362,1.325,8.547,8.547,0,0,0,2.429-.342l53.643,19.666-.044,17.8S398.808,552.608,398.388,552.465Zm3.655,2.937,2.286.751c-1.667,3.4-3.125,7.807-2.175,12.7a17.126,17.126,0,0,0,.939,3.114.555.555,0,0,0,1.027-.42,15.5,15.5,0,0,1-.828-2.694c-1-4.693.376-8.9,2.087-12.357l12.268,4.009.751,3.456a15.943,15.943,0,0,1-.927,5.985.552.552,0,0,0,1.038.375,15.808,15.808,0,0,0,.718-2.595l1.325,6.073c-1.91.121-4.549.243-7.111.365-3.026.132-6.161.276-8.105.42a6.275,6.275,0,0,1-2.219-.11,4.568,4.568,0,0,1-2.606-3.059,17.359,17.359,0,0,1-.729-2.562C398.775,564.015,399.625,558.8,402.043,555.4Zm-52.451,47.935v-13.35c0-10.733,9.993-19.479,22.284-19.479h26.612c.132.5.3.994.475,1.48a9.1,9.1,0,0,0,1.027,2.021H368.927c-8.337,0-15.128,6.426-15.128,14.311v16.166c0,7.884,6.791,14.311,15.128,14.311h7.652V621.3H363.263C355.235,618.355,349.592,611.408,349.592,603.337Zm-22.14,20.405c0-.276.651-.784,1.723-.784h47.4v1.347h-47.1C328.347,624.449,327.453,624.02,327.453,623.742Zm6.824,15.9c.143-4.781-.7-10.325-2.794-13.45a2.78,2.78,0,0,0-.155-.232h45.251v17.1a1.987,1.987,0,0,0,.353,1.171,1.345,1.345,0,0,0,2.131.121l9.971-11.583,9.971,11.583a1.347,1.347,0,0,0,1.016.5,1.63,1.63,0,0,0,1.469-1.789v-17.1h95.1c7.111,0,12.9,3.313,12.9,7.4v9.861c0,4.074-5.786,7.387-12.9,7.387H331.417C333.1,648.369,334.144,644.459,334.277,639.645Zm-5.1,12.809,167.413-.188c8.16,0,14.554-3.975,14.554-9.043v-9.861c0-5.08-6.393-9.055-14.554-9.055h-95.1V622.96h167.1c.431.176.872.342,1.3.519,3.445,1.458,8.072,1.281,12.058,1.458,4.318.188,23.84.121,26.491.022,1.148-.044,6.018-.254,8.569-.629-.364,1.7-1.016,3.787-1.811,6.305-2.175,6.891-6.073,22.637-6.316,23.531l-279.713-.121c-1.038,0-1.723-.464-1.723-.806C327.453,652.962,328.1,652.454,329.175,652.454Zm-14.024,32.42a.811.811,0,0,1-.806-.806v-27.44a.811.811,0,0,1,.806-.806H608.435c-.265.994-.519,1.988-.74,2.959-.254,1.159-.486,2.33-.662,3.511a8.569,8.569,0,0,0-1.38,1.237c-2,2.219-3.335,5.411-4.086,9.739a4.442,4.442,0,0,0-.077,1.159c-.122.374-2.982,9.883-2.982,9.883a1.993,1.993,0,0,0-.088.563H315.151Zm.022,32.74V704.385c0-8.061,5.51-14.984,13.3-17.856H598.994a2.366,2.366,0,0,0,3.589,0H607a11.885,11.885,0,0,0,.331,1.767H463.041a14.371,14.371,0,0,0-14.554,14.145V718.4a14.369,14.369,0,0,0,14.554,14.134h98.785v4.163c-.055-.044-229.283-.11-229.283-.11C322.671,734.906,315.173,727.023,315.173,717.613Zm18.441,58.7a75.8,75.8,0,0,0,.916-11.33c.1-8.536-.983-17.347-3.257-21.521H454.517a12.506,12.506,0,0,1,12.644,12.323v15.768a12.4,12.4,0,0,1-12.644,12.2H331.328A45.123,45.123,0,0,0,333.614,776.315Zm-5.024,13.042c-.95,0-1.723-1.469-1.723-2.462a1.627,1.627,0,0,1,1.723-1.612H454.517c7.884,0,14.3-6.018,14.3-13.726V755.788a14.187,14.187,0,0,0-14.3-14.013H328.59a1.766,1.766,0,0,1-1.723-1.811,1.725,1.725,0,0,1,1.723-1.723H561.826v7.7a1.8,1.8,0,0,0,.3,1.005,1.231,1.231,0,0,0,1.955.11l7.575-8.8,7.586,8.8a1.215,1.215,0,0,0,.927.453,1.453,1.453,0,0,0,1.325-1.568v-7.7h40.327c11.771,0,21.345,8.447,21.345,18.827V770c0,10.391-9.574,19.357-21.334,19.357H328.59Z" transform="translate(0 -39.882)" fill="#2b2150"/>
    </g>
  </g>
</svg>
