<svg xmlns="http://www.w3.org/2000/svg" width="22" height="22" viewBox="0 0 22 22">
  <path id="Icon" d="M11,22c-2.1,0-3.65-.025-4.592-.075a8.045,8.045,0,0,1-2.431-.465,5.264,5.264,0,0,1-2.136-1.3A5.762,5.762,0,0,1,.491,18.022a9.331,9.331,0,0,1-.417-2.431C.024,14.659,0,13.157,0,11S.024,7.341.074,6.408A9.353,9.353,0,0,1,.491,3.977,5.752,5.752,0,0,1,3.977.491,9.353,9.353,0,0,1,6.408.074C7.341.024,8.843,0,11,0s3.659.024,4.591.074a9.331,9.331,0,0,1,2.431.417,5.752,5.752,0,0,1,3.486,3.486,10.09,10.09,0,0,1,.443,2.457C21.984,7.368,22,8.9,22,11s-.025,3.65-.075,4.591a9.277,9.277,0,0,1-.417,2.431,5.752,5.752,0,0,1-3.486,3.486,9.277,9.277,0,0,1-2.431.417C14.65,21.975,13.106,22,11,22ZM10.214,1.964c-1.341,0-2.337.016-3.045.049a10.39,10.39,0,0,0-2.652.392A3.564,3.564,0,0,0,2.406,4.517a9.907,9.907,0,0,0-.392,2.652c-.033.708-.049,1.7-.049,3.045v1.571c0,1.343.016,2.339.049,3.045a10.368,10.368,0,0,0,.392,2.652,3.74,3.74,0,0,0,2.112,2.112,10.368,10.368,0,0,0,2.652.393c.728.033,1.753.049,3.045.049h1.571c1.326,0,2.351-.017,3.045-.049a9.865,9.865,0,0,0,2.652-.393,3.738,3.738,0,0,0,2.112-2.112,10.347,10.347,0,0,0,.393-2.652c.033-.727.049-1.751.049-3.045V10.214c0-1.325-.017-2.349-.049-3.045a9.884,9.884,0,0,0-.393-2.652,3.562,3.562,0,0,0-2.112-2.112,9.887,9.887,0,0,0-2.652-.392c-.706-.033-1.7-.049-3.045-.049ZM11,16.647a5.533,5.533,0,0,1-2.824-.761,5.666,5.666,0,0,1-2.062-2.063,5.62,5.62,0,0,1,0-5.647A5.694,5.694,0,0,1,8.176,6.114a5.62,5.62,0,0,1,5.647,0,5.666,5.666,0,0,1,2.063,2.062,5.62,5.62,0,0,1,0,5.647,5.682,5.682,0,0,1-2.063,2.063A5.523,5.523,0,0,1,11,16.647Zm0-9.33A3.684,3.684,0,0,0,7.317,11,3.687,3.687,0,0,0,11,14.683,3.689,3.689,0,0,0,14.683,11,3.687,3.687,0,0,0,11,7.317Zm5.892-.884a1.343,1.343,0,0,1-1.325-1.327,1.326,1.326,0,0,1,2.652,0,1.54,1.54,0,0,1-.417.933A1.2,1.2,0,0,1,16.892,6.434Z" fill="#fff"/>
</svg>
