<svg xmlns="http://www.w3.org/2000/svg" width="97.97" height="97.973" viewBox="0 0 97.97 97.973">
  <path id="education" d="M100.539,65.073V56.842a1.566,1.566,0,0,0-1.566-1.566H96.887V26.843l2.584-.867a1.566,1.566,0,0,0,0-2.969L58.734,9.331a1.569,1.569,0,0,0-1,0L17,23.006a1.566,1.566,0,0,0,0,2.969L30.28,30.433V54.756c0,1,0,2.52,9.021,4.122a110.843,110.843,0,0,0,18.934,1.543,110.844,110.844,0,0,0,18.934-1.543c9.021-1.6,9.021-3.119,9.021-4.122V30.434l7.566-2.54V55.272H91.671a1.566,1.566,0,0,0-1.566,1.566v7.884H17.824c-.044,0-.085.009-.127.013-4.742.109-8.447,6.38-8.447,14.377,0,7.97,3.676,14.226,8.4,14.373a1.559,1.559,0,0,0,.174.018H46.79L42.26,105.084a1.566,1.566,0,0,0,2.272,1.908l5.126-3.117,1.939,2.695a1.566,1.566,0,0,0,1.27.651,1.65,1.65,0,0,0,.2-.013,1.567,1.567,0,0,0,1.262-.984l3.911-9.994,3.91,9.995a1.567,1.567,0,0,0,1.262.984,1.645,1.645,0,0,0,.2.013,1.566,1.566,0,0,0,1.27-.651l1.939-2.695,5.126,3.117a1.566,1.566,0,0,0,2.272-1.908L69.68,93.5H98.646c4.808,0,8.574-6.32,8.574-14.391,0-6.96-2.79-12.63-6.681-14.04Zm-42.3-52.605L94.053,24.491,58.235,36.515,22.417,24.491ZM83.059,54.13c-2.147,1.083-11.8,3.16-24.824,3.16s-22.678-2.077-24.824-3.16V31.484L57.737,39.65a1.569,1.569,0,0,0,1,0l24.325-8.166ZM93.237,58.4h4.171V68.5l-1.058-.924a1.564,1.564,0,0,0-2.065,0l-1.053.923ZM67.819,79.112c0,6.635-2.868,11.259-5.443,11.259H59.488c1.95-2.616,3.182-6.649,3.182-11.259s-1.234-8.642-3.182-11.258h2.889C64.946,67.854,67.819,72.478,67.819,79.112Zm-44.6,11.259c1.953-2.615,3.187-6.649,3.187-11.259s-1.234-8.643-3.186-11.258H54.1c2.574,0,5.443,4.624,5.443,11.258S56.67,90.371,54.1,90.371Zm-4.579-9.693h4.574c-.353,4.988-2.342,8.583-4.406,9.474C16.869,84.833,18,81.8,18.636,80.678Zm-6.254-1.566c0-6.633,2.863-11.255,5.44-11.255,2.368,0,4.979,3.909,5.387,9.69H17.821a1.567,1.567,0,0,0-1.15.5c-.154.166-3.233,3.644-1.551,10.686C13.58,86.832,12.381,83.4,12.381,79.112ZM52.457,102.4l-1.1-1.535a1.567,1.567,0,0,0-2.085-.423l-2.4,1.462,3.289-8.41H55.94Zm17.149-.5-2.4-1.462a1.566,1.566,0,0,0-2.085.423l-1.1,1.535L60.53,93.5h5.786ZM98.647,90.366H67.768c1.95-2.616,3.182-6.649,3.182-11.259s-1.232-8.642-3.182-11.258H90.105v4.1A1.566,1.566,0,0,0,92.7,73.126l2.619-2.3,2.619,2.3a1.566,1.566,0,0,0,2.595-1.177v-3.31c1.915,1.587,3.55,5.458,3.55,10.468.007,6.64-2.861,11.264-5.435,11.264Z" transform="translate(-9.25 -9.25)" fill="#fff"/>
</svg>
