<svg xmlns="http://www.w3.org/2000/svg" width="570.792" height="448.013" viewBox="0 0 570.792 448.013">
  <g id="Layer_1" transform="translate(0.771)">
    <g id="Group_216" data-name="Group 216" transform="translate(-0.771 0)">
      <path id="Path_307" data-name="Path 307" d="M360.3,849.006c-52.462-53.419-65-162.483-16.4-238.315,40.5-63.2,115.1-128.219,209.112-147.17S729.38,444.59,765,469.627c29.148,20.489,15.6,49.025,6.458,73.274-12.2,32.371-14,58.072,36.2,105.1,57.3,53.681,72.815,73.833,75.688,125.74,2.336,42.217-30.707,99-74.067,107.141-60.363,11.329-82.768-18.594-141.823-38.765-47.374-16.183-80.232-8.615-123.184,22.4S437.294,927.4,360.3,849.006Z" transform="translate(-312.666 -449.997)" fill="#e3edef" opacity="0.5"/>
      <g id="Parent_teacher" data-name="Parent teacher" transform="translate(0 27.351)">
        <g id="Group_627" data-name="Group 627">
          <g id="Group_626" data-name="Group 626">
            <g id="Group_614" data-name="Group 614" transform="translate(0 58.49)">
              <path id="Path_1698" data-name="Path 1698" d="M142.094,402.365c8.932,1.846,16.98,8.3,17.9,22.326.867,13.282-6.388,26.429-2.8,39.586,3.684,13.5,14.2,18.124,10.359,34.827-1.367,5.949-3.569,11.747-3.458,17.993.234,13.087,9.376,21.079,13.844,31.346,5.766,13.249,3.631,31.5-4.045,42.392-14.6,20.7-39.35,13.266-57.761,11.3-10.7-1.139-20.347-8.793-23.022-24.317C90,559.8,98.132,551.117,103.214,536.865c4.946-13.87-1.143-30.2-1.29-45.7-.164-17.321,9.846-26.83,11.685-42.746,1.329-11.509-3.309-23.366,1.306-34.238a19.173,19.173,0,0,1,11.63-10.856A30.834,30.834,0,0,1,142.094,402.365Z" transform="translate(-92.419 -401.783)" fill="#bdd1f9"/>
              <rect id="Rectangle_376" data-name="Rectangle 376" width="2.13" height="163.459" transform="translate(43.333 83.514)" fill="#91b5f8"/>
              <rect id="Rectangle_377" data-name="Rectangle 377" width="43.156" height="2.13" transform="matrix(0.416, 0.91, -0.91, 0.416, 27.435, 117.103)" fill="#91b5f8"/>
              <rect id="Rectangle_378" data-name="Rectangle 378" width="2.131" height="30.924" transform="matrix(0.821, 0.571, -0.571, 0.821, 61.197, 159.172)" fill="#91b5f8"/>
              <path id="Path_1699" data-name="Path 1699" d="M238.073,1568.052h-37.15a2.857,2.857,0,0,1-2.856-2.856v-31H240.93v31A2.858,2.858,0,0,1,238.073,1568.052Z" transform="translate(-175.587 -1293.245)" fill="#91b5f8"/>
            </g>
            <g id="Group_617" data-name="Group 617" transform="translate(442.892 121.136)">
              <path id="Path_1700" data-name="Path 1700" d="M2342.876,1572.633h-37.15a2.857,2.857,0,0,1-2.857-2.856v-31h42.863v31A2.857,2.857,0,0,1,2342.876,1572.633Z" transform="translate(-2275.426 -1359.497)" fill="#91b5f8"/>
              <g id="Group_615" data-name="Group 615" transform="translate(0 67.199)">
                <path id="Path_1701" data-name="Path 1701" d="M2238.057,1148.121a.349.349,0,0,0,.071-.011.358.358,0,0,0,.257-.437c-12.975-50.071-25.169-85.538-34.336-99.867-.2-.318-.35-.548-.406-.663a.358.358,0,1,0-.647.308,8.538,8.538,0,0,0,.449.741c9.127,14.268,21.289,49.661,34.246,99.661A.36.36,0,0,0,2238.057,1148.121Z" transform="translate(-2196.775 -1039.507)" fill="#91b5f8"/>
                <path id="Path_1702" data-name="Path 1702" d="M2174.493,1017.509c1.089,1.61,6.764,4.708,7.224,4.4s-.3-6.731-1.391-8.342a3.52,3.52,0,0,0-5.832,3.944Z" transform="translate(-2173.889 -1012.016)" fill="#91b5f8"/>
                <path id="Path_1703" data-name="Path 1703" d="M2227.576,1053.225c-.645,1.882.318,8.426.855,8.609s5.313-4.392,5.958-6.273a3.6,3.6,0,0,0-6.813-2.336Z" transform="translate(-2215.983 -1042.54)" fill="#91b5f8"/>
                <path id="Path_1704" data-name="Path 1704" d="M2181.946,1087.8c1.979.2,8.137-2.208,8.2-2.772s-5.475-4.188-7.453-4.393a3.6,3.6,0,1,0-.742,7.165Z" transform="translate(-2177.688 -1066.019)" fill="#91b5f8"/>
                <path id="Path_1705" data-name="Path 1705" d="M2298.9,1206.609c-1.417,3.023-.992,14.117-.129,14.521s9.661-6.368,11.078-9.391a6.045,6.045,0,0,0-10.948-5.131Z" transform="translate(-2271.57 -1162.463)" fill="#91b5f8"/>
                <path id="Path_1706" data-name="Path 1706" d="M2217.667,1256.042c3.264.7,13.978-2.212,14.178-3.144s-8.38-7.978-11.644-8.678a6.045,6.045,0,1,0-2.534,11.822Z" transform="translate(-2204.589 -1194.705)" fill="#91b5f8"/>
                <path id="Path_1707" data-name="Path 1707" d="M2325.06,1268.642c-2.505,3.227-4.987,16.584-4.066,17.3s13.247-5,15.753-8.226a7.4,7.4,0,0,0-11.687-9.073Z" transform="translate(-2289.539 -1211.784)" fill="#91b5f8"/>
                <path id="Path_1708" data-name="Path 1708" d="M2221.041,1330.089c4.062.441,16.736-4.452,16.862-5.612s-11.2-8.657-15.266-9.1a7.4,7.4,0,0,0-1.6,14.709Z" transform="translate(-2205.812 -1250.796)" fill="#91b5f8"/>
                <path id="Path_1709" data-name="Path 1709" d="M2347.37,1345.472c-2.506,3.227-4.987,16.585-4.066,17.3s13.247-5,15.752-8.226a7.4,7.4,0,0,0-11.686-9.074Z" transform="translate(-2307.102 -1272.267)" fill="#91b5f8"/>
                <path id="Path_1710" data-name="Path 1710" d="M2243.342,1406.918c4.062.441,16.736-4.452,16.862-5.612s-11.2-8.657-15.267-9.1a7.4,7.4,0,0,0-1.6,14.709Z" transform="translate(-2223.368 -1311.278)" fill="#91b5f8"/>
                <path id="Path_1711" data-name="Path 1711" d="M2376.361,1449.893c-3.546,2.029-10.929,13.435-10.349,14.447s14.152.424,17.7-1.606a7.4,7.4,0,0,0-7.349-12.841Z" transform="translate(-2325.107 -1355.952)" fill="#91b5f8"/>
                <path id="Path_1712" data-name="Path 1712" d="M2266.143,1483.387c3.975.945,17.161-2.325,17.431-3.46s-10.034-9.989-14.009-10.934a7.4,7.4,0,1,0-3.422,14.394Z" transform="translate(-2242.035 -1371.598)" fill="#91b5f8"/>
                <path id="Path_1713" data-name="Path 1713" d="M2250.353,1102.038c-.655,1.912.324,8.56.869,8.747s5.4-4.462,6.053-6.374a3.659,3.659,0,1,0-6.923-2.374Z" transform="translate(-2233.911 -1080.936)" fill="#91b5f8"/>
                <path id="Path_1714" data-name="Path 1714" d="M2205.193,1137.794c2.01.208,8.268-2.243,8.327-2.816s-5.563-4.255-7.573-4.463a3.659,3.659,0,0,0-.753,7.28Z" transform="translate(-2195.948 -1105.285)" fill="#91b5f8"/>
                <path id="Path_1715" data-name="Path 1715" d="M2275.2,1145.321c-1.151,2.63-.539,12.158.212,12.486s8.163-5.689,9.314-8.319a5.2,5.2,0,0,0-9.526-4.167Z" transform="translate(-2253.137 -1114.503)" fill="#91b5f8"/>
                <path id="Path_1716" data-name="Path 1716" d="M2206.156,1194.464c2.856.3,11.746-3.186,11.83-4s-7.9-6.044-10.759-6.34a5.2,5.2,0,1,0-1.071,10.342Z" transform="translate(-2195.618 -1147.48)" fill="#91b5f8"/>
              </g>
              <g id="Group_616" data-name="Group 616" transform="translate(17.572)">
                <path id="Path_1717" data-name="Path 1717" d="M2419.935,922.892a.56.56,0,0,1-.116,0,.574.574,0,0,1-.5-.64c10.012-82.249,21.873-141.144,33.4-165.836.256-.549.441-.944.5-1.139a.574.574,0,0,1,1.093.352,13.62,13.62,0,0,1-.556,1.273c-11.474,24.585-23.3,83.357-33.3,165.489A.576.576,0,0,1,2419.935,922.892Z" transform="translate(-2384.665 -742.392)" fill="#bdd1f9"/>
                <path id="Path_1718" data-name="Path 1718" d="M2582.055,704.355c-1.389,2.788-9.744,8.907-10.54,8.51s-.944-10.752.445-13.539a5.639,5.639,0,1,1,10.095,5.029Z" transform="translate(-2504.008 -696.2)" fill="#bdd1f9"/>
                <path id="Path_1719" data-name="Path 1719" d="M2506,772.374c1.423,2.851,1.276,13.445.462,13.852s-9.365-5.85-10.786-8.7A5.769,5.769,0,1,1,2506,772.374Z" transform="translate(-2444.297 -753.65)" fill="#bdd1f9"/>
                <path id="Path_1720" data-name="Path 1720" d="M2561.881,817.6c-3.1.744-13.387-1.784-13.6-2.668s7.808-7.807,10.906-8.551a5.769,5.769,0,0,1,2.693,11.22Z" transform="translate(-2486.188 -782.813)" fill="#bdd1f9"/>
                <path id="Path_1721" data-name="Path 1721" d="M2396.32,1033.061c2.89,4.5,4.562,22.206,3.278,23.031s-16.687-8.068-19.576-12.568a9.684,9.684,0,0,1,16.3-10.463Z" transform="translate(-2352.525 -957.877)" fill="#bdd1f9"/>
                <path id="Path_1722" data-name="Path 1722" d="M2499.9,1094.081c-5.036,1.8-22.663-.555-23.177-1.993s11.618-14.441,16.654-16.242a9.684,9.684,0,0,1,6.524,18.235Z" transform="translate(-2429.847 -994.618)" fill="#bdd1f9"/>
                <path id="Path_1723" data-name="Path 1723" d="M2339.152,1139.925c4.661,4.594,11.427,25.279,10.116,26.609s-22.092-5.136-26.753-9.73a11.85,11.85,0,1,1,16.637-16.879Z" transform="translate(-2305.683 -1042.825)" fill="#bdd1f9"/>
                <path id="Path_1724" data-name="Path 1724" d="M2484.029,1213.357c-6.357,1.559-27.516-3.53-27.961-5.344s15.96-16.115,22.316-17.674a11.85,11.85,0,0,1,5.645,23.018Z" transform="translate(-2413.591 -1084.927)" fill="#bdd1f9"/>
                <path id="Path_1725" data-name="Path 1725" d="M2319.983,1266.635c4.661,4.594,11.427,25.279,10.115,26.609s-22.091-5.135-26.752-9.73a11.85,11.85,0,0,1,16.637-16.879Z" transform="translate(-2290.593 -1142.574)" fill="#bdd1f9"/>
                <path id="Path_1726" data-name="Path 1726" d="M2464.86,1340.068c-6.356,1.559-27.516-3.53-27.96-5.344s15.959-16.116,22.316-17.674a11.85,11.85,0,1,1,5.645,23.018Z" transform="translate(-2398.502 -1184.676)" fill="#bdd1f9"/>
                <path id="Path_1727" data-name="Path 1727" d="M2272.8,1441.659c6.06,2.473,20.194,19.021,19.489,20.75s-22.382,3.666-28.442,1.193a11.85,11.85,0,0,1,8.953-21.944Z" transform="translate(-2256.474 -1282.347)" fill="#bdd1f9"/>
                <path id="Path_1728" data-name="Path 1728" d="M2448.349,1466.316c-6.112,2.341-27.742-.062-28.41-1.806s13.82-17.984,19.931-20.325a11.85,11.85,0,0,1,8.479,22.132Z" transform="translate(-2385.139 -1284.409)" fill="#bdd1f9"/>
                <path id="Path_1729" data-name="Path 1729" d="M2479.514,854.737c1.445,2.9,1.3,13.661.47,14.073s-9.515-5.943-10.96-8.84a5.862,5.862,0,0,1,10.49-5.233Z" transform="translate(-2423.312 -818.448)" fill="#bdd1f9"/>
                <path id="Path_1730" data-name="Path 1730" d="M2534.514,901.94c-3.148.756-13.6-1.813-13.817-2.711s7.933-7.932,11.081-8.688a5.861,5.861,0,1,1,2.736,11.4Z" transform="translate(-2464.472 -849.061)" fill="#bdd1f9"/>
                <path id="Path_1731" data-name="Path 1731" d="M2431.179,930c2.384,3.933,3.428,19.191,2.305,19.872s-14.165-7.307-16.548-11.24A8.327,8.327,0,0,1,2431.179,930Z" transform="translate(-2381.843 -877.09)" fill="#bdd1f9"/>
                <path id="Path_1732" data-name="Path 1732" d="M2517.752,993.265c-4.472,1.073-19.324-2.575-19.63-3.852s11.271-11.269,15.743-12.343a8.328,8.328,0,0,1,3.888,16.2Z" transform="translate(-2446.7 -917.124)" fill="#bdd1f9"/>
              </g>
            </g>
            <g id="Group_618" data-name="Group 618" transform="translate(337.862 109.127)">
              <rect id="Rectangle_379" data-name="Rectangle 379" width="7.1" height="33.149" transform="translate(57.887 66.024)" fill="#060633"/>
              <path id="Path_1733" data-name="Path 1733" d="M1685.365,1099.569H1768.1a5.088,5.088,0,0,0,5.088-5.088v-17.612a5.088,5.088,0,0,0-5.088-5.088h-82.735a5.088,5.088,0,0,0-5.088,5.088v17.612A5.088,5.088,0,0,0,1685.365,1099.569Z" transform="translate(-1680.276 -979.855)" fill="#fa7267"/>
              <path id="Path_1734" data-name="Path 1734" d="M1821.447,711.9h58.7a6.723,6.723,0,0,0,6.723-6.723v-58.7a6.723,6.723,0,0,0-6.723-6.723h-58.7a6.723,6.723,0,0,0-6.723,6.723v58.7A6.722,6.722,0,0,0,1821.447,711.9Z" transform="translate(-1786.116 -639.759)" fill="#fa7267"/>
              <rect id="Rectangle_380" data-name="Rectangle 380" width="7.1" height="100.326" transform="translate(40.999 119.714)" fill="#060633"/>
              <path id="Path_1735" data-name="Path 1735" d="M1786.114,1668.128h-70.591a2.13,2.13,0,0,1,0-4.26h70.591a2.13,2.13,0,0,1,0,4.26Z" transform="translate(-1706.347 -1445.959)" fill="#060633"/>
              <circle id="Ellipse_33" data-name="Ellipse 33" cx="5.188" cy="5.188" r="5.188" transform="translate(9.413 221.402)" fill="#060633"/>
              <circle id="Ellipse_34" data-name="Ellipse 34" cx="5.189" cy="5.189" r="5.189" transform="translate(67.859 221.402)" fill="#060633"/>
              <circle id="Ellipse_35" data-name="Ellipse 35" cx="5.189" cy="5.189" r="5.189" transform="translate(39.359 221.401)" fill="#060633"/>
            </g>
            <g id="Group_622" data-name="Group 622" transform="translate(281.318)">
              <path id="Path_1736" data-name="Path 1736" d="M1436.027,531.779s-.1-8.593-.823-11.69.873-6.635-.959-6.844-2.907,5.815-2.907,5.815-4.181-4.939-5.235-6.652-3.718-4.3-5.031-3.623,4.326,8.548,4.326,8.548-5.4-6.164-6.744-5.8,4.373,9.215,4.373,9.215-5.438-6.856-6.334-7.021-1.143.974.193,3.869a30.32,30.32,0,0,0,3.446,5.507,68.711,68.711,0,0,0-4.873-4.9c-.691-.368-1.913-.372.519,3.707s9.13,12.038,14.091,14.658Z" transform="translate(-1414.532 -427.442)" fill="#fb9391"/>
              <path id="Path_1737" data-name="Path 1737" d="M1535.209,1584.358s-1.353,18.015-1.491,18.267,1.289,2.462,1.289,2.462l5.569,1,5.083-2.337s2.759-17.573,3.29-20.162S1535.209,1584.358,1535.209,1584.358Z" transform="translate(-1508.351 -1272.861)" fill="#fb9391"/>
              <path id="Path_1738" data-name="Path 1738" d="M1469.059,1676.521s-6.42,2.246-11.907-1.47c0,0-21.375,8.011-20.723,14.1,0,0-.91,1.815,8.351,1.423s23.655-.8,24.041-1.018S1471.021,1690.324,1469.059,1676.521Z" transform="translate(-1431.751 -1345.636)" fill="#0b0755"/>
              <path id="Path_1739" data-name="Path 1739" d="M1749.42,1580.032s.254,17.657.116,17.909,1.289,2.462,1.289,2.462l5.57,1,5.083-2.337s-.448-16.415.084-19S1749.42,1580.032,1749.42,1580.032Z" transform="translate(-1678.163 -1269.947)" fill="#fb9391"/>
              <path id="Path_1740" data-name="Path 1740" d="M1685.28,1668.211s-6.419,2.246-11.906-1.47c0,0-21.375,8.011-20.723,14.1,0,0-.91,1.815,8.351,1.423s23.655-.8,24.04-1.018S1687.241,1682.016,1685.28,1668.211Z" transform="translate(-1601.964 -1339.094)" fill="#0b0755"/>
              <g id="Group_619" data-name="Group 619" transform="translate(87.356 2.332)">
                <path id="Path_1741" data-name="Path 1741" d="M1829.327,258.927s-1.355-2.515-2.684-1.662c-3.388,2.172-.513,5.625,1.532,6.52Z" transform="translate(-1825.08 -231.718)" fill="#ea6868"/>
                <path id="Path_1742" data-name="Path 1742" d="M1838.63,156.252l.019.005c.013-.25.026-.5.049-.75a19.415,19.415,0,1,1,36.274,11.245c-2.2,4.359-4.132,8.085-6.095,11.149a27.733,27.733,0,0,0-4.216,17.087l.362,4.72c-12.458,5.243-17.341-1.134-17.341-1.134l.559-8.551a2.155,2.155,0,0,0-1.829-2.265l-.021,0C1831.747,185.451,1838.026,162.889,1838.63,156.252Z" transform="translate(-1834.289 -137.853)" fill="#fb9391"/>
                <circle id="Ellipse_36" data-name="Ellipse 36" cx="1.807" cy="1.807" r="1.807" transform="translate(23.328 28.719)" fill="#060633"/>
                <circle id="Ellipse_37" data-name="Ellipse 37" cx="1.807" cy="1.807" r="1.807" transform="translate(7.623 24.06)" fill="#060633"/>
                <path id="Path_1743" data-name="Path 1743" d="M1939.746,253.262a1.059,1.059,0,0,0,1.049-1.515c-.767-1.587-3.326-4.155-7.539-2.509a1.059,1.059,0,0,0,.771,1.973c3.459-1.354,4.8,1.341,4.86,1.457A1.055,1.055,0,0,0,1939.746,253.262Z" transform="translate(-1909.708 -225.12)" fill="#060633"/>
                <path id="Path_1744" data-name="Path 1744" d="M1861.646,232.818a1.059,1.059,0,0,0,1.049-1.515c-.766-1.588-3.327-4.156-7.539-2.509a1.059,1.059,0,0,0,.772,1.973c3.459-1.354,4.8,1.341,4.86,1.457A1.059,1.059,0,0,0,1861.646,232.818Z" transform="translate(-1848.226 -209.026)" fill="#060633"/>
                <path id="Path_1745" data-name="Path 1745" d="M1996.39,224.085l-6.438,12.6-3.449-1.023-.573-17.066Z" transform="translate(-1951.704 -201.418)" fill="#060633"/>
                <path id="Path_1746" data-name="Path 1746" d="M1982.111,290.791a2.884,2.884,0,0,1,1.63-1.227c1.384-.417,3.792-.79,5.263.976,2.159,2.591-3.192,8.451-7.629,4.892C1981.373,295.433,1980.147,293.961,1982.111,290.791Z" transform="translate(-1947.82 -257.01)" fill="#fb9391"/>
                <path id="Path_1747" data-name="Path 1747" d="M1883.118,275.8a3.618,3.618,0,0,0,3.292.2.314.314,0,0,0-.281-.562,2.948,2.948,0,0,1-3.455-.82,1.111,1.111,0,0,1-.376-.653c.01-.216.292-.47.683-.821a9.245,9.245,0,0,0,3.136-5.458.314.314,0,0,0-.614-.136,8.576,8.576,0,0,1-2.942,5.127c-.485.436-.868.78-.891,1.258a1.57,1.57,0,0,0,.541,1.108A4.19,4.19,0,0,0,1883.118,275.8Z" transform="translate(-1869.628 -239.757)" fill="#ea6868"/>
                <path id="Path_1748" data-name="Path 1748" d="M1845.885,184.847s-2.955,1.7-4.707,13.371c0,0,.247-13.167,1.833-14.475S1845.885,184.847,1845.885,184.847Z" transform="translate(-1837.753 -173.673)" fill="#060633"/>
              </g>
              <path id="Path_1749" data-name="Path 1749" d="M1645.166,840.369,1581.79,822l-23.221,17.757,1.281,21.745-.087-.009-25.989,21.329a28.8,28.8,0,0,0-10.413,19.686l-8.121,90.447h22.237l23.77-90.02v90.02h19.918l14.575-82.537,33.01-22.291a38.2,38.2,0,0,0,16.807-32.643Z" transform="translate(-1493.81 -674.098)" fill="#3b3b3b"/>
              <path id="Path_1750" data-name="Path 1750" d="M1875.073,417.61h-19.348l-7.5,32.433V512.26s17.762,8.6,41.148-2.647l-6.819-72.808Z" transform="translate(-1755.945 -355.752)" fill="#fff"/>
              <path id="Path_1751" data-name="Path 1751" d="M1974.4,417.61s29.194,12.355,34.93,20.3c5.3,7.336,4.554.359,19.814,41.532a17.035,17.035,0,0,1-2.122,15.838,11.494,11.494,0,0,1-5.352,4.026l-15.034,5.609,1.591,38.236-29.123,2.868Z" transform="translate(-1855.272 -355.752)" fill="#3b3b3b"/>
              <path id="Path_1752" data-name="Path 1752" d="M1745.759,417.61s-29.194,12.355-34.93,20.3,1.1,105.241,1.1,105.241l29.123,2.868Z" transform="translate(-1645.979 -355.752)" fill="#3b3b3b"/>
              <path id="Path_1753" data-name="Path 1753" d="M1888.075,423.7l-3.4,5.792,7.085,81.909-10.932,17.651-8.118-18.092,7.864-81.964-2.481-5.791,6.671-2.482Z" transform="translate(-1775.22 -358.201)" fill="#fa7267"/>
              <path id="Path_1754" data-name="Path 1754" d="M1902.818,404.812l-1.449-3.181-9.1,3.181-7.528-3.459-1.275,3.459,1.6,5.957,6.866-4.461,6.7,4.874Z" transform="translate(-1783.69 -342.954)" fill="#b9caef"/>
              <path id="Path_1755" data-name="Path 1755" d="M1869.418,128.59c-.554-.569-1.58-1.026-2.047-.383a1.386,1.386,0,0,0-.167.925,8.545,8.545,0,0,0,.652,2.7c-3.262-3.823-8.7-5.01-13.726-4.935s-10.016,1.173-15.035.926c-1.99-.1-4.376-.239-5.545,1.375a3.414,3.414,0,0,0,.188,3.9,6.015,6.015,0,0,0,3.493,2.119,2.71,2.71,0,0,0-3.4,3.843c.855,1.492,2.829,1.822,4.543,1.962a153.707,153.707,0,0,0,16.411.464l-2.388,1.927a2.058,2.058,0,0,0-.683.776,1.537,1.537,0,0,0,.238,1.363,4.052,4.052,0,0,0,3.194,1.629,16.456,16.456,0,0,0,3.69-.4,29.3,29.3,0,0,1,5.41-.374,2.713,2.713,0,0,1,1.1.187,3.493,3.493,0,0,1,1.085,1.039c1.926,2.317,4.979,3.3,7.861,4.178.9.272,2.08.447,2.578-.346a2.075,2.075,0,0,0,.231-1.049,24.257,24.257,0,0,0-3.021-12.505,1.364,1.364,0,0,0,2.474.08c.764-1.443-1.05-2.634-2.07-3.227-.933-.542-1.82-.657-2.514-1.564C1870.875,131.777,1870.765,129.969,1869.418,128.59Z" transform="translate(-1743.977 -126.894)" fill="#060633"/>
              <path id="Path_1756" data-name="Path 1756" d="M1873.519,320.28l-10.223-2.471s.586,5.666,4.3,5.666A7.845,7.845,0,0,0,1873.519,320.28Z" transform="translate(-1767.809 -277.186)" fill="#fff"/>
              <path id="Path_1757" data-name="Path 1757" d="M1985.786,422.827l-5.73,23.628,5.73,2.4-8.445,48.99L1974.4,417.61Z" transform="translate(-1855.272 -355.752)" fill="#0d0d0d"/>
              <path id="Path_1758" data-name="Path 1758" d="M1521.359,484.626A33.151,33.151,0,0,0,1507.6,501.7c-4.089,11.757-9.835,30.1-17.531,32.872-6.134,2.206-16.974-24.088-16.974-24.088l-14.314,4.983s8.962,53.663,36.806,48.854c17.7-3.057,23.515-41.917,23.515-41.917Z" transform="translate(-1449.368 -408.508)" fill="#3b3b3b"/>
              <path id="Path_1759" data-name="Path 1759" d="M1829.96,422.827l5.732,23.628-5.732,2.4,8.447,48.99,2.938-80.231Z" transform="translate(-1741.566 -355.752)" fill="#0d0d0d"/>
              <g id="Group_621" data-name="Group 621" transform="translate(61.61 95.003)">
                <g id="Group_620" data-name="Group 620">
                  <path id="Path_1760" data-name="Path 1760" d="M1746.5,588.488l-42.015,5.181a.453.453,0,0,0-.394.5l7.2,58.347a.452.452,0,0,0,.5.394l42.016-5.181a.453.453,0,0,0,.394-.5l-7.2-58.347A.452.452,0,0,0,1746.5,588.488Z" transform="translate(-1704.083 -585.271)" fill="#0b0755"/>
                  <rect id="Rectangle_381" data-name="Rectangle 381" width="17.488" height="3.718" transform="matrix(0.993, -0.122, 0.122, 0.993, 13.193, 3.96)" fill="#94b5c2"/>
                  <circle id="Ellipse_38" data-name="Ellipse 38" cx="2.892" cy="2.892" r="2.892" transform="translate(18.973)" fill="#94b5c2"/>
                </g>
                <path id="Path_1761" data-name="Path 1761" d="M1896.677,765.49s-8.226-2.948-11.435-3.354-6.016-3.182-6.864-1.509,4.514,4.83,4.514,4.83-6.189,2.237-8.2,2.635-5.412,2.023-5.235,3.513,9.681-1.1,9.681-1.1-7.788,2.965-7.918,4.375,10.333-.906,10.333-.906-8.462,2.757-8.936,3.552.524,1.434,3.757,1.186a30.85,30.85,0,0,0,6.47-1.335,69.856,69.856,0,0,0-6.4,2.911c-.6.529-1.032,1.692,3.718.818s14.708-4.441,18.962-8.243Z" transform="translate(-1834.268 -720.366)" fill="#fb9391"/>
                <path id="Path_1762" data-name="Path 1762" d="M1903.949,749.65l.768,6.232-5.985-.412-.832-5.153,1.662-2.643Z" transform="translate(-1856.66 -710.588)" fill="#0b0755"/>
              </g>
              <path id="Path_1763" data-name="Path 1763" d="M1730.147,1049.441h0a.355.355,0,0,1-.355-.355c0-.12.083-12.17,7.229-21.53,4.529-5.93,26.283-19.287,27.207-19.853a.355.355,0,1,1,.37.605c-.225.138-22.564,13.853-27.012,19.679-7,9.163-7.084,20.98-7.084,21.1A.354.354,0,0,1,1730.147,1049.441Z" transform="translate(-1662.712 -820.245)" fill="#0b0755"/>
              <path id="Path_1764" data-name="Path 1764" d="M1999.208,673.068a.179.179,0,0,1-.17-.125l-4.729-15.336a.179.179,0,0,1,.081-.206l25.778-14.853-7.186-17.161a.177.177,0,1,1,.327-.137l7.247,17.306a.177.177,0,0,1-.075.223l-25.791,14.86,4.64,15.047,22.938-4.573a.175.175,0,0,1,.209.139.177.177,0,0,1-.14.209l-23.095,4.6A.154.154,0,0,1,1999.208,673.068Z" transform="translate(-1870.939 -519.125)" fill="#17152b"/>
            </g>
            <rect id="Rectangle_382" data-name="Rectangle 382" width="351.953" height="11.246" transform="translate(132.404 167.312)" fill="#060633"/>
            <path id="Path_1765" data-name="Path 1765" d="M2002.037,1107.058l-.055,0a1.065,1.065,0,0,1-1.009-1.118l8.69-170.294a1.065,1.065,0,0,1,2.127.109l-8.69,170.294A1.065,1.065,0,0,1,2002.037,1107.058Z" transform="translate(-1594.872 -762.764)" fill="#060633"/>
            <path id="Path_1766" data-name="Path 1766" d="M2362.354,1107.059a1.065,1.065,0,0,1-1.062-1.011l-8.69-170.294a1.065,1.065,0,0,1,2.127-.109l8.689,170.294a1.065,1.065,0,0,1-1.01,1.118C2362.39,1107.059,2362.371,1107.059,2362.354,1107.059Z" transform="translate(-1871.682 -762.765)" fill="#060633"/>
            <g id="Group_623" data-name="Group 623" transform="translate(234.225 118.891)">
              <path id="Path_1767" data-name="Path 1767" d="M1193.21,685.743l66.046-.093,20.778,48.293-66.047.093Z" transform="translate(-1193.21 -685.65)" fill="#0b0755"/>
              <rect id="Rectangle_383" data-name="Rectangle 383" width="44.218" height="2.923" transform="translate(73.854 45.388) rotate(-0.08)" fill="#0b0755"/>
              <circle id="Ellipse_39" data-name="Ellipse 39" cx="2.908" cy="2.908" r="2.908" transform="translate(33.967 20.561)" fill="#fff"/>
            </g>
            <g id="Group_625" data-name="Group 625" transform="translate(69.018 8.597)">
              <path id="Path_1768" data-name="Path 1768" d="M1103.175,1339.81s-4.769,61.136,1.734,67.641,16.04,12.574,16.909,16.476-28.182-.433-30.784-4.336-2.168-10.406-4.77-28.617-6.5-51.164-6.5-51.164h23.414Z" transform="translate(-938.694 -1090.325)" fill="#fb9391"/>
              <path id="Path_1769" data-name="Path 1769" d="M1154.45,1683.889c-.591-2.655-5.2-6.315-10.128-10.432-1.088,8.348-17.479-.212-23.11-3.421.566,4.737,1.1,7.483,2.454,9.517C1126.267,1683.455,1155.318,1687.789,1154.45,1683.889Z" transform="translate(-971.325 -1350.286)" fill="#0b0755"/>
              <path id="Path_1770" data-name="Path 1770" d="M948.2,1339.81s-4.769,61.136,1.734,67.641,16.04,12.574,16.908,16.476-28.182-.433-30.784-4.336-2.168-10.406-4.769-28.617-6.5-51.164-6.5-51.164H948.2Z" transform="translate(-816.698 -1090.325)" fill="#fb9391"/>
              <path id="Path_1771" data-name="Path 1771" d="M999.48,1683.889c-.591-2.655-5.2-6.315-10.128-10.432-1.088,8.348-17.479-.212-23.11-3.421.566,4.737,1.1,7.483,2.454,9.517C971.3,1683.455,1000.349,1687.789,999.48,1683.889Z" transform="translate(-849.33 -1350.286)" fill="#0b0755"/>
              <g id="Group_624" data-name="Group 624" transform="translate(0 100.53)">
                <rect id="Rectangle_384" data-name="Rectangle 384" width="7.1" height="33.149" transform="translate(35.761 66.024)" fill="#060633"/>
                <path id="Path_1772" data-name="Path 1772" d="M541.446,1099.569H458.711a5.088,5.088,0,0,1-5.088-5.088v-17.612a5.088,5.088,0,0,1,5.088-5.088h82.735a5.088,5.088,0,0,1,5.088,5.088v17.612A5.089,5.089,0,0,1,541.446,1099.569Z" transform="translate(-445.785 -979.855)" fill="#fa7267"/>
                <path id="Path_1773" data-name="Path 1773" d="M482.2,711.9h-58.7a6.723,6.723,0,0,1-6.723-6.723v-58.7a6.723,6.723,0,0,1,6.723-6.723h58.7a6.723,6.723,0,0,1,6.723,6.723v58.7A6.723,6.723,0,0,1,482.2,711.9Z" transform="translate(-416.785 -639.759)" fill="#fa7267"/>
                <rect id="Rectangle_385" data-name="Rectangle 385" width="7.1" height="100.326" transform="translate(52.65 119.714)" fill="#060633"/>
                <path id="Path_1774" data-name="Path 1774" d="M578.1,1668.128H507.508a2.13,2.13,0,1,1,0-4.26H578.1a2.13,2.13,0,1,1,0,4.26Z" transform="translate(-486.527 -1445.959)" fill="#060633"/>
                <circle id="Ellipse_40" data-name="Ellipse 40" cx="5.189" cy="5.189" r="5.189" transform="translate(80.958 221.402)" fill="#060633"/>
                <circle id="Ellipse_41" data-name="Ellipse 41" cx="5.189" cy="5.189" r="5.189" transform="translate(22.512 221.402)" fill="#060633"/>
                <circle id="Ellipse_42" data-name="Ellipse 42" cx="5.189" cy="5.189" r="5.189" transform="translate(51.011 221.402)" fill="#060633"/>
              </g>
              <path id="Path_1775" data-name="Path 1775" d="M627.269,950.052s-2.947,30.331,9.262,37.487,47.821,16.017,49.7,22.151,2.743,42.769,2.743,42.769,30.314,8.69,64.734-4.6c0,0,0-58.013-9.883-66.455C723.09,963.7,692.7,953.46,692.7,953.46Z" transform="translate(-582.237 -783.499)" fill="#060633"/>
              <path id="Path_1776" data-name="Path 1776" d="M1178.64,616.371s.1-8.593.823-11.69-.873-6.635.959-6.844,2.907,5.815,2.907,5.815,4.181-4.939,5.235-6.652,3.718-4.3,5.031-3.623-4.325,8.548-4.325,8.548,5.4-6.164,6.744-5.8-4.373,9.215-4.373,9.215,5.438-6.856,6.334-7.022,1.143.974-.193,3.869a30.328,30.328,0,0,1-3.447,5.507,68.711,68.711,0,0,1,4.873-4.9c.691-.368,1.913-.372-.519,3.707s-9.13,12.038-14.091,14.658Z" transform="translate(-1016.534 -502.631)" fill="#fb9391"/>
              <path id="Path_1777" data-name="Path 1777" d="M762.363,1034.97s7.642,3.93,10.088,5.962,6.326,2.185,5.693,3.917-6.5,0-6.5,0,2.549,5.948,3.61,7.657,2.181,5.246.992,6.12-5.713-7.691-5.713-7.691,3.1,7.585,2.174,8.626-6.288-8.031-6.288-8.031,3.7,7.929,3.45,8.8-1.382.587-3.375-1.9a30.328,30.328,0,0,1-3.385-5.545,68.65,68.65,0,0,1,2.2,6.55c.02.783-.523,1.877-3.084-2.122s-6.687-13.548-6.812-19.157Z" transform="translate(-683.362 -850.348)" fill="#fb9391"/>
              <path id="Path_1778" data-name="Path 1778" d="M582.294,230.5c-3.164-2.275-6.73-4.605-7.886-8.327-1.769-5.695,2.956-11.953,1.072-17.61-1.5-4.5-6.556-6.76-9.145-10.736-2.383-3.66-2.416-8.328-3.81-12.466-4.548-13.508-20.151-16.1-31.945-11.409a27.705,27.705,0,0,0-5.038,2.616c-5.218,3.451-9.189,9.052-9.814,15.277-.437,4.353.723,9.325-2.263,13.023-2.747,3.4-7.436,3.753-11.17,5.472-4,1.84-7.561,5.511-8.556,9.89-1.183,5.2,1.04,11.352-2.2,15.594-2.313,3.03-6.343,3.733-9.466,5.588a17.935,17.935,0,0,0-7.777,9.133c-2.444,6.755.313,15.17,6.937,18.4,3.32,1.618,7.148,1.812,10.837,1.643A61.426,61.426,0,0,0,512.688,262c6.416-2.654,12.559-6.448,19.47-7.119,5.992-.582,11.915,1.257,17.851,2.259,5.852.988,11.935,1.195,17.4,3.506,2.438,1.031,4.7,2.46,7.166,3.413s5.288,1.4,7.739.4,4.283-3.79,3.514-6.322c-.35-1.151-1.162-2.108-1.59-3.233-1.923-5.066,4.467-9.756,4.475-15.175C588.72,235.827,585.459,232.775,582.294,230.5Z" transform="translate(-461.369 -167.688)" fill="#0b0755"/>
              <path id="Path_1779" data-name="Path 1779" d="M583.353,461.555s-28.45,8.179-36.02,17.38-16.771,55.307-14.215,67.526,44.985,46.98,44.985,46.98l13.8-11.37-5.623-10.457s23.685,5.437,38.68,0L624.28,543.1s6.475,12.855,20.788,12.855,34.42-38.482,34.42-38.482l-10.564-8.206s-14.182,13.795-23.7,16.377a3.791,3.791,0,0,1-4.679-2.659c-2.652-9.936-11.592-41.711-19.327-49.16C612.012,464.963,583.353,461.555,583.353,461.555Z" transform="translate(-508.022 -398.944)" fill="#fff"/>
              <path id="Path_1780" data-name="Path 1780" d="M946.748,671.226a.178.178,0,0,1-.178-.172l-.681-20.2a.183.183,0,0,1,.022-.092c.036-.064,3.556-6.511,3.556-12.864,0-6.328-7.034-13.435-7.1-13.506a.178.178,0,0,1,.251-.251c.072.072,7.209,7.284,7.209,13.757,0,6.169-3.264,12.409-3.577,12.992l.68,20.155a.177.177,0,0,1-.171.183Z" transform="translate(-830.49 -526.892)" fill="#060633"/>
              <path id="Path_1781" data-name="Path 1781" d="M703.018,720.545a.177.177,0,0,1-.145-.075l-20.647-29.33A6.889,6.889,0,0,1,681,686.571l3.184-35.895a.169.169,0,0,1,.193-.161.178.178,0,0,1,.161.193L681.352,686.6a6.534,6.534,0,0,0,1.164,4.333l20.647,29.33a.178.178,0,0,1-.145.28Z" transform="translate(-624.758 -547.696)" fill="#060633"/>
              <path id="Path_1782" data-name="Path 1782" d="M884.077,305.759s1.647-2.367,2.883-1.36c3.15,2.567-.4,5.8-2.55,6.461Z" transform="translate(-784.647 -275.03)" fill="#ea6868"/>
              <path id="Path_1783" data-name="Path 1783" d="M722.98,172.391a19.6,19.6,0,0,0-17.208,27.155c2.547,6.885,4.655,12.433,7.342,16.5a19.506,19.506,0,0,1,3.09,13.945l-.818,4.921c11.271,5.96,16.367,1.319,16.367,1.319l.281-12.347h0c12.364-1.19,11.239-23.983,11.392-30.71l-.019,0c.015-.252.031-.5.036-.759A19.6,19.6,0,0,0,722.98,172.391Z" transform="translate(-643.083 -171.293)" fill="#fb9391"/>
              <path id="Path_1784" data-name="Path 1784" d="M708.006,188.3a83.6,83.6,0,0,0-6.747,7.737c-2.268,2.827-4.616,5.828-5.189,9.407-3.124-2.489-5.078-6.141-6.711-9.786a18.427,18.427,0,0,1-1.693-5.269,20.47,20.47,0,0,1,1.077-7.742c.892-3.266,1.858-6.666,4.151-9.156a16.276,16.276,0,0,1,5.575-3.673,27.574,27.574,0,0,1,15.317-2.223,19.86,19.86,0,0,1,13.085,7.884c3.856,5.524,4.136,12.7,4.278,19.436-.614-2.808-2.406-5.19-4.152-7.474a16.8,16.8,0,0,0-3.861-4.029c-2.661-1.755-3.424-1.4-8.083-4.719C713.724,182.817,711.077,185.317,708.006,188.3Z" transform="translate(-629.968 -167.298)" fill="#0b0755"/>
              <path id="Path_1785" data-name="Path 1785" d="M710.938,318.948a2.911,2.911,0,0,0-1.494-1.417c-1.341-.576-3.713-1.227-5.391.377-2.462,2.352,2.235,8.842,7.093,5.781C711.146,323.688,712.545,322.352,710.938,318.948Z" transform="translate(-642.397 -285.067)" fill="#fb9391"/>
              <circle id="Ellipse_43" data-name="Ellipse 43" cx="1.711" cy="1.711" r="1.711" transform="translate(92.773 28.926)" fill="#060633"/>
              <circle id="Ellipse_44" data-name="Ellipse 44" cx="1.711" cy="1.711" r="1.711" transform="translate(76.59 30.369)" fill="#060633"/>
              <path id="Path_1786" data-name="Path 1786" d="M816.277,358.977s-2.328-1.37-3.193-1.1a2.549,2.549,0,0,0-1.312,1.34,1.976,1.976,0,0,0-1.619-1.018c-1.063.018-4.547,2.136-4.547,2.136s3.488,4.418,6.688,3.727c3.259-.7,3.983-5.085,3.983-5.085Z" transform="translate(-722.873 -317.298)" fill="#ea6868"/>
              <path id="Path_1787" data-name="Path 1787" d="M763.109,291.808a.712.712,0,0,1-.528-1.229,8.541,8.541,0,0,1,5.339-2.013.712.712,0,0,1,.722.7.728.728,0,0,1-.7.722,7.11,7.11,0,0,0-4.389,1.63A.711.711,0,0,1,763.109,291.808Z" transform="translate(-688.826 -262.763)" fill="#0b0755"/>
              <path id="Path_1788" data-name="Path 1788" d="M847.492,280.449a.711.711,0,0,1,.217-1.32,8.447,8.447,0,0,1,5.583,1.176.711.711,0,1,1-.747,1.211,7.081,7.081,0,0,0-4.575-.989A.713.713,0,0,1,847.492,280.449Z" transform="translate(-755.56 -255.268)" fill="#0b0755"/>
              <path id="Path_1789" data-name="Path 1789" d="M822.25,316.284a3.045,3.045,0,0,0,2.817-2.639.6.6,0,0,0-.125-.426,8.849,8.849,0,0,1-1.5-5.521.6.6,0,0,0-1.193-.107,10.05,10.05,0,0,0,1.584,6.146c-.129.469-.639,1.515-2.558,1.376a.6.6,0,1,0-.087,1.195A5.332,5.332,0,0,0,822.25,316.284Z" transform="translate(-734.702 -277.312)" fill="#ea6868"/>
              <path id="Path_1790" data-name="Path 1790" d="M805.6,364.539a101.473,101.473,0,0,0,10.671-1.358s-1.821,3.371-4.313,3.467S805.6,364.539,805.6,364.539Z" transform="translate(-722.872 -321.501)" fill="#fff"/>
            </g>
          </g>
        </g>
      </g>
    </g>
  </g>
</svg>
