<svg xmlns="http://www.w3.org/2000/svg" xmlns:xlink="http://www.w3.org/1999/xlink" width="682.408" height="388.691" viewBox="0 0 682.408 388.691">
  <defs>
    <clipPath id="clip-path">
      <path id="Path_2017" data-name="Path 2017" d="M1395.111,421.632c-20.007-19.8-42.416-32.978-71.34-31.137-25.755,1.64-51.17,14.067-66.7,34.945-14.714,19.777-22.756,44.221-29.535,67.366-5.5,18.783-9.493,37.292-21.206,53.475-9.147,12.637-21.4,21.56-32.275,32.472-20.288,20.352-32.426,50.968-25.262,79.582,10.351,41.344,49.827,56.422,88.726,57.408,21.414.542,42.81-1.123,64.222-1.106,37.938.032,75.916.3,113.958.024,36.271-.26-4.358,1.7,31.857-.459,24.326-1.452-45.121.109-20.644-.446a281.832,281.832,0,0,0,31.25-2.256c29.54-3.975,66.212-12.683,89.841-34.773,20.673-19.325,38.315-49.369,30.973-80.916-12.088-51.934-71.481-51.723-101.1-84.137-13.4-14.667-20.892-34.838-33.293-50.51Z" transform="translate(-1146.717 -390.323)"/>
    </clipPath>
    <clipPath id="clip-path-2">
      <path id="Path_1992" data-name="Path 1992" d="M1764.833,928.94a179.069,179.069,0,0,1-4.875-17.381c-2.312-11.982,1.771-25.025,2.917-36.96a276.73,276.73,0,0,0,1.177-33.521c-.213-8.342.326-19.67-5.492-26.4-3.607-4.173-10.386-6.194-15.57-7.448-11.528-2.789-24.562-2.4-36.288-1.15-7.524.8-15.4,3.48-20.632,9.191-5.579,6.091-8.142,13.817-9.9,21.73a101.7,101.7,0,0,0-2.213,25.973c.32,8.5,3.026,16.582,4.868,24.824a88.536,88.536,0,0,1,.855,34.637c-2.653,14.972-3.194,28.762-5.29,46.784,32.9,2.206,64.847-.68,97.612-4.389C1769.586,952.278,1768.8,941.527,1764.833,928.94Z" transform="translate(-1673.875 -805.126)" fill="#0c7bc2"/>
    </clipPath>
  </defs>
  <g id="Layer_2" transform="translate(-217.753 -291.364)">
    <g id="Group_673" data-name="Group 673" transform="translate(217.754 315.759)">
      <path id="Path_1892" data-name="Path 1892" d="M669.25,686.408c-24.477.555-48.97-1.005-73.3.447-36.215,2.161-72.948.2-109.219.459-38.042.273-76.02.007-113.958-.024-21.412-.018-42.808,1.648-64.223,1.105-38.9-.985-78.376-16.064-88.726-57.408-7.164-28.614,4.974-59.23,25.262-79.581,10.879-10.913,23.128-19.836,32.275-32.472,11.713-16.182,15.7-34.692,21.206-53.475,6.779-23.144,14.822-47.589,29.535-67.365,15.533-20.879,40.947-33.306,66.7-34.945,28.925-1.841,51.333,11.333,71.34,31.137,17.289,17.113,34.3,32.52,58.864,37.565,26.69,5.482,54.631.164,79.907-8.942,29.849-10.753,58.5-18.785,82,10.909,12.4,15.672,19.891,35.843,33.293,50.51,29.619,32.414,89.012,32.2,101.1,84.137,7.342,31.546-10.3,61.59-30.973,80.916-23.629,22.09-60.3,30.8-89.841,34.773A281.343,281.343,0,0,1,669.25,686.408Z" transform="translate(-217.757 -362.976)" fill="#fff"/>
    </g>
    <path id="Path_1893" data-name="Path 1893" d="M1400.157,315.623c-.2-1.2,1.386-3.611,3.115-3.572.687.015,1.36.193,2.045.16,1.829-.09,2.777-1.513,3.482-2.692s2.108-2.523,3.891-2.224c2.566.431,3.859,3.817,6.776,1.275,1.909-1.664,2.053-3.991,4.215-5.6a7.053,7.053,0,0,1,5.887-1.152c2.6.8,3.563,3.373,6.327,3.821,3.062.5,5.264-1.834,6.242-3.514,1.186-2.039,1.627-4.243,2.643-6.318.941-1.921,2.832-4.493,6.221-4.437,2.866.047,4.128,1.861,5.535,3.3,1.829,1.873,5.631,8.6,9.894,7.787,1.663-.316,2.492-1.637,3.992-2.228,2.412-.95,5.486.356,6.938,2s2.028,3.627,3.67,5.182a3.8,3.8,0,0,0,1.608.964c2.293.628,4.428-1.3,6.883-1.446a5.718,5.718,0,0,1,4.241,1.668,21.048,21.048,0,0,1,2.25,3.183,2.382,2.382,0,0,0,.818.8c1.077.577,2.593.091,3.912-.136,3.26-.561,6.963.935,7.883,3.185Z" transform="translate(-779.606)" fill="#f5f5fe"/>
    <path id="Path_1894" data-name="Path 1894" d="M670.634,456.113c.146-.886-1.026-2.673-2.306-2.644-.509.011-1.007.143-1.515.118a3.3,3.3,0,0,1-2.578-1.993,2.976,2.976,0,0,0-2.881-1.647c-1.9.319-2.857,2.826-5.017.944-1.414-1.232-1.52-2.955-3.121-4.15a5.221,5.221,0,0,0-4.359-.853c-1.923.591-2.638,2.5-4.684,2.829-2.268.368-3.9-1.358-4.622-2.6-.878-1.509-1.2-3.142-1.957-4.677a5.148,5.148,0,0,0-4.606-3.286c-2.122.035-3.056,1.378-4.1,2.444-1.354,1.386-4.169,6.366-7.325,5.765-1.231-.234-1.846-1.212-2.956-1.649a5.047,5.047,0,0,0-5.137,1.48c-1.076,1.217-1.5,2.685-2.718,3.836a2.807,2.807,0,0,1-1.19.714c-1.7.465-3.279-.965-5.1-1.071a4.238,4.238,0,0,0-3.14,1.235,15.643,15.643,0,0,0-1.666,2.357,1.761,1.761,0,0,1-.605.59c-.8.427-1.92.067-2.9-.1-2.414-.416-5.156.693-5.837,2.358Z" transform="translate(-245.654 -96.784)" fill="#fff"/>
    <path id="Path_1895" data-name="Path 1895" d="M1304.492,635.263c.147-.886-1.026-2.674-2.306-2.645-.509.011-1.007.144-1.515.119a3.3,3.3,0,0,1-2.578-1.993,2.976,2.976,0,0,0-2.881-1.647c-1.9.319-2.858,2.826-5.017.944-1.414-1.232-1.52-2.955-3.121-4.15a5.222,5.222,0,0,0-4.358-.853c-1.923.591-2.638,2.5-4.685,2.829-2.268.367-3.9-1.357-4.621-2.6-.878-1.509-1.2-3.141-1.957-4.678a5.148,5.148,0,0,0-4.606-3.286c-2.122.035-3.057,1.378-4.1,2.444-1.355,1.386-4.169,6.366-7.326,5.766-1.231-.234-1.846-1.212-2.956-1.649a5.046,5.046,0,0,0-5.137,1.48c-1.076,1.217-1.5,2.685-2.718,3.837a2.812,2.812,0,0,1-1.19.714c-1.7.465-3.279-.965-5.1-1.071a4.237,4.237,0,0,0-3.14,1.235,15.635,15.635,0,0,0-1.667,2.357,1.767,1.767,0,0,1-.605.591c-.8.427-1.92.067-2.9-.1-2.414-.415-5.156.692-5.837,2.359Z" transform="translate(-663.587 -214.906)" fill="#fff"/>
    <g id="Group_730" data-name="Group 730" transform="translate(217.753 455.459)">
      <g id="Group_678" data-name="Group 678" transform="translate(173.749)">
        <g id="Group_677" data-name="Group 677">
          <path id="Path_1896" data-name="Path 1896" d="M1007.551,1126.237c-6.712-9.03-12.825-18.925-18.965-27.905-2.48-3.626-4.961-7.408-6.14-11.5-2.894-10.042,2.27-17.46,11.516-14.249,8.926,3.1,13.659,13.278,18.922,21.21,6.407,9.654,14.94,22.916,17.658,33.919,1.268,5.135.563,10.7-2.951,13.115a6.084,6.084,0,0,1-5.585.679c-2-.736-3.757-2.448-5.349-4.169A134.024,134.024,0,0,1,1007.551,1126.237Z" transform="translate(-895.172 -970.053)" fill="#f8a17a"/>
          <path id="Path_1897" data-name="Path 1897" d="M1017.833,1101.019s-24.17,15.01-26.277,16.749c-.54.446-8.55-8.067-9.283-8.883a57.732,57.732,0,0,1-8.684-12.269c-4.5-8.866-5.39-21.722,5.06-26.9,9.487-4.7,17.125,2.546,23.06,9.164C1007.742,1085.608,1017.833,1101.019,1017.833,1101.019Z" transform="translate(-887.76 -967.673)" fill="#db4b2d"/>
          <path id="Path_1898" data-name="Path 1898" d="M1044,997.42c-.235-2.032-1.62-3.584-2.248-5.47-.944-2.834-2.4-6.157-1.359-9.14.314-.9.861-1.7,1.155-2.606.692-2.126-.144-3.254-.845-5.068-.748-1.935.82-3.944,2.06-5.323a57.834,57.834,0,0,1,4.616-4.588c1.228-1.091,2.633-2.181,4.275-2.242,2.722-.1,4.641,2.545,6.033,4.886,1.749,2.942,3.564,6.19,3.069,9.576-.391,2.673-2.068,5.2-3.18,7.626s-1.884,5.007-2.966,7.471a7.222,7.222,0,0,0-.159,3.592,5.6,5.6,0,0,1-.153,2.582,4.464,4.464,0,0,1-1.994,2.062,8.377,8.377,0,0,1-5.335,1.257c-1.373-.217-2.853-.454-3-2.1-.059-.669.074-1.34.063-2.012C1044.03,997.753,1044.017,997.586,1044,997.42Z" transform="translate(-933.671 -898.288)" fill="#f8a17a"/>
          <path id="Path_1899" data-name="Path 1899" d="M1041.755,980.2c.692-2.127-.144-3.253-.845-5.068-.748-1.935.82-3.944,2.06-5.324a58,58,0,0,1,4.616-4.588c1.229-1.09,2.633-2.18,4.275-2.241a4.181,4.181,0,0,1,2.214.555,19.7,19.7,0,0,0-1.442,3.171c-.32,1.763.5,3.471.432,5.23a15.129,15.129,0,0,1-.977,4.1c-1.868,5.589-5.782,10.091-11.444,11.85a8.722,8.722,0,0,1-.045-5.081C1040.914,981.913,1041.462,981.109,1041.755,980.2Z" transform="translate(-933.808 -898.288)" fill="#e5785c"/>
          <path id="Path_1900" data-name="Path 1900" d="M862.68,1144.873q3.41-22.174,6.545-44.389c1.757-12.345,6.6-31.446-3.082-41.791a17.176,17.176,0,0,0-7.29-4.51c-1.827-.594-19.892-4.722-19.914-4.592l0-.014c-.229-.038-.458-.069-.687-.105s-.456-.081-.685-.118l0,.013c-6.426-.976-12.933-1.4-19.39-1.9-14.828-1.154-21.22,14.749-23.971,26.692-3.893,16.9-7.105,33.954-10.138,51.03-1.488,8.379-2.93,16.766-4.39,25.15-1.394,8.006-4.546,13.626,4.133,17.281,12.924,5.443,26.615,7.377,40.417,9.412,8.67,1.279,28.4,4.465,33.483-5.45a22.343,22.343,0,0,0,1.816-6.707Q861.143,1154.88,862.68,1144.873Z" transform="translate(-760.874 -953.957)" fill="#e85a3d"/>
          <path id="Path_1901" data-name="Path 1901" d="M751.784,1116.957c7.311-8.552,14.082-18.009,20.819-26.551,2.721-3.45,5.453-7.054,6.908-11.058,3.57-9.823-1.078-17.575-10.521-15-9.116,2.486-14.53,12.318-20.321,19.874-7.048,9.2-16.463,21.847-19.923,32.64-1.615,5.037-1.29,10.638,2.052,13.285a6.085,6.085,0,0,0,5.526,1.058c2.048-.6,3.915-2.187,5.62-3.8A134.668,134.668,0,0,0,751.784,1116.957Z" transform="translate(-727.804 -964.796)" fill="#f8a17a"/>
          <path id="Path_1902" data-name="Path 1902" d="M940.387,1018.742c.376-1.821.14-3.316-1.541-4.277-1.53-.875-1-3.219-.89-4.631a61.938,61.938,0,0,1,.812-7.126c.539-2.818,1.023-5.651,1.639-8.451a38.812,38.812,0,0,0-8.975-2.249c-2.8-.352-5.538-1.062-8.344-1.371a1.084,1.084,0,0,0-.652.062.747.747,0,0,0-.294.5c-1,3.76-1.26,7.689-2.176,11.469-.5,2.082-1.807,7.966-4.627,8.105a3.214,3.214,0,0,0-.744.048,1.352,1.352,0,0,0-.781.77c-1.664,3.548,1.1,8.041,3.637,10.409a16.87,16.87,0,0,0,10.119,4.208C933.25,1026.686,939.093,1025.013,940.387,1018.742Z" transform="translate(-850.117 -916.511)" fill="#f8a17a"/>
          <path id="Path_1903" data-name="Path 1903" d="M949.177,1009.541a61.346,61.346,0,0,1,.874-6.886c.539-2.817,1.023-5.651,1.639-8.451a38.766,38.766,0,0,0-8.975-2.249c-2.8-.352-5.538-1.062-8.344-1.371a1.092,1.092,0,0,0-.652.062.748.748,0,0,0-.294.5c-1,3.759-1.342,7.708-2.259,11.489a25.252,25.252,0,0,1-.872,3.229c.382.409.726.756,1.135,1.129a16.006,16.006,0,0,0,11.858,3.946A18.755,18.755,0,0,0,949.177,1009.541Z" transform="translate(-861.316 -916.476)" fill="#e5785c"/>
          <path id="Path_1904" data-name="Path 1904" d="M1050,1046.108a2.285,2.285,0,0,1,.172-.488,3.5,3.5,0,0,1,2.01-1.511,13.831,13.831,0,0,1,4.193-.894c1.383-.075,3.006.2,3.665,1.418,1.271,2.348,1.085,5.215,1.723,7.748,3.279,13.017,9.816,25.167,13.826,38,2.252,7.2,8.753,27.71-3.007,30.113a7.805,7.805,0,0,1-6.015-1.766c-3.747-2.8-5.89-7.373-7.463-11.871-6.522-18.636-8.744-39.775-9.19-59.369A5.666,5.666,0,0,1,1050,1046.108Z" transform="translate(-940.186 -951.184)" fill="#f8a17a"/>
          <path id="Path_1905" data-name="Path 1905" d="M760.673,1078.733s23.236,16.722,25.233,18.612c.511.484,9.134-7.513,9.926-8.282a58.1,58.1,0,0,0,9.557-11.723c5.125-8.592,6.9-21.437-3.239-27.351-9.2-5.37-17.365,1.384-23.776,7.622C771.857,1063.953,760.673,1078.733,760.673,1078.733Z" transform="translate(-749.476 -954.37)" fill="#db4b2d"/>
          <g id="Group_676" data-name="Group 676" transform="translate(42.978)">
            <path id="Path_1906" data-name="Path 1906" d="M880.86,851.463c4.27,4.451,10,7.17,15.65,9.633a17.894,17.894,0,0,0,4.293,1.441c4.587.724,8.96-2.051,12.524-5.027a74.434,74.434,0,0,0,13.015-14.1c7.1-10.027,10.1-22.455,9.673-34.639a75.709,75.709,0,0,0-3.1-18.014c-1.4-4.956-3.678-9.978-9.115-11.434-3.822-1.023-7.9.3-11.822-.239-3.691-.509-7.011-2.641-10.705-3.127-8.035-1.057-14.961,5.7-22.926,7.193-3.769.706-7.823.236-11.3,1.859-5.676,2.649-7.619,9.733-7.986,15.985-1.072,18.257,5.394,35.181,18.848,47.362C878.965,849.313,879.865,850.426,880.86,851.463Z" transform="translate(-857.25 -774.902)" fill="#0b2d4e"/>
            <path id="Path_1907" data-name="Path 1907" d="M904.105,866.446a47.939,47.939,0,0,1,1.36-14.993c5.152-18.847,28.864-24.952,44.122-12.648,17.015,13.721,13.012,49.413-3.2,62.908a19.77,19.77,0,0,1-16.025,4.11C913.429,902.613,905.038,883.4,904.105,866.446Z" transform="translate(-886.968 -812.195)" fill="#f8a17a"/>
            <path id="Path_1908" data-name="Path 1908" d="M886.995,853.729q.184-.6.4-1.19c7.345-20.167,32.171-20.517,48.9-12.02,3.5,1.779,8.684,4.387,10.6,7.91a15.118,15.118,0,0,1,1.485,6.256,49.16,49.16,0,0,1-.7,12.225,48.063,48.063,0,0,0-3.707-10.274,16.615,16.615,0,0,0-7.765-7.568c-3.132-1.334-6.673-1.366-10.091-1.215-4.847.214-9.811.789-14.111,2.989a25.349,25.349,0,0,0-10.532,11.036A44.686,44.686,0,0,0,896.841,876c-.278,1.958-.8,8.445-4.258,7.56a40.194,40.194,0,0,1-5.26-3.257,54.889,54.889,0,0,1-1.915-11.569A43.528,43.528,0,0,1,886.995,853.729Z" transform="translate(-874.644 -814.08)" fill="#e5785c"/>
            <path id="Path_1909" data-name="Path 1909" d="M886.29,850.213c-1.4,6.53-.657,14.5-3.733,20.565-4.541-1.848-5.728-6.671-7.776-10.748a76.9,76.9,0,0,1-5.667-13.3,27.525,27.525,0,0,1-1.044-10.848c.382-3.072,2.355-4.912,4.492-7.152,8.2-8.6,21.085-13.609,33.855-13.724,4.485-.04,8.238,1.216,12.516,2.086,3.929.8,6.925,1.291,9.978,4.148a28.214,28.214,0,0,1,6.1,9.165,41.127,41.127,0,0,1,4.05,17.153c-.011,3.832.238,7.607-3.514,9.965.489-.307.175-12.682.077-14.48-.648-11.919-11.663-13.334-21.637-12.362-8.987.876-18.9,3.06-23.966,10.306A24.854,24.854,0,0,0,886.29,850.213Z" transform="translate(-863.156 -800.723)" fill="#0b2d4e"/>
            <path id="Path_1910" data-name="Path 1910" d="M889.295,939.412c-7.319-3.423-8.881,6.511-7.356,11.31a15.588,15.588,0,0,0,2.9,5.474c1.824,2.125,6.872,5.523,9.492,2.907,1.189-1.187,1.2-3.077,1.133-4.756C895.287,949.847,894.257,941.733,889.295,939.412Z" transform="translate(-872.061 -882.286)" fill="#f8a17a"/>
            <path id="Path_1911" data-name="Path 1911" d="M1051.522,927.243c6.745-4.45,9.732,5.153,8.921,10.122a15.587,15.587,0,0,1-2.077,5.837c-1.5,2.367-6,6.463-8.97,4.255-1.348-1-1.634-2.87-1.812-4.541C1047.108,938.438,1046.948,930.259,1051.522,927.243Z" transform="translate(-981.477 -873.97)" fill="#f8a17a"/>
            <path id="Path_1912" data-name="Path 1912" d="M925.441,784.545c.355-2.111-1.1-4.171-2.923-5.3a25.076,25.076,0,0,0-6.016-2.183c-3.192-.977-6.219-2.465-9.456-3.282a24.018,24.018,0,0,0-16.838,1.985c-3.158,1.653-6.15,4.08-9.713,4.2-3.459.115-6.607-2-10.038-2.447a12.86,12.86,0,0,0-10.452,3.91,21.118,21.118,0,0,0-5.28,10.116,31.165,31.165,0,0,0,.244,14.578c1.132,5.144,1.828,9.8,4.528,14.477" transform="translate(-853.969 -773.074)" fill="none" stroke="#0b2d4e" stroke-miterlimit="10" stroke-width="4"/>
            <g id="Group_675" data-name="Group 675" transform="translate(8.593 10.424)">
              <g id="Group_674" data-name="Group 674">
                <path id="Path_1913" data-name="Path 1913" d="M880.049,825.63a20.182,20.182,0,0,1-.828-6.927,14.165,14.165,0,0,1,2-6.773,7.334,7.334,0,0,1,.517-.745l.284-.356.142-.178.153-.164.619-.649.669-.6a13.221,13.221,0,0,1,3.038-1.942,13.758,13.758,0,0,1,3.452-1.036,19.416,19.416,0,0,1,3.565-.237,35.2,35.2,0,0,1,3.519.288,12.2,12.2,0,0,0,3.324-.052,52.966,52.966,0,0,0,6.641-1.795,21.345,21.345,0,0,1,3.466-.71,14.561,14.561,0,0,1,3.548.066,14.061,14.061,0,0,1,6.436,2.65,14.972,14.972,0,0,0-6.5-2.11,14.066,14.066,0,0,0-3.392.112,22.129,22.129,0,0,0-3.314.818c-1.091.351-2.176.753-3.29,1.115a23.051,23.051,0,0,1-3.44.888,12.821,12.821,0,0,1-3.611.09c-1.148-.133-2.277-.235-3.413-.255a18.306,18.306,0,0,0-3.369.2,13.344,13.344,0,0,0-3.2.925,12.215,12.215,0,0,0-2.843,1.729l-.636.547-.6.594-.15.148-.135.157-.27.315a6.527,6.527,0,0,0-.5.665,12.13,12.13,0,0,0-1.462,3.017,15.918,15.918,0,0,0-.718,3.331A22.484,22.484,0,0,0,880.049,825.63Z" transform="translate(-879.194 -803.675)" fill="#73b8d4"/>
              </g>
            </g>
          </g>
        </g>
        <g id="Expression" transform="matrix(0.914, 0.407, -0.407, 0.914, 775.128, -2842.729)">
          <ellipse id="Ellipse_13" data-name="Ellipse 13" cx="1.779" cy="3.645" rx="1.779" ry="3.645" transform="translate(545.156 2931.764) rotate(-25)" fill="#263238"/>
          <ellipse id="Ellipse_14" data-name="Ellipse 14" cx="1.779" cy="3.645" rx="1.779" ry="3.645" transform="translate(560.953 2924.946) rotate(-25)" fill="#263238"/>
          <path id="Path_202" data-name="Path 202" d="M0,0S0,5.223,6.466,3.98" transform="translate(556.446 2941.903) rotate(-52)" fill="none" stroke="#263238" stroke-linecap="round" stroke-linejoin="round" stroke-miterlimit="10" stroke-width="1"/>
          <path id="Path_203" data-name="Path 203" d="M0,.249S5.223,3.481,12.434,0" transform="translate(559.229 2950.17) rotate(-25)" fill="none" stroke="#263238" stroke-linecap="round" stroke-linejoin="round" stroke-miterlimit="10" stroke-width="1"/>
          <path id="Path_204" data-name="Path 204" d="M0,2.976A5.737,5.737,0,0,1,6.715.241" transform="translate(538.247 2927.948) rotate(-25)" fill="none" stroke="#263238" stroke-linecap="round" stroke-linejoin="round" stroke-miterlimit="10" stroke-width="1"/>
          <path id="Path_205" data-name="Path 205" d="M0,.379S5.969-1.362,8.207,2.618" transform="translate(556.445 2919.31) rotate(-25)" fill="none" stroke="#263238" stroke-linecap="round" stroke-linejoin="round" stroke-miterlimit="10" stroke-width="1"/>
        </g>
      </g>
      <g id="Group_682" data-name="Group 682" transform="translate(223.913 124.726)">
        <path id="Path_1914" data-name="Path 1914" d="M1092.319,1188.95c-6.482,8.709-46.756,8.709-46.756,8.709l-28.9-7.572,37.827-15.485S1076.148,1183.054,1092.319,1188.95Z" transform="translate(-968.428 -1162.548)" fill="#d1d1d3"/>
        <path id="Path_1915" data-name="Path 1915" d="M891.157,1243.657H912l2.557-6.417-22.119-2.609Z" transform="translate(-885.674 -1202.127)" fill="#808185"/>
        <path id="Path_1916" data-name="Path 1916" d="M1149.4,1235.229c-6.794,3.471-40.773-4.413-47.913,2v6.417h51.269Z" transform="translate(-1024.356 -1202.123)" fill="#aeb3b7"/>
        <path id="Path_1917" data-name="Path 1917" d="M880.753,1228.106c12.71,1.889,26.94,3.2,26.94,3.2l48.531,4.966-28.9-7.572S896.921,1222.206,880.753,1228.106Z" transform="translate(-878.814 -1196.192)" fill="#d1d1d3"/>
        <path id="Path_1918" data-name="Path 1918" d="M955.686,1235.229c6.794,3.471,40.773-4.413,47.913,2v6.417H952.33Z" transform="translate(-926.008 -1202.123)" fill="#aeb3b7"/>
        <path id="Path_1919" data-name="Path 1919" d="M1045.557,1174.328s-18.749-4.03-28.9-7.572c0-14.822,26.583-22.9,28.9-27.541,10.631,4.36,31.9,10.983,46.756,15.7C1079.1,1166.755,1050.882,1163.921,1045.557,1174.328Z" transform="translate(-968.425 -1139.216)" fill="#fff"/>
        <path id="Path_1920" data-name="Path 1920" d="M875.062,1204.807c12.773,3,28.879,11.528,28.879,11.528H952.2l-28.9-7.572S891.231,1198.907,875.062,1204.807Z" transform="translate(-875.062 -1181.222)" fill="#fff"/>
        <path id="Path_1921" data-name="Path 1921" d="M1086.83,1250.1l3.324-3.325a2.813,2.813,0,0,1,3.978,0l3.325,3.325-5.314,2.888Z" transform="translate(-1014.691 -1209.591)" fill="#381f7a"/>
        <g id="Group_679" data-name="Group 679" transform="translate(4.629 41.311)">
          <path id="Path_1922" data-name="Path 1922" d="M889.856,1260.686l10.206-.055,5.1-.028c.845,0,1.711.066,2.556-.013.705-.066,1.338-.283,1.993.223a1.867,1.867,0,0,1,.657,1.7c-.264,1.7-3.064,1.039-3.968,1.044l-5.631.03-11.092.06C888.2,1263.66,888.375,1260.7,889.856,1260.686Z" transform="translate(-888.652 -1260.487)" fill="#381f7a"/>
        </g>
        <g id="Group_680" data-name="Group 680" transform="translate(24.033 39.02)">
          <path id="Path_1923" data-name="Path 1923" d="M947.041,1256.108l46.731-2.345a1.521,1.521,0,0,1,1.432,1.09c-.175-.454.288.3.461.42a6.156,6.156,0,0,0,3.421.835c1.9.077,1.913,3.045,0,2.968-2.564-.1-5.707-.741-6.745-3.434l1.431,1.09-46.731,2.344c-1.91.1-1.9-2.873,0-2.968Z" transform="translate(-945.611 -1253.761)" fill="#8070f2"/>
        </g>
        <g id="Group_681" data-name="Group 681" transform="translate(76.076 39.022)">
          <path id="Path_1924" data-name="Path 1924" d="M1151.863,1259.083l-46.731-2.344,1.432-1.09c-1.039,2.694-4.181,3.331-6.745,3.434-1.91.077-1.907-2.892,0-2.969a6.318,6.318,0,0,0,3.421-.835c.178-.12.636-.874.461-.419a1.53,1.53,0,0,1,1.431-1.09l46.731,2.345c1.9.093,1.911,3.064,0,2.968Z" transform="translate(-1098.387 -1253.768)" fill="#8070f2"/>
        </g>
      </g>
      <path id="Path_1925" data-name="Path 1925" d="M797.019,1230.475c1.712-3.834-1.038-7.14-4.483-8.353a114.03,114.03,0,0,0-12.258-3.084c-4.415-1.026-8.836-2.029-13.286-2.891a125.626,125.626,0,0,0-26.115-2.489c-5.585.107-15,.771-15.464,8.2a7.761,7.761,0,0,0,2.4,5.634c3.079,3.235,7.615,4.606,12,5.429,16.21,3.041,33.224,1.209,49.622.791,2.452-.063,5.2-.255,6.831-2.084A4.388,4.388,0,0,0,797.019,1230.475Z" transform="translate(-552.471 -1063.562)" fill="#f8a17a"/>
      <path id="Path_1926" data-name="Path 1926" d="M909.955,1237.312c2.385.247,4.417,2.115,6.811,2.568a8.022,8.022,0,0,0,4.992-.876c1.41-.7,2.872-1.142,4.328-1.775,1.135-.494,2.639-1.444,3.925-1.309,3.371.355,6.9,2.374,10.048,3.6a3.494,3.494,0,0,0,2.208.339c.728-.216,1.256-1.178.771-1.762.942.718,2.244,2.212,3.571,1.448a1.167,1.167,0,0,0,.44-1.605,4.712,4.712,0,0,0,1.772,1.159,1.614,1.614,0,0,0,1.867-.638,1.907,1.907,0,0,0,.158-.982,7.255,7.255,0,0,0-1.1-3.244c-2.875-4.907-8.591-8.188-13.435-10.8a9.831,9.831,0,0,0-2.684-1.118,8.965,8.965,0,0,0-2.6-.026,51.6,51.6,0,0,0-16.316,4.349,7.213,7.213,0,0,1-3.59.2,5.6,5.6,0,0,0-2.58.185,4.453,4.453,0,0,0-2.038,2.018,8.376,8.376,0,0,0-1.194,5.35c.233,1.37.488,2.848,2.14,2.974.669.051,1.34-.089,2.011-.087A4,4,0,0,1,909.955,1237.312Z" transform="translate(-671.036 -1069.213)" fill="#f8a17a"/>
      <path id="Path_1927" data-name="Path 1927" d="M225.2,1281.813H628.918c4.112,0,7.447-3.726,7.447-8.323h0c0-4.6-3.334-8.323-7.447-8.323H225.2c-4.113,0-7.446,3.726-7.446,8.323h0C217.753,1278.086,221.087,1281.813,225.2,1281.813Z" transform="translate(-217.753 -1097.536)" fill="#b9e1f6"/>
      <g id="Group_687" data-name="Group 687" transform="translate(347.803 89.734)">
        <g id="Group_683" data-name="Group 683" transform="translate(23.788 12.414)">
          <path id="Path_1928" data-name="Path 1928" d="M1311.373,1195.391h0a.608.608,0,0,0,.719-.472l1.037-4.975a.608.608,0,0,0-.471-.719h0a.608.608,0,0,0-.72.472l-1.037,4.975A.612.612,0,0,0,1311.373,1195.391Z" transform="translate(-1310.103 -1149.602)" fill="#00a3d5"/>
          <path id="Path_1929" data-name="Path 1929" d="M1332.069,1082.22h0a1.688,1.688,0,0,0,1.99-1.3l1.242-5.955a1.688,1.688,0,0,0-1.3-1.991h0a1.687,1.687,0,0,0-1.99,1.3l-1.242,5.955A1.687,1.687,0,0,0,1332.069,1082.22Z" transform="translate(-1323.186 -1072.936)" fill="#00a3d5"/>
          <path id="Path_1930" data-name="Path 1930" d="M1311.479,1180.95h0a1.687,1.687,0,0,0,1.991-1.3l1.242-5.955a1.687,1.687,0,0,0-1.3-1.99h0a1.688,1.688,0,0,0-1.99,1.3l-1.242,5.955A1.691,1.691,0,0,0,1311.479,1180.95Z" transform="translate(-1309.61 -1138.034)" fill="#00a3d5"/>
          <path id="Path_1931" data-name="Path 1931" d="M1317.286,1085.409l3.714.774a1.717,1.717,0,0,1,1.331,2.032l-3.156,15.134-3.935,15.06a1.717,1.717,0,0,1-2.012,1.247l-2.2-.458a1.718,1.718,0,0,1-1.346-1.948l2.413-15.376,3.156-15.134A1.72,1.72,0,0,1,1317.286,1085.409Z" transform="translate(-1309.294 -1081.136)" fill="#6dc9f0"/>
          <path id="Path_1932" data-name="Path 1932" d="M1316.516,1133.242l5.816,1.213a1,1,0,0,0,1.185-.776h0a1,1,0,0,0-.776-1.186l-5.816-1.214a1,1,0,0,0-1.185.776h0A1,1,0,0,0,1316.516,1133.242Z" transform="translate(-1313.287 -1111.391)" fill="#00a3d5"/>
          <path id="Path_1933" data-name="Path 1933" d="M1309.207,1098.8h0a.791.791,0,0,0,.932-.61l2.98-14.293a.789.789,0,0,0-.61-.931h0a.789.789,0,0,0-.931.61l-2.981,14.293A.791.791,0,0,0,1309.207,1098.8Z" transform="translate(-1308.581 -1079.538)" fill="#00a3d5"/>
          <rect id="Rectangle_398" data-name="Rectangle 398" width="1.646" height="4.295" transform="translate(5.073 9.781) rotate(-168.224)" fill="#6dc9f0"/>
        </g>
        <g id="Group_684" data-name="Group 684" transform="translate(15.912)">
          <rect id="Rectangle_399" data-name="Rectangle 399" width="7.632" height="36.27" transform="translate(9.675 43.47) rotate(177.059)" fill="#ffc73c"/>
          <rect id="Rectangle_400" data-name="Rectangle 400" width="4.156" height="36.269" transform="translate(7.96 43.534) rotate(177.059)" fill="#fff" opacity="0.3"/>
          <path id="Path_1934" data-name="Path 1934" d="M1296.047,1176.4l-4.5-11.95,7.743-.4Z" transform="translate(-1289.475 -1120.598)" fill="#0b2d4e"/>
          <path id="Path_1935" data-name="Path 1935" d="M1293.7,1170.161l-2.15-5.716,7.743-.4-1.553,5.907Z" transform="translate(-1289.475 -1120.598)" fill="#ffe9cc"/>
          <rect id="Rectangle_401" data-name="Rectangle 401" width="7.632" height="3.778" transform="translate(7.816 7.247) rotate(177.059)" fill="#0b2d4e"/>
          <path id="Path_1936" data-name="Path 1936" d="M1285.49,1040.5l7.622-.391-.026-.52a3.257,3.257,0,0,0-3.42-3.086l-1.116.057a3.258,3.258,0,0,0-3.086,3.42Z" transform="translate(-1285.459 -1036.494)" fill="#9b87ff"/>
        </g>
        <g id="Group_685" data-name="Group 685" transform="translate(0 7.503)">
          <rect id="Rectangle_402" data-name="Rectangle 402" width="7.632" height="36.27" transform="translate(1.668 12.602) rotate(-24.779)" fill="#ffc73c"/>
          <rect id="Rectangle_403" data-name="Rectangle 403" width="4.156" height="36.27" transform="matrix(0.908, -0.419, 0.419, 0.908, 3.297, 11.893)" fill="#fff" opacity="0.3"/>
          <path id="Path_1937" data-name="Path 1937" d="M1238.75,1058.52l8.618,9.419-7.041,3.25Z" transform="translate(-1238.75 -1058.52)" fill="#0b2d4e"/>
          <path id="Path_1938" data-name="Path 1938" d="M1244.832,1072.94l4.125,4.507-7.041,3.25-.756-6.06Z" transform="translate(-1240.339 -1068.028)" fill="#ffe9cc"/>
          <rect id="Rectangle_404" data-name="Rectangle 404" width="7.632" height="3.778" transform="translate(16.871 45.533) rotate(-24.779)" fill="#51666f"/>
          <path id="Path_1939" data-name="Path 1939" d="M1299.717,1192.51l-6.93,3.2,1.352,2.928a.552.552,0,0,0,.733.27l5.926-2.735a.553.553,0,0,0,.27-.733Z" transform="translate(-1274.379 -1146.866)" fill="#d8584e"/>
        </g>
        <g id="Group_686" data-name="Group 686" transform="translate(10.366 41.108)">
          <rect id="Rectangle_405" data-name="Rectangle 405" width="23.089" height="37.041" fill="#381f7a"/>
          <rect id="Rectangle_406" data-name="Rectangle 406" width="11.545" height="37.041" transform="translate(11.541)" opacity="0.1"/>
        </g>
      </g>
      <g id="Group_729" data-name="Group 729" transform="translate(71.761 63.711)">
        <g id="Group_728" data-name="Group 728">
          <g id="Group_696" data-name="Group 696" transform="translate(8.064 85.67)">
            <g id="Group_689" data-name="Group 689" transform="translate(8.064)">
              <g id="Group_688" data-name="Group 688">
                <path id="Path_1940" data-name="Path 1940" d="M475.756,1230h69.619c5.79,0,10.483-3.653,10.483-8.159v-2.092c0-4.507-4.694-8.16-10.483-8.16H475.756v2.511h64.781c2.227,0,4.032,1.406,4.032,3.139v7.114c0,1.733-1.805,3.138-4.032,3.138H475.756Z" transform="translate(-475.756 -1211.59)" fill="#ffc73c"/>
              </g>
            </g>
            <g id="Group_691" data-name="Group 691">
              <g id="Group_690" data-name="Group 690">
                <path id="Path_1941" data-name="Path 1941" d="M452.083,1230H521.7c5.79,0,10.483-3.653,10.483-8.159v-2.092c0-4.507-4.693-8.16-10.483-8.16H452.083v2.511H521.7c4.008,0,7.258,2.53,7.258,5.65v2.092c0,3.119-3.25,5.649-7.258,5.649H452.083Z" transform="translate(-452.083 -1211.59)" fill="#efb126"/>
              </g>
            </g>
            <g id="Group_692" data-name="Group 692" transform="translate(1.882 2.511)">
              <path id="Path_1942" data-name="Path 1942" d="M457.607,1232.351h68.5a6.7,6.7,0,0,0,6.7-6.7h0a6.7,6.7,0,0,0-6.7-6.7h-68.5Z" transform="translate(-457.607 -1218.96)" fill="#fff"/>
            </g>
            <g id="Group_693" data-name="Group 693" transform="translate(10.819 7.904)">
              <path id="Path_1943" data-name="Path 1943" d="M546.34,1235.174q-7.812-.221-15.624-.3c-5.208-.061-10.416-.077-15.624-.084s-10.416.023-15.624.083-10.416.149-15.624.3q7.812.222,15.624.3c5.208.06,10.416.077,15.624.083s10.416-.023,15.624-.085S541.132,1235.321,546.34,1235.174Z" transform="translate(-483.844 -1234.794)" fill="#dfdbda"/>
            </g>
            <g id="Group_694" data-name="Group 694" transform="translate(2.42 12.05)">
              <path id="Path_1944" data-name="Path 1944" d="M521.682,1247.343q-7.812-.221-15.624-.3c-5.208-.06-10.416-.077-15.624-.084s-10.416.022-15.624.083-10.416.149-15.624.3q7.812.222,15.624.3c5.208.061,10.416.077,15.624.084s10.416-.024,15.624-.085S516.474,1247.49,521.682,1247.343Z" transform="translate(-459.186 -1246.963)" fill="#dfdbda"/>
            </g>
            <g id="Group_695" data-name="Group 695" transform="translate(1.747 2.513)" opacity="0.1">
              <path id="Path_1945" data-name="Path 1945" d="M531.9,1222.688a6.533,6.533,0,0,0-6.055-3.721H457.212v4.21" transform="translate(-457.212 -1218.967)" fill="#231f20"/>
            </g>
          </g>
          <g id="Group_704" data-name="Group 704" transform="translate(11.524 62.015)">
            <g id="Group_697" data-name="Group 697">
              <path id="Path_1946" data-name="Path 1946" d="M462.242,1165.8h72.845a7.266,7.266,0,0,0,7.258-7.258v-9.14a7.266,7.266,0,0,0-7.258-7.258H462.242v3.226h72.845a4.036,4.036,0,0,1,4.032,4.031v9.14a4.037,4.037,0,0,1-4.032,4.032H462.242Z" transform="translate(-462.242 -1142.149)" fill="#381f7a"/>
            </g>
            <g id="Group_698" data-name="Group 698" transform="translate(1.882 3.226)">
              <path id="Path_1947" data-name="Path 1947" d="M467.766,1168.823h71.165a4.032,4.032,0,0,0,4.032-4.032v-9.139a4.032,4.032,0,0,0-4.032-4.032H467.766Z" transform="translate(-467.766 -1151.62)" fill="#fff"/>
            </g>
            <g id="Group_699" data-name="Group 699" transform="translate(1.882 3.227)" opacity="0.1">
              <path id="Path_1948" data-name="Path 1948" d="M542.963,1155.655a4.032,4.032,0,0,0-4.032-4.032H467.766v4.209" transform="translate(-467.766 -1151.623)" fill="#231f20"/>
            </g>
            <g id="Group_701" data-name="Group 701" transform="translate(4.637 10.271)">
              <g id="Group_700" data-name="Group 700">
                <path id="Path_1949" data-name="Path 1949" d="M538.351,1172.739q-7.812-.255-15.624-.342c-5.208-.071-10.416-.089-15.624-.1-5.208.008-10.416.027-15.624.1s-10.416.172-15.624.343q7.812.256,15.624.344c5.208.069,10.416.089,15.624.1,5.208-.009,10.416-.028,15.624-.1S533.143,1172.91,538.351,1172.739Z" transform="translate(-475.855 -1172.3)" fill="#dfdbda"/>
              </g>
            </g>
            <g id="Group_703" data-name="Group 703" transform="translate(10.282 13.974)">
              <g id="Group_702" data-name="Group 702">
                <path id="Path_1950" data-name="Path 1950" d="M554.921,1183.609q-7.812-.255-15.624-.343c-5.208-.07-10.416-.089-15.624-.1-5.208.007-10.416.026-15.624.1s-10.416.172-15.624.343q7.812.256,15.624.343c5.208.07,10.416.089,15.624.1,5.208-.008,10.416-.028,15.624-.1S549.713,1183.779,554.921,1183.609Z" transform="translate(-492.425 -1183.169)" fill="#dfdbda"/>
              </g>
            </g>
          </g>
          <g id="Group_713" data-name="Group 713" transform="translate(0 31.54)">
            <g id="Group_706" data-name="Group 706">
              <g id="Group_705" data-name="Group 705">
                <path id="Path_1951" data-name="Path 1951" d="M508.514,1071.1H438.9c-5.79,0-10.483-3.654-10.483-8.16v-2.093c0-4.506,4.693-8.16,10.483-8.16h69.619v2.511H443.733c-2.227,0-4.032,1.405-4.032,3.138v7.113c0,1.733,1.805,3.138,4.032,3.138h64.781Z" transform="translate(-428.412 -1052.69)" fill="#8b018d"/>
              </g>
            </g>
            <g id="Group_708" data-name="Group 708" transform="translate(8.064)">
              <g id="Group_707" data-name="Group 707">
                <path id="Path_1952" data-name="Path 1952" d="M532.185,1071.1H462.567c-5.79,0-10.483-3.654-10.483-8.16v-2.093c0-4.506,4.694-8.16,10.483-8.16h69.619v2.511H462.567c-4.008,0-7.258,2.529-7.258,5.649v2.093c0,3.119,3.249,5.648,7.258,5.648h69.619Z" transform="translate(-452.083 -1052.69)" fill="#381f7a"/>
              </g>
            </g>
            <g id="Group_709" data-name="Group 709" transform="translate(11.088 2.511)">
              <path id="Path_1953" data-name="Path 1953" d="M536.158,1073.452h-68.5a6.7,6.7,0,0,1-6.7-6.7h0a6.7,6.7,0,0,1,6.7-6.695h68.5Z" transform="translate(-460.961 -1060.061)" fill="#fff"/>
            </g>
            <g id="Group_710" data-name="Group 710" transform="translate(14.851 7.901)">
              <path id="Path_1954" data-name="Path 1954" d="M472.007,1076.264q7.812-.221,15.624-.3c5.208-.06,10.416-.077,15.624-.084s10.417.022,15.624.083,10.416.149,15.624.3q-7.812.222-15.624.3c-5.208.06-10.416.077-15.624.083s-10.416-.024-15.624-.085S477.215,1076.414,472.007,1076.264Z" transform="translate(-472.007 -1075.884)" fill="#dfdbda"/>
            </g>
            <g id="Group_711" data-name="Group 711" transform="translate(23.251 12.05)">
              <path id="Path_1955" data-name="Path 1955" d="M496.666,1088.444q7.812-.221,15.624-.3c5.208-.06,10.416-.077,15.624-.084s10.416.023,15.624.083,10.416.149,15.624.3q-7.812.222-15.624.3c-5.208.061-10.416.077-15.624.083s-10.416-.024-15.624-.084S501.874,1088.59,496.666,1088.444Z" transform="translate(-496.666 -1088.063)" fill="#dfdbda"/>
            </g>
            <g id="Group_712" data-name="Group 712" transform="translate(11.728 2.51)" opacity="0.1">
              <path id="Path_1956" data-name="Path 1956" d="M462.84,1063.779a6.532,6.532,0,0,1,6.055-3.721h68.636v4.209" transform="translate(-462.84 -1060.058)" fill="#231f20"/>
            </g>
          </g>
          <g id="Group_718" data-name="Group 718" transform="translate(5.913 49.953)">
            <g id="Group_714" data-name="Group 714">
              <rect id="Rectangle_407" data-name="Rectangle 407" width="88.167" height="12.432" fill="#3dc8e8"/>
            </g>
            <g id="Group_715" data-name="Group 715" transform="translate(76.877 1.914)">
              <rect id="Rectangle_408" data-name="Rectangle 408" width="3.326" height="8.602" fill="#ffc73c"/>
            </g>
            <g id="Group_716" data-name="Group 716" transform="translate(60.346 1.914)">
              <rect id="Rectangle_409" data-name="Rectangle 409" width="3.326" height="8.602" fill="#ffc73c"/>
            </g>
            <g id="Group_717" data-name="Group 717" transform="translate(65.487)">
              <rect id="Rectangle_410" data-name="Rectangle 410" width="9.374" height="12.432" fill="#ffc73c"/>
            </g>
          </g>
          <g id="Group_722" data-name="Group 722" transform="translate(13.977)">
            <g id="Group_719" data-name="Group 719">
              <rect id="Rectangle_411" data-name="Rectangle 411" width="88.167" height="12.432" fill="#8b018d"/>
            </g>
            <g id="Group_720" data-name="Group 720" transform="translate(7.963)">
              <rect id="Rectangle_412" data-name="Rectangle 412" width="3.326" height="12.432" fill="#381f7a"/>
            </g>
            <g id="Group_721" data-name="Group 721" transform="translate(13.305)">
              <rect id="Rectangle_413" data-name="Rectangle 413" width="5.103" height="12.432" fill="#381f7a"/>
            </g>
          </g>
          <g id="Group_727" data-name="Group 727" transform="translate(5.196 12.432)">
            <g id="Group_723" data-name="Group 723">
              <rect id="Rectangle_414" data-name="Rectangle 414" width="88.166" height="19.277" fill="#ffc73c"/>
            </g>
            <g id="Group_724" data-name="Group 724" transform="translate(76.877 2.969)">
              <rect id="Rectangle_415" data-name="Rectangle 415" width="3.326" height="12.817" fill="#26a8d1"/>
            </g>
            <g id="Group_725" data-name="Group 725" transform="translate(5.779 2.969)">
              <rect id="Rectangle_416" data-name="Rectangle 416" width="3.326" height="12.817" fill="#26a8d1"/>
            </g>
            <g id="Group_726" data-name="Group 726" transform="translate(11.76 2.969)">
              <rect id="Rectangle_417" data-name="Rectangle 417" width="3.326" height="12.817" fill="#26a8d1"/>
            </g>
            <circle id="Ellipse_51" data-name="Ellipse 51" cx="6.408" cy="6.408" r="6.408" transform="translate(60.951 2.972)" fill="#26a8d1"/>
          </g>
          <rect id="Rectangle_418" data-name="Rectangle 418" width="4.536" height="13.381" transform="translate(28.773 39.822)" fill="#00a3d5"/>
        </g>
      </g>
    </g>
    <g id="Group_731" data-name="Group 731" transform="translate(454.627 350.502)">
      <path id="Path_1957" data-name="Path 1957" d="M943.912,464.965H926.539a13.469,13.469,0,0,0-13.429,13.429h0a13.438,13.438,0,0,0,5.822,11.047v9.451l9.666-7.07h15.313a13.469,13.469,0,0,0,13.429-13.429h0A13.47,13.47,0,0,0,943.912,464.965Z" transform="translate(-913.11 -464.965)" fill="#b2def9"/>
      <circle id="Ellipse_52" data-name="Ellipse 52" cx="2.038" cy="2.038" r="2.038" transform="translate(10.346 11.391)" fill="#fff"/>
      <circle id="Ellipse_53" data-name="Ellipse 53" cx="2.038" cy="2.038" r="2.038" transform="translate(20.076 11.391)" fill="#fff"/>
      <circle id="Ellipse_54" data-name="Ellipse 54" cx="2.038" cy="2.038" r="2.038" transform="translate(29.806 11.391)" fill="#fff"/>
    </g>
    <path id="Path_1958" data-name="Path 1958" d="M650.011,593.042c-2.679-4.584-9.44-6.885-15.975.753-6.535-7.638-13.3-5.337-15.975-.753-6.6,11.294,15.975,24.584,15.975,24.584S656.611,604.336,650.011,593.042Z" transform="translate(-263.146 -196.125)" fill="#b2def9"/>
    <g id="Group_732" data-name="Group 732" transform="translate(402.452 296.078)">
      <path id="Path_1959" data-name="Path 1959" d="M796.673,331.919h-33.41a3.325,3.325,0,0,1-3.316-3.316V308.519a3.325,3.325,0,0,1,3.316-3.316h33.41a3.325,3.325,0,0,1,3.315,3.316V328.6A3.325,3.325,0,0,1,796.673,331.919Z" transform="translate(-759.948 -305.203)" fill="#b2def9"/>
      <path id="Path_1960" data-name="Path 1960" d="M761.847,307.722l17.531,17a2.691,2.691,0,0,0,3.686,0l17.531-17" transform="translate(-761.2 -306.864)" fill="none" stroke="#fff" stroke-miterlimit="10" stroke-width="4"/>
      <line id="Line_42" data-name="Line 42" y1="11.049" x2="14.384" transform="translate(0.647 14.806)" fill="none" stroke="#b9e1f6" stroke-miterlimit="10" stroke-width="4"/>
      <line id="Line_43" data-name="Line 43" x1="14.384" y1="11.049" transform="translate(25.01 14.806)" fill="none" stroke="#bce1f3" stroke-miterlimit="10" stroke-width="4"/>
    </g>
    <g id="Group_737" data-name="Group 737" transform="translate(267.45 333.826)">
      <g id="Group_733" data-name="Group 733" transform="translate(0 0)">
        <path id="Path_1961" data-name="Path 1961" d="M406.578,448.138H366.956a3.316,3.316,0,0,1-3.316-3.316v-25.5a3.316,3.316,0,0,1,3.316-3.316h39.622a3.315,3.315,0,0,1,3.316,3.316v25.5A3.316,3.316,0,0,1,406.578,448.138Z" transform="translate(-363.64 -416.012)" fill="#b9e1f6"/>
      </g>
      <g id="Group_734" data-name="Group 734" transform="translate(15.017 31.34)">
        <path id="Path_1962" data-name="Path 1962" d="M415.833,518.949l8.11-10.938h-16.22Z" transform="translate(-407.723 -508.011)" fill="#b9e1f6"/>
      </g>
      <g id="Group_735" data-name="Group 735" transform="translate(9.029 9.114)">
        <path id="Path_1963" data-name="Path 1963" d="M406.4,444.839c-1.313-2.247-4.628-3.375-7.832.369-3.2-3.745-6.519-2.617-7.832-.369-3.236,5.537,7.832,12.053,7.832,12.053S409.639,450.376,406.4,444.839Z" transform="translate(-390.146 -442.768)" fill="#fff"/>
      </g>
      <g id="Group_736" data-name="Group 736" transform="translate(30.601 10.727)">
        <path id="Path_1964" data-name="Path 1964" d="M458.165,456.969h-2v-5.478l.019-.9.032-.984q-.5.5-.693.654l-1.088.874-.965-1.2,3.05-2.428h1.645v9.467Z" transform="translate(-453.47 -447.502)" fill="#fff"/>
      </g>
    </g>
    <g id="Group_742" data-name="Group 742" transform="translate(610.827 344.237)">
      <g id="Group_738" data-name="Group 738" transform="translate(0 0)">
        <path id="Path_1965" data-name="Path 1965" d="M1414.582,478.7H1374.96a3.316,3.316,0,0,1-3.316-3.316v-25.5a3.316,3.316,0,0,1,3.316-3.316h39.622a3.315,3.315,0,0,1,3.315,3.316v25.5A3.317,3.317,0,0,1,1414.582,478.7Z" transform="translate(-1371.644 -446.575)" fill="#b9e1f6"/>
      </g>
      <g id="Group_739" data-name="Group 739" transform="translate(15.018 31.34)">
        <path id="Path_1966" data-name="Path 1966" d="M1423.838,549.513l8.111-10.938H1415.73Z" transform="translate(-1415.73 -538.575)" fill="#dbcdfe"/>
      </g>
      <g id="Group_740" data-name="Group 740" transform="translate(30.603 10.727)">
        <path id="Path_1967" data-name="Path 1967" d="M1466.174,487.532h-2v-5.478l.02-.9.032-.984q-.5.5-.693.654l-1.088.874-.964-1.2,3.05-2.428h1.645v9.467Z" transform="translate(-1461.48 -478.065)" fill="#fff"/>
      </g>
      <g id="Group_741" data-name="Group 741" transform="translate(8.823 10.409)">
        <path id="Path_1968" data-name="Path 1968" d="M1409.182,477.13h-6.565a5.089,5.089,0,0,0-5.074,5.074h0a5.076,5.076,0,0,0,2.2,4.174v3.571l3.652-2.671h5.786a5.089,5.089,0,0,0,5.074-5.074h0A5.086,5.086,0,0,0,1409.182,477.13Z" transform="translate(-1397.543 -477.13)" fill="#fff"/>
      </g>
    </g>
    <g id="Group_743" data-name="Group 743" transform="translate(525.672 312.517)">
      <circle id="Ellipse_55" data-name="Ellipse 55" cx="18.062" cy="18.062" r="18.062" fill="#ffc73c"/>
      <path id="Path_1969" data-name="Path 1969" d="M1162.914,407.909a12.587,12.587,0,1,1-25.174,0" transform="translate(-1132.265 -389.361)" fill="#fff"/>
      <path id="Path_1970" data-name="Path 1970" d="M1142.947,369.927c-.948-1.622-3.34-2.436-5.654.266-2.312-2.7-4.705-1.889-5.653-.266-2.336,4,5.653,8.7,5.653,8.7S1145.284,373.924,1142.947,369.927Z" transform="translate(-1127.961 -363.332)" fill="#8070f2"/>
      <path id="Path_1971" data-name="Path 1971" d="M1194.2,369.927c-.948-1.622-3.34-2.436-5.653.266-2.313-2.7-4.705-1.889-5.654-.266-2.335,4,5.654,8.7,5.654,8.7S1196.535,373.924,1194.2,369.927Z" transform="translate(-1161.753 -363.332)" fill="#8070f2"/>
    </g>
    <g id="Group_748" data-name="Group 748" transform="translate(234.077 404.933)">
      <circle id="Ellipse_56" data-name="Ellipse 56" cx="18.062" cy="18.062" r="18.062" fill="#ffc73c"/>
      <g id="Group_745" data-name="Group 745" transform="translate(22.566 7.502)">
        <g id="Group_744" data-name="Group 744">
          <path id="Path_1972" data-name="Path 1972" d="M331.918,647.3a3.068,3.068,0,0,1,1.588-.525,3.966,3.966,0,0,1,1.62.245,3.709,3.709,0,0,1,1.4.912,2.571,2.571,0,0,1,.734,1.534c-.581-.161-1.029-.312-1.466-.455s-.838-.284-1.247-.439-.821-.321-1.252-.516A9.1,9.1,0,0,1,331.918,647.3Z" transform="translate(-331.918 -646.772)" fill="#0b2d4e"/>
        </g>
      </g>
      <g id="Group_747" data-name="Group 747" transform="translate(7.623 7.521)">
        <g id="Group_746" data-name="Group 746">
          <path id="Path_1973" data-name="Path 1973" d="M293.4,647.371a9.156,9.156,0,0,1-1.379.748c-.432.192-.845.357-1.255.509s-.817.29-1.249.433-.886.289-1.468.447a2.57,2.57,0,0,1,.743-1.53,3.709,3.709,0,0,1,1.4-.9,3.962,3.962,0,0,1,1.622-.236A3.068,3.068,0,0,1,293.4,647.371Z" transform="translate(-288.052 -646.829)" fill="#0b2d4e"/>
        </g>
      </g>
      <path id="Path_1974" data-name="Path 1974" d="M290.716,689.405a9.593,9.593,0,0,0,19.062,0Z" transform="translate(-282.185 -667.381)" fill="#0b2d4e"/>
      <path id="Path_1975" data-name="Path 1975" d="M299.369,703.985a9.584,9.584,0,0,0,12.942.207l-.088-.206C305.823,700.865,299.456,703.943,299.369,703.985Z" transform="translate(-287.89 -676.074)" fill="#8070f2"/>
      <ellipse id="Ellipse_57" data-name="Ellipse 57" cx="1.656" cy="2.06" rx="1.656" ry="2.06" transform="translate(22.566 11.965)" fill="#0b2d4e"/>
      <ellipse id="Ellipse_58" data-name="Ellipse 58" cx="1.656" cy="2.06" rx="1.656" ry="2.06" transform="translate(9.663 11.965)" fill="#0b2d4e"/>
    </g>
    <g id="Group_753" data-name="Group 753" transform="translate(520.528 407.096)">
      <circle id="Ellipse_59" data-name="Ellipse 59" cx="18.062" cy="18.062" r="18.062" transform="translate(0)" fill="#ffc73c"/>
      <g id="Group_749" data-name="Group 749" transform="translate(21.995 10.948)">
        <path id="Path_1976" data-name="Path 1976" d="M1171.151,665.945a2.3,2.3,0,0,1,.756-1.924,2.994,2.994,0,0,1,2.078-.779,3.114,3.114,0,0,1,2.049.791,2.251,2.251,0,0,1,.785,1.913,4.889,4.889,0,0,0-1.492-.818,4.614,4.614,0,0,0-1.366-.229,3.938,3.938,0,0,0-1.335.2A5.151,5.151,0,0,0,1171.151,665.945Z" transform="translate(-1171.136 -663.242)" fill="#0b2d4e"/>
      </g>
      <g id="Group_751" data-name="Group 751" transform="translate(8.467 10.948)">
        <g id="Group_750" data-name="Group 750">
          <path id="Path_1977" data-name="Path 1977" d="M1137.107,665.944a5.119,5.119,0,0,0-1.476-.843,3.935,3.935,0,0,0-1.334-.2,4.616,4.616,0,0,0-1.366.229,4.891,4.891,0,0,0-1.492.818,2.251,2.251,0,0,1,.785-1.913,3.114,3.114,0,0,1,2.048-.791,2.994,2.994,0,0,1,2.078.779A2.286,2.286,0,0,1,1137.107,665.944Z" transform="translate(-1131.423 -663.24)" fill="#0b2d4e"/>
        </g>
      </g>
      <g id="Group_752" data-name="Group 752" transform="translate(7.393 21.887)">
        <path id="Path_1978" data-name="Path 1978" d="M1128.27,695.546a11.287,11.287,0,0,0,4.883,3.426,15.853,15.853,0,0,0,5.78.957,16.1,16.1,0,0,0,5.753-1.133,13.133,13.133,0,0,0,4.918-3.445,9.738,9.738,0,0,1-4.354,4.62,13.862,13.862,0,0,1-12.629.185,10.172,10.172,0,0,1-2.627-1.927A7.77,7.77,0,0,1,1128.27,695.546Z" transform="translate(-1128.27 -695.352)" fill="#0b2d4e"/>
      </g>
      <ellipse id="Ellipse_60" data-name="Ellipse 60" cx="3.668" cy="2.711" rx="3.668" ry="2.711" transform="translate(26.269 15.352)" fill="#8070f2"/>
      <ellipse id="Ellipse_61" data-name="Ellipse 61" cx="3.668" cy="2.711" rx="3.668" ry="2.711" transform="translate(2.079 15.352)" fill="#8070f2"/>
    </g>
    <g id="Group_754" data-name="Group 754" transform="translate(534.203 325.075)">
      <path id="Path_1979" data-name="Path 1979" d="M1341.654,461.166c8.116,15.672,13.018,35.843,21.79,50.51,19.385,32.414,58.256,32.2,66.168,84.137,4.805,31.547-6.741,61.591-20.271,80.916-15.465,22.09-39.466,30.8-58.8,34.773a122.1,122.1,0,0,1-20.452,2.256c-16.02.555,29.432-1.005,13.511.446-23.7,2.161,2.889.2-20.85.458-24.9.273-49.753.007-74.583-.024-14.014-.018-28.017,1.648-42.032,1.105-25.458-.986-51.3-16.064-58.069-57.408-4.688-28.614,3.255-59.23,16.533-79.582,7.12-10.912,15.137-19.836,21.123-32.472,7.666-16.182,10.278-34.691,13.879-53.475,4.437-23.144,9.7-47.589,19.33-67.366,10.166-20.879,26.8-33.306,43.655-34.945,18.931-1.841,33.6,11.333,46.691,31.137" transform="translate(-1146.71 -390.325)" fill="#fff"/>
    </g>
    <g id="Group_770" data-name="Group 770" transform="translate(456.386 325.075)">
      <g id="Group_769" data-name="Group 769" clip-path="url(#clip-path)">
        <path id="Path_1980" data-name="Path 1980" d="M1767.983,668.9c-9.516,3.882-21.511,2.709-29.914-3.268-8.445-6.007-16.189-10.423-26.918-10.742-6.664-.2-12.911,2.59-19.261,4.181-5.582,1.4-9.847,5.883-15.864,6.707-7.909,1.084-16.032-3.779-19.589-10.926s-2.78-16.042,1.2-22.963c2.9-5.052,5.576-8.822,2.312-14.454a24.4,24.4,0,0,1-2.092-3.7,10.31,10.31,0,0,1-.477-3.961c.294-7.3,5.822-12.769,9.505-18.8a12.741,12.741,0,0,0,1.986-4.5c.662-4.149-2.635-7.736-4.393-11.552-5.694-12.365,4.023-26.429,13.481-33.848,5.58-4.377,12.268-6.144,18.285-9.711,2.74-1.624,5.239-3.637,8.012-5.2,4.835-2.733,10.1-2.85,15.474-2.1,15.294,2.145,32.682,13.262,36.227,29.263,2.4,10.846-1.531,23.455,9.214,31.048,3.236,2.287,7.324,3.647,9.531,6.939,4.691,6.995-2.2,17.356,2.088,24.6a24.433,24.433,0,0,0,3.687,4.241,34.96,34.96,0,0,1,9.446,27.231,17.5,17.5,0,0,1-1.931,6.94c-1.632,2.893-4.4,4.939-7.1,6.869a65.715,65.715,0,0,1-12.771,7.638Z" transform="translate(-1481.301 -478.245)" fill="#0b2d4e"/>
        <path id="Path_1981" data-name="Path 1981" d="M1799.492,727.565A19.943,19.943,0,0,1,1797.9,739.2c-4.681,9.741-16.273,11.64-26.047,12.021a58.187,58.187,0,0,1-10.837-.574c-3.192-.476-6.036.01-9.261-.064a35.457,35.457,0,0,1-18.1-5.448,16.828,16.828,0,0,1-6.432-6.563c-1.848-3.846-1.311-8.39-.333-12.543a25.321,25.321,0,0,1,2.505-6.924c1.318-2.283,3.208-4.222,4.306-6.618,2.064-4.5.368-9.768,2.2-14.185,1.437-3.459,5.05-7.364,8.047-9.527,4.08-2.943,9.342-3.873,14.359-3.531s9.875,1.855,14.655,3.418c3.765,1.231,7,.469,9.761,3.578,2.189,2.465,1.425,6.488,2.124,9.474C1787.2,711.756,1797.908,717.056,1799.492,727.565Z" transform="translate(-1528.664 -584.733)" fill="#061f33"/>
        <path id="Path_1982" data-name="Path 1982" d="M1861.541,1338.435c1.451,24.118,1.248,43.594,3.01,73.816.246,4.217.571,8.43.879,12.643.181,2.468,1.284,7.982-.61,9.969a5.135,5.135,0,0,1-1.921,1.1,54.087,54.087,0,0,1-14.142,3.754c-5.4.547-10.59-.591-15.658-2.293a.66.66,0,0,1-.294-.16.67.67,0,0,1-.132-.369c-.439-3.011-.52-5.9-.682-8.911q-.446-8.284-1.177-16.549c-.965-11.016-2.27-22-3.787-32.956-3.042-21.957-6.938-43.782-10.7-65.623-2.934-17.032-5.792-34.082-8.1-51.212-2.17-16.117-8.163-31.153-8.316-47.648-.062-6.644.773-13.874,5.387-18.656,5.216-5.407,13.538-6.013,21.051-6.155,19.819-.375,25.538,17.7,28.749,33.258,3.839,18.6,3.33,39.468,3.6,58.456C1858.973,1300.1,1860.386,1319.247,1861.541,1338.435Z" transform="translate(-1577.4 -917.051)" fill="#0b2d4e"/>
        <path id="Path_1983" data-name="Path 1983" d="M1782.118,624.584c-4.749-4.08-5.768-11.215-4.393-17.324.9-4,2.674-7.886,2.516-11.981a13.229,13.229,0,0,0-8.6-11.668c-2.468-.87-5.183-.986-7.545-2.111-3.574-1.7-5.539-5.3-6.844-8.865-1.421-3.884-.831-7.2-.849-11.265-.022-5.2-.153-10.4-.682-15.578-.609-5.966-4.18-11.879-8.274-16.167q-.881-.923-1.835-1.774c-10.63-9.489-30.949-13.645-43.545-5.927-2.51,1.538-4.07,3.663-6.061,5.7a38.45,38.45,0,0,1-7.088,5.276,174.329,174.329,0,0,1-15.481,8.135c-3.337,1.654-6.726,3.435-9.178,6.238a18.2,18.2,0,0,0-4.129,12.487,30.286,30.286,0,0,0,3.662,12.84c1.453,2.819,3.212,5.514,4.136,8.547,1.506,4.943-1.372,9.59-5.021,12.761-2.765,2.4-5.943,4.6-7.458,7.937a10.087,10.087,0,0,0,.3,8.808c1.346,2.5,3.717,4.345,4.974,6.891a9.3,9.3,0,0,1,.1,7.909c-1.46,3.149-4.783,6.074-3.691,9.369" transform="translate(-1481.574 -474.441)" fill="none" stroke="#0b2d4e" stroke-miterlimit="10" stroke-width="4"/>
        <g id="Group_756" data-name="Group 756" transform="translate(222.167 56.271)">
          <g id="Group_755" data-name="Group 755">
            <path id="Path_1984" data-name="Path 1984" d="M1798.9,557.892a22.433,22.433,0,0,1,9.377-2.354,36.285,36.285,0,0,1,9.686,1,34.7,34.7,0,0,1,16.962,9.3,30.552,30.552,0,0,1,8.806,17.235,83.737,83.737,0,0,1,.353,9.76,23.049,23.049,0,0,0,1.649,9.316,18.977,18.977,0,0,0,6.26,7c2.6,1.876,5.469,3.378,8.242,5.092a12.464,12.464,0,0,1,3.845,3.186,8.527,8.527,0,0,1,1.258,4.862,17.973,17.973,0,0,1-.626,4.914,33.928,33.928,0,0,1-1.789,4.565,9.217,9.217,0,0,0-.87,4.568,13.905,13.905,0,0,0,1.34,4.537c1.374,2.908,3.065,5.69,4.461,8.632a26.7,26.7,0,0,1,2.717,9.338,23.023,23.023,0,0,1-1.193,9.6,22.9,22.9,0,0,0,.97-9.578,26.35,26.35,0,0,0-2.9-9.164c-1.429-2.9-3.144-5.646-4.581-8.582a14.5,14.5,0,0,1-1.455-4.724,9.9,9.9,0,0,1,.856-4.893,33.431,33.431,0,0,0,1.7-4.5,17.4,17.4,0,0,0,.575-4.7,7.753,7.753,0,0,0-1.133-4.409,11.743,11.743,0,0,0-3.614-2.94c-2.745-1.682-5.642-3.178-8.316-5.091a19.817,19.817,0,0,1-6.577-7.324,23.865,23.865,0,0,1-1.7-9.692,83.481,83.481,0,0,0-.3-9.66,30.269,30.269,0,0,0-8.481-16.857,34.2,34.2,0,0,0-16.567-9.355,35.965,35.965,0,0,0-9.574-1.21A22.318,22.318,0,0,0,1798.9,557.892Z" transform="translate(-1798.9 -555.509)" fill="#73b8d4"/>
          </g>
        </g>
        <path id="Path_1985" data-name="Path 1985" d="M1690.5,1421.175c.471,7.211,1.012,14.39,1.479,21.621a1.909,1.909,0,0,0,.261,1.017,1.755,1.755,0,0,0,.73.513c4.317,1.961,33.147,2.748,32.447-4.833-1.251-13.5-1.861-27.062-2.055-40.621-.454-31.6,1.348-63.165,2.5-94.73q1.32-36.268,1.314-72.566c-.014-15.629-1.708-35.071-20.771-37.741-11.305-1.583-25.757,9.833-28.541,20.906-5.533,22-3.72,35.551-1.609,57.931,2.172,23.037,6.007,51.832,7.633,74.921C1685.58,1371.7,1688.316,1390.98,1690.5,1421.175Z" transform="translate(-1494.505 -920.021)" fill="#0b2d4e"/>
        <path id="Path_1986" data-name="Path 1986" d="M1575.308,838.5c6.22-7.424,13.355-14.7,23.156-16.865,5.718-1.263,15.861-.907,16.791,6.48.52,4.126-3.013,7.558-5.359,11.063-2.608,3.9-4.063,8.519-6.1,12.706-4.091,8.4-10.358,15.287-15.638,22.973-5.871,8.546-10.142,18.241-16.208,26.571-4.676,6.419-10.936,13.252-18.417,16.51-6.2,2.7-14.057,2.157-17.241-4.385-2.825-5.806-1.891-13.429.219-19.382,1.484-4.189,4.327-7.608,7.09-11.047a161.048,161.048,0,0,0,9.413-13.818A307.767,307.767,0,0,1,1575.308,838.5Z" transform="translate(-1402.416 -674.336)" fill="#0c7bc2"/>
        <path id="Path_1987" data-name="Path 1987" d="M1952.268,915.9c1.863,3,3.679,6.023,5.477,9.059,4.015,6.778,8.258,13.266,11.539,20.45a25.971,25.971,0,0,1,2.71,8.3,13.23,13.23,0,0,1-6.054,12.148,7.58,7.58,0,0,1-9.142-.348c-2.673-1.862-3.8-4.45-5.842-6.791-2.7-3.091-5.267-6.3-7.764-9.555-4.995-6.522-9.754-13.235-15.11-19.473-5.977-6.959-9.967-15.826-13.727-24.1-2.488-5.478-5.838-13.358-1.855-18.985a9.575,9.575,0,0,1,7.108-3.964,14.874,14.874,0,0,1,4.991.708,17.41,17.41,0,0,1,4.014,1.616c3.1,1.81,5,4.892,7.148,7.653,2.531,3.25,5.1,6.459,7.516,9.8C1946.449,906.782,1949.413,911.3,1952.268,915.9Z" transform="translate(-1650.419 -714.911)" fill="#f8a17a"/>
        <path id="Path_1988" data-name="Path 1988" d="M1889.549,831.763c-5.5-5.893-12.068-11-19.673-13.8-5.793-2.135-14.631-4.733-18.474,2.141-2.252,4.027-2.645,9.477-1.871,13.926,1.5,8.614,6.84,16.1,11.677,23.087,4.431,6.4,8.146,13.283,12.681,19.62,4.051,5.661,9.011,10.384,13.436,15.734a161.348,161.348,0,0,1,12.8,18.253c2.542,4.121,5.052,8.389,8.755,11.479a15.767,15.767,0,0,0,8.223,3.679c3.676.4,5.611-1.1,8.427-3.251a18.262,18.262,0,0,0,5.338-5.531c2.462-4.6.865-10.218-.952-15.064a211.2,211.2,0,0,0-19.76-39.537c-3.437-5.381-5.9-10.995-9.537-16.285A122.562,122.562,0,0,0,1889.549,831.763Z" transform="translate(-1609.878 -670.762)" fill="#0c7bc2"/>
        <path id="Path_1989" data-name="Path 1989" d="M1784.364,750.952a23.732,23.732,0,0,1-.556-3.79,55.325,55.325,0,0,1-.088-5.538q.011-.47.022-.94c.1-4,.125-8.009.319-12a42.441,42.441,0,0,0-11.372-1.083c-3.478.144-6.953-.22-10.429-.015a1.226,1.226,0,0,0-.781.231,1.122,1.122,0,0,0-.259.75c-.467,5.4-.009,10.869-.374,16.279-.152,2.26-.06,4.982-.916,7.111-.822,2.059-3.649,3.106-5.684,3.316a2.517,2.517,0,0,0-2.616,2.119c-2.16,5.555-2.245,12.289,1.569,17.178a17.938,17.938,0,0,0,8.771,5.891,25.944,25.944,0,0,0,10.614.881,23.637,23.637,0,0,0,16.3-9.22,22.284,22.284,0,0,0,4.285-13.337,3.553,3.553,0,0,0-.75-2.526,3.825,3.825,0,0,0-1.845-.838c-1.156-.291-2.356-.365-3.508-.681a3.767,3.767,0,0,1-1.443-.628,5.475,5.475,0,0,1-1.141-2.688C1784.443,751.264,1784.405,751.108,1784.364,750.952Z" transform="translate(-1544.583 -612.653)" fill="#f8a17a"/>
        <g id="Group_759" data-name="Group 759" transform="translate(179.576 141.303)">
          <path id="Path_1990" data-name="Path 1990" d="M1764.833,928.94a179.069,179.069,0,0,1-4.875-17.381c-2.312-11.982,1.771-25.025,2.917-36.96a276.73,276.73,0,0,0,1.177-33.521c-.213-8.342.326-19.67-5.492-26.4-3.607-4.173-10.386-6.194-15.57-7.448-11.528-2.789-24.562-2.4-36.288-1.15-7.524.8-15.4,3.48-20.632,9.191-5.579,6.091-8.142,13.817-9.9,21.73a101.7,101.7,0,0,0-2.213,25.973c.32,8.5,3.026,16.582,4.868,24.824a88.536,88.536,0,0,1,.855,34.637c-2.653,14.972-3.194,28.762-5.29,46.784,32.9,2.206,64.847-.68,97.612-4.389C1769.586,952.278,1768.8,941.527,1764.833,928.94Z" transform="translate(-1673.875 -805.126)" fill="#0c7bc2"/>
          <g id="Group_757" data-name="Group 757" clip-path="url(#clip-path-2)">
            <path id="Path_1991" data-name="Path 1991" d="M1735.615,793.62a10.717,10.717,0,0,0-.985,2.564c-2.259,8.633,2.467,18.807,7.812,25.433,4.768,5.911,11.106,9.232,18.777,8.177,16.257-2.234,29.583-18.45,28.082-34.88a3.64,3.64,0,0,0-.551-1.881c-.949-1.271-5.794-.38-7.317-.38h-35.2c-1.622,0-3.243.007-4.865,0-1.406-.006-3.21-.906-4.566-.269A2.934,2.934,0,0,0,1735.615,793.62Z" transform="translate(-1713.552 -796.575)" fill="#0c7bc2"/>
          </g>
          <g id="Group_758" data-name="Group 758" clip-path="url(#clip-path-2)">
            <path id="Path_1993" data-name="Path 1993" d="M1752.92,793.445l16.614,18.563,26.523-18.563Z" transform="translate(-1725.993 -797.424)" fill="#0c7bc2"/>
          </g>
        </g>
        <path id="Path_1995" data-name="Path 1995" d="M1804.189,750.059a60.528,60.528,0,0,1-.484-9.508c.1-4,.125-8.01.319-12a42.455,42.455,0,0,0-11.372-1.083c-3.479.144-6.953-.22-10.43-.015a1.226,1.226,0,0,0-.781.231,1.121,1.121,0,0,0-.259.75c-.466,5.4.065,10.914-.3,16.324a45.346,45.346,0,0,1-.356,4.972,15.709,15.709,0,0,0,1.371.969,17.822,17.822,0,0,0,15.218,2.772A22.95,22.95,0,0,0,1804.189,750.059Z" transform="translate(-1564.619 -612.566)" fill="#e5785c"/>
        <path id="Path_1996" data-name="Path 1996" d="M1786.61,609.21a48.344,48.344,0,0,0-2.325-14.415c-6.118-17.858-28.564-21.97-41.857-8.9-14.824,14.578-8.581,48.836,7.424,60.672a17.766,17.766,0,0,0,15.169,2.763C1780.515,644.939,1786.944,625.7,1786.61,609.21Z" transform="translate(-1533.958 -514.225)" fill="#f8a17a"/>
        <path id="Path_1997" data-name="Path 1997" d="M1785.025,588.331c-4.819-18.252-26.91-23.967-41.109-11.885a29.734,29.734,0,0,0-5.451,6.686c-1.371,2.086-3.279,3.664-4.487,5.957a20.637,20.637,0,0,0-2.273,7.609c-.251,2.581.592,4.838.658,7.318a9.048,9.048,0,0,1,2.992-6.9,28.722,28.722,0,0,1,5.159-3.114,8.469,8.469,0,0,0,4.125-4.229c5.649,7.4,14.415,9.672,23.039,11.809,7.236,1.793,15.177,6.355,15.341,14.805a7.223,7.223,0,0,0,.556,2.769,12.282,12.282,0,0,0,.847-3.557c.156-1.378.556-2.75.826-4.128a61.083,61.083,0,0,0,1.061-8.592A48.483,48.483,0,0,0,1785.025,588.331Z" transform="translate(-1532.397 -508.84)" fill="#e5785c"/>
        <path id="Path_1998" data-name="Path 1998" d="M1773.973,613.539a9.754,9.754,0,0,0,3.145-4.376c1.929-5.67,1.721-11.947,1.486-18.023a42.383,42.383,0,0,0-1.2-10.054,25.516,25.516,0,0,0-5.2-9.332,30.6,30.6,0,0,0-25.706-10.87c-3.773.323-6.546,2.13-9.859,3.664-3.234,1.5-7.033,2.32-10.436,3.442-3.926,1.294-7.966,2.653-11.08,5.37a20.208,20.208,0,0,0-5.118,7.387,20.916,20.916,0,0,0-1.153,10.594,27.747,27.747,0,0,0,2.019,8.791c1.217,2.561,3.927,4.234,6.353,5.51-.36-.189-.049-4.415-.058-5.067a34.229,34.229,0,0,1,1.318-11.139c1.129-3.492,3.365-5.63,6.273-7.76a21.42,21.42,0,0,0,3.3-2.808c.487-.538,2.609-3.015,2.261-3.781.274.6.573,1.211,1.046,2.086a23.688,23.688,0,0,0,6.419,7.673,84.883,84.883,0,0,0,19.911,10.435c.51.2,1.024.4,1.537.6a17.223,17.223,0,0,1,5.35,3.062c3.5,3.181,3.75,8.073,3.62,12.482a4.119,4.119,0,0,0,.131,1.436C1769.074,615.027,1772.573,614.607,1773.973,613.539Z" transform="translate(-1517.234 -502.714)" fill="#0b2d4e"/>
        <g id="Group_766" data-name="Group 766" transform="translate(70.379 148.713)">
          <path id="Path_1999" data-name="Path 1999" d="M1370,830.627a33.38,33.38,0,0,0-7.594-.667c-1.758.026-4.023.225-4.888,2.031a.862.862,0,0,0,.125,1,1.167,1.167,0,0,0,.409.208c2.734.932,5.949.376,8.382,1.932-.7-.451-2.342-.4-3.169-.484q-1.678-.18-3.369-.2a11.517,11.517,0,0,0-5.536.854,1.9,1.9,0,0,0-1,1.146,1.93,1.93,0,0,0,.983,2,5.646,5.646,0,0,0,2.285.626l1.881.238a8.058,8.058,0,0,0-3.909.535,2.01,2.01,0,0,0-.939,2.632c.505.8,1.462.824,2.278,1.047,1.262.344,2.621.412,3.851.859-.757-.252-1.76.541-2.275,1.15a2.578,2.578,0,0,0-.48,2.254,1.68,1.68,0,0,0,.45.843,2.359,2.359,0,0,0,1.135.474l8,1.776c4.131.908,8.274,1.419,12.337,2.686a29.448,29.448,0,0,1,4.352,1.544c2.245,1.119,5.36,1.812,7.12,3.693,1.493,1.6,4.9,5.131,7.031,5.6,3,.659,2.756.066,3.891-2.245,1.438-2.927-2.659-7.63-4.19-10.25-1.008-1.725-.376-4.409-.946-6.322a26.5,26.5,0,0,0-2.15-5.147,14.675,14.675,0,0,0-2.61-3.255,26.627,26.627,0,0,0-2.875-2.082c-1.892-1.467-3.1-3.624-4.5-5.525-1-1.365-2.087-2.921-4.011-2.666a3.2,3.2,0,0,0-2.47,1.867c-.513,1.185.089,1.644.764,2.584.474.659,1.313,2.469,2.023,2.816A45.572,45.572,0,0,0,1370,830.627Z" transform="translate(-1353.32 -826.88)" fill="#f8a17a"/>
          <g id="Group_761" data-name="Group 761" transform="translate(12.161 7.858)">
            <g id="Group_760" data-name="Group 760">
              <path id="Path_2000" data-name="Path 2000" d="M1397.9,852.308c-.724-.266-1.445-.527-2.176-.763s-1.464-.456-2.205-.65-1.487-.37-2.237-.529c-.376-.079-.752-.151-1.131-.218l-.567-.1c-.19-.029-.379-.062-.57-.1.386.012.77.046,1.154.079s.766.094,1.148.151a22.289,22.289,0,0,1,4.471,1.188A19.173,19.173,0,0,1,1397.9,852.308Z" transform="translate(-1389.018 -849.948)" fill="#e5785c"/>
            </g>
          </g>
          <g id="Group_763" data-name="Group 763" transform="translate(4.012 12.421)">
            <g id="Group_762" data-name="Group 762">
              <path id="Path_2001" data-name="Path 2001" d="M1380.1,864.821a31.2,31.2,0,0,0-3.695-.778c-1.244-.184-2.5-.312-3.753-.376-1.256-.084-2.515-.107-3.775-.124l-3.785-.035c.63-.043,1.26-.069,1.891-.1s1.262-.04,1.893-.055q1.894-.033,3.791.068a33.983,33.983,0,0,1,3.768.437A22.141,22.141,0,0,1,1380.1,864.821Z" transform="translate(-1365.096 -863.344)" fill="#e5785c"/>
            </g>
          </g>
          <g id="Group_765" data-name="Group 765" transform="translate(5.971 17.432)">
            <g id="Group_764" data-name="Group 764">
              <path id="Path_2002" data-name="Path 2002" d="M1382.407,879.488a20.324,20.324,0,0,0-2.825-.734,25.763,25.763,0,0,0-2.89-.368c-.969-.086-1.942-.115-2.916-.14l-2.928-.063c.488-.038.975-.059,1.464-.086s.976-.031,1.465-.041c.978-.014,1.957.017,2.934.084a21.948,21.948,0,0,1,2.909.428l.713.178.705.208.691.248C1381.958,879.3,1382.183,879.391,1382.407,879.488Z" transform="translate(-1370.849 -878.052)" fill="#e5785c"/>
            </g>
          </g>
        </g>
        <g id="Group_767" data-name="Group 767" transform="translate(222.389 171.592)">
          <path id="Path_2003" data-name="Path 2003" d="M1873.459,972.337l-5.041.876s-67.61-59.047-68.568-60.207c-1.041-1.259.8-6.49,3.165-6.978l58.249-11.985Z" transform="translate(-1799.552 -894.042)" fill="#26a8d1"/>
          <path id="Path_2004" data-name="Path 2004" d="M1876.745,976.281l-3.761,3.765-5.091-1.131s-60.831-62.865-61.264-63.111c-.49-.279-.316-4.108,2.459-4.694l55.2-11.648Z" transform="translate(-1804.078 -897.615)" fill="#fff"/>
          <path id="Path_2005" data-name="Path 2005" d="M1869.582,991.681l-52.6,11.589L1799.8,927.847l56.524-10.986Z" transform="translate(-1799.715 -909.088)" fill="#3dc8e8"/>
        </g>
        <g id="Group_768" data-name="Group 768" transform="translate(212.247 181.422)">
          <path id="Path_2006" data-name="Path 2006" d="M1845.22,1000.854l-5.017,1.005s-69.107-57.288-70.1-58.423c-1.073-1.231.631-6.509,2.985-7.057l57.921-13.48Z" transform="translate(-1769.78 -922.899)" fill="#efb126"/>
          <path id="Path_2007" data-name="Path 2007" d="M1848.5,1004.911l-3.662,3.86-5.118-1s-62.429-61.279-62.867-61.513c-.5-.267-.422-4.1,2.337-4.756l54.878-13.065Z" transform="translate(-1774.289 -926.551)" fill="#fff"/>
          <path id="Path_2008" data-name="Path 2008" d="M1841.5,1020.557l-52.29,12.938L1770.1,958.538l56.228-12.437Z" transform="translate(-1769.991 -938.197)" fill="#ffc73c"/>
          <path id="Path_2009" data-name="Path 2009" d="M1851.609,1011.225l-27.923,6.35-2.586-7.958,28.672-7.028Z" transform="translate(-1803.618 -975.443)" fill="#fff"/>
        </g>
        <path id="Path_2010" data-name="Path 2010" d="M1893.068,1087.75c9.022-3.3,18-6.686,27.115-9.665,5.762-1.757,12.677-3.653,18.264-1.228a7.327,7.327,0,0,1,4.311,7.38c-.193,5.431-5.37,9.469-9.559,12.093a60.775,60.775,0,0,1-8.256,4.253,42.513,42.513,0,0,1-8.385,3c-15.421,2.986-21.154,4.729-36.7,5.444-.966.044-11.845-.715-12.685-1.15-2.078-1.077-1.9-4.106-1.281-6.16a9.235,9.235,0,0,1,4-5.468c2.806-1.694,6.339-2.463,9.394-3.548q5.49-1.949,10.968-3.934Z" transform="translate(-1620.632 -842.23)" fill="#f8a17a"/>
        <path id="Path_2011" data-name="Path 2011" d="M1839.473,1123.777c-3.578.479-7.49.046-10.789,1.793a23.516,23.516,0,0,1-4.123,2.143,71.07,71.07,0,0,1-11.355,2.2c-1.937.239-3.879.438-5.822.624a6.187,6.187,0,0,1-4.2-1.006,3.946,3.946,0,0,1-1.987-2.521,1.086,1.086,0,0,0-1.034-1.1,3.485,3.485,0,0,1-1.943-4.228.821.821,0,0,0,.076-.482c-.054-.191-.246-.3-.409-.412-1.426-.979-1.343-3.134-.365-4.387a2.314,2.314,0,0,0,.364-.533,2.343,2.343,0,0,0-.089-1.32,3.015,3.015,0,0,1,.751-2.707c.815-.8,2.228-.851,3.3-.989a46.387,46.387,0,0,0,8.94-1.76c.587-.2,2.73-.758,2.426-1.562a2.713,2.713,0,0,0-1.276-1.364c-1.311-.713-2.979-.591-4.405-1.092a18.309,18.309,0,0,1-4.568-2.37,1.6,1.6,0,0,1-.565-.583,1.2,1.2,0,0,1,.2-1.158,2.785,2.785,0,0,1,2.068-1.042,8.252,8.252,0,0,1,2.367.273l5.863,1.259a23.98,23.98,0,0,1,4.2,1.182,15.728,15.728,0,0,1,3.339,2.222c2.338,1.734,4.6,4.3,7.571,4.936,3.4.734,7.987-.468,11.278-1.346" transform="translate(-1575.352 -858.187)" fill="#f8a17a"/>
        <path id="Path_2012" data-name="Path 2012" d="M1875.109,683.263c5.633-3.153,7.454,4.671,6.518,8.583a12.439,12.439,0,0,1-1.994,4.53c-1.329,1.8-5.154,4.8-7.393,2.868-1.016-.877-1.135-2.382-1.179-3.723C1870.943,691.925,1871.293,685.4,1875.109,683.263Z" transform="translate(-1624.3 -582.991)" fill="#f8a17a"/>
        <path id="Path_2013" data-name="Path 2013" d="M1762.136,815.716l-7.208,9.059L1741.7,803.962l8.032-4.893Z" transform="translate(-1539.019 -659.829)" fill="#fff"/>
        <path id="Path_2014" data-name="Path 2014" d="M1801.69,815.716l8.458,10.037,21.229-21.411-8.036-5.272Z" transform="translate(-1578.573 -659.829)" fill="#fff"/>
        <path id="Path_2015" data-name="Path 2015" d="M1940.6,1102.712c-7.743,2.833-15.739,4.316-23.99,5.769a85.831,85.831,0,0,1-14.255,1.644c-4.069.027-8.769,1.742-8.888-3.757q-.139-6.4-.066-12.8a2.27,2.27,0,0,1,1.645-2.615c3.433-1.6,7.223-2.366,10.851-3.549,14.3-4.661,28.493-11.067,43.587-12.578a14.031,14.031,0,0,1,7.022.575c3.684,1.492,5.264,5.856,4.641,9.566-1.234,7.354-7.762,11.923-14.007,14.969A68.906,68.906,0,0,1,1940.6,1102.712Z" transform="translate(-1639.027 -841.536)" fill="#0c7bc2"/>
        <path id="Path_2016" data-name="Path 2016" d="M1463.356,953.61c-5.649-8.074-9.756-17.113-13.436-26.22-1.892-4.683-3.691-9.378-5.224-14.192-1.094-3.433-2.93-7,.862-9.268l8.648-5.164a8.016,8.016,0,0,1,3.869-1.47c3.721-.044,5.7,4.692,7.315,7.328,4.512,7.372,9.088,14.616,14.019,21.715,2.406,3.464,4.8,6.943,7.029,10.522,1.081,1.733,2.126,3.488,3.115,5.275.718,1.3,2.762,3.935,2.762,5.416,2.676,5.772,5.758,15.928-.816,20.251-5.8,3.814-13.413.772-18.276-3.141A53.189,53.189,0,0,1,1463.356,953.61Z" transform="translate(-1342.254 -724.595)" fill="#0c7bc2"/>
        <g id="Group_861" data-name="Group 861" transform="translate(-2 -1)">
          <ellipse id="Ellipse_43" data-name="Ellipse 43" cx="2.433" cy="2.433" rx="2.433" ry="2.433" transform="translate(211.738 104.509) rotate(-8)" fill="#060633"/>
          <path id="Path_2143" data-name="Path 2143" d="M2.433,0A2.433,2.433,0,1,1,0,2.433,2.433,2.433,0,0,1,2.433,0Z" transform="translate(234.816 103.338) rotate(-8)" fill="#060633"/>
          <path id="Path_1786" data-name="Path 1786" d="M0,1.616S3.311-.333,4.541.05A3.626,3.626,0,0,1,6.407,1.956,2.81,2.81,0,0,1,8.709.509c1.512.026,6.467,3.038,6.467,3.038s-4.961,6.283-9.512,5.3C1.029,7.849,0,1.616,0,1.616Z" transform="translate(217.968 120.319) rotate(-8)" fill="#ea6868"/>
          <path id="Path_1789" data-name="Path 1789" d="M4.01,13.138A4.331,4.331,0,0,1,0,9.385a.853.853,0,0,1,.178-.606C2.691,5.574,2.319.973,2.315.927a.852.852,0,0,1,1.7-.152A14.293,14.293,0,0,1,1.759,9.516c.183.667.908,2.154,3.637,1.957a.852.852,0,1,1,.124,1.7A7.588,7.588,0,0,1,4.01,13.138Z" transform="translate(220.106 104.496) rotate(-8)" fill="#ea6868"/>
          <path id="Path_1790" data-name="Path 1790" d="M15.176,1.931A144.322,144.322,0,0,1,0,0S2.59,4.794,6.134,4.93,15.176,1.931,15.176,1.931Z" transform="translate(218.194 121.919) rotate(-8)" fill="#fff"/>
          <path id="Path_2144" data-name="Path 2144" d="M0,3.119A6.012,6.012,0,0,1,7.037.252" transform="translate(209.053 100.514) rotate(-1)" fill="none" stroke="#263238" stroke-linecap="round" stroke-linejoin="round" stroke-miterlimit="10" stroke-width="1"/>
          <path id="Path_2145" data-name="Path 2145" d="M0,.4S6.255-1.427,8.6,2.743" transform="translate(233.121 99.959) rotate(-14)" fill="none" stroke="#263238" stroke-linecap="round" stroke-linejoin="round" stroke-miterlimit="10" stroke-width="1"/>
        </g>
      </g>
    </g>
    <path id="Path_2018" data-name="Path 2018" d="M2221,528.507" transform="translate(-1320.839 -156.36)" fill="none"/>
  </g>
</svg>
