<svg xmlns="http://www.w3.org/2000/svg" width="46" height="42.945" viewBox="0 0 46 42.945"><defs><style>.a{fill:#fff;}</style></defs><g transform="translate(0 -17)"><path class="a" d="M44.652,26.344H34.41v-8A1.348,1.348,0,0,0,33.063,17H1.348A1.348,1.348,0,0,0,0,18.348V53.207a6.746,6.746,0,0,0,6.738,6.738H39.262A6.746,6.746,0,0,0,46,53.207V27.691A1.348,1.348,0,0,0,44.652,26.344ZM6.738,57.25A4.048,4.048,0,0,1,2.7,53.207V19.7h29.02c0,35.62-.017,33.64.031,34.148a6.717,6.717,0,0,0,1.32,3.407ZM43.3,53.207a4.048,4.048,0,0,1-4.043,4.043h-.809a4.048,4.048,0,0,1-4.043-4.043V29.039H43.3Z"/><path class="a" d="M86.473,89H66.348a1.348,1.348,0,0,0,0,2.7H86.473a1.348,1.348,0,0,0,0-2.7Z" transform="translate(-59.16 -65.531)"/><path class="a" d="M86.473,153H66.348a1.348,1.348,0,0,0,0,2.7H86.473a1.348,1.348,0,0,0,0-2.7Z" transform="translate(-59.16 -123.781)"/><path class="a" d="M86.473,393H66.348a1.348,1.348,0,0,0,0,2.7H86.473a1.348,1.348,0,0,0,0-2.7Z" transform="translate(-59.16 -342.219)"/><path class="a" d="M188.41,217H178.348A1.348,1.348,0,0,0,177,218.348V228.41a1.348,1.348,0,0,0,1.348,1.348H188.41a1.348,1.348,0,0,0,1.348-1.348V218.348A1.348,1.348,0,0,0,188.41,217Zm-1.348,10.063H179.7V219.7h7.367Z" transform="translate(-161.098 -182.031)"/><path class="a" d="M66.348,243.7H70.66a1.348,1.348,0,0,0,0-2.7H66.348a1.348,1.348,0,0,0,0,2.7Z" transform="translate(-59.16 -203.875)"/><path class="a" d="M66.348,307.7H70.66a1.348,1.348,0,0,0,0-2.7H66.348a1.348,1.348,0,0,0,0,2.7Z" transform="translate(-59.16 -262.125)"/></g></svg>