<svg xmlns="http://www.w3.org/2000/svg" width="24.842" height="24.842" viewBox="0 0 24.842 24.842">
  <g id="Notification_Icon" data-name="Notification Icon" transform="translate(0 0)">
    <path id="Path_2202" data-name="Path 2202" d="M138.756,451.105a3.888,3.888,0,0,0,3.8-3.105h-7.606A3.888,3.888,0,0,0,138.756,451.105Zm0,0" transform="translate(-128.405 -426.263)" fill="#222"/>
    <path id="Path_2203" data-name="Path 2203" d="M18.193,15c-.027,0-.052,0-.079,0a8.267,8.267,0,0,1-6.728-13.09V1.035a1.035,1.035,0,0,0-2.07,0V2.153A7.25,7.25,0,0,0,3.105,9.316V12.2A6.94,6.94,0,0,1,.633,17.515,1.811,1.811,0,0,0,1.811,20.7H18.89a1.811,1.811,0,0,0,1.168-3.2A6.945,6.945,0,0,1,18.193,15Zm0,0" transform="translate(0)" fill="#222"/>
    <path id="Path_2204" data-name="Path 2204" d="M241.4,0a6.728,6.728,0,1,0,6.728,6.728A6.736,6.736,0,0,0,241.4,0Zm1.035,9.057a.776.776,0,1,1-1.553,0V5.693h-.518a.776.776,0,0,1,0-1.553h1.294a.777.777,0,0,1,.776.776Zm0,0" transform="translate(-223.282 0)" fill="#0c7bc2"/>
  </g>
</svg>
