<svg xmlns="http://www.w3.org/2000/svg" xmlns:xlink="http://www.w3.org/1999/xlink" width="504.003" height="315.373" viewBox="0 0 504.003 315.373"><defs><style>.a{opacity:0.8;}.b{opacity:0.5;}.c{fill:#ced3e6;}.d{fill:#fff;}.e{fill:#585859;}.f{fill:#39393b;}.g{fill:#df615c;}.h{fill:#5392f3;}.i{fill:#d2dcec;}.j{clip-path:url(#a);}.k{fill:#ea9b7a;}.l{fill:#d96c63;}.m{fill:#faaf3a;}.n{fill:#c77e2e;}.o{fill:#0767a4;}.p{fill:#0875f7;}.q{fill:#084fc7;}.r{fill:#21b573;}.s{fill:#217c58;}.t{fill:#b11722;}</style><clipPath id="a"><path d="M341.882,218.3c-.985,3.012-.985,3.538-.985,3.012l.032-86.081c0-.526-.032-.443-.032-62.773H534.474l.025,145.835Z" transform="translate(-340.897 -72.459)"/></clipPath></defs><g transform="translate(-41.824 -50.25)"><g transform="translate(76.852 50.25)"><g class="a" transform="translate(6.821 1.09)"><g class="b" transform="translate(0 35.571)"><path class="c" d="M312.472,154.737a108.793,108.793,0,0,1-49.59-21.016c-21.9-16.533-67.742-44.665-111.468-30.652C91.1,122.4,90.832,178.313,106.542,208.686S233.657,328,378.083,313.853c129.241-12.666,154.427-157.631,85.5-183.863C403.8,107.239,383.4,165.209,312.472,154.737Z" transform="translate(-97.79 -99.277)"/></g><g class="b" transform="translate(395.139 63.543)"><ellipse class="c" cx="5.604" cy="6.032" rx="5.604" ry="6.032"/></g><g transform="translate(31.837 29.78)"><path class="c" d="M143.4,91.594a3.635,3.635,0,0,1,4.065,2.275c1.033,2.8-1.671,5.933-5.311,4.528h0C139.013,96.073,140.38,92.149,143.4,91.594Z" transform="translate(-140.366 -91.533)"/></g><g transform="translate(378.143 8.362)"><circle class="c" cx="7.3" cy="7.3" r="7.3"/></g><g class="a" transform="translate(42.524 18.7)"><circle class="c" cx="7.375" cy="7.375" r="7.375"/></g><g transform="translate(346.401 243.543)"><path class="c" d="M563.409,377.645a3.634,3.634,0,0,1,4.416,1.48c1.535,2.558-.538,6.141-4.376,5.437h0C559.933,382.861,560.546,378.752,563.409,377.645Z" transform="translate(-561.032 -377.399)"/></g><g transform="translate(355.469 229.919)"><circle class="c" cx="7.375" cy="7.375" r="7.375"/></g><g transform="translate(367.2)"><circle class="c" cx="4.49" cy="4.49" r="4.49"/></g></g><g class="a"><path class="c" d="M483.631,137.186c-.007-40.12-33.411-84.081-74.984-86.737q-1.1-.07-2.213-.122c-59.6-2.778-64.142,69.915-118.067,78.113s-95.1-33.191-159.629-6.186c-57.951,24.253-73.647,160.533,96.622,166C361.592,292.625,483.649,256.884,483.631,137.186Z" transform="translate(-88.667 -50.25)"/></g></g><g transform="translate(219.266 66.857)"><g transform="translate(14.336 256.454)"><ellipse class="c" cx="131.389" cy="6.777" rx="131.389" ry="6.777"/></g><g transform="translate(56.28 203.685)"><g transform="translate(160.231 40.575)"><path class="c" d="M586.867,399.109H568.659v18.935H589.95V402.192A3.083,3.083,0,0,0,586.867,399.109Z" transform="translate(-568.659 -399.109)"/></g><g transform="translate(62.832)"><rect class="c" width="63.202" height="40.575"/></g><g transform="translate(0 40.575)"><path class="d" d="M528.74,418.045H354.382v-7.03a11.906,11.906,0,0,1,11.907-11.906H516.834a11.906,11.906,0,0,1,11.907,11.906v7.03Z" transform="translate(-354.382 -399.109)"/></g><g transform="translate(55.086)"><rect class="d" width="63.202" height="40.575"/></g><g transform="translate(55.086)"><path class="c" d="M428.049,357.307l63.2-5.059.01-7.4H428.132Z" transform="translate(-428.049 -344.848)"/></g></g><g transform="translate(0 0)"><g transform="translate(0 27.691)"><path class="c" d="M565.862,117.935V277.05a8.445,8.445,0,0,1-8.445,8.445H287.562a8.445,8.445,0,0,1-8.444-8.445V117.935a8.445,8.445,0,0,1,8.444-8.445H557.418A8.445,8.445,0,0,1,565.862,117.935Z" transform="translate(-279.118 -109.49)"/><g transform="translate(260.638)"><path class="e" d="M653.776,117.935V265.283H627.67V109.49h17.662A8.445,8.445,0,0,1,653.776,117.935Z" transform="translate(-627.67 -109.49)"/></g><path class="d" d="M555.124,117.935V277.05a8.446,8.446,0,0,1-8.445,8.445H287.562a8.445,8.445,0,0,1-8.444-8.445V117.935a8.445,8.445,0,0,1,8.444-8.445H546.68c.126,0,.251,0,.375.008.092,0,.182.008.274.016h.01c.065,0,.131.01.2.019.109.008.217.023.327.038.072.008.141.019.212.034.034,0,.067.01.1.016.07.01.138.023.206.04A8.449,8.449,0,0,1,555.124,117.935Z" transform="translate(-279.118 -109.49)"/><g transform="translate(0 0.001)"><path class="f" d="M548.382,109.663c-.07-.016-.137-.03-.206-.04-.034-.006-.067-.013-.1-.016-.072-.015-.141-.025-.212-.034-.109-.015-.217-.03-.327-.038-.065-.008-.131-.015-.2-.019h-.01c-.091-.008-.182-.013-.274-.016-.124-.006-.249-.008-.375-.008H287.562a8.445,8.445,0,0,0-8.444,8.445V265.284H555.125V117.936A8.449,8.449,0,0,0,548.382,109.663Zm-4.2,140.9a2.3,2.3,0,0,1-2.3,2.3H292.362a2.3,2.3,0,0,1-2.3-2.3V122.735a2.3,2.3,0,0,1,2.3-2.3H541.88a2.3,2.3,0,0,1,2.3,2.3V250.566Z" transform="translate(-279.118 -109.491)"/></g><g transform="translate(10.947 10.948)"><path class="c" d="M547.87,126.427V254.259a2.3,2.3,0,0,1-2.3,2.3H296.054a2.3,2.3,0,0,1-2.3-2.3V126.427a2.3,2.3,0,0,1,2.3-2.3H545.572A2.3,2.3,0,0,1,547.87,126.427Z" transform="translate(-293.757 -124.131)"/></g><g transform="translate(10.947 10.948)"><path class="d" d="M547.87,126.427v12.064H293.757V126.427a2.3,2.3,0,0,1,2.3-2.3H545.572A2.3,2.3,0,0,1,547.87,126.427Z" transform="translate(-293.757 -124.131)"/><g transform="translate(230.528 5.036)"><circle class="g" cx="1.951" cy="1.951" r="1.951"/><g transform="translate(6.324)"><circle class="h" cx="1.951" cy="1.951" r="1.951"/></g></g><g transform="translate(22.189 4.923)"><path class="i" d="M523.765,134.843H325.251a1.826,1.826,0,0,1-1.821-1.821v-.488a1.826,1.826,0,0,1,1.821-1.821H523.765a1.826,1.826,0,0,1,1.821,1.821v.488A1.826,1.826,0,0,1,523.765,134.843Z" transform="translate(-323.43 -130.714)"/></g><g transform="translate(5.164 4.726)"><path d="M304.674,132.712v1.911a.351.351,0,0,1-.526.3l-1.655-.955-1.655-.956a.35.35,0,0,1,0-.607l1.655-.955,1.655-.956a.35.35,0,0,1,.526.3Z" transform="translate(-300.663 -130.451)"/></g><g transform="translate(12.083 4.726)"><path d="M309.915,132.712v1.911a.351.351,0,0,0,.526.3l1.655-.955,1.655-.956a.35.35,0,0,0,0-.607l-1.655-.955-1.655-.956a.35.35,0,0,0-.526.3Z" transform="translate(-309.915 -130.451)"/></g></g></g><g transform="translate(254.099 43.713)"><g transform="translate(0.001)"><path class="f" d="M619.157,134.46l-.087-.087a.489.489,0,0,1,0-.692l2.62-2.62a.489.489,0,0,1,.692,0l.088.087a.491.491,0,0,1,0,.692l-2.621,2.62A.489.489,0,0,1,619.157,134.46Z" transform="translate(-618.927 -130.916)"/></g><path class="f" d="M622.382,134.46l.087-.087a.49.49,0,0,0,0-.692l-2.621-2.62a.489.489,0,0,0-.692,0l-.087.087a.489.489,0,0,0,0,.692l2.62,2.62A.489.489,0,0,0,622.382,134.46Z" transform="translate(-618.926 -130.916)"/></g><g transform="translate(39.671)"><g transform="translate(0 55.911)"><g transform="translate(0.001)"><path class="d" d="M523.351,257.238H336.973a4.8,4.8,0,0,1-4.8-4.8v-100.4a4.8,4.8,0,0,1,4.8-4.8H523.351a4.8,4.8,0,0,1,4.8,4.8v100.4A4.8,4.8,0,0,1,523.351,257.238Z" transform="translate(-332.171 -147.229)"/></g><g transform="translate(12.563 43.801)"><g transform="translate(0 10.099)"><path class="c" d="M393.134,221.7H350.164a1.194,1.194,0,0,1-1.193-1.193h0a1.193,1.193,0,0,1,1.193-1.193h42.969a1.194,1.194,0,0,1,1.194,1.193h0A1.2,1.2,0,0,1,393.134,221.7Z" transform="translate(-348.971 -219.31)"/></g><path class="c" d="M393.134,208.191H350.164A1.194,1.194,0,0,1,348.971,207h0a1.193,1.193,0,0,1,1.193-1.193h42.969A1.194,1.194,0,0,1,394.328,207h0A1.2,1.2,0,0,1,393.134,208.191Z" transform="translate(-348.971 -205.804)"/><g transform="translate(0 20.198)"><path class="c" d="M393.134,235.2H350.164a1.194,1.194,0,0,1-1.193-1.194h0a1.194,1.194,0,0,1,1.193-1.193h42.969a1.194,1.194,0,0,1,1.194,1.193h0A1.2,1.2,0,0,1,393.134,235.2Z" transform="translate(-348.971 -232.815)"/></g></g><g transform="translate(144.593 43.801)"><g transform="translate(0 10.099)"><path class="c" d="M569.7,221.7H526.728a1.194,1.194,0,0,1-1.194-1.193h0a1.194,1.194,0,0,1,1.194-1.193H569.7a1.194,1.194,0,0,1,1.194,1.193h0A1.194,1.194,0,0,1,569.7,221.7Z" transform="translate(-525.534 -219.31)"/></g><path class="c" d="M569.7,208.191H526.728A1.194,1.194,0,0,1,525.534,207h0a1.194,1.194,0,0,1,1.194-1.193H569.7A1.194,1.194,0,0,1,570.892,207h0A1.194,1.194,0,0,1,569.7,208.191Z" transform="translate(-525.534 -205.804)"/><g transform="translate(0 20.198)"><path class="c" d="M569.7,235.2H526.728a1.194,1.194,0,0,1-1.194-1.194h0a1.194,1.194,0,0,1,1.194-1.193H569.7a1.194,1.194,0,0,1,1.194,1.193h0A1.194,1.194,0,0,1,569.7,235.2Z" transform="translate(-525.534 -232.815)"/></g></g><g transform="translate(0 92.925)"><path class="f" d="M332.17,271.5H528.153v16.067a1.017,1.017,0,0,1-1.018,1.015H333.188a1.017,1.017,0,0,1-1.018-1.015V271.5Z" transform="translate(-332.17 -271.498)"/></g><g transform="translate(175.443 96.52)"><g transform="translate(0.001)"><path class="d" d="M568.08,279.043v-1.449h1.813v-1.288h-2.457a.644.644,0,0,0-.644.644v2.093h1.288Z" transform="translate(-566.792 -276.305)"/></g><g transform="translate(0 5.316)"><path class="d" d="M568.08,283.414h-1.289v2.2a.644.644,0,0,0,.644.645h2.457v-1.289h-1.813v-1.558Z" transform="translate(-566.791 -283.414)"/></g><g transform="translate(5.156 0.001)"><path class="d" d="M575.4,279.043h1.289V276.95a.644.644,0,0,0-.644-.644h-2.363v1.288H575.4v1.448Z" transform="translate(-573.686 -276.306)"/></g><g transform="translate(5.155 5.316)"><path class="d" d="M575.4,283.414v1.558h-1.718v1.289h2.363a.644.644,0,0,0,.644-.645v-2.2H575.4Z" transform="translate(-573.685 -283.414)"/></g></g><g transform="translate(11.417 96.808)"><path class="d" d="M347.438,280.761v-4.07l3.525,2.035,3.525,2.035-3.525,2.035-3.525,2.036Z" transform="translate(-347.438 -276.691)"/></g><g transform="translate(29.403 97.217)"><path class="d" d="M373.046,284.647h-.927a.631.631,0,0,1-.629-.629v-6.153a.631.631,0,0,1,.629-.629h.927a.631.631,0,0,1,.63.629v6.153A.631.631,0,0,1,373.046,284.647Z" transform="translate(-371.491 -277.237)"/><g transform="translate(4.564)"><path class="d" d="M379.15,284.647h-.926a.631.631,0,0,1-.63-.629v-6.153a.631.631,0,0,1,.63-.629h.926a.631.631,0,0,1,.63.629v6.153A.631.631,0,0,1,379.15,284.647Z" transform="translate(-377.595 -277.237)"/></g></g><g transform="translate(0 89.713)"><rect class="c" width="195.983" height="3.212"/><g transform="translate(0 0.001)"><rect class="g" width="100.561" height="3.212"/></g></g><g transform="translate(155.611 77.212)"><g transform="translate(9.033)"><g transform="translate(0 0.001)"><path class="f" d="M552.349,250.486h2.211v4.844h2.96v1.715h-5.172Z" transform="translate(-552.349 -250.486)"/></g><g transform="translate(5.78 0.001)"><path class="f" d="M560.079,250.486h2.211v6.559h-2.211Z" transform="translate(-560.079 -250.486)"/></g><g transform="translate(8.347 0.001)"><path class="f" d="M571.23,250.486l-2.773,6.559h-2.173l-2.773-6.559h2.38l1.564,3.832,1.6-3.832Z" transform="translate(-563.511 -250.486)"/></g><g transform="translate(16.281)"><path class="f" d="M579.575,255.376v1.668h-5.453v-6.559h5.331v1.668H576.3v.768h2.773v1.593H576.3v.861h3.279Z" transform="translate(-574.122 -250.485)"/></g></g><g transform="translate(0 0.53)"><circle class="g" cx="2.696" cy="2.696" r="2.696"/></g></g><g transform="translate(5.714 76.169)"><g transform="translate(11.312 0.503)"><path class="f" d="M361.851,255.355c0,1.5-1.42,2.465-3.456,2.465s-3.456-.968-3.456-2.465a2.013,2.013,0,0,1,1.035-1.772,1.877,1.877,0,0,1-.76-1.519c0-1.4,1.309-2.3,3.181-2.3s3.181.9,3.181,2.3a1.874,1.874,0,0,1-.76,1.519A2.012,2.012,0,0,1,361.851,255.355Zm-2.608-.087a.849.849,0,1,0-.848.8A.781.781,0,0,0,359.243,255.267Zm-1.464-3.094a.618.618,0,1,0,.616-.661A.6.6,0,0,0,357.779,252.174Z" transform="translate(-354.939 -249.763)"/><g transform="translate(7.396)"><path class="f" d="M364.83,253.792c0-2.554,1.452-4.029,3.489-4.029s3.49,1.475,3.49,4.029-1.453,4.028-3.49,4.028S364.83,256.346,364.83,253.792Zm4.369,0c0-1.486-.374-1.949-.88-1.949s-.881.463-.881,1.949.374,1.948.881,1.948S369.2,255.278,369.2,253.792Z" transform="translate(-364.83 -249.763)"/></g></g><g transform="translate(2.059)"><circle class="g" cx="2.368" cy="2.368" r="2.368"/></g><g transform="translate(0 5.548)"><path class="g" d="M348.666,259.324h-8.855a4.582,4.582,0,0,1,4.361-2.814l.067,0,.067,0A4.582,4.582,0,0,1,348.666,259.324Z" transform="translate(-339.811 -256.51)"/></g></g></g><g transform="translate(6.526)"><g class="j"><g transform="translate(9.177 2.929)"><g transform="translate(0 32.086)"><g transform="translate(0 31.131)"><path class="k" d="M374.82,175.744s-1.184,7.224-6.5,8.519c-4.3,1.043-8.347-3.083-9.747-4.708-.334-.39-.517-.634-.517-.634a7.334,7.334,0,0,1-.8.026c-1.12-.015-3.112-.244-3.891-1.621-1.111-1.963,2.933-3.3,2.933-3.3s-2.074-1.852-1.555-3.2c.512-1.324,3.293-1.6,3.293-1.6s-2.995-1.944-1.993-3.641c1.508-2.55,4.606.255,4.853.41-.2-.224-4.076-4.239-1.952-4.961,1.854-.63,4.9,1.455,6.906,3.521.319.327.5.517.5.517s.12-.091.331-.232c1-.67,4.079-2.466,6.039-.829C375.086,165.986,374.82,175.744,374.82,175.744Z" transform="translate(-353.17 -160.916)"/></g><g transform="translate(11.617 41.222)"><path class="l" d="M373.186,183.583a.423.423,0,0,1-.536-.616,3.8,3.8,0,0,0,.644-3.162c-.7-2.705-4.321-4.577-4.357-4.6a.423.423,0,0,1,.384-.753c.162.083,3.995,2.067,4.791,5.136a4.607,4.607,0,0,1-.76,3.846A.413.413,0,0,1,373.186,183.583Z" transform="translate(-368.706 -174.41)"/></g><g transform="translate(4.083 38.048)"><path class="l" d="M366.951,172.1a1.313,1.313,0,0,1-.6,1.151,1.444,1.444,0,0,1-.274.139,3.063,3.063,0,0,1-.761.171,3.069,3.069,0,0,1,.541.441,1.465,1.465,0,0,1,.326.5,1.1,1.1,0,0,1-.187,1.066c-.678.9-2.242,1.265-3.516,1.416a4.465,4.465,0,0,1,1.968,2,1.323,1.323,0,0,1-.163,1.288,2.5,2.5,0,0,1-.915.672,13.812,13.812,0,0,1-3.427.948c-.337-.39-.517-.635-.517-.635a7.46,7.46,0,0,1-.8.028.414.414,0,0,1,.22-.089c1.564-.182,4.24-.731,4.767-1.431a.487.487,0,0,0,.041-.5,5.063,5.063,0,0,0-3.12-2.2.422.422,0,0,1,.107-.831c1.044.019,3.917-.159,4.682-1.178.111-.148.082-.228.065-.27a1.4,1.4,0,0,0-.639-.585,10.412,10.412,0,0,0-2.5-.939.4.4,0,0,1-.218-.132.411.411,0,0,1-.1-.376.423.423,0,0,1,.511-.313c.146.034.449.111.825.228a9.455,9.455,0,0,0,1.909.07,1.679,1.679,0,0,0,.716-.2.483.483,0,0,0,.211-.45,2.687,2.687,0,0,0-.455-1.281.413.413,0,0,1,.035-.472.086.086,0,0,0,.008-.011.414.414,0,0,1,.681.043A3.561,3.561,0,0,1,366.951,172.1Z" transform="translate(-358.63 -170.166)"/></g><g transform="translate(3.736)"><path class="f" d="M363.738,151.359a11.563,11.563,0,0,1,1.979,1.454c.6.572.98.861,1.392,1.238h0l-8.118-34.442a.417.417,0,0,0-.817.168l5.565,31.583Z" transform="translate(-358.166 -119.284)"/></g><g transform="translate(10.956 40.448)"><path class="f" d="M373.231,184.129c-2.814,1.816-3.6.472-3.6.472l-1.427-8.089c.041-.043.08-.091.117-.139a1.1,1.1,0,0,0,.187-1.066,1.457,1.457,0,0,0-.326-.5,2.484,2.484,0,0,0-.328-.289l-.031-.176a2.954,2.954,0,0,0,.579-.148,1.443,1.443,0,0,0,.274-.139,1.24,1.24,0,0,0,.522-.683,2.1,2.1,0,0,0,1.266.568,2.854,2.854,0,0,0,.409.013Z" transform="translate(-367.821 -173.376)"/></g><g transform="translate(11.452 34.766)"><path class="l" d="M375.845,169.582a13.88,13.88,0,0,1-2.772,1.861,4.746,4.746,0,0,1-2.444.584,2.107,2.107,0,0,1-1.528-.864c-1.339-1.8-.193-4.146.61-5.387.319.327.5.517.5.517s.12-.091.331-.232c-.692,1.021-1.848,3.141-.762,4.6a1.269,1.269,0,0,0,.937.529c1.49.156,3.8-1.562,4.57-2.237a.423.423,0,0,1,.56.633Z" transform="translate(-368.485 -165.777)"/></g><g transform="translate(10.578 30.192)"><path class="m" d="M419.008,159.685l0-.016s0-.016,0,0l-.01.046-.021.1-.051.248-.111.549c-.038.187-.079.378-.123.574s-.085.387-.133.585c-.179.784-.375,1.588-.59,2.386-.437,1.6-.9,3.207-1.445,4.788s-1.106,3.155-1.746,4.692c-.326.765-.646,1.532-1,2.284-.328.761-.7,1.5-1.048,2.246-.741,1.472-1.514,2.92-2.352,4.318-.2.358-.421.7-.633,1.043s-.419.7-.647,1.03c-.45.671-.885,1.355-1.358,2-.912,1.33-1.919,2.571-2.922,3.808-1.042,1.2-2.1,2.385-3.23,3.484-.282.275-.559.558-.843.829l-.876.792-.437.4-.109.1.055-.05.076-.064a3.045,3.045,0,0,1,.327-.23,5.134,5.134,0,0,1,1.573-.729c.135-.034.247-.072.375-.093.063-.012.125-.021.188-.028l.159-.028a2.67,2.67,0,0,1,.313-.024,1.681,1.681,0,0,1,.245-.01c.038,0,.089.007.116.006h.087c.055,0,.121.014.165.019a.482.482,0,0,1,.1.013l.047.013a.086.086,0,0,1,.02,0c.123.04-.122,0-.487-.158a12.576,12.576,0,0,1-1.408-.736c-.541-.321-1.125-.707-1.724-1.135-1.2-.849-2.465-1.869-3.727-2.951s-2.534-2.254-3.8-3.464-2.528-2.457-3.771-3.742-2.5-2.585-3.72-3.911c-.618-.659-1.232-1.323-1.835-1.989l-1.763-1.931-13.627,10.221.454.686.431.636.86,1.25q.871,1.234,1.76,2.445c1.2,1.609,2.422,3.2,3.7,4.769s2.595,3.114,3.974,4.644c.693.763,1.4,1.522,2.122,2.277s1.472,1.5,2.241,2.243a63.037,63.037,0,0,0,5.018,4.381c.923.715,1.9,1.423,2.965,2.118a30.225,30.225,0,0,0,3.588,2.02,21.67,21.67,0,0,0,4.9,1.676l.369.075c.129.023.267.044.4.064.268.041.539.078.809.111s.585.051.877.07l.443.023c.146.007.316,0,.473,0q.48,0,.959-.025c.335-.023.683-.061,1.022-.1.171-.022.339-.043.512-.071s.358-.067.537-.1c.358-.077.707-.15,1.069-.256a14.739,14.739,0,0,0,4.15-1.933c.3-.213.6-.435.892-.665l.217-.173.2-.161.156-.139.625-.557,1.247-1.117c.407-.381.8-.772,1.2-1.16,1.611-1.542,3.091-3.2,4.533-4.883,1.4-1.709,2.758-3.457,3.987-5.276,1.258-1.8,2.385-3.677,3.461-5.569l.78-1.433c.259-.479.494-.965.741-1.448s.49-.967.715-1.457l.689-1.467a79.6,79.6,0,0,0,4.327-12.1c.546-2.065,1.038-4.144,1.415-6.263.189-1.06.367-2.124.509-3.215.037-.27.07-.545.1-.823s.065-.553.094-.838.058-.572.084-.864l.078-1.04Z" transform="translate(-367.315 -159.66)"/></g><g transform="translate(19.479 52.152)"><circle class="n" cx="1.176" cy="1.176" r="1.176"/></g><g transform="translate(43.411 64.05)"><path class="n" d="M411.726,214.507a.5.5,0,0,0,.487-.38,37.749,37.749,0,0,0,.817-8.7.5.5,0,1,0-1,.028,37.512,37.512,0,0,1-.788,8.43.5.5,0,0,0,.365.609A.49.49,0,0,0,411.726,214.507Z" transform="translate(-411.224 -204.938)"/><g transform="translate(0.81 0.67)"><path class="n" d="M415.211,211.1a.5.5,0,0,0,.449-.726,40.638,40.638,0,0,0-2.458-4.348.5.5,0,1,0-.786.624,41.618,41.618,0,0,1,2.347,4.174A.5.5,0,0,0,415.211,211.1Z" transform="translate(-412.307 -205.834)"/></g></g><g transform="translate(14.36 50.866)"><g transform="translate(1.011)"><path class="n" d="M374.228,199.622a.5.5,0,0,0,.36-.153c4.2-4.335,13.69-11.183,13.786-11.252a.5.5,0,1,0-.588-.814c-.1.069-9.655,6.969-13.919,11.368a.5.5,0,0,0,.36.851Z" transform="translate(-373.726 -187.308)"/></g><g transform="translate(0 1.516)"><path class="n" d="M377.949,196.427a.5.5,0,0,0,.385-.823l-5.073-6.088a.5.5,0,0,0-.771.642l5.073,6.088A.5.5,0,0,0,377.949,196.427Z" transform="translate(-372.374 -189.335)"/></g></g></g><g transform="translate(49.285 133.983)"><g transform="translate(0 23.666)"><path class="f" d="M444.469,339.573l6.8-40.143.557-3.282-19.581-6.911-1.117-.393-4.662-1.645s-.373,1.716-.952,4.668q-.105.535-.218,1.122c-1.837,9.493-5.283,29.059-6.22,46.583Z" transform="translate(-419.078 -287.2)"/><g transform="translate(20.84 10.999)"><path class="e" d="M448.026,343.283c2.943-16.005,6.725-39.4,6.945-40.761a.529.529,0,1,0-1.044-.168c-.054.336-3.98,24.619-6.98,40.929h1.079Z" transform="translate(-446.947 -301.908)"/></g></g><g transform="translate(6.219)"><g transform="translate(1.082)"><path class="f" d="M486.549,266.4s1.474,13.98-1.706,21.764-44.356,3.778-54.85-3.227c-4.3-2.874,4.863-29.387,4.863-29.387Z" transform="translate(-428.842 -255.551)"/></g><g transform="translate(0 13.241)"><path class="e" d="M427.395,289.476a12.029,12.029,0,0,0,1.823-.47,12.186,12.186,0,0,0,2.708-1.311,14.242,14.242,0,0,0,2.418-1.973c4.539-4.579,5.875-11.5,5.938-11.839a.529.529,0,1,0-1.039-.2c-.015.082-1.406,7.281-6.014,11.638a12.734,12.734,0,0,1-1.88,1.481,11.168,11.168,0,0,1-2.586,1.232,11.03,11.03,0,0,1-1.15.309C427.543,288.708,427.47,289.082,427.395,289.476Z" transform="translate(-427.395 -273.258)"/></g><g transform="translate(25.405 5.7)"><path class="e" d="M461.37,290.842a.521.521,0,0,0,.5.535h0a.519.519,0,0,0,.553-.483c.093-1.912.2-3.87.328-5.824q.031-.516.067-1.033c.417-6.389.944-12.662,1.342-17.09.034-.358.064-.706.095-1.039.089-.972.17-1.834.238-2.564-.351-.054-.7-.111-1.047-.17-.069.731-.15,1.6-.239,2.582-.031.333-.062.681-.1,1.039-.393,4.389-.919,10.608-1.334,16.958-.024.35-.046.7-.07,1.053C461.583,286.832,461.466,288.863,461.37,290.842Z" transform="translate(-461.369 -263.174)"/></g><g transform="translate(23.604 6.331)"><path class="e" d="M459.255,284.312a13.9,13.9,0,0,0,1.847.707c.329.1.682.191,1.044.263a7.705,7.705,0,0,0,1,.13,3.658,3.658,0,0,0,1.773-.277,2.165,2.165,0,0,0,1.2-1.614c.384-1.971,1.191-10.11,1.733-15.867.035-.354.067-.7.1-1.035.086-.92.163-1.758.229-2.47-.349-.043-.7-.084-1.051-.131-.066.716-.143,1.564-.232,2.5-.031.333-.064.678-.1,1.034-.544,5.743-1.348,13.87-1.721,15.78a1.132,1.132,0,0,1-.637.891,3.734,3.734,0,0,1-2.234.029c-.356-.078-.71-.176-1.041-.283a12.689,12.689,0,0,1-1.45-.568.535.535,0,0,0-.707.23A.5.5,0,0,0,459.255,284.312Z" transform="translate(-458.96 -264.018)"/></g></g><g transform="translate(34.434 13.241)"><g transform="translate(0 6.548)"><path class="f" d="M490.582,338.265c1.629-14.9,3.512-34.835,4.577-46.387.035-.362.066-.711.1-1.057.47-5.1.758-8.306.758-8.306-2.526-1.052-7.109-.328-11.983,1.055-.354.1-.706.2-1.06.307a145.693,145.693,0,0,0-17.844,6.976v47.412Z" transform="translate(-465.127 -282.014)"/></g><g transform="translate(21.907 21.425)"><path class="e" d="M495.483,343.283c1.408-16.562,3.075-40.493,3.1-40.807a.529.529,0,1,0-1.055-.074c-.022.316-1.7,24.333-3.1,40.882Z" transform="translate(-494.423 -301.91)"/></g><g transform="translate(14.915)"><path class="e" d="M485.081,273.884A27.72,27.72,0,0,0,488,281.667a17.079,17.079,0,0,0,5.437,6.028,12.37,12.37,0,0,0,6.752,1.975c.034-.361.066-.712.1-1.057a11.381,11.381,0,0,1-6.277-1.806,15.837,15.837,0,0,1-4.949-5.445,27.17,27.17,0,0,1-2.941-7.671.528.528,0,1,0-1.039.192Z" transform="translate(-485.072 -273.258)"/></g></g></g><g transform="translate(56.293)"><g transform="translate(0 47.707)"><path class="m" d="M428.451,236.418c11.4,10.64,38.352,16.3,59.127,6.18,2.279-6.228,4.785-28.456,5.456-35.1.136-1.324.243-2.646.331-3.971a174.046,174.046,0,0,0,.021-19.509c-.016-.365-.034-.731-.052-1.1-.271-5.525-.678-11.256-1.061-17.339-.759-12.043-4.778-19.464-11.762-20.574a28.49,28.49,0,0,1-7.709-2.325c-.233-.109-.451-.217-.663-.326a21.829,21.829,0,0,1-3.527-2.182H453.037a11.883,11.883,0,0,1-4.848,4.052c-.2.1-.4.188-.61.277-5.529,2.386-11.976,1.911-13.305,8.579-.835,4.186,2.37,12.8,2.034,30.258q-.036,1.923-.134,3.987-.091,1.936-.245,4c-.094,1.282-.209,2.607-.345,3.967q-.177,1.788-.4,3.668-.233,1.928-.523,3.954C433.62,210.175,430.839,227.087,428.451,236.418Z" transform="translate(-428.451 -140.174)"/><g transform="translate(52.915 34.514)"><path class="n" d="M499.681,251.7a.5.5,0,0,1-.123-.016.468.468,0,0,1-.328-.574c8.65-31.719,6.9-63.959,6.886-64.282a.467.467,0,1,1,.933-.055c.018.323,1.773,32.717-6.918,64.581A.468.468,0,0,1,499.681,251.7Z" transform="translate(-499.214 -186.33)"/></g><g transform="translate(5.939 30.13)"><path class="n" d="M436.9,209.021a.5.5,0,0,0,.5-.446c1.035-9.174,1.046-27.425,1.046-27.607a.5.5,0,0,0-1,0c0,.182-.013,18.377-1.041,27.495a.5.5,0,0,0,.443.555Z" transform="translate(-436.393 -180.467)"/></g><g transform="translate(27.775 91.96)"><circle class="n" cx="1.175" cy="1.175" r="1.175"/></g><g transform="translate(27.587 97.641)"><circle class="n" cx="1.176" cy="1.176" r="1.176"/></g><g transform="translate(11.766 24.203)"><path class="n" d="M446.3,184.76c-3.057-3.552-1.911-11.457-1.86-11.792a.5.5,0,0,1,.5-.427h10.372a.5.5,0,0,1,.5.427c.05.335,1.2,8.24-1.86,11.792a5.146,5.146,0,0,1-7.645,0Zm-.921-11.215c-.191,1.67-.7,7.792,1.682,10.561a4.144,4.144,0,0,0,6.123,0c2.382-2.765,1.874-8.891,1.683-10.562h-9.489Z" transform="translate(-444.186 -172.541)"/></g></g><g transform="translate(11.228)"><path class="f" d="M473.808,85.679c-2.905-1.88-12.044-2.823-12.044-2.823s-1.506-3.952-3.2-5.081c-3.851-2.568-4.328,2.634-4.328,2.634s-3.764-5.269-7.151-3.764.941,6.4.941,6.4-5.081-.941-4.517,3.387,5.457,6.21,5.457,6.21a9.494,9.494,0,0,0-.752,6.4c.752,3.952,2.446,4.14,2.446,4.14l21.077,1.882s4.328,0,5.457-5.457-2.634-7.716-2.634-7.716S477.007,87.749,473.808,85.679Z" transform="translate(-443.466 -76.375)"/><g transform="translate(6.75 35.289)"><g transform="translate(6.374)"><path class="k" d="M461.018,133.336V137.3a12.334,12.334,0,0,0,1.4.982c6.875,4.128,14.291-.982,14.291-.982V123.568l-13.821,8.6Z" transform="translate(-461.018 -123.568)"/></g><g transform="translate(6.374 6.25)"><path class="f" d="M461.018,135.331V139.4a12.334,12.334,0,0,0,1.4.982c5.854-2.317,10.114-8.46,10.114-8.46l-9.644,2.353Z" transform="translate(-461.018 -131.926)"/></g><g transform="translate(12.987 9.705)"><path class="m" d="M478.907,136.547a7.831,7.831,0,0,1,5.9,6.07c-4.507,4.715-8.492,8.8-14.942,10v-9.472A16.692,16.692,0,0,0,478.907,136.547Z" transform="translate(-469.862 -136.547)"/></g><g transform="translate(0.491 11.074)"><path class="m" d="M458.889,138.377s-4.131.887-5.738,6.174c4.166,5.069,6.391,6.977,12.5,8.526V143.6S462.243,143.55,458.889,138.377Z" transform="translate(-453.151 -138.377)"/></g><g transform="translate(0 15.274)"><g transform="translate(3.901 13.068)"><path class="f" d="M457.71,217.821l2.679,6.467h0l1.2,2.905,3.4,8.209,1.64-3.17.582-1.122,1.318-2.541.58-1.122,1.317-2.542.58-1.122,1.317-2.542v0l.583-1.12,1.237-2.389-.026-.259-.193-1.9-.437-4.3-.193-1.9-.438-4.3-.191-1.895-.438-4.3L472.033,197l-.437-4.3-.193-1.9-.437-4.3-.193-1.9-.438-4.3-.193-1.9-.437-4.294-.193-1.9-.437-4.3-.193-1.895-.452-4.441-3.282-.128-.1.739-.2,1.5-.449,3.409-.2,1.5-.449,3.409-.2,1.505-.45,3.409-.2,1.5-.45,3.409-.2,1.5-.45,3.411-.2,1.5-.449,3.409-.2,1.5-.449,3.409-.2,1.505-.45,3.409-.2,1.5-.45,3.409-.2,1.505-.45,3.409-.2,1.5-.449,3.409-.2,1.505Z" transform="translate(-457.71 -161.47)"/><g transform="translate(0.008 0.739)"><g transform="translate(7.133)"><path class="e" d="M467.26,163.961l4.223,4.222-.193-1.895-3.831-3.83Z" transform="translate(-467.26 -162.458)"/></g><g transform="translate(6.485 4.912)"><path class="e" d="M466.393,170.531l5.5,5.5-.193-1.9-5.11-5.11Z" transform="translate(-466.393 -169.027)"/></g><g transform="translate(5.836 9.825)"><path class="e" d="M465.526,177.1l6.779,6.78-.193-1.9-6.388-6.388Z" transform="translate(-465.526 -175.597)"/></g><g transform="translate(5.188 14.739)"><path class="e" d="M464.659,183.673l8.059,8.059-.193-1.9-7.668-7.667Z" transform="translate(-464.659 -182.169)"/></g><g transform="translate(4.54 19.652)"><path class="e" d="M463.792,190.243l9.337,9.337-.193-1.9-8.946-8.946Z" transform="translate(-463.792 -188.739)"/></g><g transform="translate(3.891 24.567)"><path class="e" d="M462.924,196.815l10.617,10.616-.193-1.895-10.225-10.225Z" transform="translate(-462.924 -195.311)"/></g><g transform="translate(3.242 29.479)"><path class="e" d="M462.057,203.385l11.895,11.895-.191-1.895-11.5-11.5Z" transform="translate(-462.057 -201.881)"/></g><g transform="translate(2.594 34.392)"><path class="e" d="M461.19,209.956l13.174,13.174-.193-1.9-12.782-12.782Z" transform="translate(-461.19 -208.451)"/></g><g transform="translate(1.946 39.307)"><path class="e" d="M460.323,216.527l14.453,14.453-.193-1.9-14.062-14.061Z" transform="translate(-460.323 -215.023)"/></g><g transform="translate(1.297 44.22)"><path class="e" d="M459.456,223.1,472.764,236.4l.583-1.12-13.693-13.692Z" transform="translate(-459.456 -221.593)"/></g><g transform="translate(0.648 49.134)"><path class="e" d="M458.588,229.669l12.06,12.059.58-1.122-12.441-12.441Z" transform="translate(-458.588 -228.165)"/></g><g transform="translate(0 54.047)"><path class="e" d="M457.721,236.24l10.811,10.81.58-1.122L457.92,234.735Z" transform="translate(-457.721 -234.735)"/></g><g transform="translate(2.67 62.081)"><path class="e" d="M461.292,245.479l1.2,2.905,5.039,5.039.582-1.122Z" transform="translate(-461.292 -245.479)"/></g></g><g transform="translate(7.149)"><path class="e" d="M470.842,161.6l-1.634,2.429-1.649-2.557-.288,2.185,1.911,1.945,1.831-2.31Z" transform="translate(-467.271 -161.47)"/></g></g><g transform="translate(8.791 3.68)"><path class="f" d="M472.824,154.352l-4.378,6.509-4.2-6.509,4.2-5.436Z" transform="translate(-464.25 -148.916)"/></g><path class="n" d="M472.4,157.564a.5.5,0,0,0,.313-.109c4.336-3.457,8.027-12.39,8.182-12.768a.5.5,0,1,0-.929-.38c-.036.087-3.512,8.5-7.48,12.027l-6.594-8.956a.5.5,0,0,0-.814.009l-6.153,8.734c-.938-1.7-3.409-6.2-5.483-10.375a.5.5,0,0,0-.9.447c2.619,5.27,5.863,11.058,5.895,11.116a.5.5,0,0,0,.849.043l6.211-8.818,6.5,8.826a.5.5,0,0,0,.339.2C472.359,157.563,472.381,157.564,472.4,157.564Z" transform="translate(-452.494 -143.995)"/><g transform="translate(12.495 0.936)"><path class="n" d="M469.706,148.491a.5.5,0,0,0,.5-.5v-2.242a.5.5,0,1,0-1,0v2.242A.5.5,0,0,0,469.706,148.491Z" transform="translate(-469.204 -145.246)"/></g></g></g><g transform="translate(4.123 26.331)"><path class="l" d="M453.034,112.769s-2.249-2.657-3.519,0-.294,8.034,3.129,7.154Z" transform="translate(-448.98 -111.588)"/></g><g transform="translate(5.779 11.974)"><path class="k" d="M451.2,117.242s-.013,8.186,8.5,8.167c8.462-.016,14.228-6.661,14.529-6.969l.009-.008.093-1.72.482-8.93.257-4.772s1.081-8.594-7.086-10.161c-5.967-1.146-11.564-.155-14.387,2.959-.091.1-.179.2-.263.31a7.346,7.346,0,0,0-1.606,4l-.265,8.572-.064,2.1Z" transform="translate(-451.195 -92.389)"/></g><g transform="translate(15.043 19.681)"><path class="f" d="M464.1,105.143s3.571,2.661,5.7.965-2.827-3.544-4.456-3.405S463.034,104.541,464.1,105.143Z" transform="translate(-463.583 -102.695)"/></g><g transform="translate(5.446 19.681)"><path class="f" d="M456.97,105.143s-3.571,2.661-5.7.965,2.827-3.544,4.456-3.405S458.031,104.541,456.97,105.143Z" transform="translate(-450.749 -102.695)"/></g><g transform="translate(13.28 36.455)"><path class="l" d="M462.428,126.569a3.542,3.542,0,0,0,2.434-.781.376.376,0,0,0-.49-.571,2.605,2.605,0,0,1-2.616.407.376.376,0,0,0-.306.687A3.03,3.03,0,0,0,462.428,126.569Z" transform="translate(-461.226 -125.126)"/></g><g transform="translate(10.353 32.054)"><path class="d" d="M465.131,119.241s-5.195,1.045-7.819.81c0,0,.976,3.866,4.843,2.89A3.87,3.87,0,0,0,465.131,119.241Z" transform="translate(-457.312 -119.241)"/></g><g transform="translate(7.913 11.975)"><path class="f" d="M454.049,96.118c1.336-.473,2.3-.033,4.381.882,3.009,1.321,6.372.132,9.346-1.387s4.756.594,3.743,1.982-.9,2.51.221,4.28-2.125,2.591-.331,3.979a1.837,1.837,0,0,1,.405,2.272,1.225,1.225,0,0,0,1.379,1.622h0c.968-.246,2.334-1.962,2.334-1.962l.257-4.772s1.081-8.594-7.086-10.161c-5.967-1.146-11.564-.155-14.387,2.959C454.222,95.908,454.133,96.011,454.049,96.118Z" transform="translate(-454.049 -92.39)"/></g><g transform="translate(17.147 28.252)"><ellipse class="l" cx="2.742" cy="1.079" rx="2.742" ry="1.079"/></g><g transform="translate(5.977 28.251)"><path class="l" d="M451.46,116.282c.211.021.433.031.661.031,1.512,0,2.74-.483,2.74-1.08s-1.228-1.079-2.74-1.079c-.2,0-.4.009-.6.026Z" transform="translate(-451.46 -114.155)"/></g><g transform="translate(15.961 24.569)"><ellipse class="f" cx="0.829" cy="1.482" rx="0.829" ry="1.482"/></g><g transform="translate(7.735 24.569)"><ellipse class="f" cx="0.829" cy="1.482" rx="0.829" ry="1.482"/></g><g transform="translate(26.144 34.705)"><path class="f" d="M478.429,122.787c.039.09,1.116,2.59,2.665,3.322l.008-.008.093-1.721A5.879,5.879,0,0,1,478.429,122.787Z" transform="translate(-478.429 -122.787)"/></g><g transform="translate(27.643 26.754)"><path class="k" d="M480.434,114.42s3.273-4.4,5.67-.941c1.976,2.847-1.76,10.266-5.67,7.724Z" transform="translate(-480.434 -112.154)"/></g><g transform="translate(27.753 28.995)"><path class="f" d="M480.919,120.633a.336.336,0,0,0,.334-.3,5.625,5.625,0,0,1,3.269-4.535.337.337,0,0,0-.25-.625,6.3,6.3,0,0,0-3.689,5.087.337.337,0,0,0,.3.372Z" transform="translate(-480.581 -115.15)"/></g><g transform="translate(28.84 30.992)"><path class="f" d="M484.428,119.266a.337.337,0,0,0,.214-.6,3.246,3.246,0,0,0-2.353-.8.337.337,0,1,0,.167.653c.581-.149,1.469.434,1.761.672A.329.329,0,0,0,484.428,119.266Z" transform="translate(-482.035 -117.822)"/></g><g transform="translate(10.574 22.49)"><path class="f" d="M460.336,114.132a.336.336,0,0,0,0-.673,2.313,2.313,0,0,1-2.01-.937c1.343-2.77,2.678-5.56,2.692-5.588a.337.337,0,0,0-.608-.291c-.014.029-1.4,2.928-2.768,5.747a.333.333,0,0,0,0,.289A2.877,2.877,0,0,0,460.336,114.132Z" transform="translate(-457.607 -106.452)"/></g></g></g></g></g><g class="j"><g transform="translate(166.933 38.623)"><path class="k" d="M568.676,148.937s4.534,4.579,9.011,2.793c3.614-1.443,4.415-6.468,4.591-8.348.042-.45.047-.719.047-.719a6.582,6.582,0,0,0,.585-.388c.795-.582,2.107-1.762,1.964-3.147-.2-1.975-3.788-.873-3.788-.873s.544-2.386-.516-3.087c-1.042-.689-3.178.531-3.178.531s1.157-2.922-.428-3.627c-2.382-1.06-3.174,2.533-3.272,2.769.026-.261,1.16-11.273-.732-10.709-1.651.493-3.172,9.7-3.556,12.2-.061.4-.094.624-.094.624s-.132,0-.356,0c-1.061.031-4.184.312-4.754,2.485C563.508,142.073,568.676,148.937,568.676,148.937Z" transform="translate(-564.137 -124.11)"/><g transform="translate(9.857 13.644)"><path class="l" d="M581.277,145.757a3.926,3.926,0,0,0-.39,2.44,1.161,1.161,0,0,0,.774.84,2.215,2.215,0,0,0,1,.015,12.167,12.167,0,0,0,2.943-1.068c.043-.45.047-.718.047-.718a6.325,6.325,0,0,0,.587-.388.364.364,0,0,0-.2.048c-1.214.666-3.413,1.638-4.149,1.4A.43.43,0,0,1,581.6,148a4.455,4.455,0,0,1,1.117-3.168.371.371,0,0,0-.5-.542c-.74.546-2.889,1.882-3.959,1.542-.156-.05-.177-.122-.186-.16a1.259,1.259,0,0,1,.162-.746,9.142,9.142,0,0,1,1.315-1.949.373.373,0,0,0,.089-.2.365.365,0,0,0-.123-.319.373.373,0,0,0-.526.035,10.073,10.073,0,0,0-1.339,1.935,3.162,3.162,0,0,0-.313.927,1.279,1.279,0,0,0,.019.523.965.965,0,0,0,.676.668A4.734,4.734,0,0,0,581.277,145.757Z" transform="translate(-577.318 -142.356)"/></g><g transform="translate(7.652 13.727)"><path class="l" d="M574.848,142.656a.364.364,0,0,1,.265.32,2.39,2.39,0,0,0,.327,1.152.425.425,0,0,0,.382.215,1.472,1.472,0,0,0,.611-.224,10.9,10.9,0,0,0,1.988-1.651.365.365,0,0,1-.088.2,9.141,9.141,0,0,0-1.315,1.949c-.074.049-.15.093-.223.136a2.84,2.84,0,0,1-.674.289,1.34,1.34,0,0,1-.266.04,1.156,1.156,0,0,1-1.015-.522,3.1,3.1,0,0,1-.47-1.531.364.364,0,0,1,.467-.378Z" transform="translate(-574.37 -142.467)"/></g><g transform="translate(2.475 12.224)"><path class="l" d="M567.779,146.314a12.25,12.25,0,0,0,2.938-.079,4.175,4.175,0,0,0,2.051-.827,1.857,1.857,0,0,0,.656-1.4c.043-1.973-1.976-3.073-3.185-3.553-.061.4-.094.624-.094.624s-.132,0-.356,0c1.017.38,2.927,1.31,2.891,2.908a1.119,1.119,0,0,1-.4.857c-.989.872-3.527.82-4.42.726a.369.369,0,0,0-.408.33A.374.374,0,0,0,567.779,146.314Z" transform="translate(-567.446 -140.457)"/></g><g transform="translate(7.78 16.46)"><path class="l" d="M577.545,154.839a.372.372,0,0,0,.07-.715,3.342,3.342,0,0,1-2.074-1.94c-.876-2.3.765-5.486.781-5.519a.372.372,0,0,0-.659-.344c-.075.142-1.811,3.52-.817,6.127a4.056,4.056,0,0,0,2.506,2.371A.371.371,0,0,0,577.545,154.839Z" transform="translate(-574.54 -146.121)"/></g></g><g transform="translate(109.92 58.107)"><path class="m" d="M500.524,150.165l7.749,6.73q1.858,1.735,3.729,3.443t3.731,3.406c1.25,1.118,2.49,2.237,3.734,3.331s2.491,2.162,3.725,3.188,2.457,2.024,3.609,2.88c.571.424,1.125.813,1.576,1.106l.3.191.123.077a.243.243,0,0,1,.044.038.79.79,0,0,1,.1.1c.04.053.034.093.085.135a.572.572,0,0,0,.383.059,5.868,5.868,0,0,0,2.173-.844,18.641,18.641,0,0,0,2.978-2.225,40.276,40.276,0,0,0,3.061-3.073,75.845,75.845,0,0,0,5.778-7.443c1.84-2.655,3.141-4.7,4.8-7.529a12.444,12.444,0,0,0,11.292,4.317,100.6,100.6,0,0,1-4.367,10.078,78.071,78.071,0,0,1-5.747,9.764,49.822,49.822,0,0,1-3.729,4.747,34.984,34.984,0,0,1-4.856,4.535,24.517,24.517,0,0,1-3.163,2.053,20.707,20.707,0,0,1-3.924,1.635,17.92,17.92,0,0,1-4.737.748,17.256,17.256,0,0,1-5.018-.639,18.1,18.1,0,0,1-2.321-.823l-.539-.243-.452-.221c-.156-.076-.286-.145-.426-.218s-.284-.146-.408-.215c-1.048-.567-1.947-1.113-2.806-1.658-1.706-1.087-3.24-2.164-4.743-3.251s-2.93-2.2-4.349-3.307-2.81-2.225-4.177-3.361-2.726-2.269-4.069-3.417-2.664-2.311-3.983-3.475-2.619-2.347-3.913-3.538l-1.934-1.8-.96-.911c-.325-.308-.634-.6-.974-.936Z" transform="translate(-487.893 -150.165)"/></g><g transform="translate(115.204 77.782)"><path class="n" d="M509.7,188.59a.466.466,0,0,1-.267-.085c-5.116-3.581-14.214-11.125-14.3-11.2a.468.468,0,0,1,.6-.719c.09.076,9.159,7.6,14.244,11.155a.467.467,0,0,1-.269.85Z" transform="translate(-494.959 -176.477)"/><g transform="translate(0.086 2.492)"><path class="n" d="M499.147,181.27a.43.43,0,0,1-.068-.005l-3.6-.524a.467.467,0,1,1,.135-.925l3.6.524a.468.468,0,0,1-.067.93Z" transform="translate(-495.075 -179.81)"/></g></g><g transform="translate(167.58 65.601)"><path class="n" d="M576.424,166.4a.476.476,0,0,0-.322-.887c-6.787,1.478-10.167-5-10.2-5.061a.477.477,0,0,0-.64-.209h0a.475.475,0,0,0-.2.639c.037.073,3.755,7.192,11.251,5.559A.488.488,0,0,0,576.424,166.4Z" transform="translate(-565.002 -160.188)"/></g><g transform="translate(174.817 65.819)"><path class="n" d="M575.376,166.594a.475.475,0,0,0,.218-.235l2.234-5.217a.476.476,0,0,0-.875-.375l-2.234,5.217a.476.476,0,0,0,.657.609Z" transform="translate(-574.681 -160.479)"/></g><g transform="translate(171.419 65.714)"><g transform="translate(0 0)"><circle class="n" cx="0.825" cy="0.825" r="0.825"/></g></g><g transform="translate(149.28 82.82)"><path class="n" d="M541.224,188.989a.474.474,0,0,0,.25-.345,20.6,20.6,0,0,1,1.389-4.739.476.476,0,1,0-.848-.432,21.115,21.115,0,0,0-1.48,5.015.475.475,0,0,0,.688.5Z" transform="translate(-540.529 -183.214)"/><g transform="translate(1.334 0.427)"><path class="n" d="M544.765,188.062a.46.46,0,0,0,.086-.058.475.475,0,0,0,.059-.67,8.736,8.736,0,0,1-1.655-3.168.476.476,0,1,0-.932.19,9.573,9.573,0,0,0,1.857,3.59A.477.477,0,0,0,544.765,188.062Z" transform="translate(-542.313 -183.784)"/></g></g></g></g></g></g></g><g transform="translate(41.824 110.194)"><g transform="translate(0 242.248)"><ellipse class="o" cx="108.308" cy="6.591" rx="108.308" ry="6.591"/></g><g transform="translate(14.199)"><g transform="translate(70.769 59.169)"><path class="k" d="M172.035,215.755l10.941,40-3.9-4.5a19.876,19.876,0,0,0,4.967,1.773,35.859,35.859,0,0,0,5.975.766c2.109.109,4.309.09,6.556,0s4.546-.263,6.879-.461h.013a6.252,6.252,0,0,1,1.516,12.4c-2.406.384-4.852.746-7.362,1.037s-5.082.508-7.746.568a49.92,49.92,0,0,1-8.275-.455,34.34,34.34,0,0,1-8.688-2.4,6.8,6.8,0,0,1-3.761-4.08l-.138-.416-13.125-39.34a8.441,8.441,0,0,1,16.014-5.343C171.946,215.45,172,215.616,172.035,215.755Z" transform="translate(-155.452 -209.54)"/></g><g transform="translate(17.301)"><g transform="translate(0 80.138)"><g transform="translate(15.506 106.711)"><path class="n" d="M163.443,403.843a1.447,1.447,0,0,1-.491-.086L105.64,383.094a1.445,1.445,0,1,1,.98-2.72l57.313,20.663a1.446,1.446,0,0,1-.49,2.806Z" transform="translate(-104.684 -380.287)"/></g><g transform="translate(13.125 106.372)"><path class="n" d="M102.946,403.728a1.446,1.446,0,0,1-.492-2.8l57.994-21a1.446,1.446,0,1,1,.985,2.718l-57.994,21A1.48,1.48,0,0,1,102.946,403.728Z" transform="translate(-101.5 -379.833)"/></g><g transform="translate(8.125 82.807)"><path class="m" d="M166.051,432.708a2.475,2.475,0,0,1-2.449-2.146l-10.352-77.294H109.931L99.74,430.556a2.474,2.474,0,1,1-4.905-.647l10.473-79.439a2.474,2.474,0,0,1,2.453-2.151h47.653a2.474,2.474,0,0,1,2.452,2.145l10.639,79.44a2.473,2.473,0,0,1-2.124,2.78A2.365,2.365,0,0,1,166.051,432.708Z" transform="translate(-94.813 -348.32)"/></g><path class="m" d="M138.872,322.863H107.923c-9.8,0-20.305-5.366-21.81-15.055a183.776,183.776,0,0,1-1.949-37.016,45.077,45.077,0,0,1,17.09-33.209h0s6.182,26.942-1.591,64.125C102.631,315.838,138.872,322.863,138.872,322.863Z" transform="translate(-83.948 -237.582)"/></g><g transform="translate(13.33)"><g transform="translate(6.554)"><path class="f" d="M139.13,137.819s-3.681-8.866-13.42-7.2c-6.808,1.167-9.707,9.649-9.306,22.744.583,19.06-5.864,30.547-5.864,30.547l8.558,1.945S140.88,153.184,139.13,137.819Z" transform="translate(-110.54 -130.413)"/></g><g transform="translate(24.066 122.969)"><path class="f" d="M223.087,386.1H209.263s-3.2-15.344-4.272-23.947-1.631-29-1.631-29-11.017,3.578-34.077,2.229c-51.1-2.984-31.721-40.523-31.721-40.523,1.727,2.384,12.3.731,19.529,1.87,22.183,2.13,41.422,10.835,52.968,15.817a57.578,57.578,0,0,1,7.416,3.8c2.784,1.716,4.526,6.922,5.575,13.769C226.206,350.7,223.087,386.1,223.087,386.1Z" transform="translate(-133.959 -294.86)"/><g transform="translate(3.624 0.591)"><path class="e" d="M212.2,378.91a.5.5,0,0,1-.485-.4c-1.994-9.871-2.663-22.156-3.2-32.027-.446-8.185-.867-15.916-1.919-16.845-.852-.753-4.388-.166-8.865.577-8.905,1.479-22.363,3.713-37.2.259-8.084-1.881-14.027-5.808-17.664-11.671-6.272-10.111-3.412-22.649-3.383-22.773a.495.495,0,1,1,.963.227c-.028.121-2.791,12.274,3.266,22.032,3.494,5.628,9.228,9.4,17.043,11.223,14.65,3.409,27.99,1.194,36.817-.271,5.287-.878,8.478-1.407,9.682-.343,1.3,1.15,1.667,6.8,2.252,17.533.536,9.839,1.2,22.086,3.183,31.886a.494.494,0,0,1-.387.582A.623.623,0,0,1,212.2,378.91Z" transform="translate(-138.805 -295.651)"/></g><g transform="translate(73.525 82.79)"><path class="e" d="M248.151,406.895h-.011l-15.372-.33a.5.5,0,0,1-.484-.505.489.489,0,0,1,.505-.484l15.372.33a.495.495,0,0,1-.01.989Z" transform="translate(-232.284 -405.575)"/></g><g transform="translate(75.401 91.243)"><g transform="translate(0.68)"><path class="k" d="M248.368,434.591h-9.757l-1.878-11.448-1.03-6.264h12.123l.192,6.264Z" transform="translate(-235.703 -416.879)"/></g><g transform="translate(1.71 6.264)"><path class="m" d="M248.715,436.7h-9.757l-1.4-8.523-.479-2.925h11.285l.093,3.032Z" transform="translate(-237.08 -425.256)"/><path class="n" d="M248.459,428.288l-10.9-.108-.479-2.925h11.285Z" transform="translate(-237.08 -425.256)"/></g><g transform="translate(0 14.999)"><path class="p" d="M272.217,455.059h-36.9a5.169,5.169,0,0,1-.485-2.05c-.231-3.122.763-8.1,1.252-11.244.06-.367.11-.709.15-1.018a10.83,10.83,0,0,0,.11-1.285,1.882,1.882,0,0,1,2.269-2.124c3.734,3.663,7.962-1.828,10.432-.028,0,0,.1.074.327.251.207.163.522.417.959.784.63.526,1.512,1.29,2.708,2.364,2.929,2.636,7.912,4.377,12.155,6.15q.811.339,1.508.677.531.256,1,.512c3.467,1.872,4.571,3.661,4.822,4.962A2.883,2.883,0,0,1,272.217,455.059Z" transform="translate(-234.793 -436.937)"/><g transform="translate(10.769 0.623)"><path class="q" d="M271.331,448.258c-.95.757-3.065,2.27-4.76,2.27-.075,0-.15,0-.223-.009-1.2-.1-5.595-2.261-9.174-4.227-2.051-1.128-3.924-2.237-5.27-3.126-2.21-1.456-2.592-2.012-2.679-2.4-.323-1.455,2.086-2.471,3.774-3,.207.163.522.417.959.784-2.1.572-3.82,1.468-3.74,1.979.206.431,2.389,2.1,7.612,4.956,3.985,2.181,7.763,3.944,8.6,4.013,1.137.092,2.806-.942,3.9-1.757C270.683,447.916,271.016,448.088,271.331,448.258Z" transform="translate(-249.195 -437.771)"/></g><g transform="translate(0.034 16.072)"><path class="q" d="M272.228,460.481h-36.9a5.158,5.158,0,0,1-.485-2.05h37.692A2.884,2.884,0,0,1,272.228,460.481Z" transform="translate(-234.839 -458.431)"/></g><g transform="translate(1.286 3.809)"><path class="q" d="M239.512,456.344h-1.1a8.1,8.1,0,0,0,1.984-5.909,10.4,10.4,0,0,0-3.886-7.385c.06-.367.11-.71.15-1.019a11.307,11.307,0,0,1,4.615,8.361A8.946,8.946,0,0,1,239.512,456.344Z" transform="translate(-236.513 -442.031)"/></g><g transform="translate(17.006 4.16)"><path class="d" d="M258.144,444.289a.608.608,0,0,1-.147-1.2l2.305-.573a.608.608,0,0,1,.293,1.181l-2.305.572A.62.62,0,0,1,258.144,444.289Z" transform="translate(-257.536 -442.5)"/></g><g transform="translate(14.715 2.24)"><path class="d" d="M255.08,441.723a.608.608,0,0,1-.147-1.2l2.305-.573a.608.608,0,0,1,.293,1.18l-2.305.573A.611.611,0,0,1,255.08,441.723Z" transform="translate(-254.472 -439.934)"/></g><g transform="translate(19.312 5.5)"><path class="d" d="M261.227,446.081a.608.608,0,0,1-.147-1.2l2.305-.573a.608.608,0,0,1,.292,1.181l-2.305.572A.6.6,0,0,1,261.227,446.081Z" transform="translate(-260.619 -444.292)"/></g><g transform="translate(21.617 6.788)"><path class="d" d="M264.31,447.8a.608.608,0,0,1-.147-1.2l2.305-.573a.608.608,0,0,1,.293,1.181l-2.305.572A.616.616,0,0,1,264.31,447.8Z" transform="translate(-263.702 -446.015)"/></g><g transform="translate(24.13 7.979)"><path class="d" d="M267.671,449.4a.608.608,0,0,1-.147-1.2l2.305-.573a.608.608,0,1,1,.292,1.18l-2.305.573A.567.567,0,0,1,267.671,449.4Z" transform="translate(-267.063 -447.608)"/></g><g transform="translate(26.856 8.995)"><path class="d" d="M271.316,450.756a.608.608,0,0,1-.147-1.2l2.305-.573a.608.608,0,0,1,.293,1.18l-2.305.573A.613.613,0,0,1,271.316,450.756Z" transform="translate(-270.708 -448.967)"/></g></g></g></g><g transform="translate(0.114 6.467)"><g transform="translate(1.953 100.428)"><path class="q" d="M104.554,277.539s-.437,2.98,3.556,3.818l41.633,1.388a4.694,4.694,0,0,0,2.306-4.9S134.472,267.972,104.554,277.539Z" transform="translate(-104.54 -273.365)"/></g><g transform="translate(2.52 101.269)"><path class="k" d="M150.506,291.592c-21.611,11.887-45.208,2.315-45.208,2.315a65.559,65.559,0,0,0,2.63-9.932c.72-3.758,1.125-7.078,1.309-8.824,9.193-.5,31.726-1.463,40.556.632l.07,3.538Z" transform="translate(-105.298 -274.489)"/><g transform="translate(27.282 9.158)"><ellipse class="l" cx="0.843" cy="2.038" rx="0.843" ry="2.038" transform="translate(0.579 0) rotate(8.169)"/></g><g transform="translate(2.63)"><path class="l" d="M150.749,279.321c-9.2-.559-27.311-.754-41.934,4.654.72-3.758,1.125-7.078,1.309-8.824,9.193-.5,31.726-1.463,40.555.632Z" transform="translate(-108.815 -274.489)"/></g></g><g transform="translate(0 41.504)"><g transform="translate(0.279 0.45)"><path class="p" d="M159.373,242.215a5.158,5.158,0,0,1-.31.752c-.044.087-.09.176-.138.262a20.438,20.438,0,0,1-4.449,5.331c-.313.274-.612.526-.889.752-.555.45-1.024.8-1.347,1.03-.3.212-.472.323-.472.323,0,.02,0,.04-.005.064-.016.16-.029.328-.044.507-.051.68-.1,1.491-.13,2.415-.03.743-.049,1.559-.07,2.435-.011.65-.024,1.33-.031,2.037-12.213-5.456-37.365-2.012-47.5-.307q.278-1.313.511-2.569a79.887,79.887,0,0,0,1.278-10.458,110,110,0,0,0-1.15-18.809c-.062-.468-.129-.933-.2-1.4-.044-.305-.09-.608-.14-.913-.345-2.261-.748-4.525-1.206-6.721-2-9.583-.6-19.643,9.121-20.833.705-.086,1.4-.165,2.075-.237,4.58-.488,8.348-.655,9.394-.7l.29-.011,18.784,5.456,1.786.517q1.54.5,2.854.962c.375.136.738.268,1.087.4.911.342,1.737.676,2.486,1.007a20.781,20.781,0,0,1,3.637,1.983c4.121,2.925,3.482,6.231,3.377,12.759,0,.029,0,.059,0,.088,0,.082,0,.165,0,.251,0,.037,0,.076,0,.112,0,.266,0,.532,0,.8q.008,1.264.086,2.521c.07,1.232.18,2.457.314,3.658q.08.722.167,1.434c.055.446.112.891.171,1.33C159.464,234.157,160.395,239.165,159.373,242.215Z" transform="translate(-102.301 -195.167)"/></g><g transform="translate(51.16 23.617)"><path class="q" d="M175.14,226.152c0,.082,0,.165,0,.251,0,.037,0,.076,0,.112,0,.266,0,.532,0,.8l-3.946,2.477a.551.551,0,1,1-.586-.933l4.185-2.626A.554.554,0,0,1,175.14,226.152Z" transform="translate(-170.345 -226.149)"/></g><g transform="translate(29.381 40.355)"><path class="q" d="M141.77,252.939a.55.55,0,0,1-.369-.96l3.673-3.305a.551.551,0,1,1,.737.82l-3.672,3.305A.551.551,0,0,1,141.77,252.939Z" transform="translate(-141.219 -248.532)"/></g><g transform="translate(53.253 32.396)"><path class="q" d="M176.579,239.219l-2.516,2.264a.552.552,0,1,1-.739-.82l3.083-2.774C176.463,238.335,176.52,238.78,176.579,239.219Z" transform="translate(-173.143 -237.889)"/></g><g transform="translate(22.386 30.607)"><path class="q" d="M131.963,236.361a.551.551,0,0,1,.579-.85l4.81,1.133a.551.551,0,1,1-.253,1.072l-4.809-1.134A.547.547,0,0,1,131.963,236.361Z" transform="translate(-131.864 -235.496)"/></g><g transform="translate(4.775 36.499)"><path class="q" d="M108.864,247.783a.551.551,0,0,1-.369-.96l3.673-3.305a.551.551,0,0,1,.737.82l-3.672,3.305A.554.554,0,0,1,108.864,247.783Z" transform="translate(-108.313 -243.376)"/></g><g transform="translate(48.043 39.742)"><path class="q" d="M166.2,248.09a.551.551,0,0,1,1.027-.046l1.973,4.53a.551.551,0,0,1-1.01.44l-1.973-4.53A.548.548,0,0,1,166.2,248.09Z" transform="translate(-166.176 -247.713)"/></g><g transform="translate(53.834 46.589)"><path class="q" d="M177.438,257.778a5.157,5.157,0,0,1-.31.752c-.044.087-.09.176-.138.262l-2.682-.846a.55.55,0,1,1,.33-1.05Z" transform="translate(-173.921 -256.869)"/></g><g transform="translate(38.371 47.891)"><path class="q" d="M157.058,258.613a.551.551,0,0,1,.464.918l-3.321,3.66a.551.551,0,0,1-.816-.74l3.32-3.66A.543.543,0,0,1,157.058,258.613Z" transform="translate(-153.241 -258.61)"/></g><g transform="translate(39.775 35.736)"><path class="q" d="M155.576,246.076a.551.551,0,0,1-.2-1.01l4.185-2.627a.551.551,0,1,1,.586.933L155.963,246A.549.549,0,0,1,155.576,246.076Z" transform="translate(-155.119 -242.355)"/></g><g transform="translate(37.024 22.826)"><path class="q" d="M157.315,225.809a.551.551,0,0,1-.47.915l-4.912-.535a.551.551,0,1,1,.12-1.095l4.911.535A.55.55,0,0,1,157.315,225.809Z" transform="translate(-151.441 -225.09)"/></g><g transform="translate(35.741 12.47)"><path class="q" d="M149.74,211.662a.551.551,0,0,1,1.021-.13l2.338,4.353a.551.551,0,1,1-.971.521l-2.338-4.353A.55.55,0,0,1,149.74,211.662Z" transform="translate(-149.724 -211.242)"/></g><g transform="translate(50.88 52.196)"><path class="q" d="M171.544,266.014c-.313.274-.612.526-.889.752l-.646-1.645a.551.551,0,0,1,1.024-.4Z" transform="translate(-169.97 -264.367)"/></g><g transform="translate(7.224 44.66)"><path class="q" d="M111.655,255.1a.551.551,0,0,1,.672-.778l4.649,1.672a.551.551,0,1,1-.373,1.036l-4.649-1.673A.543.543,0,0,1,111.655,255.1Z" transform="translate(-111.589 -254.29)"/></g><g transform="translate(5.312 51.756)"><path class="q" d="M113.287,263.779a.55.55,0,0,1,.36.963l-3.7,3.274a.551.551,0,1,1-.73-.825l3.7-3.274A.545.545,0,0,1,113.287,263.779Z" transform="translate(-109.031 -263.779)"/></g><g transform="translate(10.418 55.915)"><path class="q" d="M121.714,270.38a.551.551,0,0,1-.524.885l-4.871-.83a.551.551,0,0,1,.185-1.087l4.871.83A.548.548,0,0,1,121.714,270.38Z" transform="translate(-115.861 -269.341)"/></g><g transform="translate(20.327 10.002)"><path class="q" d="M129.13,208.636a.551.551,0,0,1,.83-.607l4.152,2.679a.551.551,0,1,1-.6.926l-4.152-2.679A.554.554,0,0,1,129.13,208.636Z" transform="translate(-129.111 -207.941)"/></g><g transform="translate(46.735 13.787)"><path class="q" d="M166.367,213.07a.551.551,0,0,1,.782.668L165.5,218.4a.551.551,0,0,1-1.039-.368l1.652-4.657A.543.543,0,0,1,166.367,213.07Z" transform="translate(-164.426 -213.003)"/></g><g transform="translate(42.919 7.386)"><path class="q" d="M162.861,204.842l-2.553,3.272a.551.551,0,1,1-.869-.677l2.335-2.993C162.149,204.579,162.512,204.711,162.861,204.842Z" transform="translate(-159.323 -204.443)"/></g><g transform="translate(21.481 51.391)"><path class="q" d="M130.677,264.878a.447.447,0,0,0,.339.3.423.423,0,0,0,.23-.013,25.954,25.954,0,0,1,16.482.87,28.134,28.134,0,0,0,11.143,2.385c.013-.178.027-.348.043-.508,0-.022,0-.043.006-.063,0,0,.173-.111.472-.325a26.823,26.823,0,0,1-11.318-2.323,26.385,26.385,0,0,0-17.111-.891A.449.449,0,0,0,130.677,264.878Z" transform="translate(-130.654 -263.291)"/></g><g transform="translate(21.656 0.451)"><path class="q" d="M149.961,200.624c-1.051,1.632-3.224,3.48-7.621,3.161-6.066-.44-10.057-6.227-11.451-8.605l.289-.01Z" transform="translate(-130.889 -195.169)"/></g><g transform="translate(21.495)"><path class="d" d="M143.456,211.208a4.4,4.4,0,0,0,.536.076,4.678,4.678,0,0,0,4.037-1.445c2.917-3.187,1.719-10.452,1.667-10.76a.449.449,0,1,0-.886.151c.013.071,1.177,7.14-1.444,10a3.775,3.775,0,0,1-3.3,1.155c-5.879-.473-12.463-15.4-12.53-15.552a.45.45,0,1,0-.824.36C130.98,195.815,137.226,209.946,143.456,211.208Z" transform="translate(-130.674 -194.566)"/></g><g transform="translate(52.505 10.774)"><path class="k" d="M172.22,208.973a32.776,32.776,0,0,0,3.454,16.53c-.065-1.1-.1-2.21-.084-3.32,0-.037,0-.076,0-.112,0-.114,0-.226.007-.338C175.7,215.2,176.339,211.9,172.22,208.973Z" transform="translate(-172.143 -208.973)"/></g><g transform="translate(0.281 1.156)"><path class="k" d="M120.053,213.312c-2.155,8.314-10.033,14.987-15.422,12.905-.064-.467-.13-.932-.2-1.4-.044-.305-.09-.608-.138-.914-.345-2.261-.749-4.524-1.208-6.72-2-9.583-.594-19.643,9.121-20.832.706-.087,1.4-.166,2.076-.238C119.149,198.186,122.533,203.737,120.053,213.312Z" transform="translate(-102.304 -196.112)"/></g><g transform="translate(0 4.842)"><path class="k" d="M121.068,208.214l12.626,46.167-4.5-5.188a22.9,22.9,0,0,0,5.732,2.045,41.4,41.4,0,0,0,6.9.885c2.435.126,4.973.1,7.567,0s5.247-.3,7.938-.532h.014a7.216,7.216,0,0,1,1.75,14.315c-2.776.443-5.6.861-8.5,1.2s-5.866.585-8.94.655a57.454,57.454,0,0,1-9.551-.525,39.7,39.7,0,0,1-10.026-2.77,7.853,7.853,0,0,1-4.341-4.709l-.16-.479-15.147-45.4a9.741,9.741,0,1,1,18.481-6.165C120.966,207.862,121.023,208.053,121.068,208.214Z" transform="translate(-101.928 -201.041)"/></g><g transform="translate(24.417 53.019)"><g transform="translate(0 1.136)"><path class="l" d="M134.955,269.537a.374.374,0,0,1-.185-.7,15.747,15.747,0,0,1,5.766-1.849.374.374,0,0,1,.058.746,15.279,15.279,0,0,0-5.454,1.753A.371.371,0,0,1,134.955,269.537Z" transform="translate(-134.58 -266.987)"/></g><g transform="translate(0.551)"><path class="l" d="M139.727,267.486a.374.374,0,0,1-.194-.054,9.852,9.852,0,0,0-3.87-1.218.374.374,0,0,1,.053-.746,10.469,10.469,0,0,1,4.2,1.324.374.374,0,0,1-.194.693Z" transform="translate(-135.317 -265.468)"/></g></g><g transform="translate(25.358 18.532)"><path class="q" d="M151.118,231.521c5.588,1.132,8.033-4.646,8.056-4.7a.449.449,0,1,0-.832-.342c-.09.218-2.2,5.147-7.046,4.164-5.089-1.031-14.585-11.048-14.681-11.149a.45.45,0,1,0-.654.617C136.359,220.528,145.751,230.433,151.118,231.521Z" transform="translate(-135.839 -219.349)"/></g></g><g transform="translate(18.335)"><g transform="translate(0.902 0.472)"><path class="f" d="M140.27,175.068s-8.967-1.688-11.495-10.737c-2.407-8.615-.555-13.085,1.949-17.739,1.885-3.506,7.865-8.242,16.252-6.542,8.468,1.715,14.8,6.061,15.732,13.023C164.459,166.1,153.948,181.994,140.27,175.068Z" transform="translate(-127.654 -139.693)"/></g><path class="m" d="M128.9,165.567a.466.466,0,0,1-.406-.236,20.3,20.3,0,0,1-.8-16,14.635,14.635,0,0,1,8.7-9.183,15.724,15.724,0,0,1,5.865-1.083.468.468,0,0,1-.046.934h0a15.074,15.074,0,0,0-5.518,1.035,13.588,13.588,0,0,0-8.121,8.608,19.728,19.728,0,0,0,.734,15.225.468.468,0,0,1-.406.7Z" transform="translate(-126.447 -139.062)"/><g transform="translate(2.084 3.926)"><g transform="translate(27.716 21.893)"><path class="l" d="M167.408,174.424s2.918-2.3,3.685.747-1.4,8.475-4.794,6.826Z" transform="translate(-166.299 -173.589)"/></g><g transform="translate(22.832 28.252)"><path class="m" d="M162.912,182.174a4.638,4.638,0,0,0-3.057,3.361,4.392,4.392,0,1,0,5.179-3.434c-.015,0-.028,0-.043-.007a.72.72,0,0,0,.122.727,3.658,3.658,0,0,1,1.291.631,3.711,3.711,0,1,1-5.88,2.219,3.6,3.6,0,0,1,2.733-2.82Z" transform="translate(-159.767 -182.093)"/></g><g transform="translate(2.598 28.744)"><path class="k" d="M150.1,189.806l-1.223,7.639s-5.718,5.837-16.165-4.635c2.8-2.089,3.874-6.93,3.547-10.059a15.2,15.2,0,0,1,2.092,1.644,8.368,8.368,0,0,0,.877.612C141.986,186.885,146.216,189.328,150.1,189.806Z" transform="translate(-132.708 -182.751)"/><g transform="translate(5.639 1.644)"><path class="f" d="M152,190.361l-.58,3.621c-3.133-1.4-8.673-4.381-11.169-9.032q.408.292.877.612C143.888,187.44,148.118,189.883,152,190.361Z" transform="translate(-140.249 -184.95)"/></g></g><g transform="translate(6.137 3.652)"><path class="k" d="M162.955,166.429c-.162.808-.316,1.577-.469,2.308q-.243,1.191-.477,2.246c-1.156,5.288-2.11,8.119-3.652,9.179-7.8,5.362-20.49-5.5-20.9-5.846l-.01-.01q-.016-.934,0-1.846a47.683,47.683,0,0,1,2.361-14.037,10.773,10.773,0,0,1,8.975-9.109c4.831-.727,8.464,2.069,10.737,3.306C162.955,154.491,164.3,159.687,162.955,166.429Z" transform="translate(-137.441 -149.195)"/></g><g transform="translate(8.65)"><path class="f" d="M140.926,152.4s5.457-10.5,16.346-7.567,11.466,7.986,11.659,10.515-5.638-1.951-5.638-1.951-.2,5.056-2.143,3.5a31.661,31.661,0,0,1-5.05-6.035s-6.485,6.373-12.647,4.655C139.952,154.534,140.926,152.4,140.926,152.4Z" transform="translate(-140.801 -144.312)"/></g><g transform="translate(19.607 29.493)"><path class="l" d="M158,185.441a3.661,3.661,0,0,1-2.433-1.028.389.389,0,0,1,.557-.542,2.693,2.693,0,0,0,2.656.66.389.389,0,1,1,.251.736A3.191,3.191,0,0,1,158,185.441Z" transform="translate(-155.454 -183.753)"/></g><g transform="translate(18.881 24.825)"><path class="d" d="M154.492,177.51s5.251,1.556,7.974,1.556c0,0-1.362,3.89-5.252,2.528A4,4,0,0,1,154.492,177.51Z" transform="translate(-154.484 -177.51)"/></g><g transform="translate(27.469 13.891)"><path class="f" d="M167.135,162.893s-1.365-.139-1.143,1.182,3.178.514,4.641,3.162C170.634,167.236,172.046,164.461,167.135,162.893Z" transform="translate(-165.968 -162.888)"/></g><g transform="translate(17.66 12.619)"><path class="f" d="M157.765,161.235s1.311.4.592,1.534-3.128-.764-5.506,1.106C152.852,163.875,152.632,160.768,157.765,161.235Z" transform="translate(-152.85 -161.187)"/></g><g transform="translate(14.236 19.853)"><ellipse class="l" cx="2.929" cy="1.153" rx="2.929" ry="1.153" transform="translate(0.458 0) rotate(11.455)"/></g><g transform="translate(7.178 13.579)"><g transform="translate(24.149 8.251)"><path class="d" d="M175.5,174.229l-4.241-.723a5.162,5.162,0,0,1-.106.532.4.4,0,0,1-.03.086l4.271.728a.317.317,0,0,0,.365-.259A.307.307,0,0,0,175.5,174.229Z" transform="translate(-171.127 -173.506)"/></g><g transform="translate(6.521)"><path class="d" d="M158.239,167.823a4.864,4.864,0,0,0-.038-.645,5.355,5.355,0,0,0-1.43-3.036,5.287,5.287,0,0,0-2.74-1.546c-.018,0-.034-.01-.053-.013a5.352,5.352,0,0,0-5.938,3.007,4.6,4.6,0,0,0-.229.592,4.965,4.965,0,0,0-.147.551,5.342,5.342,0,0,0,10.463,2.163s0-.01,0-.014A5.283,5.283,0,0,0,158.239,167.823Zm-6.295,4.6c-.027-.005-.051-.01-.078-.018a4.7,4.7,0,0,1-3.379-6.245.326.326,0,0,0,.016-.043,4.719,4.719,0,0,1,4.111-3.008,4.7,4.7,0,0,1,3.529,1.294,4.707,4.707,0,0,1-4.2,8.019Z" transform="translate(-147.553 -162.472)"/></g><g transform="translate(18.876 2.555)"><path class="d" d="M171.9,166.5c-.144-.077-.292-.145-.445-.209a5.148,5.148,0,0,0-.557-.192c-.132-.039-.264-.072-.4-.1a5.327,5.327,0,0,0-.749-.1,5.152,5.152,0,0,0-.894.019,5.354,5.354,0,0,0-4.089,2.683,4.908,4.908,0,0,0-.3.624.209.209,0,0,0-.012.034,5.206,5.206,0,0,0-.267.889,5.348,5.348,0,0,0,1.965,5.308,5.271,5.271,0,0,0,1.737.891c.1.029.2.057.3.078.049.015.1.025.15.036a5.282,5.282,0,0,0,1.531.09c.08,0,.161-.013.239-.024a5.348,5.348,0,0,0,1.793-.568,5.342,5.342,0,0,0,0-9.459Zm2.127,5.682c-.021.1-.044.2-.073.3a3.751,3.751,0,0,1-.136.416,4.7,4.7,0,0,1-1.927,2.336,4.792,4.792,0,0,1-1.015.474,4.645,4.645,0,0,1-.686.168c-.069.011-.135.021-.2.028a4.673,4.673,0,0,1-1.525-.061l-.141-.031c-.028-.007-.057-.015-.085-.02a4.672,4.672,0,0,1-1.973-1.067c-.081-.071-.16-.147-.235-.227a4.7,4.7,0,0,1-1.223-4.22,4.838,4.838,0,0,1,.33-1.009,4.734,4.734,0,0,1,4.285-2.749c.113,0,.226.006.342.013a4.916,4.916,0,0,1,.607.085c.147.031.292.067.431.11a4.434,4.434,0,0,1,.568.218,4.051,4.051,0,0,1,.424.218A4.718,4.718,0,0,1,174.032,172.183Z" transform="translate(-164.076 -165.888)"/></g><g transform="translate(0 2.032)"><path class="d" d="M139.085,167.237a.31.31,0,0,1-.106-.043.316.316,0,0,1-.1-.437c2.123-3.319,7.228-.339,7.278-.309a.316.316,0,0,1-.323.544c-.046-.028-4.629-2.7-6.423.106A.316.316,0,0,1,139.085,167.237Z" transform="translate(-138.833 -165.189)"/></g></g><g transform="translate(23.915 18.201)"><path class="d" d="M163.981,170.107a.315.315,0,0,1-.2-.138c-.679-1.048-2.133-.578-2.147-.574a.316.316,0,0,1-.2-.6,2.507,2.507,0,0,1,2.878.829.316.316,0,0,1-.093.437A.311.311,0,0,1,163.981,170.107Z" transform="translate(-161.216 -168.653)"/></g><g class="a" transform="translate(28.333 23.101)"><path class="l" d="M169.973,175.3q-.243,1.191-.477,2.246c-1.442-.348-2.481-1.063-2.362-1.65S168.5,175.053,169.973,175.3Z" transform="translate(-167.125 -175.204)"/></g><g transform="translate(19.268 17.114)"><ellipse class="f" cx="0.886" cy="1.583" rx="0.886" ry="1.583" transform="matrix(0.98, 0.199, -0.199, 0.98, 0.629, 0)"/><g transform="translate(8.48 1.718)"><ellipse class="f" cx="0.886" cy="1.583" rx="0.886" ry="1.583" transform="matrix(0.98, 0.199, -0.199, 0.98, 0.629, 0)"/></g><g transform="translate(4.477 1.26)"><path class="f" d="M162.668,173.536a3.206,3.206,0,0,0,.727.07.359.359,0,0,0,.338-.408l-.547-4a.36.36,0,1,0-.713.1l.488,3.564a2.837,2.837,0,0,1-1.381-.6.36.36,0,1,0-.46.553A3.507,3.507,0,0,0,162.668,173.536Z" transform="translate(-160.989 -168.884)"/></g></g><g transform="translate(6.137 25.86)"><path class="f" d="M140.952,178.9c-.061.087-1.717,2.473-3.493,2.912h0l-.007-.01c-.012-.624-.01-1.24,0-1.847A6.685,6.685,0,0,0,140.952,178.9Z" transform="translate(-137.441 -178.895)"/></g><g transform="translate(2.419 16.424)"><path class="k" d="M139.333,169.442s-2.494-5.3-5.738-2.189c-2.673,2.561-.335,11.122,4.3,9.29Z" transform="translate(-132.469 -166.275)"/></g><g transform="translate(0 24.076)"><path class="m" d="M132.378,176.59a4.635,4.635,0,0,0-3.056,3.361,4.392,4.392,0,1,0,5.179-3.434l-.043-.007a.72.72,0,0,0,.122.727,3.676,3.676,0,0,1,1.291.63,3.711,3.711,0,1,1-5.88,2.219,3.6,3.6,0,0,1,2.733-2.82Z" transform="translate(-129.234 -176.509)"/></g><g transform="translate(4.747 18.722)"><path class="f" d="M138.492,175.837l.039.005a.359.359,0,0,0,.391-.325,6.731,6.731,0,0,0-2.783-6.109.36.36,0,1,0-.394.6h0a6.011,6.011,0,0,1,2.461,5.442A.361.361,0,0,0,138.492,175.837Z" transform="translate(-135.582 -169.349)"/></g><g transform="translate(4.511 21.23)"><path class="f" d="M135.555,173.878a.36.36,0,0,0,.238-.034,2.816,2.816,0,0,1,1.987-.33.36.36,0,0,0,.313-.648,3.462,3.462,0,0,0-2.634.34.36.36,0,0,0,.1.672Z" transform="translate(-135.266 -172.703)"/></g></g><g transform="translate(9.341 12.078)"><path class="f" d="M144.184,157.669s-3.356,9.115-3.539,10.952c-.251,2.5-3.56-6.076-.229-13.407Z" transform="translate(-138.939 -155.214)"/></g></g></g><g transform="translate(0 123.017)"><path class="f" d="M190.9,386.167H177.079s-3.2-15.344-4.272-23.947-1.631-29-1.631-29S160.16,336.8,137.1,335.447c-51.1-2.984-31.721-40.523-31.721-40.523,1.727,2.384,14.675,5.67,21.9,6.809,22.183,2.13,39.047,5.9,50.594,10.878a57.625,57.625,0,0,1,7.416,3.8c2.784,1.716,4.526,6.922,5.575,13.769C194.022,350.762,190.9,386.167,190.9,386.167Z" transform="translate(-101.775 -294.924)"/><g transform="translate(3.623 0.591)"><path class="e" d="M180.016,378.973a.5.5,0,0,1-.485-.4c-1.994-9.87-2.664-22.156-3.2-32.027-.446-8.185-.867-15.916-1.919-16.845-.852-.753-4.388-.166-8.865.577-8.905,1.479-22.363,3.713-37.2.259-8.084-1.881-14.027-5.808-17.664-11.671-6.272-10.111-3.413-22.649-3.383-22.773a.494.494,0,1,1,.962.227c-.028.121-2.791,12.275,3.266,22.032,3.494,5.628,9.228,9.4,17.043,11.222,14.65,3.409,27.99,1.194,36.818-.271,5.287-.877,8.478-1.407,9.682-.343,1.3,1.15,1.667,6.8,2.252,17.533.536,9.84,1.2,22.086,3.183,31.886a.5.5,0,0,1-.387.583A.635.635,0,0,1,180.016,378.973Z" transform="translate(-106.62 -295.714)"/></g><g transform="translate(73.526 82.79)"><path class="e" d="M215.968,406.959h-.01l-15.372-.33a.5.5,0,0,1-.484-.505.489.489,0,0,1,.505-.484l15.372.33a.495.495,0,0,1-.011.989Z" transform="translate(-200.102 -405.639)"/></g></g><g transform="translate(75.402 214.259)"><g transform="translate(0.681)"><path class="k" d="M216.185,434.654h-9.757l-1.879-11.447-1.029-6.264h12.122l.192,6.264Z" transform="translate(-203.52 -416.943)"/></g><g transform="translate(1.709 6.264)"><path class="m" d="M216.532,436.767h-9.757l-1.4-8.522-.479-2.925h11.285l.093,3.032Z" transform="translate(-204.896 -425.32)"/><path class="n" d="M216.275,428.352l-10.9-.108-.479-2.925h11.285Z" transform="translate(-204.896 -425.32)"/></g><g transform="translate(0 14.999)"><path class="p" d="M240.034,455.123h-36.9a5.167,5.167,0,0,1-.485-2.049c-.232-3.123.763-8.1,1.252-11.245.06-.367.111-.709.15-1.018a10.855,10.855,0,0,0,.111-1.285,1.882,1.882,0,0,1,2.269-2.124c3.735,3.663,7.962-1.828,10.432-.028,0,0,.1.073.327.25.207.163.522.417.959.784.63.526,1.512,1.29,2.708,2.364,2.929,2.635,7.911,4.376,12.154,6.15q.811.34,1.509.677.531.256,1,.512c3.468,1.872,4.571,3.661,4.822,4.963A2.88,2.88,0,0,1,240.034,455.123Z" transform="translate(-202.61 -437.001)"/><g transform="translate(10.77 0.623)"><path class="q" d="M239.148,448.322c-.95.757-3.064,2.27-4.76,2.27a2.2,2.2,0,0,1-.223-.009c-1.2-.1-5.595-2.261-9.174-4.227-2.051-1.128-3.924-2.237-5.27-3.126-2.21-1.456-2.592-2.012-2.679-2.4-.323-1.455,2.085-2.471,3.774-3,.207.163.522.417.959.784-2.1.572-3.82,1.468-3.74,1.979.206.431,2.389,2.1,7.612,4.956,3.985,2.181,7.763,3.944,8.6,4.014,1.136.091,2.806-.943,3.9-1.757C238.5,447.98,238.833,448.151,239.148,448.322Z" transform="translate(-217.013 -437.835)"/></g><g transform="translate(0.034 16.072)"><path class="q" d="M240.044,460.545h-36.9a5.17,5.17,0,0,1-.485-2.05h37.692A2.879,2.879,0,0,1,240.044,460.545Z" transform="translate(-202.655 -458.495)"/></g><g transform="translate(1.286 3.809)"><path class="q" d="M207.329,456.408h-1.1a8.1,8.1,0,0,0,1.984-5.909,10.408,10.408,0,0,0-3.886-7.385c.059-.366.11-.71.15-1.019a11.31,11.31,0,0,1,4.615,8.361A8.954,8.954,0,0,1,207.329,456.408Z" transform="translate(-204.33 -442.095)"/></g><g transform="translate(17.007 4.16)"><path class="d" d="M225.961,444.353a.608.608,0,0,1-.147-1.2l2.305-.572a.608.608,0,1,1,.293,1.18l-2.305.573A.661.661,0,0,1,225.961,444.353Z" transform="translate(-225.353 -442.565)"/></g><g transform="translate(14.715 2.24)"><path class="d" d="M222.9,441.786a.608.608,0,0,1-.147-1.2l2.305-.573a.608.608,0,0,1,.293,1.181l-2.305.572A.614.614,0,0,1,222.9,441.786Z" transform="translate(-222.289 -439.997)"/></g><g transform="translate(19.312 5.5)"><path class="d" d="M229.044,446.145a.608.608,0,0,1-.147-1.2l2.305-.572a.608.608,0,0,1,.293,1.18l-2.305.572A.622.622,0,0,1,229.044,446.145Z" transform="translate(-228.436 -444.356)"/></g><g transform="translate(21.617 6.787)"><path class="d" d="M232.126,447.867a.608.608,0,0,1-.146-1.2l2.305-.573a.608.608,0,0,1,.293,1.181l-2.305.572A.626.626,0,0,1,232.126,447.867Z" transform="translate(-231.518 -446.078)"/></g><g transform="translate(24.131 7.979)"><path class="d" d="M235.488,449.461a.608.608,0,0,1-.146-1.2l2.305-.573a.608.608,0,1,1,.293,1.18l-2.305.573A.633.633,0,0,1,235.488,449.461Z" transform="translate(-234.88 -447.672)"/></g><g transform="translate(26.856 8.994)"><path class="d" d="M239.133,450.819a.608.608,0,0,1-.146-1.2l2.305-.573a.608.608,0,0,1,.293,1.18l-2.305.573A.587.587,0,0,1,239.133,450.819Z" transform="translate(-238.525 -449.03)"/></g></g></g></g></g><g transform="translate(0 119.275)"><g transform="translate(0.317)"><path class="r" d="M231.6,293.111v3.064c0,1.763-1.066,3.193-2.381,3.193H63.615c-1.315,0-2.379-1.429-2.379-3.193v-3.064c0-1.762,1.065-3.191,2.379-3.191h165.6C230.535,289.92,231.6,291.349,231.6,293.111Z" transform="translate(-61.236 -289.92)"/></g><g transform="translate(0.317 4.162)"><rect class="s" width="170.365" height="1.402"/></g><g transform="translate(8.777 9.41)"><path class="s" d="M229.478,310.418H73.81a1.261,1.261,0,0,1-1.261-1.262V302.5h158.19v6.651A1.26,1.26,0,0,1,229.478,310.418Z" transform="translate(-72.549 -302.504)"/></g><g transform="translate(19.503 56.391)"><rect class="s" width="139.211" height="5.426"/></g><g transform="translate(0 17.324)"><path class="r" d="M70.277,424.835,97.229,313.087H87.763L60.812,424.835Z" transform="translate(-60.812 -313.087)"/></g><g transform="translate(141.614 17.324)"><path class="r" d="M277.145,424.835,250.193,313.087h9.465L286.61,424.835Z" transform="translate(-250.193 -313.087)"/></g></g><g transform="translate(10.839 90.489)"><g transform="translate(1.682)"><g transform="translate(0 0.155)"><g transform="translate(0.004 2.943)"><rect class="m" width="2.957" height="22.29" transform="matrix(0.988, -0.151, 0.151, 0.988, 0, 0.448)"/></g><path class="k" d="M80.478,254.57l-2.922.448.643-2.233.334-1.155.664,1Z" transform="translate(-77.556 -251.631)"/><g transform="translate(3.134 23.376)"><rect class="f" width="2.957" height="1.62" transform="matrix(0.988, -0.151, 0.151, 0.988, 0, 0.448)"/></g><g transform="translate(3.375 24.972)"><path class="g" d="M84.993,286.332l-2.533.388a.2.2,0,0,1-.224-.165l-.166-1.081,2.923-.448.165,1.081A.2.2,0,0,1,84.993,286.332Z" transform="translate(-82.069 -285.026)"/></g><g transform="translate(0.643)"><path class="f" d="M79.414,252.633l-1,.153.334-1.155Z" transform="translate(-78.416 -251.631)"/></g><g transform="translate(2.954 22.217)"><rect class="n" width="2.957" height="1.161" transform="matrix(-0.988, 0.151, -0.151, -0.988, 3.099, 1.148)"/></g><g transform="translate(0.89 4.1)"><path class="n" d="M78.749,257.375l2.5,16.316a.226.226,0,0,0,.257.189h0a.226.226,0,0,0,.189-.258l-2.5-16.316a.226.226,0,0,0-.257-.189h0A.227.227,0,0,0,78.749,257.375Z" transform="translate(-78.747 -257.115)"/></g><g transform="translate(2.033 3.925)"><path class="n" d="M80.277,257.139l2.5,16.316a.226.226,0,0,0,.257.189h0a.226.226,0,0,0,.189-.258l-2.5-16.316a.226.226,0,0,0-.257-.189h0A.226.226,0,0,0,80.277,257.139Z" transform="translate(-80.275 -256.88)"/></g></g><g transform="translate(5.249)"><g transform="translate(0 3.197)"><rect class="r" width="2.957" height="22.29" transform="translate(0 0.009) rotate(-0.183)"/></g><g transform="translate(0.001)"><path class="k" d="M87.533,254.62l-2.957.009.968-2.112.5-1.093.508,1.09Z" transform="translate(-84.576 -251.424)"/></g><g transform="translate(0.067 23.868)"><rect class="f" width="2.957" height="1.62" transform="translate(0 0.009) rotate(-0.183)"/></g><g transform="translate(0.073 25.485)"><path class="g" d="M87.438,286.8l-2.563.009a.2.2,0,0,1-.2-.2l0-1.094,2.957-.01,0,1.094A.2.2,0,0,1,87.438,286.8Z" transform="translate(-84.673 -285.505)"/></g><g transform="translate(0.968)"><path class="f" d="M86.879,252.514l-1.009,0,.5-1.093Z" transform="translate(-85.87 -251.424)"/></g><g transform="translate(0.067 22.702)"><rect class="s" width="2.957" height="1.161" transform="translate(2.96 1.161) rotate(179.817)"/></g><g transform="translate(0.74 4.074)"><path class="s" d="M85.564,257.1l.054,16.506a.225.225,0,0,0,.227.225h0a.226.226,0,0,0,.225-.227L86.016,257.1a.226.226,0,0,0-.227-.225h0A.227.227,0,0,0,85.564,257.1Z" transform="translate(-85.564 -256.872)"/></g><g transform="translate(1.896 4.069)"><path class="s" d="M87.111,257.092l.054,16.506a.225.225,0,0,0,.227.225h0a.226.226,0,0,0,.225-.227l-.054-16.506a.226.226,0,0,0-.227-.226h0A.227.227,0,0,0,87.111,257.092Z" transform="translate(-87.111 -256.865)"/></g></g><g transform="translate(7.088 0.133)"><g transform="translate(0.149 2.954)"><rect class="p" width="2.957" height="22.29" transform="translate(3.138) rotate(8.094)"/></g><g transform="translate(3.292)"><path class="k" d="M94.365,254.979l-2.927-.417,1.26-1.95.654-1.01.345,1.152Z" transform="translate(-91.438 -251.602)"/></g><g transform="translate(0.15 23.418)"><rect class="f" width="2.957" height="1.62" transform="translate(0.228) rotate(8.094)"/></g><g transform="translate(0 25.029)"><path class="g" d="M89.743,286.739l-2.538-.36a.2.2,0,0,1-.167-.223l.154-1.083,2.928.417-.154,1.083A.2.2,0,0,1,89.743,286.739Z" transform="translate(-87.035 -285.073)"/></g><g transform="translate(4.552)"><path class="f" d="M94.122,252.754l-1-.141.654-1.01Z" transform="translate(-93.123 -251.602)"/></g><g transform="translate(0.391 22.282)"><rect class="q" width="2.957" height="1.161" transform="translate(2.927 1.566) rotate(-171.906)"/></g><g transform="translate(1.541 3.957)"><path class="q" d="M91.42,257.088,89.1,273.43a.227.227,0,0,0,.192.256h0a.226.226,0,0,0,.255-.192l2.322-16.343a.226.226,0,0,0-.192-.255h0A.226.226,0,0,0,91.42,257.088Z" transform="translate(-89.096 -256.894)"/></g><g transform="translate(2.686 4.119)"><path class="q" d="M92.951,257.3,90.63,273.646a.227.227,0,0,0,.191.256h0a.227.227,0,0,0,.256-.192L93.4,257.368a.227.227,0,0,0-.192-.256h0A.226.226,0,0,0,92.951,257.3Z" transform="translate(-90.628 -257.11)"/></g></g></g><g transform="translate(0 12.012)"><path class="g" d="M91.256,267.488l-.154,1.2-.141,1.086-.213,1.65-.138,1.072-.214,1.664-.138,1.06-.216,1.676-.135,1.045-.218,1.69-.132,1.033-.22,1.7-.132,1.02-.114.881H77.472l-.114-.881-.132-1.02-.22-1.7-.132-1.033-.218-1.69-.135-1.045-.216-1.676-.138-1.06-.215-1.664-.138-1.072-.213-1.65-.141-1.086-.153-1.2Z" transform="translate(-75.307 -267.488)"/><g transform="translate(0.153 1.196)"><path class="t" d="M91.154,269.087l-.141,1.086H75.653l-.141-1.086Z" transform="translate(-75.512 -269.087)"/><g transform="translate(0.354 2.735)"><path class="t" d="M90.92,272.745l-.138,1.072H76.123l-.138-1.072Z" transform="translate(-75.985 -272.745)"/></g><g transform="translate(0.706 5.471)"><path class="t" d="M90.686,276.4l-.138,1.06H76.594l-.138-1.06Z" transform="translate(-76.456 -276.404)"/></g><g transform="translate(1.06 8.207)"><path class="t" d="M90.452,280.062l-.135,1.045H77.064l-.135-1.045Z" transform="translate(-76.929 -280.062)"/></g><g transform="translate(1.413 10.941)"><path class="t" d="M90.217,283.719l-.132,1.033H77.534l-.132-1.033Z" transform="translate(-77.402 -283.719)"/></g><g transform="translate(1.765 13.678)"><path class="t" d="M89.984,287.378l-.132,1.02H78.005l-.132-1.02Z" transform="translate(-77.873 -287.378)"/></g></g></g></g><g transform="translate(72.076 56.684)"><g transform="translate(14.715)"><g transform="translate(0 0.001)"><path class="f" d="M259.8,209.546l-9.909,41.9-.261,1.1-.667,2.822a2.7,2.7,0,0,1-2.633,2.084H179.586a2.708,2.708,0,0,1-2.635-3.329L187.787,208.3a2.7,2.7,0,0,1,2.633-2.083h66.748A2.706,2.706,0,0,1,259.8,209.546Z" transform="translate(-176.877 -206.218)"/></g><g transform="translate(3.452 45.231)"><path class="e" d="M251.059,266.7l-.261,1.1H181.493v-1.1Z" transform="translate(-181.493 -266.705)"/></g><g transform="translate(18.76 4.991)"><path class="m" d="M212.814,218.27a6.781,6.781,0,0,1-6.381,5.377,4.34,4.34,0,0,1-4.374-5.377,6.782,6.782,0,0,1,6.382-5.378A4.34,4.34,0,0,1,212.814,218.27Z" transform="translate(-201.965 -212.892)"/><g transform="translate(3.799 3.274)"><path class="f" d="M208.022,218.345c-.111.594-.411,1.075-.669,1.075s-.378-.482-.267-1.075.41-1.075.669-1.075S208.132,217.752,208.022,218.345Z" transform="translate(-207.045 -217.27)"/><g transform="translate(2.806)"><path class="f" d="M211.774,218.345c-.111.594-.41,1.075-.668,1.075s-.378-.482-.267-1.075.41-1.075.669-1.075S211.883,217.752,211.774,218.345Z" transform="translate(-210.797 -217.27)"/></g></g><g transform="translate(2.618 5.378)"><path class="f" d="M207.878,222.7a2.385,2.385,0,0,1-2.412-2.335.292.292,0,0,1,.231-.278.191.191,0,0,1,.245.179,1.984,1.984,0,0,0,2.023,1.967,3.183,3.183,0,0,0,2.758-1.967.288.288,0,0,1,.312-.178.194.194,0,0,1,.126.278A3.839,3.839,0,0,1,207.878,222.7Z" transform="translate(-205.466 -220.084)"/></g></g><g transform="translate(60.463 32.543)"><path class="g" d="M257.736,252.671c.058,2.782,4.771,6.265,4.771,6.265s5.474-3.483,6.138-6.265c.721-3.016-2.723-3.941-5.273-1.667C261.319,248.73,257.672,249.655,257.736,252.671Z" transform="translate(-257.735 -249.737)"/></g><g transform="translate(40.016 22.189)"><path class="e" d="M240.868,241.113a5.981,5.981,0,0,1-5.8,5.222,4.587,4.587,0,0,1-4.647-5.222,5.981,5.981,0,0,1,5.8-5.222A4.587,4.587,0,0,1,240.868,241.113Z" transform="translate(-230.391 -235.891)"/></g><g transform="translate(0.001)"><path class="e" d="M193.066,206.217l-11.537,51.239h-1.943a2.707,2.707,0,0,1-2.634-3.328L187.787,208.3a2.707,2.707,0,0,1,2.634-2.083h2.645Z" transform="translate(-176.878 -206.217)"/></g><g transform="translate(33.498 51.239)"><path class="d" d="M223.7,274.739l-2.025,11.386h6.687l2.025-11.386Z" transform="translate(-221.674 -274.739)"/></g><g transform="translate(23.257 57.646)"><path class="d" d="M208.211,286.327l1.37-1.925a2.6,2.6,0,0,1,2.123-1.1H230.04a2.607,2.607,0,0,1,2.309,1.4l.923,1.766a1.241,1.241,0,0,1-1.1,1.816H209.221A1.24,1.24,0,0,1,208.211,286.327Z" transform="translate(-207.978 -283.307)"/></g></g><g transform="translate(0 57.932)"><path class="d" d="M157.2,288.377H212.28l.6-2.078a2.045,2.045,0,0,0-1.965-2.61H160.088a2.045,2.045,0,0,0-1.965,1.48Z" transform="translate(-157.199 -283.689)"/></g></g><g transform="translate(118.226 24.599)"><path class="g" d="M244.988,181.715l-24.362-.016a1.71,1.71,0,0,1-1.709-1.712l.01-14.969a1.711,1.711,0,0,1,1.712-1.709l24.362.016a1.711,1.711,0,0,1,1.709,1.712l-.01,14.969A1.711,1.711,0,0,1,244.988,181.715Z" transform="translate(-218.916 -163.309)"/><g transform="translate(18.516 15.643)"><path class="g" d="M249.783,184.229l-2.223,8.389-3.882-7.885Z" transform="translate(-243.677 -184.229)"/></g><g transform="translate(7.697 4.521)"><path class="d" d="M241.562,172.678c-.5,3.144-6.364,7.077-6.364,7.077s-5.647-3.941-5.968-7.086c-.348-3.408,3.687-4.451,6.218-1.88C238.123,168.221,242.1,169.27,241.562,172.678Z" transform="translate(-229.21 -169.355)"/></g></g></g></g><g transform="translate(167.963 63.184)"><g transform="translate(293.528 106.336)"><g transform="translate(1.37 185.719)"><ellipse class="o" cx="41.483" cy="4.099" rx="41.483" ry="4.099"/></g><g transform="translate(14.078 155.749)"><path class="f" d="M676.044,422.466h-52.37a1.8,1.8,0,0,1-1.8-1.8v-.827a1.8,1.8,0,0,1,1.8-1.8h52.37a1.8,1.8,0,0,1,1.8,1.8v.827A1.8,1.8,0,0,1,676.044,422.466Z" transform="translate(-621.872 -418.033)"/></g><g transform="translate(14.997 106.621)"><path class="e" d="M624.641,352.335h51.168a1.54,1.54,0,0,1,1.54,1.54v6.286a1.54,1.54,0,0,1-1.54,1.54H624.641a1.541,1.541,0,0,1-1.54-1.54v-6.286A1.541,1.541,0,0,1,624.641,352.335Z" transform="translate(-623.101 -352.335)"/></g><g transform="translate(0 26.501)"><path class="r" d="M631.665,285.459s-21.576-4.265-27.6-19.317,15.993-26.342,27.6-18.259C644.078,256.53,631.665,285.459,631.665,285.459Z" transform="translate(-603.045 -245.19)"/><g transform="translate(9.96 2.167)"><path class="f" d="M647.854,325.735a.391.391,0,0,1-.386-.334c-2.068-13.98-10.4-34.1-17.023-48.51-7.184-15.629-13.965-28.1-14.032-28.227a.391.391,0,0,1,.686-.374c.067.125,6.86,12.621,14.055,28.275,6.646,14.459,15.006,34.649,17.086,48.721a.39.39,0,0,1-.329.443A.36.36,0,0,1,647.854,325.735Z" transform="translate(-616.365 -248.088)"/></g><g transform="translate(2.547 7.63)"><path class="f" d="M631.714,286.576a.392.392,0,0,1-.344-.206c-9.385-17.479-24.623-30.16-24.776-30.286a.39.39,0,0,1,.5-.6c.154.127,15.508,12.9,24.967,30.519a.39.39,0,0,1-.159.529A.4.4,0,0,1,631.714,286.576Z" transform="translate(-606.452 -255.393)"/></g><g transform="translate(0.544 19.165)"><path class="f" d="M631.465,291.719a.39.39,0,0,1-.3-.138,74.882,74.882,0,0,0-18.527-15.846,46.533,46.533,0,0,0-8.594-4.152.39.39,0,1,1,.236-.744,46.354,46.354,0,0,1,8.732,4.21,75.689,75.689,0,0,1,18.748,16.028.391.391,0,0,1-.3.643Z" transform="translate(-603.773 -270.82)"/></g><g transform="translate(22.298 0.478)"><path class="f" d="M636.9,280.833a.39.39,0,0,1-.369-.265c-5.261-15.439-3.325-34.2-3.305-34.39a.39.39,0,0,1,.776.084c-.019.186-1.936,18.783,3.268,34.055a.391.391,0,0,1-.369.516Z" transform="translate(-632.865 -245.83)"/></g><g transform="translate(26.513 6.751)"><path class="f" d="M639.649,286.005a.391.391,0,0,1-.385-.328,54.355,54.355,0,0,1,.949-22.711,36.022,36.022,0,0,1,3.3-8.558.391.391,0,0,1,.671.4,36.055,36.055,0,0,0-3.227,8.39,53.586,53.586,0,0,0-.924,22.352.391.391,0,0,1-.322.449C639.691,286,639.67,286.005,639.649,286.005Z" transform="translate(-638.501 -254.218)"/></g></g><g transform="translate(42.723 31.013)"><g transform="translate(4.505)"><path class="r" d="M670.354,290.913s21.79-2.98,28.691-17.65S684.639,246.02,672.578,253.4C659.675,261.3,670.354,290.913,670.354,290.913Z" transform="translate(-666.204 -251.224)"/></g><g transform="translate(0 2.735)"><path class="f" d="M660.569,326.169h0a.391.391,0,0,1-.386-.395c.085-7.2,1.656-15.4,4.667-24.378a160.6,160.6,0,0,1,9.884-22.822,210.372,210.372,0,0,1,14.256-23.532.39.39,0,0,1,.632.458,209.315,209.315,0,0,0-14.2,23.445c-6.49,12.462-14.265,30.705-14.457,46.838A.389.389,0,0,1,660.569,326.169Z" transform="translate(-660.179 -254.881)"/></g><g transform="translate(9.184 8.626)"><path class="f" d="M672.85,292.417a.383.383,0,0,1-.2-.058.391.391,0,0,1-.128-.537c10.485-17.028,26.568-28.869,26.73-28.988a.39.39,0,0,1,.46.63c-.16.117-16.123,11.874-26.526,28.766A.386.386,0,0,1,672.85,292.417Z" transform="translate(-672.461 -262.759)"/></g><g transform="translate(8.684 20.261)"><path class="f" d="M672.182,297.566a.39.39,0,0,1-.282-.66,75.7,75.7,0,0,1,19.664-14.89,46.325,46.325,0,0,1,8.966-3.686.391.391,0,0,1,.192.758,46.514,46.514,0,0,0-8.826,3.636,74.926,74.926,0,0,0-19.432,14.722A.389.389,0,0,1,672.182,297.566Z" transform="translate(-671.792 -278.318)"/></g><g transform="translate(10.85 0.298)"><path class="f" d="M675.078,286.37a.4.4,0,0,1-.147-.028.39.39,0,0,1-.214-.51c6.1-14.938,5.286-33.614,5.278-33.8a.39.39,0,0,1,.78-.037c.009.188.83,19.034-5.335,34.134A.391.391,0,0,1,675.078,286.37Z" transform="translate(-674.689 -251.622)"/></g><g transform="translate(6.989 6.038)"><path class="f" d="M672.275,291.28a.376.376,0,0,1-.086-.01.392.392,0,0,1-.3-.467,53.571,53.571,0,0,0,.4-22.367,36.017,36.017,0,0,0-2.726-8.566.39.39,0,0,1,.693-.36,36.031,36.031,0,0,1,2.791,8.738,54.353,54.353,0,0,1-.4,22.729A.39.39,0,0,1,672.275,291.28Z" transform="translate(-669.525 -259.299)"/></g></g><g transform="translate(24.507)"><path class="r" d="M654.3,252.066s-18.463-11.95-18.482-28.163,24.611-18.547,32.4-6.743C676.544,229.79,654.3,252.066,654.3,252.066Z" transform="translate(-635.819 -209.75)"/><g transform="translate(15.086 0.131)"><path class="f" d="M656.808,293.623a.416.416,0,0,1-.09-.01.392.392,0,0,1-.29-.47c3.257-13.752,2.967-35.523,2.15-51.365-.886-17.179-2.565-31.276-2.581-31.416a.39.39,0,1,1,.775-.093c.016.141,1.7,14.265,2.587,31.469.82,15.892,1.108,37.743-2.169,51.584A.391.391,0,0,1,656.808,293.623Z" transform="translate(-655.993 -209.924)"/></g><g transform="translate(6.177 2.46)"><path class="f" d="M656.315,251.271a.391.391,0,0,1-.387-.346c-2.245-19.711-11.7-37.134-11.8-37.308a.39.39,0,0,1,.684-.375c.1.175,9.629,17.727,11.891,37.594a.39.39,0,0,1-.344.432A.291.291,0,0,1,656.315,251.271Z" transform="translate(-644.079 -213.039)"/></g><g transform="translate(0.044 12.434)"><path class="f" d="M654.18,255.955a.391.391,0,0,1-.37-.265,74.932,74.932,0,0,0-11.342-21.581,46.529,46.529,0,0,0-6.447-7.04.39.39,0,0,1,.495-.6,46.238,46.238,0,0,1,6.553,7.144,75.72,75.72,0,0,1,11.481,21.831.39.39,0,0,1-.245.494A.408.408,0,0,1,654.18,255.955Z" transform="translate(-635.878 -226.378)"/></g><g transform="translate(17.888 3.265)"><path class="f" d="M660.132,247.9h-.02a.39.39,0,0,1-.37-.41c.83-16.29,9.576-33,9.664-33.169a.391.391,0,1,1,.69.366c-.087.165-8.753,16.731-9.574,32.844A.39.39,0,0,1,660.132,247.9Z" transform="translate(-659.741 -214.116)"/></g><g transform="translate(17.987 12.153)"><path class="f" d="M660.263,254.23a.366.366,0,0,1-.084-.01.39.39,0,0,1-.3-.464A55.089,55.089,0,0,1,669.2,232.91a37.149,37.149,0,0,1,6.26-6.826.39.39,0,0,1,.48.615,37.14,37.14,0,0,0-6.131,6.7,54.3,54.3,0,0,0-9.162,20.523A.391.391,0,0,1,660.263,254.23Z" transform="translate(-659.873 -226.002)"/></g></g><g transform="translate(18.58 79.31)"><path class="p" d="M674.858,318.232l-.644,1.707-.406,1.082-1.168,3.1-.408,1.082-1.2,3.183-.407,1.081-5.143,13.657h-28.1l-5.143-13.657-.407-1.081-1.2-3.183-.408-1.082-1.168-3.1-.406-1.082-.644-1.707a1.788,1.788,0,0,1,1.674-2.421h43.5A1.791,1.791,0,0,1,674.858,318.232Z" transform="translate(-627.892 -315.811)"/></g><g transform="translate(19.342 83.438)"><path class="q" d="M674.471,321.332l-.406,1.082H629.318l-.406-1.082Z" transform="translate(-628.912 -321.332)"/><g transform="translate(1.573 4.181)"><path class="q" d="M673.428,326.923l-.408,1.083h-41.6l-.408-1.083Z" transform="translate(-631.016 -326.923)"/></g><g transform="translate(3.181 8.446)"><path class="q" d="M672.363,332.627l-.406,1.081H633.572l-.406-1.081Z" transform="translate(-633.166 -332.627)"/></g></g><g transform="translate(7.107 115.989)"><path class="f" d="M640.037,364.862l-1.558,5.024L616.788,439.8h-4.239l13.756-68.489,1.3-6.451Z" transform="translate(-612.549 -364.862)"/></g><g transform="translate(49.775 115.989)"><path class="f" d="M697.1,439.8h-4.239l-22.333-71.986-.916-2.954h12.435l.314,1.567h0Z" transform="translate(-669.61 -364.862)"/></g><g transform="translate(14.078 146.109)"><path class="e" d="M676.044,409.575h-52.37a1.8,1.8,0,0,1-1.8-1.8v-.827a1.8,1.8,0,0,1,1.8-1.8h52.37a1.8,1.8,0,0,1,1.8,1.8v.827A1.8,1.8,0,0,1,676.044,409.575Z" transform="translate(-621.872 -405.142)"/></g></g><g transform="translate(0 2.607)"><ellipse class="c" cx="20.276" cy="20.025" rx="20.276" ry="20.025"/></g><ellipse class="p" cx="20.276" cy="20.025" rx="20.276" ry="20.025"/><g transform="translate(3.792 3.746)"><path class="d" d="M232.065,105.114a16.28,16.28,0,1,1,16.484-16.279A16.4,16.4,0,0,1,232.065,105.114Z" transform="translate(-215.581 -72.556)"/></g><g transform="translate(3.792 3.746)"><path class="c" d="M248.549,88.836q0,.651-.051,1.286a16.5,16.5,0,0,0-32.866,0c-.034-.423-.051-.853-.051-1.286a16.485,16.485,0,0,1,32.968,0Z" transform="translate(-215.581 -72.557)"/></g><g transform="translate(11.777 10.152)"><path class="f" d="M234.758,92.69a.415.415,0,0,1-.331-.165l-8.086-10.751a.4.4,0,0,1,.085-.57.415.415,0,0,1,.577.084l7.891,10.491,8.967-3.887a.414.414,0,0,1,.544.209.406.406,0,0,1-.212.537l-9.268,4.017A.4.4,0,0,1,234.758,92.69Z" transform="translate(-226.259 -81.123)"/></g></g></g></svg>