<svg xmlns="http://www.w3.org/2000/svg" width="46.763" height="40.735" viewBox="0 0 46.763 40.735"><defs><style>.a{fill:#fff;}</style></defs><g transform="translate(0 -33)"><path class="a" d="M43.018,53.99A4.115,4.115,0,0,0,46.763,49.9V37.11A4.115,4.115,0,0,0,42.653,33H29.044a4.115,4.115,0,0,0-4.11,4.11V42.5H7.855a4.115,4.115,0,0,0-4.11,4.11v16.44a4.091,4.091,0,0,0,.236,1.37H2.466A2.469,2.469,0,0,0,0,66.885a6.858,6.858,0,0,0,6.85,6.85H39.913a6.858,6.858,0,0,0,6.85-6.85A2.469,2.469,0,0,0,44.3,64.419H42.783a4.091,4.091,0,0,0,.236-1.37ZM27.674,37.11a1.372,1.372,0,0,1,1.37-1.37H42.653a1.372,1.372,0,0,1,1.37,1.37V49.9a1.372,1.372,0,0,1-1.37,1.37h-12.7a1.37,1.37,0,0,0-.726.208L26.469,53.2l1.147-3.824a1.371,1.371,0,0,0,.058-.394ZM39.913,70.995H6.85a4.116,4.116,0,0,1-4.1-3.836H44.014A4.116,4.116,0,0,1,39.913,70.995ZM13.061,54.1a1.553,1.553,0,1,1,1.553,1.553A1.554,1.554,0,0,1,13.061,54.1Zm-.731,5.845c0-.827,1.067-1.553,2.283-1.553a2.8,2.8,0,0,1,1.724.558,1.349,1.349,0,0,1,.559.994v4.475H12.33Zm7.307,4.475V59.943a4.041,4.041,0,0,0-1.587-3.134l-.069-.053a4.293,4.293,0,1,0-6.731,0A4.038,4.038,0,0,0,9.59,59.943v4.475H7.855a1.372,1.372,0,0,1-1.37-1.37V46.609a1.372,1.372,0,0,1,1.37-1.37H24.934v3.544l-1.09,3.632a2.736,2.736,0,0,0,4.077,3.111l2.429-1.518h9.928v9.042a1.372,1.372,0,0,1-1.37,1.37Z"/><path class="a" d="M365.293,169H362.37a1.37,1.37,0,1,0,0,2.74h2.923a1.37,1.37,0,1,0,0-2.74Z" transform="translate(-328.029 -123.579)"/><path class="a" d="M338.37,99.74h7.307a1.37,1.37,0,1,0,0-2.74H338.37a1.37,1.37,0,1,0,0,2.74Z" transform="translate(-306.22 -58.155)"/></g></svg>