<svg xmlns="http://www.w3.org/2000/svg" width="43.502" height="43.39" viewBox="0 0 43.502 43.39">
  <g id="Page-1" transform="translate(-0.424)">
    <g id="_026---Idea" data-name="026---Idea" transform="translate(0.424)">
      <path id="Shape" d="M40.666,24.88a1.471,1.471,0,0,0-1.444-1.194H37.8l-.1-.626a1.478,1.478,0,0,0-1.229-1.219c-.14-.022-.281-.037-.42-.056a4.486,4.486,0,0,0-.559-3.279,3.009,3.009,0,0,0-2.181-4.026A6.258,6.258,0,0,0,27.2,9.373c-.074,0-.139.01-.209.012a2.992,2.992,0,0,0-4.577-.569A5.048,5.048,0,0,0,19.664,8,5.106,5.106,0,0,0,15.65,9.977a3.663,3.663,0,0,0-4.682,3.292,3.027,3.027,0,0,0-1.854,2.789,2.991,2.991,0,0,0,.074.627,5.919,5.919,0,0,0-.705,5.074c-.2.027-.4.051-.588.079a1.48,1.48,0,0,0-1.238,1.218l-.1.628H5.128a1.471,1.471,0,0,0-1.443,1.191L.464,41.409a2.206,2.206,0,0,0,2.17,2.627H17.971c.609,1,2.459,1.471,4.2,1.471,1.726,0,3.559-.455,4.185-1.471H41.715a2.206,2.206,0,0,0,2.17-2.626ZM11.339,17.388a1.553,1.553,0,0,1,.794-2.884,1.525,1.525,0,0,1,1.235.624.735.735,0,0,0,1.181-.877,2.971,2.971,0,0,0-2.086-1.177,2.236,2.236,0,0,1,2.181-1.77,2.292,2.292,0,0,1,.268.029,4.831,4.831,0,0,0-.154.46.735.735,0,0,0,1.424.368,3.576,3.576,0,0,1,.382-.921,3.632,3.632,0,0,1,3.1-1.77,3.572,3.572,0,0,1,1.948.588,2.989,2.989,0,0,0-.173.964.735.735,0,0,0,1.471,0,1.547,1.547,0,1,1,3.094,0,.735.735,0,0,0,1.471,0c0-.057-.014-.11-.017-.167a4.774,4.774,0,0,1,4.355,3.682,2.984,2.984,0,0,0-.952.474.735.735,0,1,0,.883,1.177,1.55,1.55,0,0,1,2.274,2.006,1.569,1.569,0,0,1-.7.644.735.735,0,0,0,.313,1.4.726.726,0,0,0,.312-.07,3.021,3.021,0,0,0,.549-.343,3.141,3.141,0,0,1-.622,3.137l-.018.018a3.176,3.176,0,0,1-3.751.688,2.919,2.919,0,0,1-.356-.222,2.5,2.5,0,0,0,.194-2.589.736.736,0,1,0-1.314.662,1.1,1.1,0,0,1-.354,1.386,1.11,1.11,0,0,1-1.6-.407.736.736,0,0,0-1.316.658,2.55,2.55,0,0,0,2.292,1.418,2.523,2.523,0,0,0,.923-.182,4.353,4.353,0,0,0,.862.588,4.53,4.53,0,0,0,3.4.314,4.688,4.688,0,0,1-3.028,1.857.735.735,0,0,0,.115,1.461.783.783,0,0,0,.117-.009,6.044,6.044,0,0,0,1.3-.381,6.576,6.576,0,0,1,.549,1.263.758.758,0,0,1,.038.238.794.794,0,0,1-.482.73A.833.833,0,0,1,30.5,30.2a4.694,4.694,0,0,0-2.153-1.43c-1.589-.532-2.2-1.008-2.463-1.526A7.061,7.061,0,0,0,27.011,27a.736.736,0,1,0-.432-1.406,5.573,5.573,0,0,1-1.269.233,5.458,5.458,0,0,1-2.437-.368.735.735,0,0,0-.824.205,3.149,3.149,0,0,1-5.079-3.682.738.738,0,0,0-1.266-.758,4.593,4.593,0,0,0-.421.947,1.1,1.1,0,0,1-1.045-1.084v-.018a.727.727,0,0,0-.735-.726.743.743,0,0,0-.735.744,2.559,2.559,0,0,0,2.284,2.538,4.617,4.617,0,0,0,.067.735,4.494,4.494,0,0,1-5.085-6.155,2.965,2.965,0,0,0,.547.436.735.735,0,0,0,.759-1.26ZM8.1,23.3c.339-.05.689-.094,1.037-.14a5.938,5.938,0,0,0,6.45,2.617A4.607,4.607,0,0,0,22.805,27a7.06,7.06,0,0,0,1.535.278c.355,1.347,1.382,2.164,3.539,2.887a3.259,3.259,0,0,1,1.5.986,2.342,2.342,0,0,0,1.777.835,2.233,2.233,0,0,0,.873-.178A2.264,2.264,0,0,0,33.4,29.722a2.182,2.182,0,0,0-.112-.7,8.039,8.039,0,0,0-.65-1.5,6.2,6.2,0,0,0,2.444-3.737,4.607,4.607,0,0,0,.424-.593c.246.032.493.06.741.1L38.9,39.269a25.244,25.244,0,0,0-15.991,0V30.063a.735.735,0,1,0-1.471,0v9.209a25.249,25.249,0,0,0-15.991-.006Zm-6.041,19a.73.73,0,0,1-.154-.6l3.22-16.534H6.3L4,39.027a1.476,1.476,0,0,0,1.9,1.643A24.6,24.6,0,0,1,18.042,39.9l-.219,2.666H2.635a.741.741,0,0,1-.573-.271Zm20.113,1.741a4.339,4.339,0,0,1-2.937-.757l.253-3.052a15.716,15.716,0,0,1,2.367.794.742.742,0,0,0,.318.074.731.731,0,0,0,.318-.074,15.665,15.665,0,0,1,2.366-.8l.253,3.056a4.333,4.333,0,0,1-2.937.757Zm20.113-1.741a.741.741,0,0,1-.573.271H26.53l-.221-2.671a24.611,24.611,0,0,1,12.152.777,1.475,1.475,0,0,0,1.892-1.647L38.047,25.158h1.177l3.221,16.532A.73.73,0,0,1,42.288,42.295Z" transform="translate(-0.424 -2.117)" fill="#fff"/>
      <path id="Shape-2" data-name="Shape" d="M26.6,21.971a.735.735,0,0,0-.052,1.038A4.435,4.435,0,0,0,28.9,24.369a2.191,2.191,0,0,1-1.79.923.735.735,0,0,0,0,1.471A3.647,3.647,0,0,0,30.54,24.4a4.438,4.438,0,0,0,3.631-3.53.735.735,0,1,0-1.444-.277,2.931,2.931,0,0,1-1.218,1.867,3,3,0,0,1-3.871-.441.735.735,0,0,0-1.038-.052Z" transform="translate(-7.285 -5.288)" fill="#fff"/>
      <path id="Shape-3" data-name="Shape" d="M22.935,20.118a.735.735,0,0,0,.735-.735,1.912,1.912,0,0,1,1.912-1.912.735.735,0,1,0,0-1.471A3.387,3.387,0,0,0,22.2,19.383a.735.735,0,0,0,.735.735Z" transform="translate(-6.185 -4.233)" fill="#fff"/>
      <path id="Shape-4" data-name="Shape" d="M30.471,1.471V.735A.735.735,0,0,0,29,.735v.735a.735.735,0,0,0,1.471,0Z" transform="translate(-7.984)" fill="#fff"/>
      <path id="Shape-5" data-name="Shape" d="M46.065,7.1l-.735.735a.735.735,0,1,0,1.04,1.04l.735-.735a.735.735,0,1,0-1.04-1.04Z" transform="translate(-12.245 -1.818)" fill="#fff"/>
      <path id="Shape-6" data-name="Shape" d="M13.351,9.086a.735.735,0,0,0,.52-1.255L13.135,7.1a.735.735,0,1,0-1.04,1.04l.735.735a.735.735,0,0,0,.52.215Z" transform="translate(-3.452 -1.818)" fill="#fff"/>
      <path id="Shape-7" data-name="Shape" d="M21.01,4.407a.746.746,0,0,0,.282-.056.735.735,0,0,0,.4-.961l-.845-2.039a.735.735,0,1,0-1.358.563l.844,2.039a.735.735,0,0,0,.68.454Z" transform="translate(-5.451 -0.234)" fill="#fff"/>
      <path id="Shape-8" data-name="Shape" d="M39.28.959a.735.735,0,0,0-.96.4L37.475,3.4a.735.735,0,0,0,.4.962.746.746,0,0,0,.282.056.735.735,0,0,0,.68-.454l.844-2.039a.735.735,0,0,0-.4-.962Z" transform="translate(-10.212 -0.239)" fill="#fff"/>
      <path id="Shape-9" data-name="Shape" d="M50.06,16.749a.735.735,0,0,0,.282-.057l2.038-.844a.735.735,0,0,0-.563-1.359l-2.039.844a.735.735,0,0,0,.282,1.416Z" transform="translate(-13.361 -3.819)" fill="#fff"/>
      <path id="Shape-10" data-name="Shape" d="M8.4,16.692a.736.736,0,1,0,.563-1.359L6.92,14.489a.735.735,0,1,0-.563,1.359Z" transform="translate(-1.874 -3.818)" fill="#fff"/>
    </g>
  </g>
</svg>
