<svg xmlns="http://www.w3.org/2000/svg" width="249.323" height="266.273" viewBox="0 0 249.323 266.273">
  <g id="patent_new" data-name="patent new" transform="translate(-54.786 -40.447)">
    <path id="Path_22_1_" d="M87.777,248.123C41.454,202.058,44.251,129.963,94.033,87.1s127.682-40.279,174,5.791S314.95,234.965,276.245,268.3,134.1,294.192,87.777,248.123Z" transform="translate(0 13.695)" fill="#e6f5ff"/>
    <g id="Flat" transform="translate(11.782 16.447)">
      <path id="Path_2420" data-name="Path 2420" d="M266.636,227.9v24.963H184V227.9l13.773-2.582V184h55.091v41.318Z" transform="translate(-44.318 -68.182)" fill="#fec9a3"/>
      <path id="Path_2421" data-name="Path 2421" d="M282,292.63v78.143H80V292.635a27.546,27.546,0,0,1,22.468-27.075L153.455,256,181,265.182,208.545,256l50.988,9.561A27.52,27.52,0,0,1,282,292.63Z" transform="translate(0 -98.864)" fill="#4d5e78"/>
      <path id="Path_2422" data-name="Path 2422" d="M332.766,302.414v78.143H199.13c48.3-22.765,91.13-55.671,120.54-101.6A27.545,27.545,0,0,1,332.766,302.414Z" transform="translate(-50.766 -108.648)" fill="#44546c"/>
      <path id="Path_2423" data-name="Path 2423" d="M208,256,235.545,361.59,263.091,256l-27.545,9.184Z" transform="translate(-54.545 -98.862)" fill="#b0b0ae"/>
      <path id="Path_2424" data-name="Path 2424" d="M283.545,256,256,265.181l20.807,16.646Z" transform="translate(-75 -98.862)" fill="#e0e0de"/>
      <path id="Path_2425" data-name="Path 2425" d="M235.545,265.182,208,256l6.738,25.828Z" transform="translate(-54.545 -98.864)" fill="#e0e0de"/>
      <path id="Path_2426" data-name="Path 2426" d="M258.364,333.212V279.345L249.182,272,240,279.345v53.867l9.182,35.2Z" transform="translate(-68.182 -105.682)" fill="#348fd9"/>
      <path id="Path_2427" data-name="Path 2427" d="M174.955,297.318l-4.591,18.364,41.318,45.909L184.136,256l-18.364,3.443L152,292.727Z" transform="translate(-30.682 -98.864)" fill="#556a8a"/>
      <path id="Path_2428" data-name="Path 2428" d="M292.727,297.318l4.591,18.364L256,361.591,283.545,256l18.364,3.443,13.773,33.284Z" transform="translate(-75 -98.864)" fill="#556a8a"/>
      <path id="Path_2429" data-name="Path 2429" d="M144,352h9.182v55.091H144Z" transform="translate(-27.273 -139.773)" fill="#313b4c"/>
      <path id="Path_2430" data-name="Path 2430" d="M352,352h9.182v55.091H352Z" transform="translate(-115.909 -139.773)" fill="#313b4c"/>
      <path id="Path_2431" data-name="Path 2431" d="M363.545,368h27.545v41.318l-22.955,0L340.5,413.265,336,381.773Z" transform="translate(-109.091 -146.591)" fill="#fec9a3"/>
      <path id="Path_2432" data-name="Path 2432" d="M205.572,394.32l5.275,34.295L121.318,448.08H93.773A13.773,13.773,0,0,1,80,434.307V402.17Z" transform="translate(0 -157.807)" fill="#404f66"/>
      <path id="Path_2433" data-name="Path 2433" d="M324.654,423.492l-4.5.644-16.062,3.49-5.275-34.295L320.155,392Z" transform="translate(-93.246 -156.818)" fill="#e0e0de"/>
      <path id="Path_2434" data-name="Path 2434" d="M107.545,368H80v41.318l22.955,0,27.638,3.948,4.5-31.492Z" transform="translate(0 -146.591)" fill="#fec9a3"/>
      <path id="Path_2435" data-name="Path 2435" d="M204,393.957l-2.6,36.429-28.739-6.249-4.5-.643,4.5-31.494Z" transform="translate(-37.568 -156.818)" fill="#e0e0de"/>
      <path id="Path_2436" data-name="Path 2436" d="M210.973,394.324,208,434.309l87.227,13.773h27.545a13.773,13.773,0,0,0,13.773-13.773V402.172Z" transform="translate(-54.545 -157.809)" fill="#4d5e78"/>
      <path id="Path_2437" data-name="Path 2437" d="M240,432h9.182v9.182H240Z" transform="translate(-68.182 -173.864)" fill="#313b4c"/>
      <path id="Path_2438" data-name="Path 2438" d="M272,432h9.182v9.182H272Z" transform="translate(-81.818 -173.864)" fill="#313b4c"/>
      <g id="Group_931" data-name="Group 931" transform="translate(125.911 69.909)">
        <path id="Path_2439" data-name="Path 2439" d="M263.091,210.149V184H208v26.149A41.139,41.139,0,0,0,263.091,210.149Z" transform="translate(-180.456 -138.091)" fill="#feb784"/>
        <path id="Path_2440" data-name="Path 2440" d="M328,104v27.545A13.773,13.773,0,0,0,328,104Z" transform="translate(-231.592 -104)" fill="#feb784"/>
        <path id="Path_2441" data-name="Path 2441" d="M174.006,104h-.23a13.773,13.773,0,1,0,0,27.545V104Z" transform="translate(-160.003 -104)" fill="#feb784"/>
      </g>
      <path id="Path_2442" data-name="Path 2442" d="M266.636,68.727v36.727a41.323,41.323,0,0,1-41.061,41.318h-.257A41.321,41.321,0,0,1,184,105.458V68.727C184,45.91,202.5,32,225.318,32h.253c11.311.052,21.543,3.524,28.963,9.807C262.011,48.137,266.636,57.319,266.636,68.727Z" transform="translate(-44.318 -3.409)" fill="#fec9a3"/>
      <path id="Path_2443" data-name="Path 2443" d="M297.506,68.727v36.727a41.323,41.323,0,0,1-41.061,41.318A47.791,47.791,0,0,0,276.2,108.025V70.742A47.78,47.78,0,0,0,256.44,32c11.311.052,21.543,3.524,28.963,9.807,7.477,6.33,12.1,15.512,12.1,26.92Z" transform="translate(-75.188 -3.409)" fill="#fec093"/>
      <circle id="Ellipse_98" data-name="Ellipse 98" cx="7" cy="7" r="7" transform="translate(153 70.136)" fill="#7a432a"/>
      <circle id="Ellipse_99" data-name="Ellipse 99" cx="7" cy="7" r="7" transform="translate(195 70.136)" fill="#7a432a"/>
      <path id="Path_2444" data-name="Path 2444" d="M240.545,166.239H232v-9.182h8.545c6.286,0,12.369-1.444,16.687-3.963l4.627,7.926c-5.766,3.367-13.331,5.219-21.313,5.219Z" transform="translate(-64.773 -55.012)" fill="#f7a468"/>
      <path id="Path_2445" data-name="Path 2445" d="M310.955,85.909V67.545C310.955,52.332,300.677,40,288,40l.808,2.908A115.347,115.347,0,0,0,310.955,85.909Z" transform="translate(-88.636 -6.818)" fill="#6e3c24"/>
      <path id="Path_2446" data-name="Path 2446" d="M184,85.581V54.01a14.779,14.779,0,0,1,18.364-14.338V53.445S194.064,73.5,184,85.581Z" transform="translate(-44.318 -6.49)" fill="#6e3c24"/>
      <path id="Path_2447" data-name="Path 2447" d="M216,46.955h64.273A22.955,22.955,0,0,0,257.318,24H238.167A31.348,31.348,0,0,0,216,33.182Z" transform="translate(-57.955)" fill="#7a432a"/>
      <path id="Path_2448" data-name="Path 2448" d="M248.357,24,230.544,46.955H242.17L259.983,24Z" transform="translate(-64.152)" fill="#6e3c24"/>
      <path id="Path_2449" data-name="Path 2449" d="M296.646,33.442a22.9,22.9,0,0,0-7.418-5.579L268.123,48.6h13.1Z" transform="translate(-80.166 -1.646)" fill="#6e3c24"/>
    </g>
  </g>
</svg>
