<svg id="Group_870" data-name="Group 870" xmlns="http://www.w3.org/2000/svg" width="16.307" height="18.118" viewBox="0 0 16.307 18.118">
  <g id="Group_869" data-name="Group 869" transform="translate(0)">
    <path id="Path_2200" data-name="Path 2200" d="M35.828,1.812h-.906V0H33.11V1.812H25.863V0H24.051V1.812h-.906a1.8,1.8,0,0,0-1.8,1.812l-.009,12.683a1.811,1.811,0,0,0,1.812,1.812H35.828a1.811,1.811,0,0,0,1.812-1.812V3.624A1.811,1.811,0,0,0,35.828,1.812Zm0,14.495H23.145V6.341H35.828Z" transform="translate(-21.333)"/>
    <path id="Path_2201" data-name="Path 2201" d="M123.675,192.96l-.96-.96-4.421,4.421-1.921-1.921-.96.96,2.881,2.881Z" transform="translate(-111.418 -183.847)"/>
  </g>
</svg>
