<svg xmlns="http://www.w3.org/2000/svg" width="88.374" height="79.677" viewBox="0 0 88.374 79.677">
  <g id="raise-your-hand-to-ask" transform="translate(17.926 20.23)">
    <g id="Group_844" data-name="Group 844" transform="translate(5.992 0)">
      <path id="Path_23_1_" d="M155.748,126.676a24.834,24.834,0,0,0,.394-2.509A31.847,31.847,0,0,0,144.826,96.75C122.539,78.3,81.3,87.248,70.059,113.995c-4.607,10.962-1.132,23.644,4.663,34.064,2.684,4.823,5.928,9.476,10.393,12.833,7.771,5.841,18.537,7.034,28.064,4.685C130.039,161.425,152.084,144.3,155.748,126.676Z" transform="translate(-91.849 -107.26)" fill="#a864a8"/>
      <path id="Path_2116" data-name="Path 2116" d="M325.26,216.205a7.053,7.053,0,1,0-7.053-7.053A7.06,7.06,0,0,0,325.26,216.205Z" transform="translate(-306.394 -194.453)" fill="#fff"/>
      <g id="Group_843" data-name="Group 843" transform="translate(0 0)">
        <path id="Path_2117" data-name="Path 2117" d="M221.027,73.184a4.918,4.918,0,0,0-4.919,4.919V83.6a.946.946,0,0,0,.946.946h19.939a.946.946,0,0,0,.946-.946V78.239a3.042,3.042,0,0,0,.219-.462l3.859-10.216a3.033,3.033,0,0,0,.2-1.071V55.027a3.027,3.027,0,0,0-6.054,0V65.939l-2.736,7.246Z" transform="translate(-208.158 -50.033)" fill="#fff"/>
        <path id="Path_2118" data-name="Path 2118" d="M6.931,6.739H9.164a.941.941,0,0,0,.935-.8A3.2,3.2,0,0,1,10.874,4.1a2.077,2.077,0,0,1,1.521-.518,2.183,2.183,0,0,1,1.616.583A1.956,1.956,0,0,1,14.6,5.66a1.741,1.741,0,0,1-.208.832A6.4,6.4,0,0,1,12.97,7.938a7.927,7.927,0,0,0-2.051,2.414,8.175,8.175,0,0,0-.59,3.541h0a.946.946,0,0,0,.946.946h2.017a.946.946,0,0,0,.946-.946h0a4.965,4.965,0,0,1,.235-1.911,5.521,5.521,0,0,1,1.476-1.529A8.5,8.5,0,0,0,18.1,8.04a5.327,5.327,0,0,0,.621-2.527,5.07,5.07,0,0,0-1.816-4A6.7,6.7,0,0,0,12.38,0,6.424,6.424,0,0,0,7.991,1.547,6.059,6.059,0,0,0,6,5.717H6A.937.937,0,0,0,6.931,6.739Z" transform="translate(-5.992 0)" fill="#fff"/>
        <path id="Path_2119" data-name="Path 2119" d="M123.467,434.3a.946.946,0,0,0,.946-.946v-2.013a.946.946,0,0,0-.946-.946h-2.013a.946.946,0,0,0-.946.946v2.013a.946.946,0,0,0,.946.946Z" transform="translate(-116.175 -414.116)" fill="#fff"/>
      </g>
    </g>
  </g>
</svg>
