<svg xmlns="http://www.w3.org/2000/svg" width="17.65" height="17.65" viewBox="0 0 17.65 17.65">
  <g id="bars" transform="translate(0 0)">
    <path id="Path_2136" data-name="Path 2136" d="M32.551,8.274a1.543,1.543,0,0,0,1.074-.436l1.531.765a1.519,1.519,0,0,0-.019.188,1.551,1.551,0,1,0,3.1,0,1.532,1.532,0,0,0-.156-.665L40.16,6.05a1.532,1.532,0,0,0,.665.156,1.553,1.553,0,0,0,1.551-1.551,1.528,1.528,0,0,0-.077-.459l1.8-1.353a1.55,1.55,0,1,0-.693-1.29,1.528,1.528,0,0,0,.077.459l-1.8,1.353a1.545,1.545,0,0,0-2.255,1.955L37.353,7.4a1.524,1.524,0,0,0-1.738.281L34.084,6.91a1.519,1.519,0,0,0,.019-.188,1.551,1.551,0,1,0-1.551,1.551Zm0,0" transform="translate(-29.931)"/>
    <path id="Path_2137" data-name="Path 2137" d="M17.133,161.445h-.552V150.517a.517.517,0,0,0-.517-.517H14a.517.517,0,0,0-.517.517v10.928H12.445V153.62a.517.517,0,0,0-.517-.517H9.859a.517.517,0,0,0-.517.517v7.825H8.308v-3.689a.517.517,0,0,0-.517-.517H5.723a.517.517,0,0,0-.517.517v3.689H4.171v-5.757a.517.517,0,0,0-.517-.517H1.586a.517.517,0,0,0-.517.517v5.757H.517a.517.517,0,1,0,0,1.034H17.133a.517.517,0,1,0,0-1.034Zm0,0" transform="translate(0 -144.829)"/>
  </g>
</svg>
