<svg xmlns="http://www.w3.org/2000/svg" width="22.999" height="23.5" viewBox="0 0 22.999 23.5">
  <path id="Loupe" d="M-2781.1-3462.5a1.1,1.1,0,0,1-.778-.321l-6.242-6.228a8.751,8.751,0,0,1-5.08,1.611,8.8,8.8,0,0,1-8.8-8.781,8.8,8.8,0,0,1,8.8-8.781,8.8,8.8,0,0,1,8.8,8.781,8.77,8.77,0,0,1-2.1,5.687l6.172,6.159a1.088,1.088,0,0,1,.322.776,1.089,1.089,0,0,1-.322.776A1.092,1.092,0,0,1-2781.1-3462.5Zm-12.1-20.3a6.6,6.6,0,0,0-6.6,6.586,6.6,6.6,0,0,0,6.6,6.584,6.6,6.6,0,0,0,6.6-6.584A6.6,6.6,0,0,0-2793.2-3482.8Z" transform="translate(2802.5 3485.5)" fill="#222" stroke="rgba(0,0,0,0)" stroke-width="1"/>
</svg>
