<svg xmlns="http://www.w3.org/2000/svg" width="42.667" height="42.667" viewBox="0 0 42.667 42.667"><defs><style>.a{fill:#fff;}</style></defs><path class="a" d="M41.416,40.166h-5.5V27.917a2.5,2.5,0,0,0-2.5-2.5H31.558A10.849,10.849,0,0,0,28.7,20.067a8.931,8.931,0,0,0-3.021-1.976,12.431,12.431,0,0,0,4-8.952,9.362,9.362,0,0,0-2.445-6.9A8.124,8.124,0,0,0,21.333,0a8.125,8.125,0,0,0-5.9,2.24,9.362,9.362,0,0,0-2.445,6.9,12.431,12.431,0,0,0,4,8.952,8.931,8.931,0,0,0-3.02,1.976,10.848,10.848,0,0,0-2.855,5.349H9.25a2.5,2.5,0,0,0-2.5,2.5v12.25H1.25a1.25,1.25,0,0,0,0,2.5H41.416a1.25,1.25,0,0,0,0-2.5ZM21.333,2.5a5.289,5.289,0,0,1,5.588,4.238,7.283,7.283,0,0,1-2.571-.8,2.838,2.838,0,0,0-1.963-.412,3.76,3.76,0,0,0-1.508.839c-.79.623-1.942,1.531-5.347,1.715.424-4.822,3.759-5.577,5.8-5.577Zm-5.72,8.076c4.246-.224,5.831-1.475,6.815-2.252.142-.112.326-.257.439-.326.1.042.248.116.374.178a9.862,9.862,0,0,0,3.934,1.1,10.24,10.24,0,0,1-1.848,5.49,5.244,5.244,0,0,1-3.995,2.583,5.245,5.245,0,0,1-3.995-2.583,10.508,10.508,0,0,1-1.725-4.191Zm5.053,9.341H22a6.97,6.97,0,0,1,6.981,5.5h-15.3A6.97,6.97,0,0,1,20.667,19.917ZM9.25,40.166V27.917H33.417v12.25Z" transform="translate(0)"/><circle class="a" cx="1" cy="1" r="1" transform="translate(20 32.612)"/></svg>