<svg xmlns="http://www.w3.org/2000/svg" width="88.374" height="79.677" viewBox="0 0 88.374 79.677">
  <g id="Students_Icon" data-name="Students Icon" transform="translate(-477.569 -162.054)">
    <path id="Path_23_1_" d="M155.748,126.676a24.834,24.834,0,0,0,.394-2.509A31.847,31.847,0,0,0,144.826,96.75C122.539,78.3,81.3,87.248,70.059,113.995c-4.607,10.962-1.132,23.644,4.663,34.064,2.684,4.823,5.928,9.476,10.393,12.833,7.771,5.841,18.537,7.034,28.064,4.685C130.039,161.425,152.084,144.3,155.748,126.676Z" transform="translate(409.639 75.025)" fill="#f87949"/>
    <g id="Student_Icon" data-name="Student Icon" transform="translate(506.188 182.016)">
      <g id="Group_829" data-name="Group 829">
        <path id="Path_2108" data-name="Path 2108" d="M76.869,257.056a2.665,2.665,0,0,0-1.52-1.3l-4.138-1.905-1.988-1.677-3.195,3.177h0l1.379,9.216a.121.121,0,0,1-.022.09l-1.442,1.973a.122.122,0,0,1-.2,0L64.3,264.66a.121.121,0,0,1-.022-.09l1.379-9.216h0l-3.194-3.177-1.988,1.677-4.138,1.905a2.689,2.689,0,0,0-1.52,1.3s-4.5,10.709-2.058,10.709H78.928C81.367,267.766,76.869,257.056,76.869,257.056Z" transform="translate(-52.032 -231.69)" fill="#fff"/>
        <path id="Path_2109" data-name="Path 2109" d="M100.939,10.682a.231.231,0,0,0,.207-.256q-.069-.593-.139-1.186l-.1-.828a.231.231,0,0,0-.25-.2h-.179l0-2.779.094-.034.312-.113a.667.667,0,0,0,0-1.255L89.851.04a.667.667,0,0,0-.454,0L78.357,4.03a.667.667,0,0,0,0,1.255L82.439,6.76a9.984,9.984,0,0,0-.407,3.11c.072,6.613,3.911,10.557,7.463,10.557,3.511,0,7.391-3.944,7.463-10.557a10.08,10.08,0,0,0-.382-3.025l2.968-1.072.006,2.439H99.37a.23.23,0,0,0-.249.2l-.232,2.014a.231.231,0,0,0,.05.171.227.227,0,0,0,.157.084m-9.6,8.138c-3.1,0-5.238-3.63-5.669-7.26-.4-3.356,4.455-3.513,4.737-1.432.087.64-.647,1.325-.564,1.589.411,1.3,7.212-4.256,7.165-.158C95.131,14.453,92.447,18.821,89.495,18.821Z" transform="translate(-75.814 0)" fill="#fff"/>
      </g>
    </g>
  </g>
</svg>
