<svg id="Student_Icon" data-name="Student Icon" xmlns="http://www.w3.org/2000/svg" width="14.861" height="19.41" viewBox="0 0 14.861 19.41">
  <g id="Group_829" data-name="Group 829">
    <path id="Path_2108" data-name="Path 2108" d="M65.395,254.8a1.434,1.434,0,0,0-.818-.7l-2.226-1.025-1.07-.9-1.719,1.71h0l.742,4.959a.065.065,0,0,1-.012.048l-.776,1.061a.065.065,0,0,1-.106,0l-.775-1.061a.065.065,0,0,1-.012-.048l.742-4.959h0l-1.719-1.709-1.07.9L54.347,254.1a1.447,1.447,0,0,0-.818.7s-2.42,5.762-1.108,5.762H66.5C67.815,260.564,65.395,254.8,65.395,254.8Z" transform="translate(-52.032 -241.154)"/>
    <path id="Path_2109" data-name="Path 2109" d="M90.3,5.748a.124.124,0,0,0,.111-.138q-.037-.319-.075-.638l-.052-.445a.124.124,0,0,0-.134-.109h-.1l0-1.495.05-.018.168-.061a.359.359,0,0,0,0-.675L84.338.022a.359.359,0,0,0-.244,0l-5.94,2.147a.359.359,0,0,0,0,.675l2.2.794a5.372,5.372,0,0,0-.219,1.673c.039,3.558,2.1,5.68,4.015,5.68,1.889,0,3.977-2.122,4.015-5.68a5.423,5.423,0,0,0-.205-1.628l1.6-.577,0,1.312h-.1a.124.124,0,0,0-.134.109L89.2,5.611a.124.124,0,0,0,.027.092.122.122,0,0,0,.084.045m-5.165,4.378c-1.667,0-2.818-1.953-3.05-3.906-.215-1.806,2.4-1.89,2.549-.771.047.344-.348.713-.3.855.221.7,3.88-2.29,3.855-.085C87.179,7.776,85.735,10.126,84.146,10.126Z" transform="translate(-76.786 0)"/>
  </g>
</svg>
