<svg xmlns="http://www.w3.org/2000/svg" xmlns:xlink="http://www.w3.org/1999/xlink" width="269.373" height="264.483" viewBox="0 0 269.373 264.483">
  <defs>
    <clipPath id="clip-path">
      <path id="Path_922" data-name="Path 922" d="M328.9,255.225a72.593,72.593,0,0,1-1.722,7.387c-8.539,29.48-33.659,54.5-65.047,64.8C174.958,356,63.271,288.94,60.813,202.95c-1.009-35.247,23.874-67.012,53.01-90.11,13.49-10.689,28.452-20.335,45.519-25.115,29.714-8.325,62.941-.635,88.416,15.633C292.852,132.152,338.35,202.38,328.9,255.225Z" transform="translate(-60.783 -84.336)"/>
    </clipPath>
  </defs>
  <g id="Teacher_New" data-name="Teacher New" transform="translate(-67.952 -59.103)">
    <g id="Group_345" data-name="Group 345" transform="translate(67.952 73.355)">
      <g id="Group_336" data-name="Group 336" transform="translate(0 0)" clip-path="url(#clip-path)">
        <path id="Path_921_1_" d="M328.031,253.862a72.685,72.685,0,0,1-1.718,7.366c-8.515,29.4-33.566,54.353-64.867,64.618C174.515,354.36,63.135,287.483,60.686,201.731c-1.006-35.149,23.808-66.827,52.864-89.861,13.454-10.659,28.375-20.28,45.393-25.046,29.632-8.3,62.766-.633,88.172,15.591C292.081,131.128,337.454,201.162,328.031,253.862Z" transform="translate(-60.778 -84.301)" fill="#e6f5ff"/>
      </g>
    </g>
    <g id="avatar" transform="translate(53.325 35.104)">
      <path id="Path_2334" data-name="Path 2334" d="M277.72,163.108l-1.479,13.308-1,8.966H149.726l-1-8.966-1.479-13.308a68.974,68.974,0,0,1,5.155-34.781A69.039,69.039,0,0,0,157.9,97.716l-.779-15.51a55.437,55.437,0,1,1,110.735,0l-.779,15.51a69.039,69.039,0,0,0,5.491,30.612,68.939,68.939,0,0,1,5.155,34.781Z" transform="translate(-54.002 -0.003)" fill="#46200e"/>
      <path id="Path_2335" data-name="Path 2335" d="M318.358,163.105l-1.479,13.308H266.571V127.1l8.966-17.931V73.31A49.359,49.359,0,0,0,239.26,25.742,55.5,55.5,0,0,1,308.491,82.2l-.779,15.51a69.039,69.039,0,0,0,5.491,30.612A68.938,68.938,0,0,1,318.358,163.105Z" transform="translate(-94.64 0)" fill="#5a2b15"/>
      <path id="Path_2336" data-name="Path 2336" d="M263.586,251.862a6.273,6.273,0,0,1-6.276-6.276V216H221.448v29.586a6.273,6.273,0,0,1-6.276,6.276H208v26.9h62.759v-26.9Z" transform="translate(-80.897 -84.414)" fill="#fec9a3"/>
      <path id="Path_2337" data-name="Path 2337" d="M252.634,238.414a24.6,24.6,0,0,0,15.228-5.5V216H232v16.917a24.6,24.6,0,0,0,15.228,5.5Z" transform="translate(-91.448 -84.414)" fill="#feb784"/>
      <path id="Path_2338" data-name="Path 2338" d="M272.69,106.9V129.31a40.345,40.345,0,0,1-80.69,0V106.9a60.817,60.817,0,0,0,20.677-23.422L214.414,80l2.544,2.124a111.643,111.643,0,0,0,37.8,20.677,111.8,111.8,0,0,0,17.931,4.1Z" transform="translate(-73.862 -24.621)" fill="#fec9a3"/>
      <path id="Path_2339" data-name="Path 2339" d="M310.392,124.786V147.2a40.362,40.362,0,0,1-32.637,39.609,49.133,49.133,0,0,0,14.706-35.126V120.69a111.792,111.792,0,0,0,17.931,4.1Z" transform="translate(-111.565 -42.511)" fill="#fec093"/>
      <path id="Path_2340" data-name="Path 2340" d="M222.724,149.448a6.724,6.724,0,1,1,6.724-6.724A6.724,6.724,0,0,1,222.724,149.448Z" transform="translate(-84.414 -49.242)" fill="#7a432a"/>
      <path id="Path_2341" data-name="Path 2341" d="M294.724,149.448a6.724,6.724,0,1,1,6.724-6.724A6.724,6.724,0,0,1,294.724,149.448Z" transform="translate(-116.069 -49.242)" fill="#7a432a"/>
      <path id="Path_2342" data-name="Path 2342" d="M253.448,189.448A13.463,13.463,0,0,1,240,176h8.966a4.483,4.483,0,1,0,8.966,0H266.9A13.463,13.463,0,0,1,253.448,189.448Z" transform="translate(-94.965 -66.828)" fill="#f7a468"/>
      <path id="Path_2343" data-name="Path 2343" d="M224,312h44.828v31.379H224Z" transform="translate(-87.931 -126.621)" fill="#e0e0de"/>
      <path id="Path_2344" data-name="Path 2344" d="M274.394,396.367a13.606,13.606,0,0,1-15.112-9.027l-29.609-55.547a34.909,34.909,0,0,1-6.253,33.38v35.862H142.73V365.172a34.965,34.965,0,0,1-6.186-33.794L106.454,387.34a13.6,13.6,0,1,1-25.827-8.54l32.915-81.928A26.888,26.888,0,0,1,138.5,280h17.679l26.9,49.31,26.9-49.31h17.612a26.919,26.919,0,0,1,24.991,16.962L285.114,378.8a13.609,13.609,0,0,1-10.719,17.567Z" transform="translate(-24.592 -112.552)" fill="#ec8c8c"/>
      <path id="Path_2345" data-name="Path 2345" d="M74.2,426.031,77.428,384h26.9v43.189a15.087,15.087,0,1,1-30.13-1.157Z" transform="translate(-22.049 -158.276)" fill="#f59898"/>
      <path id="Path_2346" data-name="Path 2346" d="M65.926,267.094a8.72,8.72,0,0,0-5.685,12.36l4.1,8.205H48.28a26.9,26.9,0,0,1-12.029-2.839l-4.467-2.233A5.379,5.379,0,0,0,24,287.4v12.651a8.966,8.966,0,0,0,4.956,8.019l7.3,3.648a26.9,26.9,0,0,0,12.028,2.839h34v-26.9l-6.139-15.346a8.72,8.72,0,0,0-10.212-5.218Z" transform="translate(0 -106.763)" fill="#fec9a3"/>
      <path id="Path_2347" data-name="Path 2347" d="M80,352h26.9v17.931H80Z" transform="translate(-24.621 -144.207)" fill="#e0e0de"/>
      <path id="Path_2348" data-name="Path 2348" d="M324.821,398.231a13.606,13.606,0,0,1-15.112-9.027L280.1,333.657a34.91,34.91,0,0,1-6.253,33.38V402.9H194.63c37-24.162,68.216-54.824,94.418-118.659A26.853,26.853,0,0,1,303,298.826l32.539,81.838a13.609,13.609,0,0,1-10.719,17.567Z" transform="translate(-75.018 -114.416)" fill="#e07f7f"/>
      <path id="Path_2349" data-name="Path 2349" d="M340.828,407.724,296,398.759V336l44.828,8.965Z" transform="translate(-119.586 -137.173)" fill="#a36548"/>
      <path id="Path_2350" data-name="Path 2350" d="M408,407.724l44.828-8.966V336L408,344.965Z" transform="translate(-168.828 -137.173)" fill="#8f4d2e"/>
      <path id="Path_2351" data-name="Path 2351" d="M376,352h17.931v62.759H376Z" transform="translate(-154.759 -144.207)" fill="#95573a"/>
      <path id="Path_2352" data-name="Path 2352" d="M349.793,334.414a15.876,15.876,0,0,0-13.265-15.659L296,312v13.448l44.828,8.966h8.966a15.876,15.876,0,0,1,13.265-15.659L403.586,312v13.448l-44.828,8.966Z" transform="translate(-119.586 -126.621)" fill="#d4bd81"/>
      <path id="Path_2353" data-name="Path 2353" d="M455.151,442.47l-17.931,2.989a4.483,4.483,0,0,1-5.22-4.422V424.375a5.835,5.835,0,0,1,4.875-5.756l15.225-2.538a5.835,5.835,0,0,1,6.8,5.756v16.21a4.483,4.483,0,0,1-3.746,4.422Z" transform="translate(-179.379 -172.346)" fill="#fec9a3"/>
    </g>
  </g>
</svg>
