<svg xmlns="http://www.w3.org/2000/svg" width="632.614" height="482.534" viewBox="0 0 632.614 482.534">
  <g id="Vector_3" data-name="Vector 3" transform="translate(-24.178)">
    <g id="Layer_1" transform="translate(24.178 0)">
      <g id="Group_216" data-name="Group 216" transform="translate(0 0)" style="isolation: isolate">
        <path id="Path_307" data-name="Path 307" d="M365.45,879.751c-58.223-57.535-72.133-175-18.2-256.678C392.2,555,474.989,484.975,579.32,464.563s195.734-20.39,235.263,6.577c32.349,22.068,17.311,52.8,7.167,78.92-13.542,34.866-15.538,62.547,40.174,113.2,63.6,57.817,80.811,79.522,84,135.428,2.593,45.47-34.079,106.633-82.2,115.4-66.991,12.2-91.857-20.026-157.4-41.752-52.576-17.429-89.042-9.279-136.711,24.123S450.894,964.184,365.45,879.751Z" transform="translate(-313.437 -449.997)" fill="#fff"/>
      </g>
    </g>
    <g id="Слой_1" transform="translate(24.183 48.766)">
      <g id="Group_241" data-name="Group 241" transform="translate(0 0)">
        <path id="Path_308" data-name="Path 308" d="M864.34,937.524c-24.888-22.167-43.166-8.944-56.778,5.833-10.849,11.779-12.363,14.391-21.326,26.595a10.708,10.708,0,0,0-2.4,6.071c-.252,13.492-7.155,70.537.518,90.221,8.945,22.944,119.258,33.444,119.258,33.444Z" transform="translate(-371.227 -872.469)" fill="#303c60"/>
        <g id="Group_217" data-name="Group 217" transform="translate(405.263 100.083)">
          <path id="Path_309" data-name="Path 309" d="M1305.214,1250.818a1.137,1.137,0,0,0,.057-2.272,10.572,10.572,0,0,1-8.146-4.5c-12.369-16.025-5.414-69.527.646-98.615a1.137,1.137,0,0,0-2.226-.464,390.059,390.059,0,0,0-7.13,52.389c-1.419,24.123.906,40.3,6.91,48.078a12.889,12.889,0,0,0,9.831,5.381C1305.176,1250.818,1305.2,1250.818,1305.214,1250.818Z" transform="translate(-1288.012 -1144.063)" fill="#303c60"/>
        </g>
        <path id="Path_310" data-name="Path 310" d="M430.54,949.906c47.832,26.444,18.666,115.888,79.333,147.776,16.807,8.834,68.443,53.666,34.611,112.776-22.131,38.666-88.277,30.333-110.054-3.889S430.54,949.906,430.54,949.906Z" transform="translate(53.239 -891.462)" fill="#303c60"/>
        <g id="Group_218" data-name="Group 218" transform="translate(506.753 91.919)">
          <path id="Path_311" data-name="Path 311" d="M512.87,1275.878a1.14,1.14,0,0,0,1.128-1.287,65.417,65.417,0,0,0-5.854-17.824,78.187,78.187,0,0,0-28.625-32.244c-28.07-17.863-46.7-34.7-68.733-117.683a1.137,1.137,0,1,0-2.2.583c10.645,40.1,21.2,67.209,33.217,85.313,11.159,16.811,22.641,24.89,36.493,33.7,29.16,18.556,33.406,48.153,33.446,48.45A1.137,1.137,0,0,0,512.87,1275.878Z" transform="translate(-408.551 -1105.995)" fill="#303c60"/>
        </g>
        <g id="Group_219" data-name="Group 219" transform="translate(504.031 85.306)">
          <path id="Path_312" data-name="Path 312" d="M519.433,1228.493a1.137,1.137,0,0,0,.96-1.743,86.646,86.646,0,0,0-26.258-26.768c-39.42-25.493-45.943-40.148-78.5-124.094a1.137,1.137,0,1,0-2.12.822c16.278,41.97,26.006,66.564,36.647,84,11.428,18.72,24.325,29.277,42.739,41.185a84.37,84.37,0,0,1,25.571,26.073A1.135,1.135,0,0,0,519.433,1228.493Z" transform="translate(-413.437 -1075.162)" fill="#303c60"/>
        </g>
        <path id="Path_313" data-name="Path 313" d="M954.13,1210.17c16.469,34.2,13.936,65.242,13.936,65.242s-1.9,12.035-9.5,14.569-18.369-5.068-17.735-15.2-2.534-34.838-6.334-43.706S954.13,1210.17,954.13,1210.17Z" transform="translate(-468.699 -1095.91)" fill="#f09959"/>
        <path id="Path_314" data-name="Path 314" d="M624.047,2227.194c-1.037,9.333,1.3,8.556-7,10.111s-23.073-4.148-23.073-4.148l16.592-30.852Z" transform="translate(-51.602 -1875.272)" fill="#6791c9"/>
        <path id="Path_315" data-name="Path 315" d="M603.01,1428.73c4.666,15.166,39.664,3.5,51.913,7s22.749,54.83,24.5,100.911-.583,82.828-5.25,88.661-81.662,8.166-88.662,5.833,58.33-31.5,58.33-31.5,4.084-53.664-1.166-81.079-52.5-63.58-52.5-63.58Z" transform="translate(-105.63 -1267.598)" fill="#f09959"/>
        <path id="Path_316" data-name="Path 316" d="M1132.864,1450.5c-12.249,18.665-44.33,16.332-55.414,31.5s-34.415,98.577-34.415,98.577l-24.5-84.578s-19.867-3.338-13.415,10.5c11.475,24.609,15.753,104.007,28.2,115.284,13.839,12.541,27.611,2.333,35.382-19.622,7.517-21.24,26.249-67.079,39.664-84.579s28-45.5,28-45.5Z" transform="translate(-651.816 -1284.699)" fill="#f09959"/>
        <path id="Path_317" data-name="Path 317" d="M713.5,1452.542c-24.5,28.582-72.329,27.415-82.828,23.915l-10.5-3.5s-8.166-2.917-15.166,5.25-23.915,59.5-26.832,71.163-7.583,30.915-7.583,30.915,12.515,15.021,12.515,30.187-5.315,15.3-5.315,15.3,15.549-3.485,19.049-12.818,35-93.912,35-93.912l86.911,1.75-1.167,95.661s7.583-7,18.082,0,14,23.332,12.25,25.665,3.5,2.333,3.5.584,9.916-44.331,2.916-114.327-20.415-77.578-28-78.162A24.633,24.633,0,0,0,713.5,1452.542Z" transform="translate(-179.375 -1284.41)" fill="#75a1de"/>
        <g id="Group_220" data-name="Group 220" transform="translate(397.096 216.332)">
          <path id="Path_318" data-name="Path 318" d="M1389.1,2263.47a.914.914,0,0,1-.26.056S1388.935,2263.508,1389.1,2263.47Z" transform="translate(-1384.218 -2139.652)" fill="#6791c9"/>
          <path id="Path_319" data-name="Path 319" d="M1192.348,1767.786c5.056,1.555,13.612,19.444,13.612,19.444s19.444-42.389,25.277-101.11l6.941,39.837c-9.582,25.725-24.619,66.09-26.975,72.372-3.2,8.537-16.112,12.1-17.883,12.494.484-.164,1.554-.811,2.44-3.373.51-.466,3.431-1.831,3.978-2.332,4.666-4.277,2.722-14.388-.389-25.666S1187.291,1766.229,1192.348,1767.786Z" transform="translate(-1190.831 -1686.12)" fill="#6791c9"/>
        </g>
        <path id="Path_320" data-name="Path 320" d="M677.43,1617.76l9.64-44.075c10.5,14.779,11.666,65.333,7.389,99.944-3.508,28.384-8.756,35.75-12.362,38.709a10.568,10.568,0,0,0-1.65,1.167l1.167-95.661Z" transform="translate(-142.236 -1381.466)" fill="#6791c9"/>
        <path id="Path_321" data-name="Path 321" d="M799.01,1571.88c-17.889,48.222-8.945,57.944-32.484,114.543-13.147,31.611-38.5,55.414-38.5,55.414a161.04,161.04,0,0,1-46.08,3.5c-25.665-1.75-44.455-3.513-44.455-3.513s26.956-16.319,28.122-27.4,6.23-55.042-.382-86.153c-5.162-24.294,16.131-48.589,16.131-48.589l35.581-1.75Z" transform="translate(-235.898 -1380.048)" fill="#75a1de"/>
        <path id="Path_322" data-name="Path 322" d="M870.686,1901.073c3.111-11.278-13.222,3.5-40.055,6.222s-56.778-1.556-42,3.111,55.222-2.333,47.833,12.444c-8.7,17.392-18.963,34.222-33.832,44.333-9.722,6.611-33.055,12.833-10.5,9.333s46.667-29.944,57.166-47.055S869.993,1903.589,870.686,1901.073Z" transform="translate(-339.075 -1635.354)" fill="#6791c9" opacity="0.5"/>
        <path id="Path_323" data-name="Path 323" d="M992.608,1278.83c-.236-11.642-3.075-31.51-6.4-39.266-2.723-6.354,8.534-14.332,15.138-18.346l5.584-.239q1.276,2.782,2.394,5.526c5.9,38.714-11.749,54.711-20.169,57.931a25.464,25.464,0,0,1-11.186,1.229A67.779,67.779,0,0,0,992.608,1278.83Z" transform="translate(-520.413 -1104.401)" fill="#e38540"/>
        <g id="Group_221" data-name="Group 221" transform="translate(468.427 168.243)">
          <path id="Path_324" data-name="Path 324" d="M907.643,1485.284a26.294,26.294,0,0,0,6.209-.752c4.867-1.186,16.478-5.7,19.178-21.9a.644.644,0,1,0-1.271-.212c-2.574,15.444-13.594,19.73-18.212,20.857-7.176,1.749-14.788.13-17.71-3.767-2.343-3.125-.937-9.781-.923-9.847a.644.644,0,1,0-1.259-.273c-.065.3-1.546,7.3,1.151,10.894C897.2,1483.474,902.125,1485.284,907.643,1485.284Z" transform="translate(-893.19 -1461.885)" fill="#f5ce5c"/>
        </g>
        <path id="Path_325" data-name="Path 325" d="M1004.6,1120.295c3.956,20.894,13.1,37.749,28.559,34.572s31.722-25.246,27.443-46.076-20.284-35.141-35.749-31.964S999.331,1092.454,1004.6,1120.295Z" transform="translate(-576.615 -990.817)" fill="#f09959"/>
        <path id="Path_326" data-name="Path 326" d="M1382.833,1762.28s28.583,76.805,29.944,84.778-1.361,13.028-2.139,13.028-25.083-41.61-25.083-41.61Z" transform="translate(-1009.886 -1529.615)" fill="#f09959"/>
        <path id="Path_327" data-name="Path 327" d="M1532.68,1681.984c-2.334-7.778,1.3-17.63,1.3-17.63l-10.37,1.3Z" transform="translate(-1160.899 -1452.691)" fill="#f09959"/>
        <g id="Group_222" data-name="Group 222" transform="translate(335.862 149.532)">
          <path id="Path_328" data-name="Path 328" d="M1456.5,1441.134h28.936a2.625,2.625,0,0,0,2.516-3.375l-18.266-61.246a2.626,2.626,0,0,0-2.516-1.874h-28.937a2.625,2.625,0,0,0-2.515,3.375l18.266,61.246A2.621,2.621,0,0,0,1456.5,1441.134Z" transform="translate(-1431.975 -1374.639)" fill="#4381db"/>
          <path id="Path_329" data-name="Path 329" d="M1473.429,1441.134h28.936a2.625,2.625,0,0,0,2.516-3.375l-18.267-61.246a2.624,2.624,0,0,0-2.516-1.874h-28.935a2.625,2.625,0,0,0-2.516,3.375l18.267,61.246A2.625,2.625,0,0,0,1473.429,1441.134Z" transform="translate(-1452.536 -1374.639)" fill="#2e5b9a"/>
          <path id="Path_330" data-name="Path 330" d="M1486.632,1404.941c3.085,11.115,5.161,20.244,4.638,20.389s-3.449-8.748-6.533-19.863-5.161-20.243-4.638-20.388S1483.546,1393.827,1486.632,1404.941Z" transform="translate(-1444.788 -1382.838)" fill="#9cbeed"/>
        </g>
        <path id="Path_331" data-name="Path 331" d="M1560.071,1519.916c-.855-10.1-9.6-19.567-12.933-22.588a4.779,4.779,0,0,1-1.571-3.587c.048-5.034.272-16.919,1.313-18.308,1.326-1.767,4.64-24.523,6.186-23.639s-.442,20.767-.442,20.767,3.756-1.767,5.744-2.651,10.163,8.174,10.163,8.174,3.833,9.683-6.646,5.536c-12.444-4.927-3.111,8.814,5.185,17.629,6.836,7.263,1.019,8.869,1.019,8.869l-5.523-.22Z" transform="translate(-1202.031 -1285.696)" fill="#f09959"/>
        <g id="Group_223" data-name="Group 223" transform="translate(357.996 228.714)">
          <path id="Path_332" data-name="Path 332" d="M1528.006,1757.307a10.194,10.194,0,0,0,3-.468c2.691-.839,7.391-3.545,8.634-12.249a.644.644,0,0,0-1.276-.182c-1.063,7.442-4.672,10.158-7.511,11.125a7.018,7.018,0,0,1-4.727.156.645.645,0,0,0-1.237-.151.91.91,0,0,0,.2.967A4.254,4.254,0,0,0,1528.006,1757.307Z" transform="translate(-1524.828 -1743.855)" fill="#f5ce5c"/>
        </g>
        <g id="Group_224" data-name="Group 224" transform="translate(357.717 231.728)">
          <path id="Path_333" data-name="Path 333" d="M1523.482,1765.847a18.359,18.359,0,0,0,2.608-.188c5-.726,8.352-3.264,9.194-6.961a.644.644,0,1,0-1.257-.287c-.8,3.528-4.011,5.029-6.561,5.665-3.573.893-6.93.342-7.331-.121a.634.634,0,0,0-.872-.236.654.654,0,0,0-.24.887C1519.506,1765.461,1521.382,1765.847,1523.482,1765.847Z" transform="translate(-1518.94 -1757.91)" fill="#f5ce5c"/>
        </g>
        <g id="Group_225" data-name="Group 225" transform="translate(435.699 114.061)">
          <path id="Path_334" data-name="Path 334" d="M1157.823,1235.531a6.368,6.368,0,0,0,.952-.072c4.907-.752,7.872-7.083,6.749-14.413a17.207,17.207,0,0,0-3.8-8.685c-2.051-2.337-4.521-3.421-6.956-3.048-4.907.751-7.871,7.082-6.748,14.413C1149.073,1230.579,1153.272,1235.531,1157.823,1235.531Zm-2.119-24.017a5.954,5.954,0,0,1,4.315,2.345,14.928,14.928,0,0,1,3.259,7.53c.9,5.868-1.321,11.281-4.846,11.822s-7.263-3.962-8.162-9.83,1.321-11.281,4.846-11.822A4.161,4.161,0,0,1,1155.7,1211.514Z" transform="translate(-1147.786 -1209.241)" fill="#fff"/>
        </g>
        <g id="Group_226" data-name="Group 226" transform="translate(422.258 117.282)">
          <path id="Path_335" data-name="Path 335" d="M1245.561,1247.36a3.036,3.036,0,0,0,.467-.035c3.213-.492,4.956-5.934,3.968-12.39s-4.288-11.138-7.493-10.637c-1.656.254-2.959,1.768-3.669,4.266a19.717,19.717,0,0,0-.3,8.125C1239.475,1242.833,1242.5,1247.36,1245.561,1247.36Zm-2.586-21.379c1.893,0,4.468,3.642,5.322,9.213.885,5.784-.622,10.14-2.529,10.432s-4.648-3.414-5.534-9.2a18,18,0,0,1,.251-7.4c.509-1.786,1.338-2.893,2.277-3.037A1.337,1.337,0,0,1,1242.974,1225.98Z" transform="translate(-1238.257 -1224.26)" fill="#fff"/>
        </g>
        <g id="Group_227" data-name="Group 227" transform="translate(449.977 107.862)">
          <path id="Path_336" data-name="Path 336" d="M977.857,1193.5a1.156,1.156,0,0,0,.313-.044l38.111-10.889a1.137,1.137,0,0,0-.624-2.186l-38.111,10.889a1.137,1.137,0,0,0,.312,2.23Z" transform="translate(-976.72 -1180.336)" fill="#fff"/>
        </g>
        <path id="Path_337" data-name="Path 337" d="M996.539,1051.473c58.981,34.741,62.221,11.407,62.221,11.407l-3.5-33.184-35,1.944Z" transform="translate(-572.649 -954.141)" fill="#303c60"/>
        <path id="Path_338" data-name="Path 338" d="M953.96,1186.717c-1.372,5.873.5,11.331,4.185,12.192s7.783-3.2,9.155-9.074-.5-11.332-4.186-12.193S955.331,1180.845,953.96,1186.717Z" transform="translate(-472.411 -1070.267)" fill="#f09959"/>
        <path id="Path_339" data-name="Path 339" d="M977.31,1247.84a2.323,2.323,0,1,0,2.323-2.323A2.322,2.322,0,0,0,977.31,1247.84Z" transform="translate(-491.72 -1123.677)" fill="#f5ce5c"/>
        <path id="Path_340" data-name="Path 340" d="M349.752,2374.052H939.743a5.407,5.407,0,0,0,0-10.813H349.751a5.407,5.407,0,1,0,0,10.813Z" transform="translate(-319.169 -2001.693)" fill="#2e5b9a"/>
        <path id="Path_341" data-name="Path 341" d="M1026.824,2358.379s22.241.281,22.523,2.252-.844,2.815-8.728,4.223-96.566,1.97-97.411,1.408-26.745-6.757-26.745-6.757l62.219-1.126h48.143Z" transform="translate(-546.101 -1997.875)" fill="#dbe5eb"/>
        <path id="Path_342" data-name="Path 342" d="M1116.889,2272.185s-15.944-7-20.611-3.89-18.148,17.371-18.148,17.371Z" transform="translate(-648.276 -1926.484)" fill="#f09959"/>
        <path id="Path_343" data-name="Path 343" d="M1087.6,2251.645c.3.38.755.538,1.009.349l32.808-24.425c1.767-1.316,2.608-3.328,1.758-4.39s-3-.683-4.669.752l-31.026,26.652C1087.238,2250.79,1087.294,2251.266,1087.6,2251.645Z" transform="translate(-656.865 -1891.193)" fill="#2e5b9a"/>
        <path id="Path_344" data-name="Path 344" d="M910.1,2275.45s-26.444,10.5-29.556,10.5-20.481-11.667-26.314-10.111-34.352,15.944-33.574,17.111,8.944,3.889,33.056,3.111,63.387-4.278,63.387-4.278Z" transform="translate(-393.266 -1932.73)" fill="#f09959"/>
        <path id="Path_345" data-name="Path 345" d="M1882.881,2281.8H1997.1a1.069,1.069,0,0,0,1.066-1.066v-20.671A1.069,1.069,0,0,0,1997.1,2259H1882.881a2.684,2.684,0,0,0-2.676,2.676v17.452A2.682,2.682,0,0,0,1882.881,2281.8Z" transform="translate(-1701.564 -1919.809)" fill="#f37168"/>
        <path id="Path_346" data-name="Path 346" d="M1881.578,2276.99h102.334a7.844,7.844,0,0,1,1.138,4.059v6.968a7.844,7.844,0,0,1-1.138,4.059H1881.578a6.625,6.625,0,0,1-6.606-6.605V2283.6A6.626,6.626,0,0,1,1881.578,2276.99Z" transform="translate(-1687.327 -1933.94)" fill="#f2e5de"/>
        <path id="Path_347" data-name="Path 347" d="M1989.974,2208.466h86.306a.722.722,0,0,0,.719-.719v-12.354a.722.722,0,0,0-.719-.719h-86.306a1.811,1.811,0,0,0-1.806,1.806v10.182A1.81,1.81,0,0,0,1989.974,2208.466Z" transform="translate(-1803.553 -1869.277)" fill="#7bcee8"/>
        <path id="Path_348" data-name="Path 348" d="M1989.193,2205.56h77.064a4.074,4.074,0,0,1,.857,2.455v4.215a4.072,4.072,0,0,1-.857,2.456h-77.064c-2.736,0-4.974-1.8-4.974-4v-1.134C1984.218,2207.357,1986.457,2205.56,1989.193,2205.56Z" transform="translate(-1792.821 -1877.829)" fill="#f2e5de"/>
        <g id="Group_228" data-name="Group 228" transform="translate(155.053)">
          <path id="Path_349" data-name="Path 349" d="M2041.153,723.842h87.417c2.788,0,4.237-2.28,3.223-5.068l-13.218-36.318a8.045,8.045,0,0,0-6.912-5.068h-87.417c-2.787,0-4.237,2.28-3.223,5.068l13.219,36.318A8.044,8.044,0,0,0,2041.153,723.842Z" transform="translate(-2020.699 -677.389)" fill="#75a1de"/>
          <path id="Path_350" data-name="Path 350" d="M2066.846,733.964h78.722c2.414,0,3.67-1.976,2.792-4.39L2137.414,699.5a6.966,6.966,0,0,0-5.986-4.389h-78.723c-2.414,0-3.67,1.975-2.792,4.389l10.946,30.073A6.967,6.967,0,0,0,2066.846,733.964Z" transform="translate(-2043.428 -691.311)" fill="#fff"/>
          <path id="Path_351" data-name="Path 351" d="M2113.164,884.151c7.25,19.144,18.41,25.056,18.41,25.056s-7.938-10.98-6.787-16.329a11.781,11.781,0,0,1,5.4-7.6Z" transform="translate(-2039.987 -839.809)" fill="#75a1de"/>
          <path id="Path_352" data-name="Path 352" d="M2221.142,733.653h50.747a1.026,1.026,0,0,0,.962-1.513l-.026-.071a2.4,2.4,0,0,0-2.064-1.513h-50.747a1.026,1.026,0,0,0-.962,1.513l.025.071A2.4,2.4,0,0,0,2221.142,733.653Z" transform="translate(-2204.048 -719.154)" fill="#75a1de"/>
          <path id="Path_353" data-name="Path 353" d="M2210.155,763.845H2260.9a1.026,1.026,0,0,0,.962-1.513l-.025-.071a2.4,2.4,0,0,0-2.064-1.513h-50.747a1.026,1.026,0,0,0-.962,1.513l.026.071A2.4,2.4,0,0,0,2210.155,763.845Z" transform="translate(-2190.703 -742.871)" fill="#75a1de"/>
          <path id="Path_354" data-name="Path 354" d="M2197.731,797.98h50.746a1.026,1.026,0,0,0,.963-1.513l-.026-.071a2.4,2.4,0,0,0-2.064-1.513H2196.6a1.026,1.026,0,0,0-.962,1.513l.026.071A2.4,2.4,0,0,0,2197.731,797.98Z" transform="translate(-2175.616 -769.685)" fill="#75a1de"/>
          <path id="Path_355" data-name="Path 355" d="M2108.01,732.674c2.009,5.519,7.292,9.994,11.8,9.994s6.536-4.475,4.527-9.994-7.294-9.995-11.8-9.995S2106,727.154,2108.01,732.674Z" transform="translate(-2032.255 -712.966)" fill="#75a1de"/>
        </g>
        <g id="Group_229" data-name="Group 229" transform="translate(193.728 134.026)">
          <path id="Path_356" data-name="Path 356" d="M2191.223,1309.217h4.333a1.12,1.12,0,0,0,1.053-1.656l-1.3-3.567a2.619,2.619,0,0,0-2.259-1.657h-4.332a1.121,1.121,0,0,0-1.054,1.657l1.3,3.567A2.621,2.621,0,0,0,2191.223,1309.217Z" transform="translate(-2159.758 -1302.336)" fill="#75a1de"/>
          <path id="Path_357" data-name="Path 357" d="M2256.031,1309.217h4.333a1.121,1.121,0,0,0,1.054-1.656l-1.3-3.567a2.62,2.62,0,0,0-2.259-1.657h-4.332a1.121,1.121,0,0,0-1.054,1.657l1.3,3.567A2.617,2.617,0,0,0,2256.031,1309.217Z" transform="translate(-2238.466 -1302.336)" fill="#75a1de"/>
          <path id="Path_358" data-name="Path 358" d="M2320.854,1309.217h4.332a1.121,1.121,0,0,0,1.053-1.656l-1.3-3.567a2.62,2.62,0,0,0-2.26-1.657h-4.332a1.121,1.121,0,0,0-1.053,1.657l1.3,3.567A2.621,2.621,0,0,0,2320.854,1309.217Z" transform="translate(-2317.189 -1302.336)" fill="#75a1de"/>
        </g>
        <g id="Group_230" data-name="Group 230" transform="translate(196.501 67.004)">
          <path id="Path_359" data-name="Path 359" d="M1552.642,1036.276h87.417c2.787,0,4.238-2.28,3.223-5.068l-13.218-36.318a8.045,8.045,0,0,0-6.912-5.068h-87.416c-2.787,0-4.238,2.281-3.223,5.068l13.218,36.318A8.042,8.042,0,0,0,1552.642,1036.276Z" transform="translate(-1468.871 -989.823)" fill="#75a1de"/>
          <path id="Path_360" data-name="Path 360" d="M1578.335,1046.4h78.722c2.414,0,3.671-1.975,2.792-4.389l-10.946-30.073a6.968,6.968,0,0,0-5.987-4.39h-78.723c-2.414,0-3.67,1.975-2.792,4.39l10.946,30.073A6.967,6.967,0,0,0,1578.335,1046.4Z" transform="translate(-1491.599 -1003.747)" fill="#fff"/>
          <path id="Path_361" data-name="Path 361" d="M1571.927,1196.59c6.687,19.145-.171,25.057-.171,25.057s-.055-10.98-5.1-16.329a33.061,33.061,0,0,0-10.931-7.6Z" transform="translate(-1405.169 -1152.247)" fill="#75a1de"/>
          <path id="Path_362" data-name="Path 362" d="M1640.781,1057.908H1683.6a.945.945,0,0,0,.886-1.393l-.113-.31a2.213,2.213,0,0,0-1.9-1.394h-42.822a.945.945,0,0,0-.886,1.394l.113.31A2.216,2.216,0,0,0,1640.781,1057.908Z" transform="translate(-1532.681 -1040.874)" fill="#75a1de"/>
          <path id="Path_363" data-name="Path 363" d="M1629.793,1088.1h42.821a.945.945,0,0,0,.887-1.394l-.113-.31a2.214,2.214,0,0,0-1.9-1.393h-42.821a.945.945,0,0,0-.887,1.393l.113.31A2.213,2.213,0,0,0,1629.793,1088.1Z" transform="translate(-1519.337 -1064.587)" fill="#75a1de"/>
          <path id="Path_364" data-name="Path 364" d="M1617.361,1122.225h42.822a.945.945,0,0,0,.887-1.394l-.113-.31a2.214,2.214,0,0,0-1.9-1.394h-42.822a.945.945,0,0,0-.886,1.394l.113.31A2.207,2.207,0,0,0,1617.361,1122.225Z" transform="translate(-1504.238 -1091.397)" fill="#75a1de"/>
          <path id="Path_365" data-name="Path 365" d="M1929.4,1386.757h84.372c1.51,0,2.3-.627,1.747-1.394l-.222-.309a5.181,5.181,0,0,0-3.745-1.394h-84.372c-1.51,0-2.3.626-1.746,1.394l.222.309A5.191,5.191,0,0,0,1929.4,1386.757Z" transform="translate(-1925.261 -1299.198)" fill="#75a1de"/>
          <path id="Path_366" data-name="Path 366" d="M1907.753,1436.637h84.372c1.51,0,2.3-.627,1.746-1.394l-.222-.309a5.183,5.183,0,0,0-3.745-1.394h-84.372c-1.51,0-2.3.627-1.746,1.394l.221.309A5.182,5.182,0,0,0,1907.753,1436.637Z" transform="translate(-1898.967 -1338.381)" fill="#75a1de"/>
          <path id="Path_367" data-name="Path 367" d="M1878.687,1061.863h6.194c2.787,0,4.238-2.28,3.224-5.067l-4.612-12.669a8.045,8.045,0,0,0-6.912-5.068h-6.194c-2.787,0-4.238,2.28-3.224,5.068l4.611,12.669A8.044,8.044,0,0,0,1878.687,1061.863Z" transform="translate(-1785.462 -1028.5)" fill="#75a1de"/>
        </g>
        <g id="Group_240" data-name="Group 240" transform="translate(0 8.774)">
          <path id="Path_368" data-name="Path 368" d="M2590.44,1350.6c-11.244-61.7-8.782-83.764,21.335-134.123s32.992-144.074,44.344-116.588,9.825,96.512-25.755,130.009-40.368,48.5-42.48,62.131,5.08,55.54,5.08,55.54Z" transform="translate(-2516.792 -1014.169)" fill="#9cd499"/>
          <path id="Path_369" data-name="Path 369" d="M2584.312,1311.047c-.018-.237-.034-.471-.051-.707.66-5.062,4.235-31.094,9.18-41.365,5.49-11.4,29.561-31.251,36.318-56.166s17.467-44.228,24.493-59.967c9.277-20.781,4.206-48.407-3.464-57.381a1.888,1.888,0,0,1,.561-.257l2.547,1.539a18.047,18.047,0,0,1,1.728,3.353c11.352,27.486,9.825,96.512-25.754,130.009s-40.368,48.5-42.481,62.131c-.57,3.677-.462,9.414,0,15.829Z" transform="translate(-2516.296 -1014.373)" fill="#74b570"/>
          <path id="Path_370" data-name="Path 370" d="M2866.223,1043.852c-8.366-72.5-5.578-97.6,10.6-155.6s-89.235-190.182-85.888-167.315,14.5,79.753,43.5,115.448,31.232,64.7,25.655,95.37,1.115,102.062,1.115,102.062l3.346,12.828Z" transform="translate(-2777.205 -718.303)" fill="#9cd499"/>
          <g id="Group_231" data-name="Group 231" transform="translate(19.01 8.12)">
            <path id="Path_371" data-name="Path 371" d="M2880.951,1043.467h.028a.7.7,0,0,0,.673-.726c-.009-.224-.839-22.574-.422-40.921.417-18.364,5.394-49.83,8.42-60.639,2.757-9.842,6.224-42.85-10.6-76.935-8.381-16.978-15.071-27.712-24.33-42.569-9.151-14.683-20.541-32.959-38.61-65.151a.7.7,0,0,0-1.22.685c18.084,32.22,29.484,50.51,38.642,65.206,9.238,14.823,15.912,25.533,24.264,42.449,16.632,33.691,13.226,66.24,10.511,75.938-3.045,10.876-8.053,42.523-8.472,60.984-.418,18.39.415,40.782.423,41.006A.7.7,0,0,0,2880.951,1043.467Z" transform="translate(-2814.795 -756.168)" fill="#74b570"/>
          </g>
          <path id="Path_372" data-name="Path 372" d="M2857.274,1581.721c-5.02-48.521-5.859-24.592,14.986-90.519,23.858-75.455-61.277-142.442-75.22-115.114s-30.117,113.217-23.981,110.428,46.848-82.542,47.964-79.2,55.214,31.233,52.983,59.676-22.866,73.619-22.866,73.619l.558,41.663Z" transform="translate(-2771.046 -1230.126)" fill="#9cd499"/>
          <g id="Group_232" data-name="Group 232" transform="translate(0 139.035)">
            <path id="Path_373" data-name="Path 373" d="M2849.1,1579.158a.677.677,0,0,0,.07,0l5.578-.558a.7.7,0,0,0,.626-.768c-.58-5.606-1.115-10.326-1.546-14.12-2.336-20.6-2.336-20.6,4.058-38.248,2.889-7.975,6.846-18.9,12.444-36.6a90.2,90.2,0,0,0,3.215-40.785,104.544,104.544,0,0,0-12.432-35.708c-11.042-19.735-28.421-36.686-44.273-43.184-11.017-4.516-19.408-3.046-23.021,4.033-5.918,11.6-12.994,35.352-18.928,63.536-3.425,16.265-8.458,44.591-5.6,47.582a1.237,1.237,0,0,0,1.459.267c3.347-1.522,14.429-21.077,29.718-48.537,7.666-13.767,15.576-27.974,17.713-30.423.861.956,3.033,2.453,7.535,5.507,15.154,10.278,46.686,31.666,44.994,53.241-2.2,27.992-22.6,72.932-22.805,73.383a.706.706,0,0,0-.064.3l.558,40.4a.7.7,0,0,0,.234.513A.69.69,0,0,0,2849.1,1579.158Zm4.808-1.885-4.12.412-.545-39.478c1.287-2.848,20.71-46.268,22.862-73.711,1.756-22.386-30.232-44.082-45.6-54.509-3.652-2.477-7.1-4.817-7.421-5.462a.813.813,0,0,0-.7-.558c-1.353-.126-4.026,4.278-19.137,31.415-10.844,19.474-25.664,46.092-29,47.906-.257-.418-1.016-2.7.46-14.481,1.067-8.515,3.024-19.719,5.509-31.545,5.919-28.17,12.968-51.874,18.853-63.41,3.24-6.35,10.984-7.58,21.243-3.374,27.8,11.4,70.4,61.951,52.686,117.96-5.589,17.677-9.541,28.583-12.426,36.547-6.506,17.957-6.506,17.957-4.133,38.882C2852.875,1567.687,2853.364,1572,2853.913,1577.273Z" transform="translate(-2768.452 -1366.607)" fill="#74b570"/>
          </g>
          <path id="Path_374" data-name="Path 374" d="M2780.862,2104.906h25.309c1.74,0,3.3-.989,3.458-2.221l8.5-63.934c.393-2.949-1.558-5.434-4.344-5.434h-40.546c-2.788,0-4.737,2.485-4.344,5.434l8.5,63.934C2777.567,2103.918,2779.123,2104.906,2780.862,2104.906Z" transform="translate(-2712.162 -1751.3)" fill="#7bcee8"/>
          <path id="Path_375" data-name="Path 375" d="M2906.58,2127.595h3.624c1.772,0,3.2-1.026,3.169-2.3l-1.28-55.226a5.156,5.156,0,0,0-5-5.059h-5.5a4.421,4.421,0,0,0-4.349,5.059l5.871,55.226C2903.25,2126.57,2904.809,2127.595,2906.58,2127.595Z" transform="translate(-2834.88 -1776.193)" fill="#a2dff2"/>
          <g id="Group_233" data-name="Group 233" transform="translate(49.625 175.916)">
            <path id="Path_376" data-name="Path 376" d="M2787.5,1873.3l-.447-.779a160.229,160.229,0,0,0,3.885-17.324A88.327,88.327,0,0,1,2787.5,1873.3Z" transform="translate(-2738.44 -1787.297)" fill="#74b570"/>
            <path id="Path_377" data-name="Path 377" d="M2837.223,1577.848a52.092,52.092,0,0,1,3.2,12.629c-7.47-24.526-49.073-46.666-51.776-50.4l-.479-.939C2803.791,1534.774,2828.777,1556.733,2837.223,1577.848Z" transform="translate(-2788.166 -1538.578)" fill="#74b570"/>
          </g>
          <g id="Group_234" data-name="Group 234" transform="translate(1.275 150.091)">
            <path id="Path_378" data-name="Path 378" d="M2792.637,1522.948a.7.7,0,0,0,.679-.533l7.559-30.754c5.9-24.1,13.249-54.091,21.5-67.442,1.36-2.2,7.3-5.178,15.709-4.584,11.368.8,33.281,8.659,52.312,52.217a.7.7,0,1,0,1.283-.56c-19.326-44.233-41.812-52.225-53.5-53.053-9.088-.639-15.414,2.68-17,5.246-8.362,13.539-15.429,42.39-21.664,67.844l-7.559,30.753a.7.7,0,0,0,.513.847A.733.733,0,0,0,2792.637,1522.948Z" transform="translate(-2791.937 -1418.159)" fill="#74b570"/>
          </g>
          <g id="Group_235" data-name="Group 235" transform="translate(22.818 160.994)">
            <path id="Path_379" data-name="Path 379" d="M3130.975,1522.765a.664.664,0,0,0,.082,0,.7.7,0,0,0,.615-.776c-.03-.252-2.862-25.531,3.784-52.115a.7.7,0,0,0-1.358-.339c-6.71,26.841-3.847,52.361-3.817,52.616A.7.7,0,0,0,3130.975,1522.765Z" transform="translate(-3129.648 -1469)" fill="#74b570"/>
          </g>
          <g id="Group_236" data-name="Group 236" transform="translate(29.748 155.082)">
            <path id="Path_380" data-name="Path 380" d="M3113.15,1485.487a.736.736,0,0,0,.083,0,.7.7,0,0,0,.613-.777c-.028-.232-2.714-23.378-.843-42.5a.7.7,0,0,0-1.394-.137c-1.886,19.278.818,42.57.847,42.8A.7.7,0,0,0,3113.15,1485.487Z" transform="translate(-3110.942 -1441.434)" fill="#74b570"/>
          </g>
          <g id="Group_237" data-name="Group 237" transform="translate(25.768 41.907)">
            <path id="Path_381" data-name="Path 381" d="M3019.679,946.781a.7.7,0,0,0,.3-1.331c-.2-.1-20.209-9.882-31.782-31.373a.7.7,0,1,0-1.232.664c11.8,21.907,32.2,31.874,32.408,31.972A.684.684,0,0,0,3019.679,946.781Z" transform="translate(-2986.885 -913.709)" fill="#74b570"/>
          </g>
          <g id="Group_238" data-name="Group 238" transform="translate(36.325 79.492)">
            <path id="Path_382" data-name="Path 382" d="M2954.988,1109.789a.7.7,0,0,0,.14-1.385c-.164-.033-16.553-3.545-36.018-19.284a.7.7,0,1,0-.881,1.088c19.752,15.97,36.45,19.534,36.617,19.568A.7.7,0,0,0,2954.988,1109.789Z" transform="translate(-2917.97 -1088.963)" fill="#74b570"/>
          </g>
          <g id="Group_239" data-name="Group 239" transform="translate(55.329 110.318)">
            <path id="Path_383" data-name="Path 383" d="M2889.118,1247.206c.287,0,.458-.01.507-.014a.7.7,0,0,0-.1-1.4c-.113.009-11.408.624-29.512-12.953a.7.7,0,1,0-.84,1.12C2875.794,1246.432,2886.671,1247.206,2889.118,1247.206Z" transform="translate(-2858.891 -1232.703)" fill="#74b570"/>
          </g>
        </g>
      </g>
    </g>
  </g>
</svg>
